<?xml version="1.0" encoding="utf-8"?>
<!-- Generator: Adobe Illustrator 19.0.0, SVG Export Plug-In . SVG Version: 6.00 Build 0)  -->
<svg version="1.1" id="box1" xmlns="http://www.w3.org/2000/svg" xmlns:xlink="http://www.w3.org/1999/xlink" x="0px" y="0px"
	 viewBox="69 68.4 750 657.6" style="enable-background:new 69 68.4 750 657.6;" xml:space="preserve">
<style type="text/css">
	.st0{fill:#4760F0;}
	.st1{fill:#244EB2;}
	.st2{fill:#FFFFFF;}
	.st3{fill:#FFCF33;}
	.st4{fill:#D3DFD7;}
	.st5{fill:#FE6538;}
	.st6{fill:none;stroke:#FFFFFF;stroke-width:2;stroke-miterlimit:10;}
	.st7{fill:#F73948;}
	.st8{fill:#F9ED32;}
	.st9{fill:#191919;}
</style>
<g id="blueBg">
	<rect id="XMLID_589_" x="70" y="67.7" class="st0" width="749" height="586.4"/>
</g>
<g id="hogwarts">
	<g id="XMLID_118_">
		<g id="XMLID_120_">
			<path id="XMLID_144_" class="st1" d="M761.9,91.3c1,0,1.7-0.8,1.7-1.7c0-0.8-0.5-1.4-1.2-1.6l-0.6-5.4l-0.6,5.4
				c-0.7,0.2-1.2,0.9-1.2,1.6C760.2,90.5,761,91.3,761.9,91.3z"/>
			<circle id="XMLID_142_" class="st1" cx="494.4" cy="110.7" r="1.7"/>
			<polygon id="XMLID_141_" class="st1" points="494.4,102.7 494.2,108.9 494.4,108.9 494.6,108.9 			"/>
			<path id="XMLID_129_" class="st1" d="M819,196.1v-34.6l-3-23l-4.9,23h1v34.3l-4.4,7.3h-5.3v2.5h0.6v2.8h1.4l-1.4,2.4h-5.3v2.5
				h0.6v0.2h-0.7v-57h4.1l-16.6-58.4h4.6v6.2h-0.9l3.2,7.6l3.2-7.6h-0.9V91.2h1.1v7.5h-0.9l3.2,7.6l3.2-7.6H800V84.2h1.1V93h-0.9
				l3.2,7.6l3.2-7.6h-0.9V75.7h0.9l-3.2-7.6l-3.3,7.6h0.9v4.5h-0.7l-2.7-6.4l-3.2,7.6h0.9v5.7h-1.1V87h0.9l-3.2-7.6l-3.2,7.6h0.9v7
				h-5.7l-7.4-26h-1.4l-25.2,88.4h4.1v49h-7.3v-2.7h0.7l-3.2-11.2l-3.2,11.2h0.7v2.9h-3.1v-5.2h1.2v-2.8h-5.5v2.8h1.2v5.2h-4.4
				l-2.5-5.8l-0.9-5.7v0.2l0.6,3.1h1.5v-3.1h0.7v-2.8h-3.2l-1.2-7.4l0.5,2.6l0.6,3.1h1.5v-3.1h0.7v-2.8h-3.2l-4.2-25l-6.3,40.9
				l-2.5,5.8h-4.7l-0.4-1l0.1-0.5h-0.3l-1.8-4.2l-0.9-5.7v0.2l0.6,3.1h1.5v-3.1h0.7v-2.8h-3.2l-1.2-7.4l0.5,2.6l0.6,3.1h1.5v-3.1
				h0.7V184h-3.2l-3.9-25.1l-3.9,25.2H693v2.5h0.6v2.8h1.4l0.5-2.6l-0.6,4.1H692v2.5h0.6v2.8h1.4l0.1-0.4l-0.6,3.8l-2.7,6.3h14.6
				l0,0h-14.6v5.8l2.7,3.8V228h-29.8v-6.1h3.3v-15.4h-7.7l3.1-3.8v-15.1h1.1L652,174.4L640.6,188h1.1v3.6l-26.4,17.5v-8l2.8-1.7
				v-6.7h1l-10.3-12.4l0,0v-15.8h2.7v-2.3h-3.2V155l-4.6-11.9H602v-15.8h1.7L600,115l-3.6,12.4h1.7v15.7h-16.9l-1-3.6V95.7V80.6h1.3
				v-2.4h-6.2v2.4h1v15.1h-6.6l-0.8-4.5l-0.9,4.5h-10.8v42.8l-3.6,12.4h-29v-1.8h1.7l-3.6-17l-3.6,17h1.7v1.8h-25v-0.3h1.7
				l-3.6-12.4l-1.4,4.8L483,92.1v1.6l-0.2-0.8v-0.8l-0.1,0.5l-0.3-1.4l-2.1,10.7l0,0l-7.9,41.3l-1.5-5l-3.6,12.4h1.7v15.5h-2.9v1.5
				h0.7v50.5h-0.7v1.5h0.7v19.9c-0.5,0.1-0.9,0.3-1.4,0.4h-2.7v0.8c-6.9,1.9-10.8,2.3-19.3,0.5c-2.8-0.6-4.9,3.2-7.5,4.8
				c-4.1,2.6-13.8,4.7-15,11.2c-0.6,3.1-1.2,6.1-1.7,9.2c-9.6,8.6-21.3,15.6-24.2,20c-37.8,58.9-156.6,76.8-184.4,80.2H69v360.1h750
				V196.1z M795.2,215.1h3.1v1.1h1.5l-3.7,6.1h-0.9L795.2,215.1L795.2,215.1z"/>
		</g>
	</g>
</g>
<g id="magical">
	<path id="XMLID_6001_" class="st2" d="M130.2,153h-4.6v14.4h-4.1V153h-4.6v-3.1h13.3V153z"/>
	<path id="XMLID_6003_" class="st2" d="M146.4,167.4h-4.1v-7.1h-6.5v7.1h-4.1v-17.6h4.1v7.4h6.5v-7.4h4.1V167.4z"/>
	<path id="XMLID_6005_" class="st2" d="M159.5,159.9h-6.2v4.4h7.4v3.1h-11.5v-17.6h11.5v3.1h-7.4v3.8h6.2V159.9z"/>
	<path id="XMLID_6007_" class="st2" d="M178.4,162.1L178.4,162.1l4-12.3h5.4v17.5h-4.1v-11.2h-0.1l-3.9,11.3H177l-3.8-11.1h-0.1
		v11.1H169v-17.6h5.3L178.4,162.1z"/>
	<path id="XMLID_6009_" class="st2" d="M200,164h-5.2l-1,3.4h-4.3l5.7-17.5h2.2l0,0l0,0h2.2l5.7,17.5H201L200,164z M195.8,160.8h3.3
		l-1.6-5.4h-0.1L195.8,160.8z"/>
	<path id="XMLID_6012_" class="st2" d="M220.3,165c-0.6,0.7-1.5,1.4-2.6,1.9s-2.5,0.8-4.3,0.8c-2.2,0-3.9-0.7-5.3-2
		c-1.4-1.3-2-3.1-2-5.2v-3.7c0-2.1,0.7-3.8,2-5.2c1.3-1.3,3-2,5.1-2c2.2,0,3.9,0.5,5.1,1.5s1.7,2.4,1.7,4.1v0.1h-3.8
		c0-0.9-0.2-1.5-0.7-1.9s-1.1-0.6-2.1-0.6c-0.9,0-1.7,0.4-2.3,1.1s-0.9,1.7-0.9,2.9v3.7c0,1.2,0.3,2.2,0.9,2.9
		c0.6,0.7,1.4,1.1,2.4,1.1c0.7,0,1.3-0.1,1.8-0.2c0.5-0.1,0.8-0.3,1-0.5v-3.1h-3.1V158h7.2L220.3,165L220.3,165z"/>
	<path id="XMLID_6014_" class="st2" d="M227.1,167.4H223v-17.6h4.1V167.4z"/>
	<path id="XMLID_6016_" class="st2" d="M243.6,161.5L243.6,161.5c0.1,2.1-0.5,3.6-1.7,4.6s-2.8,1.5-4.9,1.5c-2.2,0-3.9-0.7-5.2-2
		c-1.3-1.3-2-3.1-2-5.2v-3.7c0-2.1,0.6-3.9,1.9-5.2c1.3-1.3,2.9-2,5-2c2.2,0,3.9,0.5,5.2,1.6s1.8,2.5,1.8,4.5v0.1h-4
		c0-1.1-0.2-1.8-0.7-2.3s-1.2-0.7-2.3-0.7c-0.9,0-1.6,0.4-2.1,1.1c-0.5,0.7-0.7,1.7-0.7,2.9v3.7c0,1.2,0.3,2.2,0.8,3
		c0.5,0.7,1.3,1.1,2.3,1.1c0.9,0,1.6-0.2,2-0.7s0.6-1.2,0.6-2.3L243.6,161.5L243.6,161.5z"/>
	<path id="XMLID_6018_" class="st2" d="M255.1,164h-5.2l-1,3.4h-4.3l5.7-17.5h2.2l0,0l0,0h2.2l5.7,17.5h-4.3L255.1,164z
		 M250.8,160.8h3.3l-1.6-5.4h-0.1L250.8,160.8z"/>
	<path id="XMLID_6021_" class="st2" d="M265.7,164.3h7.5v3.1h-11.6v-17.6h4.1V164.3z"/>
	<path id="XMLID_6023_" class="st2" d="M295.7,161.2L295.7,161.2l2.2-11.4h4.1l-4,17.5h-3.8l-3-10.8h-0.1l-2.9,10.8h-3.8l-4-17.5
		h4.1l2.1,11.4h0.1l3-11.4h3.1L295.7,161.2z"/>
	<path id="XMLID_6025_" class="st2" d="M318.1,160.2c0,2.2-0.7,3.9-2.1,5.3c-1.4,1.4-3.2,2.1-5.4,2.1s-4-0.7-5.4-2.1
		c-1.4-1.4-2.1-3.2-2.1-5.3V157c0-2.2,0.7-3.9,2.1-5.3c1.4-1.4,3.2-2.1,5.4-2.1s4,0.7,5.4,2.1c1.4,1.4,2.1,3.2,2.1,5.3V160.2z
		 M314.1,157c0-1.3-0.3-2.3-0.9-3.1c-0.6-0.8-1.4-1.2-2.5-1.2s-1.9,0.4-2.5,1.2c-0.6,0.8-0.9,1.8-0.9,3.1v3.2c0,1.3,0.3,2.3,0.9,3.1
		c0.6,0.8,1.4,1.2,2.5,1.2s1.9-0.4,2.5-1.2c0.6-0.8,0.9-1.8,0.9-3.1V157z"/>
	<path id="XMLID_6028_" class="st2" d="M324.7,160.7v6.7h-4.1v-17.6h6.1c2,0,3.6,0.5,4.8,1.4c1.2,0.9,1.8,2.2,1.8,3.9
		c0,0.9-0.2,1.7-0.7,2.3c-0.5,0.7-1.2,1.2-2.1,1.6c1.1,0.3,1.8,0.8,2.3,1.5c0.5,0.7,0.7,1.6,0.7,2.7v1.1c0,0.5,0.1,1,0.2,1.6
		s0.4,1,0.7,1.3v0.2h-4.2c-0.3-0.2-0.5-0.7-0.6-1.3s-0.1-1.2-0.1-1.8v-1.1c0-0.8-0.2-1.5-0.7-1.9s-1.1-0.7-1.9-0.7L324.7,160.7
		L324.7,160.7z M324.7,157.5h2.1c0.8,0,1.4-0.2,1.9-0.6c0.5-0.4,0.7-0.9,0.7-1.6c0-0.7-0.2-1.3-0.7-1.7c-0.4-0.4-1.1-0.7-1.9-0.7h-2
		L324.7,157.5L324.7,157.5z"/>
	<path id="XMLID_6031_" class="st2" d="M340.4,164.3h7.5v3.1h-11.6v-17.6h4.1V164.3z"/>
	<path id="XMLID_6033_" class="st2" d="M350.1,167.4v-17.6h6.4c2.1,0,3.8,0.7,5.2,2c1.4,1.3,2.1,3.1,2.1,5.2v3.2
		c0,2.1-0.7,3.8-2.1,5.2c-1.4,1.3-3.1,2-5.2,2C356.5,167.4,350.1,167.4,350.1,167.4z M354.2,153v11.3h2.3c0.9,0,1.7-0.4,2.3-1.1
		c0.6-0.8,0.9-1.7,0.9-2.9v-3.2c0-1.2-0.3-2.1-0.9-2.9s-1.4-1.1-2.3-1.1L354.2,153L354.2,153z"/>
	<path id="XMLID_6036_" class="st2" d="M387,160.2c0,2.2-0.7,3.9-2.1,5.3c-1.4,1.4-3.2,2.1-5.4,2.1c-2.2,0-4-0.7-5.4-2.1
		c-1.4-1.4-2.1-3.2-2.1-5.3V157c0-2.2,0.7-3.9,2.1-5.3s3.2-2.1,5.4-2.1c2.2,0,4,0.7,5.4,2.1c1.4,1.4,2.1,3.2,2.1,5.3V160.2z
		 M382.9,157c0-1.3-0.3-2.3-0.9-3.1c-0.6-0.8-1.4-1.2-2.5-1.2s-1.9,0.4-2.5,1.2c-0.6,0.8-0.9,1.8-0.9,3.1v3.2c0,1.3,0.3,2.3,0.9,3.1
		c0.6,0.8,1.4,1.2,2.5,1.2s1.9-0.4,2.5-1.2c0.6-0.8,0.9-1.8,0.9-3.1V157z"/>
	<path id="XMLID_6039_" class="st2" d="M400,160.3h-6.4v7.1h-4.1v-17.6h11.7v3.1h-7.7v4.2h6.4v3.2H400z"/>
</g>
<g id="harry">
	<path id="XMLID_5972_" class="st3" d="M173,253.6h-15v-26.1h-24v26.1h-15v-64.9h15v27.2h24v-27.2h15V253.6z"/>
	<path id="XMLID_5974_" class="st3" d="M218,241h-19.3l-3.7,12.6h-15.8l21.1-64.8h8.1l0,0l0,0h8.1l21.2,64.8h-15.8L218,241z
		 M202.2,229.4h12.3l-6.1-20.1h-0.3L202.2,229.4z"/>
	<path id="XMLID_5977_" class="st3" d="M257.4,228.7v24.8h-15v-64.8H265c7.5,0,13.5,1.7,17.9,5.2s6.6,8.2,6.6,14.2
		c0,3.4-0.9,6.2-2.6,8.6c-1.8,2.4-4.4,4.4-7.8,5.9c4,1.1,6.8,3,8.6,5.6c1.7,2.6,2.6,5.9,2.6,9.8v4.1c0,1.7,0.3,3.6,0.8,5.8
		c0.5,2.2,1.4,3.7,2.6,4.6v0.9h-15.5c-1.2-0.9-2-2.5-2.3-4.9c-0.4-2.3-0.5-4.5-0.5-6.5v-3.9c0-3.1-0.8-5.4-2.4-7.1
		c-1.6-1.6-4-2.4-7.2-2.4L257.4,228.7L257.4,228.7z M257.4,217.1h7.6c3,0,5.3-0.7,6.9-2.1c1.6-1.4,2.4-3.4,2.4-5.9
		c0-2.6-0.8-4.8-2.5-6.4c-1.6-1.6-4-2.4-7-2.4h-7.5v16.8L257.4,217.1L257.4,217.1z"/>
	<path id="XMLID_5980_" class="st3" d="M315.5,228.7v24.8h-15v-64.8H323c7.5,0,13.5,1.7,17.9,5.2s6.6,8.2,6.6,14.2
		c0,3.4-0.9,6.2-2.6,8.6c-1.8,2.4-4.4,4.4-7.8,5.9c4,1.1,6.8,3,8.6,5.6c1.7,2.6,2.6,5.9,2.6,9.8v4.1c0,1.7,0.3,3.6,0.8,5.8
		c0.5,2.2,1.4,3.7,2.6,4.6v0.9H336c-1.2-0.9-2-2.5-2.3-4.9c-0.4-2.3-0.5-4.5-0.5-6.5v-3.9c0-3.1-0.8-5.4-2.4-7.1
		c-1.6-1.6-4-2.4-7.2-2.4L315.5,228.7L315.5,228.7z M315.5,217.1h7.6c3,0,5.3-0.7,6.9-2.1c1.6-1.4,2.4-3.4,2.4-5.9
		c0-2.6-0.8-4.8-2.5-6.4c-1.6-1.6-4-2.4-7-2.4h-7.5v16.8L315.5,217.1L315.5,217.1z"/>
	<path id="XMLID_5983_" class="st3" d="M380.2,217.1h0.3l12.9-28.3h16.3l-22,42v22.8h-15v-23.5l-21.6-41.4h16.3L380.2,217.1z"/>
</g>
<g id="potter">
	<path id="XMLID_5985_" class="st3" d="M134,315.7v22.2h-15v-64.8h24.8c7.7,0,13.8,2,18.3,5.9s6.8,9.1,6.8,15.4
		c0,6.4-2.3,11.5-6.8,15.4s-10.6,5.9-18.3,5.9H134L134,315.7z M134,304.1h9.7c3.3,0,5.8-0.9,7.5-2.7s2.6-4.1,2.6-6.9
		c0-2.9-0.9-5.2-2.6-7.1c-1.7-1.8-4.2-2.8-7.5-2.8H134V304.1z"/>
	<path id="XMLID_5988_" class="st3" d="M231,311.3c0,8-2.5,14.6-7.6,19.7c-5.1,5.2-11.7,7.8-19.8,7.8c-8.2,0-14.9-2.6-20-7.8
		s-7.7-11.8-7.7-19.7v-11.7c0-8,2.5-14.5,7.6-19.7s11.7-7.8,19.9-7.8c8.1,0,14.7,2.6,19.9,7.8c5.1,5.2,7.7,11.8,7.7,19.7L231,311.3
		L231,311.3z M216,299.5c0-4.6-1.1-8.4-3.3-11.4s-5.3-4.5-9.2-4.5c-4.1,0-7.2,1.5-9.3,4.4c-2.2,3-3.2,6.8-3.2,11.4v11.8
		c0,4.7,1.1,8.5,3.3,11.5s5.3,4.5,9.4,4.5c3.9,0,7-1.5,9.2-4.5s3.3-6.8,3.3-11.5v-11.7L216,299.5L216,299.5z"/>
	<path id="XMLID_5991_" class="st3" d="M284,284.6h-17.1v53.2h-15v-53.2H235V273h49V284.6z"/>
	<path id="XMLID_5993_" class="st3" d="M335.9,284.6h-17.1v53.2h-15v-53.2H287V273h49v11.6H335.9z"/>
	<path id="XMLID_5995_" class="st3" d="M379.9,310.1h-22.8v16.2h27.4v11.6H342v-64.8h42.5v11.6h-27.4v13.9h22.8V310.1z"/>
	<path id="XMLID_5997_" class="st3" d="M408,313v24.8h-15V273h22.6c7.5,0,13.5,1.7,17.9,5.2s6.6,8.2,6.6,14.2c0,3.4-0.9,6.2-2.6,8.6
		c-1.8,2.4-4.4,4.4-7.8,5.9c4,1.1,6.8,3,8.6,5.6c1.7,2.6,2.6,5.9,2.6,9.8v4.1c0,1.7,0.3,3.6,0.8,5.8s1.4,3.7,2.6,4.6v0.9h-15.5
		c-1.2-0.9-2-2.5-2.3-4.9c-0.4-2.3-0.5-4.5-0.5-6.5v-3.9c0-3.1-0.8-5.4-2.4-7.1c-1.6-1.6-4-2.4-7.2-2.4L408,313L408,313z M408,301.5
		h7.6c3,0,5.3-0.7,6.9-2.1s2.4-3.4,2.4-5.9c0-2.6-0.8-4.8-2.5-6.4c-1.6-1.6-4-2.4-7-2.4H408V301.5z"/>
</g>
<g id="curiosities">
	<path id="XMLID_5929_" class="st2" d="M126.2,378.6h-6.6l-1.3,4.3h-5.4l7.2-22.2h2.8l0,0l0,0h2.8l7.3,22.2h-5.4L126.2,378.6z
		 M120.8,374.6h4.2l-2.1-6.9h-0.1L120.8,374.6z"/>
	<path id="XMLID_5932_" class="st2" d="M153,382.9h-5.1l-8.1-14h-0.1v13.9h-5.2v-22.1h5.2l8.1,14h0.1v-14h5.1V382.9z"/>
	<path id="XMLID_5934_" class="st2" d="M156.5,382.9v-22.2h8.1c2.6,0,4.8,0.9,6.6,2.6s2.6,3.9,2.6,6.6v4c0,2.7-0.9,4.9-2.6,6.6
		c-1.8,1.7-3.9,2.5-6.6,2.5L156.5,382.9L156.5,382.9z M161.7,364.7V379h3c1.2,0,2.1-0.5,2.9-1.4c0.8-1,1.1-2.2,1.1-3.7v-4
		c0-1.5-0.4-2.7-1.1-3.7c-0.8-1-1.7-1.4-2.9-1.4L161.7,364.7L161.7,364.7z"/>
	<path id="XMLID_5937_" class="st2" d="M190.2,382.9H185v-22.2h5.1L190.2,382.9L190.2,382.9z"/>
	<path id="XMLID_5939_" class="st2" d="M209.1,364.7h-5.9v18.2H198v-18.2h-5.8v-4H209v4H209.1z"/>
	<path id="XMLID_5941_" class="st2" d="M215.9,365.2l-1.6,3.8h-2.5v-8.3h4.1V365.2z"/>
	<path id="XMLID_5943_" class="st2" d="M231.4,377c0-0.8-0.3-1.4-0.8-1.8s-1.5-0.9-2.8-1.3c-2.8-0.9-4.8-1.8-6.1-2.9s-2-2.5-2-4.4
		s0.8-3.4,2.3-4.5s3.5-1.7,5.9-1.7c2.5,0,4.6,0.6,6.1,1.8s2.3,2.9,2.2,5v0.1h-5c0-1-0.3-1.8-0.9-2.3c-0.6-0.5-1.4-0.7-2.6-0.7
		c-0.9,0-1.7,0.2-2.2,0.7s-0.8,1-0.8,1.7s0.3,1.2,0.8,1.6c0.6,0.4,1.6,0.9,3.1,1.5c2.6,0.8,4.5,1.7,5.8,2.8s2,2.6,2,4.5
		c0,2-0.8,3.5-2.3,4.6s-3.5,1.7-6.1,1.7c-2.5,0-4.6-0.6-6.4-1.8c-1.8-1.2-2.6-3-2.5-5.6v-0.1h5c0,1.3,0.3,2.2,1,2.8
		c0.6,0.5,1.6,0.8,2.9,0.8c1.1,0,1.9-0.2,2.4-0.6C231.1,378.3,231.4,377.7,231.4,377z"/>
	<path id="XMLID_5945_" class="st2" d="M264.2,375.4L264.2,375.4c0.1,2.6-0.6,4.5-2.1,5.8s-3.6,2-6.2,2c-2.7,0-5-0.8-6.6-2.5
		c-1.7-1.7-2.5-3.9-2.5-6.6v-4.6c0-2.7,0.8-4.9,2.4-6.6c1.6-1.7,3.7-2.5,6.4-2.5c2.8,0,5,0.7,6.5,2s2.3,3.2,2.3,5.7v0.1h-5
		c0-1.4-0.3-2.3-0.9-2.9s-1.5-0.9-2.9-0.9c-1.2,0-2,0.5-2.7,1.4c-0.6,0.9-0.9,2.2-0.9,3.7v4.7c0,1.6,0.3,2.8,1,3.7s1.7,1.4,2.9,1.4
		s2-0.3,2.6-0.9c0.5-0.6,0.8-1.6,0.8-3L264.2,375.4L264.2,375.4z"/>
	<path id="XMLID_5947_" class="st2" d="M285.3,360.7v14.4c0,2.5-0.8,4.5-2.5,6c-1.7,1.4-3.9,2.2-6.6,2.2s-5-0.7-6.6-2.2
		c-1.7-1.4-2.5-3.4-2.5-6v-14.4h5.2v14.4c0,1.4,0.4,2.4,1.1,3.1s1.7,1.1,3,1.1s2.2-0.3,2.9-1c0.7-0.7,1-1.7,1-3.1v-14.5H285.3z"/>
	<path id="XMLID_5949_" class="st2" d="M293.8,374.4v8.5h-5.2v-22.2h7.7c2.6,0,4.6,0.6,6.1,1.8s2.3,2.8,2.3,4.9c0,1.1-0.3,2.1-0.9,3
		c-0.6,0.8-1.5,1.5-2.7,2c1.4,0.4,2.3,1,2.9,1.9s0.9,2,0.9,3.4v1.4c0,0.6,0.1,1.2,0.3,2s0.5,1.3,0.9,1.6v0.3h-5.3
		c-0.4-0.3-0.7-0.9-0.8-1.7c-0.1-0.8-0.2-1.5-0.2-2.2v-1.4c0-1.1-0.3-1.9-0.8-2.4c-0.6-0.6-1.4-0.8-2.5-0.8L293.8,374.4L293.8,374.4
		L293.8,374.4z M293.8,370.4h2.6c1,0,1.8-0.2,2.4-0.7c0.5-0.5,0.8-1.2,0.8-2c0-0.9-0.3-1.6-0.8-2.2c-0.6-0.6-1.4-0.8-2.4-0.8h-2.6
		V370.4z"/>
	<path id="XMLID_5952_" class="st2" d="M314.1,382.9H309v-22.2h5.1V382.9z"/>
	<path id="XMLID_5954_" class="st2" d="M332.9,364.7H327v18.2h-5.2v-18.2H316v-4h16.8v4H332.9z"/>
	<path id="XMLID_5956_" class="st2" d="M353.1,373.8c0,2.7-0.9,5-2.6,6.8s-4,2.7-6.8,2.7s-5.1-0.9-6.8-2.7c-1.8-1.8-2.6-4-2.6-6.8
		v-4c0-2.7,0.9-5,2.6-6.8s4-2.7,6.8-2.7s5.1,0.9,6.8,2.7c1.7,1.8,2.6,4,2.6,6.8V373.8z M347.9,369.8c0-1.6-0.4-2.9-1.1-3.9
		s-1.8-1.5-3.2-1.5c-1.4,0-2.5,0.5-3.2,1.5s-1.1,2.3-1.1,3.9v4c0,1.6,0.4,2.9,1.1,3.9s1.8,1.5,3.2,1.5c1.4,0,2.4-0.5,3.1-1.5
		s1.1-2.3,1.1-3.9v-4H347.9z"/>
	<path id="XMLID_5959_" class="st2" d="M367.7,377c0-0.8-0.3-1.4-0.8-1.8s-1.5-0.9-2.8-1.3c-2.8-0.9-4.8-1.8-6.1-2.9
		c-1.3-1.1-2-2.5-2-4.4s0.8-3.4,2.3-4.5s3.5-1.7,5.9-1.7c2.5,0,4.6,0.6,6.1,1.8s2.3,2.9,2.2,5v0.1h-5c0-1-0.3-1.8-0.9-2.3
		s-1.4-0.7-2.6-0.7c-0.9,0-1.7,0.2-2.2,0.7s-0.8,1-0.8,1.7s0.3,1.2,0.8,1.6c0.6,0.4,1.6,0.9,3.1,1.5c2.6,0.8,4.5,1.7,5.8,2.8
		s2,2.6,2,4.5c0,2-0.8,3.5-2.3,4.6s-3.5,1.7-6.1,1.7c-2.5,0-4.6-0.6-6.4-1.8s-2.6-3-2.5-5.6v-0.1h5c0,1.3,0.3,2.2,1,2.8
		c0.6,0.5,1.6,0.8,2.9,0.8c1.1,0,1.9-0.2,2.4-0.6C367.4,378.3,367.7,377.7,367.7,377z"/>
	<path id="XMLID_5961_" class="st2" d="M381.1,382.9H376v-22.2h5.1V382.9z"/>
	<path id="XMLID_5963_" class="st2" d="M399.9,364.7H394v18.2h-5.2v-18.2H383v-4h16.8v4H399.9z"/>
	<path id="XMLID_5965_" class="st2" d="M407.5,382.9h-5.1v-22.2h5.1V382.9z"/>
	<path id="XMLID_5967_" class="st2" d="M424.3,373.4h-7.8v5.5h9.4v4h-14.5v-22.2H426v4h-9.4v4.8h7.8v3.9L424.3,373.4L424.3,373.4z"
		/>
	<path id="XMLID_5969_" class="st2" d="M440.2,377c0-0.8-0.3-1.4-0.8-1.8s-1.5-0.9-2.8-1.3c-2.8-0.9-4.8-1.8-6.1-2.9
		c-1.3-1.1-2-2.5-2-4.4s0.8-3.4,2.3-4.5s3.5-1.7,5.9-1.7c2.5,0,4.6,0.6,6.1,1.8s2.3,2.9,2.2,5v0.1h-5c0-1-0.3-1.8-0.9-2.3
		s-1.4-0.7-2.6-0.7c-0.9,0-1.7,0.2-2.2,0.7s-0.8,1-0.8,1.7s0.3,1.2,0.8,1.6c0.6,0.4,1.6,0.9,3.1,1.5c2.6,0.8,4.5,1.7,5.8,2.8
		s2,2.6,2,4.5c0,2-0.8,3.5-2.3,4.6s-3.5,1.7-6.1,1.7c-2.5,0-4.6-0.6-6.4-1.8s-2.6-3-2.5-5.6v-0.1h5c0,1.3,0.3,2.2,1,2.8
		c0.6,0.5,1.6,0.8,2.9,0.8c1.1,0,1.9-0.2,2.4-0.6C440,378.3,440.2,377.7,440.2,377z"/>
</g>
<g id="titleWand">
	<path id="XMLID_7_" class="st3" d="M474.4,310.3v-13.1c0,0,3.6-2.9,3.6-7.1s-3.6-7.1-3.6-7.1l-2.2-100.5h-1.3h-1.3L467.4,283
		c0,0-3.6,2.9-3.6,7.1s3.6,7.1,3.6,7.1v13.1c0,0-3.6,1.8-3.6,5.6s3.6,5.3,3.6,5.3v4.7h-1.6v10.8h5.1h5.1v-10.8h-1.6v-4.7
		c0,0,3.6-1.6,3.6-5.3C477.9,312.1,474.4,310.3,474.4,310.3z"/>
</g>
<g id="letter">
	<g id="XMLID_94_">
		<g id="white_2_">
			<g id="XMLID_114_">
				<path id="XMLID_116_" class="st2" d="M590.9,443.6c-4.4,0.7-8.5-2.3-9.2-6.7l-14.1-89.2c-0.7-4.4,2.3-8.5,6.7-9.2l139.3-22
					c4.8-0.8,8.5,2.3,9.2,6.7l14.1,89.2c0.7,4.4-2.3,8.5-6.7,9.2L590.9,443.6z"/>
			</g>
		</g>
		<path id="lower_1_" class="st4" d="M719.9,318.5L652,379.3l-83.2-37.6c0,0,1.6-2.3,5.5-3.2c3.9-0.8,136.5-21.6,139.3-22
			C718.2,315.7,719.9,318.5,719.9,318.5z"/>
		<path id="upper_1_" class="st4" d="M735.6,417.6l-83.4-36.8l-67.5,61.4c0,0,2.2,1.7,6.2,1.3s136.5-21.6,139.3-22
			C734.8,420.8,735.6,417.6,735.6,417.6z"/>
	</g>
</g>
<g id="july31">
	<g id="XMLID_5919_">
		<path id="XMLID_5920_" class="st2" d="M170.8,537.9c-1.9,0-3.4-0.3-4.5-0.8v-4.4c1.4,0.4,2.9,0.6,4.5,0.6c2,0,3.5-0.6,4.6-1.8
			c1-1.2,1.6-3,1.6-5.3v-44.6h5.2v44.2c0,3.9-1,6.9-2.9,9C177.4,536.9,174.5,537.9,170.8,537.9z"/>
		<path id="XMLID_5922_" class="st2" d="M227.7,481.6v28.9c0,5.1-1.5,9.1-4.6,12s-7.3,4.4-12.7,4.4s-9.5-1.5-12.5-4.4
			c-2.9-2.9-4.4-7-4.4-12.1v-28.7h5.2v29c0,3.7,1,6.6,3,8.6s5,3,9,3c3.8,0,6.7-1,8.7-3s3-4.9,3-8.6v-29L227.7,481.6L227.7,481.6z"/>
		<path id="XMLID_5924_" class="st2" d="M239.5,526.2v-44.6h5.2v39.9h19.7v4.7H239.5L239.5,526.2z"/>
		<path id="XMLID_5926_" class="st2" d="M283.2,503.9l11.9-22.3h5.6l-14.9,27.3v17.3h-5.2v-17l-14.9-27.5h5.7L283.2,503.9z"/>
	</g>
	<g id="XMLID_5914_">
		<g id="XMLID_271_">
			<path id="XMLID_274_" class="st5" d="M231,576.4c0,6.1-1.7,11.2-5.2,15c-3.4,3.9-8.3,6.5-14.6,7.8v0.5c7.7,1,13.4,3.4,17.2,7.4
				c3.7,3.9,5.6,9.1,5.6,15.5c0,9.2-3.2,16.2-9.5,21.1c-6.4,4.9-15.4,7.4-27.1,7.4c-5.1,0-9.7-0.4-14-1.2c-4.2-0.8-8.3-2.1-12.3-4
				v-10.4c4.2,2.1,8.6,3.6,13.3,4.7c4.7,1.1,9.2,1.6,13.4,1.6c16.6,0,24.9-6.5,24.9-19.5c0-11.7-9.2-17.5-27.5-17.5h-9.5v-9.4h9.6
				c7.5,0,13.4-1.7,17.8-5s6.6-7.9,6.6-13.8c0-4.7-1.6-8.4-4.8-11c-3.2-2.7-7.6-4-13.1-4c-4.2,0-8.2,0.6-11.9,1.7
				c-3.7,1.1-8,3.2-12.7,6.3l-5.5-7.4c3.9-3.1,8.5-5.6,13.6-7.3c5.1-1.8,10.6-2.7,16.3-2.7c9.3,0,16.6,2.1,21.8,6.4
				S231,568.9,231,576.4z"/>
			<path id="XMLID_272_" class="st5" d="M288.8,649.9h-10.6v-68.5c0-5.7,0.2-11.1,0.5-16.2c-0.9,0.9-2,1.9-3.1,2.9
				s-6.4,5.3-15.6,12.8l-5.8-7.5l25.4-19.6h9.2V649.9L288.8,649.9z"/>
		</g>
	</g>
</g>
<g id="julyText">
	<g id="XMLID_5602_">
		<path id="XMLID_5603_" class="st2" d="M388.5,511c0.3,0,0.4,0.2,0.3,0.4l-4.3,15.3c-0.1,0.2-0.2,0.3-0.4,0.3h-1.6
			c-0.2,0-0.3-0.1-0.4-0.3l-3.6-12.9h-0.2l-3.5,12.9c-0.1,0.2-0.2,0.3-0.4,0.3h-1.6c-0.2,0-0.3-0.1-0.4-0.3l-4.4-15.3
			c-0.1-0.2,0-0.4,0.3-0.4h1.3c0.2,0,0.3,0.1,0.4,0.3l3.6,12.5h0.2l3.5-12.5c0.1-0.2,0.2-0.3,0.4-0.3h1.6c0.2,0,0.3,0.1,0.4,0.3
			l3.5,12.5h0.2l3.5-12.5c0.1-0.2,0.2-0.3,0.4-0.3L388.5,511L388.5,511z"/>
		<path id="XMLID_5605_" class="st2" d="M393,517.1c0.9-1.2,2-1.9,3.6-1.9c2.2,0,3.6,1.5,3.7,4.2v7.3c0,0.2-0.1,0.4-0.4,0.4h-1.3
			c-0.2,0-0.4-0.1-0.4-0.4v-6.9c0-1.9-0.9-2.8-2.4-2.8c-1.6,0-2.9,1.2-3.1,3.5v6.2c0,0.2-0.1,0.4-0.4,0.4H391
			c-0.2,0-0.4-0.1-0.4-0.4l0.1-15.7c0-0.2,0.1-0.4,0.4-0.4h1.2c0.2,0,0.4,0.1,0.4,0.4v6.1L393,517.1L393,517.1z"/>
		<path id="XMLID_5607_" class="st2" d="M413.5,521.1c0,0.2-0.1,0.4-0.4,0.4h-8.2c0,2.6,1.4,4.1,3.6,4.1c1.3,0,2.2-0.5,2.8-1.6
			c0.1-0.2,0.2-0.2,0.4-0.2h1.1c0.3,0,0.4,0.2,0.3,0.4c-0.9,2-2.6,3.1-4.8,3.1c-3.2,0-5.4-2.4-5.4-6.1c0-3.7,2.3-6.2,5.5-6.2
			C411.9,515.1,413.6,517.7,413.5,521.1z M405,519.9h6.5c-0.1-1.7-1.2-3.1-3.2-3.1S405.3,518.1,405,519.9z"/>
		<path id="XMLID_5610_" class="st2" d="M425.6,519.3v7.3c0,0.2-0.1,0.4-0.4,0.4h-1.3c-0.2,0-0.4-0.1-0.4-0.4v-6.9
			c0-1.9-0.9-2.9-2.4-2.9c-1.6,0-2.9,1.2-3.1,3.5v6.2c0,0.2-0.1,0.4-0.4,0.4h-1.3c-0.2,0-0.4-0.1-0.4-0.4l0.1-11
			c0-0.2,0.1-0.4,0.4-0.4h1.2c0.2,0,0.4,0.1,0.4,0.4v1.4h0.2c0.9-1.3,2.1-2,3.7-2C424.1,515,425.6,516.6,425.6,519.3z"/>
		<path id="XMLID_5612_" class="st2" d="M442.4,519l0.1,7.6c0,0.2-0.1,0.4-0.4,0.4h-1.3c-0.2,0-0.4-0.1-0.4-0.4v-1.5h-0.2
			c-0.8,1.2-2.2,2-4,2c-2.1,0-3.6-1.1-3.6-3.2c0-2.4,1.8-3.5,6.1-3.9c1.1-0.1,1.6-0.4,1.6-1.3c0-1.2-0.9-2-2.7-2
			c-1.4,0-2.3,0.6-2.7,1.6c-0.1,0.2-0.2,0.3-0.4,0.3h-1.1c-0.2,0-0.4-0.1-0.3-0.3c0.5-2,2.1-3.3,4.7-3.3
			C440.8,515,442.4,516.5,442.4,519z M440.4,521.1c-0.4,0.2-0.9,0.3-1.7,0.4c-2.7,0.3-4.1,0.9-4.1,2.3c0,1.1,0.8,1.7,2.1,1.7
			c2.2,0,3.7-1.5,3.8-2.8L440.4,521.1L440.4,521.1z"/>
		<path id="XMLID_5615_" class="st2" d="M455.2,526.6c0,0.2-0.1,0.4-0.4,0.4h-1.3c-0.2,0-0.4-0.1-0.4-0.4v-1.4H453
			c-0.9,1.3-2.1,2-3.6,2c-2.2,0-3.7-1.5-3.7-4.4v-7.2c0-0.2,0.1-0.4,0.4-0.4h1.2c0.2,0,0.4,0.1,0.4,0.4v6.7c0,2.1,0.9,3.1,2.3,3.1
			c1.7,0,2.9-1.2,3.1-3.6v-6.2c0-0.2,0.1-0.4,0.4-0.4h1.2c0.2,0,0.4,0.1,0.4,0.4L455.2,526.6z"/>
		<path id="XMLID_5617_" class="st2" d="M464,516.6c0,0.2-0.1,0.4-0.4,0.4h-2.1v9.7c0,0.2-0.1,0.4-0.4,0.4h-1.3
			c-0.2,0-0.4-0.1-0.4-0.4V517h-1.8c-0.2,0-0.4-0.1-0.4-0.4v-0.9c0-0.2,0.1-0.4,0.4-0.4h1.8v-4.2c0-0.2,0.1-0.4,0.4-0.4h1.2
			c0.2,0,0.4,0.1,0.4,0.4v4.2h2.2c0.2,0,0.4,0.1,0.4,0.4L464,516.6L464,516.6z"/>
		<path id="XMLID_5619_" class="st2" d="M468.3,517.1c0.9-1.2,2-1.9,3.6-1.9c2.2,0,3.6,1.5,3.7,4.2v7.3c0,0.2-0.1,0.4-0.4,0.4h-1.3
			c-0.2,0-0.4-0.1-0.4-0.4v-6.9c0-1.9-0.9-2.8-2.4-2.8c-1.6,0-2.9,1.2-3.1,3.5v6.2c0,0.2-0.1,0.4-0.4,0.4h-1.3
			c-0.2,0-0.4-0.1-0.4-0.4L466,511c0-0.2,0.1-0.4,0.4-0.4h1.2c0.2,0,0.4,0.1,0.4,0.4v6.1H468.3L468.3,517.1z"/>
		<path id="XMLID_5621_" class="st2" d="M489.2,521c0,3.6-2.4,6.3-5.6,6.3c-3.1,0-5.4-2.5-5.4-6.1c0-3.7,2.4-6.2,5.6-6.2
			C486.9,515,489.2,517.4,489.2,521z M480.1,521c0,2.7,1.6,4.5,3.7,4.5c2,0,3.5-1.7,3.5-4.3c0-2.8-1.6-4.5-3.7-4.5
			C481.6,516.7,480.1,518.4,480.1,521z"/>
		<path id="XMLID_5624_" class="st2" d="M497.8,516.7c0,0.2-0.1,0.4-0.4,0.4c-1.9,0.1-3.4,0.8-3.6,3.5v6.1c0,0.2-0.1,0.4-0.4,0.4
			h-1.3c-0.2,0-0.4-0.1-0.4-0.4l0.1-11c0-0.2,0.1-0.4,0.4-0.4h1.2c0.2,0,0.4,0.1,0.4,0.4v1.5h0.2c0.8-1.2,2-2,3.4-2.1
			c0.2,0,0.4,0.1,0.4,0.3L497.8,516.7L497.8,516.7z"/>
		<path id="XMLID_5626_" class="st2" d="M510.7,519.8c0,5.3-2.1,7-6.5,7.1c-0.2,0-0.4-0.1-0.4-0.4v-1c0-0.2,0.1-0.4,0.4-0.4
			c3.3-0.1,4.4-1.5,4.5-5.2v-8.6c0-0.2,0.1-0.4,0.4-0.4h1.2c0.2,0,0.4,0.1,0.4,0.4V519.8z"/>
		<path id="XMLID_5628_" class="st2" d="M517.9,526.6c0,0.2-0.1,0.4-0.4,0.4H516c-0.2,0-0.4-0.1-0.4-0.4V525c0-0.2,0.1-0.4,0.4-0.4
			h1.5c0.2,0,0.4,0.1,0.4,0.4V526.6z"/>
		<path id="XMLID_5630_" class="st2" d="M523.8,521.5v5.2c0,0.2-0.1,0.4-0.4,0.4H522c-0.2,0-0.4-0.1-0.4-0.4l0.1-15.3
			c0-0.2,0.1-0.4,0.4-0.4h1.2c0.2,0,0.4,0.1,0.4,0.4v7.8l8.4-8c0.1-0.1,0.2-0.2,0.4-0.2h1.5c0.3,0,0.4,0.2,0.2,0.4l-6.6,6.3l7,8.8
			c0.2,0.2,0.1,0.4-0.2,0.4h-1.7c-0.2,0-0.3-0.1-0.4-0.2l-5.9-7.8L523.8,521.5z"/>
		<path id="XMLID_5632_" class="st2" d="M539.8,526.6c0,0.2-0.1,0.4-0.4,0.4H538c-0.2,0-0.4-0.1-0.4-0.4V525c0-0.2,0.1-0.4,0.4-0.4
			h1.5c0.2,0,0.4,0.1,0.4,0.4v1.6H539.8z"/>
		<path id="XMLID_5634_" class="st2" d="M550.2,519.9v6.7c0,0.2-0.1,0.4-0.4,0.4h-1.4c-0.2,0-0.4-0.1-0.4-0.4l0.1-15.3
			c0-0.2,0.1-0.4,0.4-0.4h6.1c3.1,0,5.1,1.8,5.1,4.4c0,2.3-1.6,4.1-4.2,4.5l4.7,6.7c0.2,0.2,0.1,0.4-0.2,0.4h-1.7
			c-0.2,0-0.3-0.1-0.4-0.2l-4.6-6.8L550.2,519.9L550.2,519.9z M554.5,518.2c2.3,0,3.4-1.1,3.4-2.7c0-1.7-1.3-2.8-3.4-2.8h-4.3v5.5
			H554.5z"/>
		<path id="XMLID_5637_" class="st2" d="M573,521c0,3.6-2.4,6.3-5.6,6.3c-3.1,0-5.4-2.5-5.4-6.1c0-3.7,2.4-6.2,5.6-6.2
			C570.7,515,573,517.4,573,521z M563.9,521c0,2.7,1.6,4.5,3.7,4.5c2,0,3.5-1.7,3.5-4.3c0-2.8-1.6-4.5-3.7-4.5
			C565.4,516.7,563.9,518.4,563.9,521z"/>
		<path id="XMLID_5640_" class="st2" d="M590.1,515.3c0.3,0,0.4,0.2,0.3,0.4l-3.1,11c-0.1,0.2-0.2,0.3-0.4,0.3h-1.8
			c-0.2,0-0.3-0.1-0.4-0.3l-2.2-7.7h-0.2l-2.1,7.7c-0.1,0.2-0.2,0.3-0.4,0.3H578c-0.2,0-0.3-0.1-0.4-0.3l-3-11
			c-0.1-0.2,0-0.4,0.3-0.4h1.1c0.2,0,0.3,0.1,0.4,0.3l2.5,9.3h0.2l2.5-9.3c0.1-0.2,0.2-0.3,0.4-0.3h1c0.2,0,0.3,0.1,0.4,0.3l2.5,9.3
			h0.2l2.5-9.3c0.1-0.2,0.2-0.3,0.4-0.3H590.1z"/>
		<path id="XMLID_5642_" class="st2" d="M595.2,526.6c0,0.2-0.1,0.4-0.4,0.4h-1.3c-0.2,0-0.4-0.1-0.4-0.4l0.1-15.7
			c0-0.2,0.1-0.4,0.4-0.4h1.2c0.2,0,0.4,0.1,0.4,0.4V526.6z"/>
		<path id="XMLID_5644_" class="st2" d="M601.2,526.6c0,0.2-0.1,0.4-0.4,0.4h-1.3c-0.2,0-0.4-0.1-0.4-0.4l0.1-11
			c0-0.2,0.1-0.4,0.4-0.4h1.2c0.2,0,0.4,0.1,0.4,0.4V526.6z M601.1,512.4c0,0.2-0.1,0.4-0.4,0.4h-1.2c-0.2,0-0.4-0.1-0.4-0.4v-1.5
			c0-0.2,0.1-0.4,0.4-0.4h1.2c0.2,0,0.4,0.1,0.4,0.4V512.4z"/>
		<path id="XMLID_5647_" class="st2" d="M614.2,519.3v7.3c0,0.2-0.1,0.4-0.4,0.4h-1.3c-0.2,0-0.4-0.1-0.4-0.4v-6.9
			c0-1.9-0.9-2.9-2.4-2.9c-1.6,0-2.9,1.2-3.1,3.5v6.2c0,0.2-0.1,0.4-0.4,0.4H605c-0.2,0-0.4-0.1-0.4-0.4l0.1-11
			c0-0.2,0.1-0.4,0.4-0.4h1.2c0.2,0,0.4,0.1,0.4,0.4v1.4h0.2c0.9-1.3,2.1-2,3.7-2C612.7,515,614.2,516.6,614.2,519.3z"/>
		<path id="XMLID_5649_" class="st2" d="M625.4,517L625.4,517l0.1-1.3c0-0.2,0.1-0.4,0.4-0.4h1.2c0.2,0,0.4,0.1,0.4,0.4l0.1,9.9
			c0,4.4-2.1,6.6-5.3,6.6c-2.3,0-3.9-1.1-4.7-2.9c-0.1-0.2,0-0.4,0.3-0.4h1.2c0.2,0,0.3,0.1,0.4,0.2c0.6,0.9,1.5,1.3,2.8,1.3
			c2,0,3.3-1.2,3.3-4.3v-0.6h-0.1c-0.8,1-1.8,1.5-3.2,1.5c-3.2,0-5.4-2.4-5.4-6c0-3.4,2-6,4.9-6C623.2,515,624.6,515.7,625.4,517z
			 M618.7,521.2c0,2.6,1.3,4.1,3.5,4.1c1.8,0,3.3-1.1,3.5-3.3v-1.5c-0.2-2.4-1.7-3.8-3.5-3.8C620.1,516.7,618.7,518.4,618.7,521.2z"
			/>
		<path id="XMLID_5652_" class="st2" d="M644.9,518.4c0.1,0.2-0.1,0.4-0.3,0.4h-1.1c-0.2,0-0.3-0.1-0.4-0.3
			c-0.6-1.1-1.5-1.8-2.9-1.8c-2.2,0-3.5,1.5-3.5,4.5c0,2.9,1.3,4.3,3.5,4.3c1.5,0,2.3-0.6,2.8-1.6c0.1-0.2,0.2-0.3,0.4-0.3h1.1
			c0.2,0,0.4,0.2,0.3,0.4c-0.6,1.6-2.2,3.2-4.8,3.2c-3.2,0-5.3-2.4-5.3-6c0-3.8,2.2-6.2,5.4-6.2C642.7,515,644.4,516.6,644.9,518.4z
			"/>
		<path id="XMLID_5654_" class="st2" d="M653,516.7c0,0.2-0.1,0.4-0.4,0.4c-1.9,0.1-3.4,0.8-3.6,3.5v6.1c0,0.2-0.1,0.4-0.4,0.4h-1.3
			c-0.2,0-0.4-0.1-0.4-0.4l0.1-11c0-0.2,0.1-0.4,0.4-0.4h1.2c0.2,0,0.4,0.1,0.4,0.4v1.5h0.2c0.8-1.2,2-2,3.4-2.1
			c0.2,0,0.4,0.1,0.4,0.3L653,516.7L653,516.7z"/>
		<path id="XMLID_5656_" class="st2" d="M665,521.1c0,0.2-0.1,0.4-0.4,0.4h-8.2c0,2.6,1.4,4.1,3.6,4.1c1.3,0,2.2-0.5,2.8-1.6
			c0.1-0.2,0.2-0.2,0.4-0.2h1.1c0.3,0,0.4,0.2,0.3,0.4c-0.9,2-2.6,3.1-4.8,3.1c-3.2,0-5.4-2.4-5.4-6.1c0-3.7,2.3-6.2,5.5-6.2
			C663.4,515.1,665.1,517.7,665,521.1z M656.5,519.9h6.5c-0.1-1.7-1.2-3.1-3.2-3.1C657.9,516.8,656.8,518.1,656.5,519.9z"/>
		<path id="XMLID_5659_" class="st2" d="M676.6,519l0.1,7.6c0,0.2-0.1,0.4-0.4,0.4H675c-0.2,0-0.4-0.1-0.4-0.4v-1.5h-0.2
			c-0.8,1.2-2.2,2-4,2c-2.1,0-3.6-1.1-3.6-3.2c0-2.4,1.8-3.5,6.1-3.9c1.1-0.1,1.6-0.4,1.6-1.3c0-1.2-0.9-2-2.7-2
			c-1.4,0-2.3,0.6-2.7,1.6c-0.1,0.2-0.2,0.3-0.4,0.3h-1.1c-0.2,0-0.4-0.1-0.3-0.3c0.5-2,2.1-3.3,4.7-3.3
			C675,515,676.6,516.5,676.6,519z M674.7,521.1c-0.4,0.2-0.9,0.3-1.7,0.4c-2.7,0.3-4.1,0.9-4.1,2.3c0,1.1,0.8,1.7,2.1,1.7
			c2.2,0,3.7-1.5,3.8-2.8L674.7,521.1L674.7,521.1z"/>
		<path id="XMLID_5662_" class="st2" d="M685.5,516.6c0,0.2-0.1,0.4-0.4,0.4H683v9.7c0,0.2-0.1,0.4-0.4,0.4h-1.3
			c-0.2,0-0.4-0.1-0.4-0.4V517h-1.8c-0.2,0-0.4-0.1-0.4-0.4v-0.9c0-0.2,0.1-0.4,0.4-0.4h1.8v-4.2c0-0.2,0.1-0.4,0.4-0.4h1.2
			c0.2,0,0.4,0.1,0.4,0.4v4.2h2.2c0.2,0,0.4,0.1,0.4,0.4L685.5,516.6L685.5,516.6z"/>
		<path id="XMLID_5664_" class="st2" d="M697.6,521.1c0,0.2-0.1,0.4-0.4,0.4H689c0,2.6,1.4,4.1,3.6,4.1c1.3,0,2.2-0.5,2.8-1.6
			c0.1-0.2,0.2-0.2,0.4-0.2h1.1c0.3,0,0.4,0.2,0.3,0.4c-0.9,2-2.6,3.1-4.8,3.1c-3.2,0-5.4-2.4-5.4-6.1c0-3.7,2.3-6.2,5.5-6.2
			C696,515.1,697.7,517.7,697.6,521.1z M689.1,519.9h6.5c-0.1-1.7-1.2-3.1-3.2-3.1C690.5,516.8,689.4,518.1,689.1,519.9z"/>
		<path id="XMLID_5667_" class="st2" d="M710.3,526.6c0,0.2-0.1,0.4-0.4,0.4h-1.3c-0.2,0-0.4-0.1-0.4-0.4v-1.3h-0.1
			c-0.8,1.3-2.2,1.9-3.7,1.9c-2.9,0-4.9-2.5-4.9-6c0-3.7,2.2-6.2,5.4-6.2c1.4,0,2.4,0.5,3.3,1.4h0.1v-5.5c0-0.2,0.1-0.4,0.4-0.4h1.2
			c0.2,0,0.4,0.1,0.4,0.4V526.6z M701.4,521.1c0,2.8,1.4,4.4,3.5,4.4c1.8,0,3.3-1.3,3.5-3.7v-1.5c-0.2-2.4-1.7-3.6-3.5-3.6
			C702.7,516.7,701.4,518.4,701.4,521.1z"/>
		<path id="XMLID_5670_" class="st2" d="M380.2,553.4c-0.2,0-0.4-0.1-0.4-0.4v-7.1h-8.7v7.1c0,0.2-0.1,0.4-0.4,0.4h-1.4
			c-0.2,0-0.4-0.1-0.4-0.4l0.1-15.3c0-0.2,0.1-0.4,0.4-0.4h1.2c0.2,0,0.4,0.1,0.4,0.4v6.4h8.8v-6.4c0-0.2,0.1-0.4,0.4-0.4h1.2
			c0.2,0,0.4,0.1,0.4,0.4l0.1,15.3c0,0.2-0.1,0.4-0.4,0.4H380.2L380.2,553.4z"/>
		<path id="XMLID_5672_" class="st2" d="M394.1,545.4l0.1,7.6c0,0.2-0.1,0.4-0.4,0.4h-1.3c-0.2,0-0.4-0.1-0.4-0.4v-1.5h-0.2
			c-0.8,1.2-2.2,2-4,2c-2.1,0-3.6-1.1-3.6-3.2c0-2.4,1.8-3.5,6.1-3.9c1.1-0.1,1.6-0.4,1.6-1.3c0-1.2-0.9-2-2.7-2
			c-1.4,0-2.3,0.6-2.7,1.6c-0.1,0.2-0.2,0.3-0.4,0.3h-1.1c-0.2,0-0.4-0.1-0.3-0.3c0.5-2,2.1-3.3,4.7-3.3
			C392.5,541.4,394.1,542.9,394.1,545.4z M392.1,547.5c-0.4,0.2-0.9,0.3-1.7,0.4c-2.7,0.3-4.1,0.9-4.1,2.3c0,1.1,0.8,1.7,2.1,1.7
			c2.2,0,3.7-1.5,3.8-2.8L392.1,547.5L392.1,547.5z"/>
		<path id="XMLID_5675_" class="st2" d="M403.4,543.1c0,0.2-0.1,0.4-0.4,0.4c-1.9,0.1-3.4,0.8-3.6,3.5v6.1c0,0.2-0.1,0.4-0.4,0.4
			h-1.3c-0.2,0-0.4-0.1-0.4-0.4l0.1-11c0-0.2,0.1-0.4,0.4-0.4h1.2c0.2,0,0.4,0.1,0.4,0.4v1.5h0.2c0.8-1.2,2-2,3.4-2.1
			c0.2,0,0.4,0.1,0.4,0.3L403.4,543.1L403.4,543.1z"/>
		<path id="XMLID_5677_" class="st2" d="M411.4,543.1c0,0.2-0.1,0.4-0.4,0.4c-1.9,0.1-3.4,0.8-3.6,3.5v6.1c0,0.2-0.1,0.4-0.4,0.4
			h-1.3c-0.2,0-0.4-0.1-0.4-0.4l0.1-11c0-0.2,0.1-0.4,0.4-0.4h1.2c0.2,0,0.4,0.1,0.4,0.4v1.5h0.2c0.8-1.2,2-2,3.4-2.1
			c0.2,0,0.4,0.1,0.4,0.3L411.4,543.1L411.4,543.1z"/>
		<path id="XMLID_5679_" class="st2" d="M422.6,541.7c0.2,0,0.4,0.2,0.3,0.4l-5.5,15.8c-0.1,0.2-0.2,0.3-0.4,0.3h-1.3
			c-0.3,0-0.4-0.2-0.3-0.4l1.4-3.9l-4.2-11.8c-0.1-0.2,0-0.4,0.3-0.4h1.1c0.2,0,0.3,0.1,0.4,0.3l3.2,9.2h0.2l3.3-9.2
			c0.1-0.2,0.2-0.3,0.4-0.3L422.6,541.7L422.6,541.7z"/>
		<path id="XMLID_5681_" class="st2" d="M436.1,537.4c3.2,0,5.3,1.9,5.3,4.8s-2.1,5-5.3,5h-4.5v5.9c0,0.2-0.1,0.4-0.4,0.4H430
			c-0.2,0-0.4-0.1-0.4-0.4l0.1-15.3c0-0.2,0.1-0.4,0.4-0.4H436.1L436.1,537.4z M436,545.4c2.3,0,3.5-1.2,3.5-3.1
			c0-2-1.4-3.3-3.5-3.3h-4.4v6.3L436,545.4L436,545.4z"/>
		<path id="XMLID_5684_" class="st2" d="M454.5,547.4c0,3.6-2.4,6.3-5.6,6.3c-3.1,0-5.4-2.5-5.4-6.1c0-3.7,2.4-6.2,5.6-6.2
			C452.2,541.4,454.5,543.8,454.5,547.4z M445.4,547.4c0,2.7,1.6,4.5,3.7,4.5c2,0,3.5-1.7,3.5-4.3c0-2.8-1.6-4.5-3.7-4.5
			S445.4,544.8,445.4,547.4z"/>
		<path id="XMLID_5687_" class="st2" d="M462.6,543c0,0.2-0.1,0.4-0.4,0.4h-2.1v9.7c0,0.2-0.1,0.4-0.4,0.4h-1.3
			c-0.2,0-0.4-0.1-0.4-0.4v-9.7h-1.8c-0.2,0-0.4-0.1-0.4-0.4v-0.9c0-0.2,0.1-0.4,0.4-0.4h1.8v-4.2c0-0.2,0.1-0.4,0.4-0.4h1.2
			c0.2,0,0.4,0.1,0.4,0.4v4.2h2.2c0.2,0,0.4,0.1,0.4,0.4L462.6,543L462.6,543z"/>
		<path id="XMLID_5689_" class="st2" d="M470.3,543c0,0.2-0.1,0.4-0.4,0.4h-2.1v9.7c0,0.2-0.1,0.4-0.4,0.4h-1.3
			c-0.2,0-0.4-0.1-0.4-0.4v-9.7h-1.8c-0.2,0-0.4-0.1-0.4-0.4v-0.9c0-0.2,0.1-0.4,0.4-0.4h1.8v-4.2c0-0.2,0.1-0.4,0.4-0.4h1.2
			c0.2,0,0.4,0.1,0.4,0.4v4.2h2.2c0.2,0,0.4,0.1,0.4,0.4L470.3,543L470.3,543z"/>
		<path id="XMLID_5691_" class="st2" d="M482.4,547.5c0,0.2-0.1,0.4-0.4,0.4h-8.2c0,2.6,1.4,4.1,3.6,4.1c1.3,0,2.2-0.5,2.8-1.6
			c0.1-0.2,0.2-0.2,0.4-0.2h1.1c0.3,0,0.4,0.2,0.3,0.4c-0.9,2-2.6,3.1-4.8,3.1c-3.2,0-5.4-2.4-5.4-6.1s2.3-6.2,5.5-6.2
			C480.8,541.5,482.5,544.1,482.4,547.5z M473.9,546.3h6.5c-0.1-1.7-1.2-3.1-3.2-3.1C475.3,543.2,474.2,544.5,473.9,546.3z"/>
		<path id="XMLID_5694_" class="st2" d="M490.9,543.1c0,0.2-0.1,0.4-0.4,0.4c-1.9,0.1-3.4,0.8-3.6,3.5v6.1c0,0.2-0.1,0.4-0.4,0.4
			h-1.3c-0.2,0-0.4-0.1-0.4-0.4l0.1-11c0-0.2,0.1-0.4,0.4-0.4h1.2c0.2,0,0.4,0.1,0.4,0.4v1.5h0.2c0.8-1.2,2-2,3.4-2.1
			c0.2,0,0.4,0.1,0.4,0.3L490.9,543.1L490.9,543.1z"/>
		<path id="XMLID_5696_" class="st2" d="M507.7,553c0,0.2-0.1,0.4-0.4,0.4H506c-0.2,0-0.4-0.1-0.4-0.4v-1.3h-0.1
			c-0.8,1.3-2.2,1.9-3.7,1.9c-2.9,0-4.9-2.5-4.9-6c0-3.7,2.2-6.2,5.4-6.2c1.4,0,2.4,0.5,3.3,1.4h0.1v-5.5c0-0.2,0.1-0.4,0.4-0.4h1.2
			c0.2,0,0.4,0.1,0.4,0.4L507.7,553z M498.8,547.5c0,2.8,1.4,4.4,3.5,4.4c1.8,0,3.3-1.3,3.5-3.7v-1.5c-0.2-2.4-1.7-3.6-3.5-3.6
			C500.1,543.1,498.8,544.8,498.8,547.5z"/>
		<path id="XMLID_5699_" class="st2" d="M520.8,547.5c0,0.2-0.1,0.4-0.4,0.4h-8.2c0,2.6,1.4,4.1,3.6,4.1c1.3,0,2.2-0.5,2.8-1.6
			c0.1-0.2,0.2-0.2,0.4-0.2h1.1c0.3,0,0.4,0.2,0.3,0.4c-0.9,2-2.6,3.1-4.8,3.1c-3.2,0-5.4-2.4-5.4-6.1s2.3-6.2,5.5-6.2
			C519.2,541.5,520.9,544.1,520.8,547.5z M512.3,546.3h6.5c-0.1-1.7-1.2-3.1-3.2-3.1C513.7,543.2,512.6,544.5,512.3,546.3z"/>
		<path id="XMLID_5702_" class="st2" d="M532.9,544.8c0.1,0.2-0.1,0.4-0.3,0.4h-1.1c-0.2,0-0.3-0.1-0.4-0.3
			c-0.6-1.1-1.5-1.8-2.9-1.8c-2.2,0-3.5,1.5-3.5,4.5c0,2.9,1.3,4.3,3.5,4.3c1.5,0,2.3-0.6,2.8-1.6c0.1-0.2,0.2-0.3,0.4-0.3h1.1
			c0.2,0,0.4,0.2,0.3,0.4c-0.6,1.6-2.2,3.2-4.8,3.2c-3.2,0-5.3-2.4-5.3-6c0-3.8,2.2-6.2,5.4-6.2C530.7,541.4,532.4,543,532.9,544.8z
			"/>
		<path id="XMLID_5704_" class="st2" d="M544.1,545.4l0.1,7.6c0,0.2-0.1,0.4-0.4,0.4h-1.3c-0.2,0-0.4-0.1-0.4-0.4v-1.5h-0.2
			c-0.8,1.2-2.2,2-4,2c-2.1,0-3.6-1.1-3.6-3.2c0-2.4,1.8-3.5,6.1-3.9c1.1-0.1,1.6-0.4,1.6-1.3c0-1.2-0.9-2-2.7-2
			c-1.4,0-2.3,0.6-2.7,1.6c-0.1,0.2-0.2,0.3-0.4,0.3h-1.1c-0.2,0-0.4-0.1-0.3-0.3c0.5-2,2.1-3.3,4.7-3.3
			C542.5,541.4,544.1,542.9,544.1,545.4z M542.2,547.5c-0.4,0.2-0.9,0.3-1.7,0.4c-2.7,0.3-4.1,0.9-4.1,2.3c0,1.1,0.8,1.7,2.1,1.7
			c2.2,0,3.7-1.5,3.8-2.8L542.2,547.5L542.2,547.5z"/>
		<path id="XMLID_5707_" class="st2" d="M557.6,553c0,0.2-0.1,0.4-0.4,0.4h-1.3c-0.2,0-0.4-0.1-0.4-0.4v-1.3h-0.1
			c-0.8,1.3-2.2,1.9-3.7,1.9c-2.9,0-4.9-2.5-4.9-6c0-3.7,2.2-6.2,5.4-6.2c1.4,0,2.4,0.5,3.3,1.4h0.1v-5.5c0-0.2,0.1-0.4,0.4-0.4h1.2
			c0.2,0,0.4,0.1,0.4,0.4V553z M548.7,547.5c0,2.8,1.4,4.4,3.5,4.4c1.8,0,3.3-1.3,3.5-3.7v-1.5c-0.2-2.4-1.7-3.6-3.5-3.6
			C550,543.1,548.7,544.8,548.7,547.5z"/>
		<path id="XMLID_5710_" class="st2" d="M570.7,547.5c0,0.2-0.1,0.4-0.4,0.4h-8.2c0,2.6,1.4,4.1,3.6,4.1c1.3,0,2.2-0.5,2.8-1.6
			c0.1-0.2,0.2-0.2,0.4-0.2h1.1c0.3,0,0.4,0.2,0.3,0.4c-0.9,2-2.6,3.1-4.8,3.1c-3.2,0-5.4-2.4-5.4-6.1s2.3-6.2,5.5-6.2
			C569.1,541.5,570.8,544.1,570.7,547.5z M562.2,546.3h6.5c-0.1-1.7-1.2-3.1-3.2-3.1C563.6,543.2,562.5,544.5,562.2,546.3z"/>
		<path id="XMLID_5713_" class="st2" d="M581.9,544.3c0.1,0.2,0,0.4-0.3,0.4h-1.1c-0.2,0-0.3-0.1-0.4-0.2c-0.5-0.9-1.4-1.4-2.7-1.4
			c-1.4,0-2.3,0.6-2.3,1.6c0,0.9,0.9,1.3,2.6,1.8l0.9,0.3c2.6,0.8,3.7,1.8,3.7,3.4c0,2.2-1.8,3.5-4.5,3.5s-4.3-1.4-4.9-3.2
			c-0.1-0.2,0-0.4,0.3-0.4h1.3c0.2,0,0.3,0.1,0.4,0.3c0.6,1.1,1.6,1.6,3,1.6s2.4-0.5,2.4-1.6c0-0.9-0.8-1.5-2.7-2l-0.9-0.3
			c-2.1-0.6-3.5-1.4-3.5-3.2c0-2,1.8-3.4,4.3-3.4C580.1,541.4,581.5,543,581.9,544.3z"/>
		<path id="XMLID_5715_" class="st2" d="M598.3,545.4l0.1,7.6c0,0.2-0.1,0.4-0.4,0.4h-1.3c-0.2,0-0.4-0.1-0.4-0.4v-1.5h-0.2
			c-0.8,1.2-2.2,2-4,2c-2.1,0-3.6-1.1-3.6-3.2c0-2.4,1.8-3.5,6.1-3.9c1.1-0.1,1.6-0.4,1.6-1.3c0-1.2-0.9-2-2.7-2
			c-1.4,0-2.3,0.6-2.7,1.6c-0.1,0.2-0.2,0.3-0.4,0.3h-1.1c-0.2,0-0.4-0.1-0.3-0.3c0.5-2,2.1-3.3,4.7-3.3
			C596.6,541.4,598.3,542.9,598.3,545.4z M596.3,547.5c-0.4,0.2-0.9,0.3-1.7,0.4c-2.7,0.3-4.1,0.9-4.1,2.3c0,1.1,0.8,1.7,2.1,1.7
			c2.2,0,3.7-1.5,3.8-2.8L596.3,547.5L596.3,547.5z"/>
		<path id="XMLID_5718_" class="st2" d="M609.6,543.4L609.6,543.4l0.1-1.3c0-0.2,0.1-0.4,0.4-0.4h1.2c0.2,0,0.4,0.1,0.4,0.4l0.1,9.9
			c0,4.4-2.1,6.6-5.3,6.6c-2.3,0-3.9-1.1-4.7-2.9c-0.1-0.2,0-0.4,0.3-0.4h1.2c0.2,0,0.3,0.1,0.4,0.2c0.6,0.9,1.5,1.3,2.8,1.3
			c2,0,3.3-1.2,3.3-4.3v-0.6h-0.1c-0.8,1-1.8,1.5-3.2,1.5c-3.2,0-5.4-2.4-5.4-6c0-3.4,2-6,4.9-6
			C607.4,541.4,608.8,542.1,609.6,543.4z M602.9,547.6c0,2.6,1.3,4.1,3.5,4.1c1.8,0,3.3-1.1,3.5-3.3v-1.5c-0.2-2.4-1.7-3.8-3.5-3.8
			C604.3,543.1,602.9,544.8,602.9,547.6z"/>
		<path id="XMLID_5721_" class="st2" d="M625.4,547.4c0,3.6-2.4,6.3-5.6,6.3c-3.1,0-5.4-2.5-5.4-6.1c0-3.7,2.4-6.2,5.6-6.2
			C623.1,541.4,625.4,543.8,625.4,547.4z M616.3,547.4c0,2.7,1.6,4.5,3.7,4.5c2,0,3.5-1.7,3.5-4.3c0-2.8-1.6-4.5-3.7-4.5
			C617.7,543.1,616.3,544.8,616.3,547.4z"/>
		<path id="XMLID_5724_" class="st2" d="M631.3,552.8c0,2-0.4,3-1.4,4c-0.2,0.2-0.3,0.2-0.5,0.1l-0.1-0.1c-0.2-0.1-0.2-0.3-0.1-0.5
			c0.7-1.1,0.9-2.2,0.1-2.8c-0.2-0.1-0.2-0.2-0.2-0.4v-1.7c0-0.2,0.1-0.4,0.4-0.4h1.5c0.2,0,0.4,0.1,0.4,0.4v1.4H631.3z"/>
		<path id="XMLID_5726_" class="st2" d="M648.6,544.3c0.1,0.2,0,0.4-0.3,0.4h-1.1c-0.2,0-0.3-0.1-0.4-0.2c-0.5-0.9-1.4-1.4-2.7-1.4
			c-1.4,0-2.3,0.6-2.3,1.6c0,0.9,0.9,1.3,2.6,1.8l0.9,0.3c2.6,0.8,3.7,1.8,3.7,3.4c0,2.2-1.8,3.5-4.5,3.5s-4.3-1.4-4.9-3.2
			c-0.1-0.2,0-0.4,0.3-0.4h1.3c0.2,0,0.3,0.1,0.4,0.3c0.6,1.1,1.6,1.6,3,1.6s2.4-0.5,2.4-1.6c0-0.9-0.8-1.5-2.7-2l-0.9-0.3
			c-2.1-0.6-3.5-1.4-3.5-3.2c0-2,1.8-3.4,4.3-3.4C646.7,541.4,648.1,543,648.6,544.3z"/>
		<path id="XMLID_5728_" class="st2" d="M653.6,543.5c0.9-1.2,2-1.9,3.6-1.9c2.2,0,3.6,1.5,3.7,4.2v7.3c0,0.2-0.1,0.4-0.4,0.4h-1.3
			c-0.2,0-0.4-0.1-0.4-0.4v-6.9c0-1.9-0.9-2.8-2.4-2.8c-1.6,0-2.9,1.2-3.1,3.5v6.2c0,0.2-0.1,0.4-0.4,0.4h-1.3
			c-0.2,0-0.4-0.1-0.4-0.4l0.1-15.7c0-0.2,0.1-0.4,0.4-0.4h1.2c0.2,0,0.4,0.1,0.4,0.4v6.1L653.6,543.5z"/>
		<path id="XMLID_5730_" class="st2" d="M674,547.5c0,0.2-0.1,0.4-0.4,0.4h-8.2c0,2.6,1.4,4.1,3.6,4.1c1.3,0,2.2-0.5,2.8-1.6
			c0.1-0.2,0.2-0.2,0.4-0.2h1.1c0.3,0,0.4,0.2,0.3,0.4c-0.9,2-2.6,3.1-4.8,3.1c-3.2,0-5.4-2.4-5.4-6.1s2.3-6.2,5.5-6.2
			C672.4,541.5,674.1,544.1,674,547.5z M665.5,546.3h6.5c-0.1-1.7-1.2-3.1-3.2-3.1C666.9,543.2,665.8,544.5,665.5,546.3z"/>
		<path id="XMLID_5733_" class="st2" d="M379,573.9c0,0.2-0.1,0.4-0.4,0.4h-8.2c0,2.6,1.4,4.1,3.6,4.1c1.3,0,2.2-0.5,2.8-1.6
			c0.1-0.2,0.2-0.2,0.4-0.2h1.1c0.3,0,0.4,0.2,0.3,0.4c-0.9,2-2.6,3.1-4.8,3.1c-3.2,0-5.4-2.4-5.4-6.1s2.3-6.2,5.5-6.2
			C377.4,567.9,379.1,570.5,379,573.9z M370.5,572.7h6.5c-0.1-1.7-1.2-3.1-3.2-3.1C371.9,569.6,370.8,570.9,370.5,572.7z"/>
		<path id="XMLID_5736_" class="st2" d="M391.1,572.1v7.3c0,0.2-0.1,0.4-0.4,0.4h-1.3c-0.2,0-0.4-0.1-0.4-0.4v-6.9
			c0-1.9-0.9-2.9-2.4-2.9c-1.6,0-2.9,1.2-3.1,3.5v6.2c0,0.2-0.1,0.4-0.4,0.4H382c-0.2,0-0.4-0.1-0.4-0.4l0.1-11
			c0-0.2,0.1-0.4,0.4-0.4h1.2c0.2,0,0.4,0.1,0.4,0.4v1.4h0.2c0.9-1.3,2.1-2,3.7-2C389.7,567.8,391.1,569.4,391.1,572.1z"/>
		<path id="XMLID_5738_" class="st2" d="M403,570.7c0.1,0.2,0,0.4-0.3,0.4h-1.1c-0.2,0-0.3-0.1-0.4-0.2c-0.5-0.9-1.4-1.4-2.7-1.4
			c-1.4,0-2.3,0.6-2.3,1.6c0,0.9,0.9,1.3,2.6,1.8l0.9,0.3c2.6,0.8,3.7,1.8,3.7,3.4c0,2.2-1.8,3.5-4.5,3.5s-4.3-1.4-4.9-3.2
			c-0.1-0.2,0-0.4,0.3-0.4h1.3c0.2,0,0.3,0.1,0.4,0.3c0.6,1.1,1.6,1.6,3,1.6s2.4-0.5,2.4-1.6c0-0.9-0.8-1.5-2.7-2l-0.9-0.3
			c-2.1-0.6-3.5-1.4-3.5-3.2c0-2,1.8-3.4,4.3-3.4C401.1,567.8,402.5,569.4,403,570.7z"/>
		<path id="XMLID_5740_" class="st2" d="M415.2,579.4c0,0.2-0.1,0.4-0.4,0.4h-1.3c-0.2,0-0.4-0.1-0.4-0.4V578h-0.2
			c-0.9,1.3-2.1,2-3.6,2c-2.2,0-3.7-1.5-3.7-4.4v-7.2c0-0.2,0.1-0.4,0.4-0.4h1.2c0.2,0,0.4,0.1,0.4,0.4v6.7c0,2.1,0.9,3.1,2.3,3.1
			c1.7,0,2.9-1.2,3.1-3.6v-6.2c0-0.2,0.1-0.4,0.4-0.4h1.2c0.2,0,0.4,0.1,0.4,0.4L415.2,579.4z"/>
		<path id="XMLID_5742_" class="st2" d="M424.4,569.5c0,0.2-0.1,0.4-0.4,0.4c-1.9,0.1-3.4,0.8-3.6,3.5v6.1c0,0.2-0.1,0.4-0.4,0.4
			h-1.3c-0.2,0-0.4-0.1-0.4-0.4l0.1-11c0-0.2,0.1-0.4,0.4-0.4h1.2c0.2,0,0.4,0.1,0.4,0.4v1.5h0.2c0.8-1.2,2-2,3.4-2.1
			c0.2,0,0.4,0.1,0.4,0.3L424.4,569.5L424.4,569.5z"/>
		<path id="XMLID_5744_" class="st2" d="M436.4,573.9c0,0.2-0.1,0.4-0.4,0.4h-8.2c0,2.6,1.4,4.1,3.6,4.1c1.3,0,2.2-0.5,2.8-1.6
			c0.1-0.2,0.2-0.2,0.4-0.2h1.1c0.3,0,0.4,0.2,0.3,0.4c-0.9,2-2.6,3.1-4.8,3.1c-3.2,0-5.4-2.4-5.4-6.1s2.3-6.2,5.5-6.2
			C434.8,567.9,436.6,570.5,436.4,573.9z M428,572.7h6.5c-0.1-1.7-1.2-3.1-3.2-3.1S428.3,570.9,428,572.7z"/>
		<path id="XMLID_5747_" class="st2" d="M449.2,579.4c0,0.2-0.1,0.4-0.4,0.4h-1.3c-0.2,0-0.4-0.1-0.4-0.4v-1.3H447
			c-0.8,1.3-2.2,1.9-3.7,1.9c-2.9,0-4.9-2.5-4.9-6c0-3.7,2.2-6.2,5.4-6.2c1.4,0,2.4,0.5,3.3,1.4h0.1v-5.5c0-0.2,0.1-0.4,0.4-0.4h1.2
			c0.2,0,0.4,0.1,0.4,0.4L449.2,579.4z M440.3,573.9c0,2.8,1.4,4.4,3.5,4.4c1.8,0,3.3-1.3,3.5-3.7v-1.5c-0.2-2.4-1.7-3.6-3.5-3.6
			C441.6,569.5,440.3,571.2,440.3,573.9z"/>
		<path id="XMLID_5750_" class="st2" d="M466,571.8l0.1,7.6c0,0.2-0.1,0.4-0.4,0.4h-1.3c-0.2,0-0.4-0.1-0.4-0.4v-1.5h-0.2
			c-0.8,1.2-2.2,2-4,2c-2.1,0-3.6-1.1-3.6-3.2c0-2.4,1.8-3.5,6.1-3.9c1.1-0.1,1.6-0.4,1.6-1.3c0-1.2-0.9-2-2.7-2
			c-1.4,0-2.3,0.6-2.7,1.6c-0.1,0.2-0.2,0.3-0.4,0.3H457c-0.2,0-0.4-0.1-0.3-0.3c0.5-2,2.1-3.3,4.7-3.3
			C464.3,567.8,466,569.3,466,571.8z M464,573.9c-0.4,0.2-0.9,0.3-1.7,0.4c-2.7,0.3-4.1,0.9-4.1,2.3c0,1.1,0.8,1.7,2.1,1.7
			c2.2,0,3.7-1.5,3.8-2.8L464,573.9L464,573.9z"/>
		<path id="XMLID_5753_" class="st2" d="M482.4,570.7c0.1,0.2,0,0.4-0.3,0.4H481c-0.2,0-0.3-0.1-0.4-0.2c-0.5-0.9-1.4-1.4-2.7-1.4
			c-1.4,0-2.3,0.6-2.3,1.6c0,0.9,0.9,1.3,2.6,1.8l0.9,0.3c2.6,0.8,3.7,1.8,3.7,3.4c0,2.2-1.8,3.5-4.5,3.5s-4.3-1.4-4.9-3.2
			c-0.1-0.2,0-0.4,0.3-0.4h1.3c0.2,0,0.3,0.1,0.4,0.3c0.6,1.1,1.6,1.6,3,1.6s2.4-0.5,2.4-1.6c0-0.9-0.8-1.5-2.7-2l-0.9-0.3
			c-2.1-0.6-3.5-1.4-3.5-3.2c0-2,1.8-3.4,4.3-3.4C480.6,567.8,482,569.4,482.4,570.7z"/>
		<path id="XMLID_5755_" class="st2" d="M496.1,573.8c0,3.7-2.2,6.2-5.3,6.2c-1.5,0-2.5-0.5-3.4-1.4h-0.1v5.6c0,0.2-0.1,0.4-0.4,0.4
			h-1.3c-0.2,0-0.4-0.1-0.4-0.4l0.1-15.8c0-0.2,0.1-0.4,0.4-0.4h1.2c0.2,0,0.4,0.1,0.4,0.4v1.3h0.1c0.9-1.3,2.3-2,3.8-2
			C494.1,567.8,496.1,570.3,496.1,573.8z M487.2,573.3v1.5c0.2,2.4,1.7,3.6,3.5,3.6c2.2,0,3.5-1.7,3.5-4.4c0-2.8-1.4-4.5-3.5-4.5
			C488.8,569.5,487.4,570.9,487.2,573.3z"/>
		<path id="XMLID_5758_" class="st2" d="M508.5,573.9c0,0.2-0.1,0.4-0.4,0.4h-8.2c0,2.6,1.4,4.1,3.6,4.1c1.3,0,2.2-0.5,2.8-1.6
			c0.1-0.2,0.2-0.2,0.4-0.2h1.1c0.3,0,0.4,0.2,0.3,0.4c-0.9,2-2.6,3.1-4.8,3.1c-3.2,0-5.4-2.4-5.4-6.1s2.3-6.2,5.5-6.2
			C506.9,567.9,508.7,570.5,508.5,573.9z M500,572.7h6.5c-0.1-1.7-1.2-3.1-3.2-3.1C501.4,569.6,500.4,570.9,500,572.7z"/>
		<path id="XMLID_5761_" class="st2" d="M520.7,571.2c0.1,0.2-0.1,0.4-0.3,0.4h-1.1c-0.2,0-0.3-0.1-0.4-0.3
			c-0.6-1.1-1.5-1.8-2.9-1.8c-2.2,0-3.5,1.5-3.5,4.5c0,2.9,1.3,4.3,3.5,4.3c1.5,0,2.3-0.6,2.8-1.6c0.1-0.2,0.2-0.3,0.4-0.3h1.1
			c0.2,0,0.4,0.2,0.3,0.4c-0.6,1.6-2.2,3.2-4.8,3.2c-3.2,0-5.3-2.4-5.3-6c0-3.8,2.2-6.2,5.4-6.2
			C518.4,567.8,520.1,569.4,520.7,571.2z"/>
		<path id="XMLID_5763_" class="st2" d="M525.1,579.4c0,0.2-0.1,0.4-0.4,0.4h-1.3c-0.2,0-0.4-0.1-0.4-0.4l0.1-11
			c0-0.2,0.1-0.4,0.4-0.4h1.2c0.2,0,0.4,0.1,0.4,0.4V579.4z M525.1,565.2c0,0.2-0.1,0.4-0.4,0.4h-1.2c-0.2,0-0.4-0.1-0.4-0.4v-1.5
			c0-0.2,0.1-0.4,0.4-0.4h1.2c0.2,0,0.4,0.1,0.4,0.4V565.2z"/>
		<path id="XMLID_5766_" class="st2" d="M537.6,571.8l0.1,7.6c0,0.2-0.1,0.4-0.4,0.4H536c-0.2,0-0.4-0.1-0.4-0.4v-1.5h-0.2
			c-0.8,1.2-2.2,2-4,2c-2.1,0-3.6-1.1-3.6-3.2c0-2.4,1.8-3.5,6.1-3.9c1.1-0.1,1.6-0.4,1.6-1.3c0-1.2-0.9-2-2.7-2
			c-1.4,0-2.3,0.6-2.7,1.6c-0.1,0.2-0.2,0.3-0.4,0.3h-1.1c-0.2,0-0.4-0.1-0.3-0.3c0.5-2,2.1-3.3,4.7-3.3
			C536,567.8,537.6,569.3,537.6,571.8z M535.6,573.9c-0.4,0.2-0.9,0.3-1.7,0.4c-2.7,0.3-4.1,0.9-4.1,2.3c0,1.1,0.8,1.7,2.1,1.7
			c2.2,0,3.7-1.5,3.8-2.8L535.6,573.9L535.6,573.9z"/>
		<path id="XMLID_5769_" class="st2" d="M543.5,579.4c0,0.2-0.1,0.4-0.4,0.4h-1.3c-0.2,0-0.4-0.1-0.4-0.4l0.1-15.7
			c0-0.2,0.1-0.4,0.4-0.4h1.2c0.2,0,0.4,0.1,0.4,0.4V579.4z"/>
		<path id="XMLID_5771_" class="st2" d="M553.8,569.3c0.8-1,1.9-1.4,3.3-1.4c3.2,0,5.4,2.5,5.4,6.2c0,3.5-2,6-4.9,6
			c-1.5,0-2.9-0.6-3.8-1.9h-0.1v1.3c0,0.2-0.1,0.4-0.4,0.4H552c-0.2,0-0.4-0.1-0.4-0.4l0.1-15.7c0-0.2,0.1-0.4,0.4-0.4h1.1
			c0.2,0,0.4,0.1,0.4,0.4v5.5L553.8,569.3L553.8,569.3z M553.6,573.2v1.5c0.2,2.5,1.7,3.7,3.5,3.7c2.2,0,3.5-1.7,3.5-4.3
			c0-2.9-1.4-4.5-3.5-4.5C555.3,569.5,553.9,570.9,553.6,573.2z"/>
		<path id="XMLID_5774_" class="st2" d="M575.5,573.8c0,3.6-2.4,6.3-5.6,6.3c-3.1,0-5.4-2.5-5.4-6.1c0-3.7,2.4-6.2,5.6-6.2
			C573.2,567.8,575.5,570.2,575.5,573.8z M566.4,573.8c0,2.7,1.6,4.5,3.7,4.5c2,0,3.5-1.7,3.5-4.3c0-2.8-1.6-4.5-3.7-4.5
			C567.9,569.5,566.4,571.2,566.4,573.8z"/>
		<path id="XMLID_5777_" class="st2" d="M587.7,572.1v7.3c0,0.2-0.1,0.4-0.4,0.4H586c-0.2,0-0.4-0.1-0.4-0.4v-6.9
			c0-1.9-0.9-2.9-2.4-2.9c-1.6,0-2.9,1.2-3.1,3.5v6.2c0,0.2-0.1,0.4-0.4,0.4h-1.3c-0.2,0-0.4-0.1-0.4-0.4l0.1-11
			c0-0.2,0.1-0.4,0.4-0.4h1.2c0.2,0,0.4,0.1,0.4,0.4v1.4h0.2c0.9-1.3,2.1-2,3.7-2C586.2,567.8,587.7,569.4,587.7,572.1z"/>
		<path id="XMLID_5779_" class="st2" d="M601,579.4c0,0.2-0.1,0.4-0.4,0.4h-1.3c-0.2,0-0.4-0.1-0.4-0.4v-1.3h-0.1
			c-0.8,1.3-2.2,1.9-3.7,1.9c-2.9,0-4.9-2.5-4.9-6c0-3.7,2.2-6.2,5.4-6.2c1.4,0,2.4,0.5,3.3,1.4h0.1v-5.5c0-0.2,0.1-0.4,0.4-0.4h1.2
			c0.2,0,0.4,0.1,0.4,0.4V579.4z M592.2,573.9c0,2.8,1.4,4.4,3.5,4.4c1.8,0,3.3-1.3,3.5-3.7v-1.5c-0.2-2.4-1.7-3.6-3.5-3.6
			C593.5,569.5,592.2,571.2,592.2,573.9z"/>
		<path id="XMLID_5782_" class="st2" d="M623.3,568.1c0.3,0,0.4,0.2,0.3,0.4l-3.1,11c-0.1,0.2-0.2,0.3-0.4,0.3h-1.8
			c-0.2,0-0.3-0.1-0.4-0.3l-2.2-7.7h-0.2l-2.1,7.7c-0.1,0.2-0.2,0.3-0.4,0.3h-1.9c-0.2,0-0.3-0.1-0.4-0.3l-3-11
			c-0.1-0.2,0-0.4,0.3-0.4h1.1c0.2,0,0.3,0.1,0.4,0.3l2.5,9.3h0.2l2.5-9.3c0.1-0.2,0.2-0.3,0.4-0.3h1c0.2,0,0.3,0.1,0.4,0.3l2.5,9.3
			h0.2l2.5-9.3c0.1-0.2,0.2-0.3,0.4-0.3H623.3z"/>
		<path id="XMLID_5784_" class="st2" d="M628.1,579.4c0,0.2-0.1,0.4-0.4,0.4h-1.3c-0.2,0-0.4-0.1-0.4-0.4l0.1-11
			c0-0.2,0.1-0.4,0.4-0.4h1.2c0.2,0,0.4,0.1,0.4,0.4V579.4z M628,565.2c0,0.2-0.1,0.4-0.4,0.4h-1.2c-0.2,0-0.4-0.1-0.4-0.4v-1.5
			c0-0.2,0.1-0.4,0.4-0.4h1.2c0.2,0,0.4,0.1,0.4,0.4V565.2z"/>
		<path id="XMLID_5787_" class="st2" d="M637.1,569.4c0,0.2-0.1,0.4-0.4,0.4h-2.1v9.7c0,0.2-0.1,0.4-0.4,0.4H633
			c-0.2,0-0.4-0.1-0.4-0.4v-9.7h-1.8c-0.2,0-0.4-0.1-0.4-0.4v-0.9c0-0.2,0.1-0.4,0.4-0.4h1.8v-4.2c0-0.2,0.1-0.4,0.4-0.4h1.2
			c0.2,0,0.4,0.1,0.4,0.4v4.2h2.2c0.2,0,0.4,0.1,0.4,0.4v0.9H637.1z"/>
		<path id="XMLID_5789_" class="st2" d="M641.4,569.9c0.9-1.2,2-1.9,3.6-1.9c2.2,0,3.6,1.5,3.7,4.2v7.3c0,0.2-0.1,0.4-0.4,0.4H647
			c-0.2,0-0.4-0.1-0.4-0.4v-6.9c0-1.9-0.9-2.8-2.4-2.8c-1.6,0-2.9,1.2-3.1,3.5v6.2c0,0.2-0.1,0.4-0.4,0.4h-1.3
			c-0.2,0-0.4-0.1-0.4-0.4l0.1-15.7c0-0.2,0.1-0.4,0.4-0.4h1.2c0.2,0,0.4,0.1,0.4,0.4v6.1L641.4,569.9z"/>
		<path id="XMLID_5791_" class="st2" d="M662.1,569.4c0,0.2-0.1,0.4-0.4,0.4h-2.1v9.7c0,0.2-0.1,0.4-0.4,0.4H658
			c-0.2,0-0.4-0.1-0.4-0.4v-9.7h-1.8c-0.2,0-0.4-0.1-0.4-0.4v-0.9c0-0.2,0.1-0.4,0.4-0.4h1.8v-4.2c0-0.2,0.1-0.4,0.4-0.4h1.2
			c0.2,0,0.4,0.1,0.4,0.4v4.2h2.2c0.2,0,0.4,0.1,0.4,0.4v0.9H662.1z"/>
		<path id="XMLID_5793_" class="st2" d="M666.4,569.9c0.9-1.2,2-1.9,3.6-1.9c2.2,0,3.6,1.5,3.7,4.2v7.3c0,0.2-0.1,0.4-0.4,0.4H672
			c-0.2,0-0.4-0.1-0.4-0.4v-6.9c0-1.9-0.9-2.8-2.4-2.8c-1.6,0-2.9,1.2-3.1,3.5v6.2c0,0.2-0.1,0.4-0.4,0.4h-1.3
			c-0.2,0-0.4-0.1-0.4-0.4l0.1-15.7c0-0.2,0.1-0.4,0.4-0.4h1.2c0.2,0,0.4,0.1,0.4,0.4v6.1L666.4,569.9z"/>
		<path id="XMLID_5795_" class="st2" d="M686.8,573.9c0,0.2-0.1,0.4-0.4,0.4h-8.2c0,2.6,1.4,4.1,3.6,4.1c1.3,0,2.2-0.5,2.8-1.6
			c0.1-0.2,0.2-0.2,0.4-0.2h1.1c0.3,0,0.4,0.2,0.3,0.4c-0.9,2-2.6,3.1-4.8,3.1c-3.2,0-5.4-2.4-5.4-6.1s2.3-6.2,5.5-6.2
			C685.2,567.9,686.9,570.5,686.8,573.9z M678.3,572.7h6.5c-0.1-1.7-1.2-3.1-3.2-3.1C679.7,569.6,678.6,570.9,678.3,572.7z"/>
		<path id="XMLID_5798_" class="st2" d="M378.1,594.5c0.2,0,0.4,0.2,0.3,0.4l-5.5,15.8c-0.1,0.2-0.2,0.3-0.4,0.3h-1.3
			c-0.3,0-0.4-0.2-0.3-0.4l1.4-3.9l-4.2-11.8c-0.1-0.2,0-0.4,0.3-0.4h1.1c0.2,0,0.3,0.1,0.4,0.3l3.2,9.2h0.2l3.3-9.2
			c0.1-0.2,0.2-0.3,0.4-0.3L378.1,594.5L378.1,594.5z"/>
		<path id="XMLID_5800_" class="st2" d="M391,600.2c0,3.6-2.4,6.3-5.6,6.3c-3.1,0-5.4-2.5-5.4-6.1c0-3.7,2.4-6.2,5.6-6.2
			C388.8,594.2,391,596.6,391,600.2z M381.9,600.2c0,2.7,1.6,4.5,3.7,4.5c2,0,3.5-1.7,3.5-4.3c0-2.8-1.6-4.5-3.7-4.5
			C383.4,595.9,381.9,597.6,381.9,600.2z"/>
		<path id="XMLID_5803_" class="st2" d="M403.1,605.8c0,0.2-0.1,0.4-0.4,0.4h-1.3c-0.2,0-0.4-0.1-0.4-0.4v-1.4h-0.2
			c-0.9,1.3-2.1,2-3.6,2c-2.2,0-3.7-1.5-3.7-4.4v-7.2c0-0.2,0.1-0.4,0.4-0.4h1.2c0.2,0,0.4,0.1,0.4,0.4v6.7c0,2.1,0.9,3.1,2.3,3.1
			c1.7,0,2.9-1.2,3.1-3.6v-6.2c0-0.2,0.1-0.4,0.4-0.4h1.2c0.2,0,0.4,0.1,0.4,0.4L403.1,605.8z"/>
		<path id="XMLID_5805_" class="st2" d="M415.9,598.5v7.3c0,0.2-0.1,0.4-0.4,0.4h-1.3c-0.2,0-0.4-0.1-0.4-0.4v-6.9
			c0-1.9-0.9-2.9-2.4-2.9c-1.6,0-2.9,1.2-3.1,3.5v6.2c0,0.2-0.1,0.4-0.4,0.4h-1.3c-0.2,0-0.4-0.1-0.4-0.4l0.1-11
			c0-0.2,0.1-0.4,0.4-0.4h1.2c0.2,0,0.4,0.1,0.4,0.4v1.4h0.2c0.9-1.3,2.1-2,3.7-2C414.4,594.2,415.9,595.8,415.9,598.5z"/>
		<path id="XMLID_5807_" class="st2" d="M427.1,596.2h0.1v-1.3c0-0.2,0.1-0.4,0.4-0.4h1.2c0.2,0,0.4,0.1,0.4,0.4l0.1,9.9
			c0,4.4-2.1,6.6-5.3,6.6c-2.3,0-3.9-1.1-4.7-2.9c-0.1-0.2,0-0.4,0.3-0.4h1.2c0.2,0,0.3,0.1,0.4,0.2c0.6,0.9,1.5,1.3,2.8,1.3
			c2,0,3.3-1.2,3.3-4.3v-0.6h-0.1c-0.8,1-1.8,1.5-3.2,1.5c-3.2,0-5.4-2.4-5.4-6c0-3.4,2-6,4.9-6
			C424.9,594.2,426.3,594.9,427.1,596.2z M420.4,600.4c0,2.6,1.3,4.1,3.5,4.1c1.8,0,3.3-1.1,3.5-3.3v-1.5c-0.2-2.4-1.7-3.8-3.5-3.8
			C421.8,595.9,420.4,597.6,420.4,600.4z"/>
		<path id="XMLID_5810_" class="st2" d="M446.1,598.2l0.1,7.6c0,0.2-0.1,0.4-0.4,0.4h-1.3c-0.2,0-0.4-0.1-0.4-0.4v-1.5h-0.2
			c-0.8,1.2-2.2,2-4,2c-2.1,0-3.6-1.1-3.6-3.2c0-2.4,1.8-3.5,6.1-3.9c1.1-0.1,1.6-0.4,1.6-1.3c0-1.2-0.9-2-2.7-2
			c-1.4,0-2.3,0.6-2.7,1.6c-0.1,0.2-0.2,0.3-0.4,0.3h-1.1c-0.2,0-0.4-0.1-0.3-0.3c0.5-2,2.1-3.3,4.7-3.3
			C444.4,594.2,446.1,595.7,446.1,598.2z M444.1,600.3c-0.4,0.2-0.9,0.3-1.7,0.4c-2.7,0.3-4.1,0.9-4.1,2.3c0,1.1,0.8,1.7,2.1,1.7
			c2.2,0,3.7-1.5,3.8-2.8L444.1,600.3L444.1,600.3z"/>
		<path id="XMLID_5813_" class="st2" d="M459,598.5v7.3c0,0.2-0.1,0.4-0.4,0.4h-1.3c-0.2,0-0.4-0.1-0.4-0.4v-6.9
			c0-1.9-0.9-2.9-2.4-2.9c-1.6,0-2.9,1.2-3.1,3.5v6.2c0,0.2-0.1,0.4-0.4,0.4h-1.3c-0.2,0-0.4-0.1-0.4-0.4l0.1-11
			c0-0.2,0.1-0.4,0.4-0.4h1.2c0.2,0,0.4,0.1,0.4,0.4v1.4h0.2c0.9-1.3,2.1-2,3.7-2C457.5,594.2,459,595.8,459,598.5z"/>
		<path id="XMLID_5815_" class="st2" d="M472.3,605.8c0,0.2-0.1,0.4-0.4,0.4h-1.3c-0.2,0-0.4-0.1-0.4-0.4v-1.3h-0.1
			c-0.8,1.3-2.2,1.9-3.7,1.9c-2.9,0-4.9-2.5-4.9-6c0-3.7,2.2-6.2,5.4-6.2c1.4,0,2.4,0.5,3.3,1.4h0.1v-5.5c0-0.2,0.1-0.4,0.4-0.4h1.2
			c0.2,0,0.4,0.1,0.4,0.4V605.8z M463.5,600.3c0,2.8,1.4,4.4,3.5,4.4c1.8,0,3.3-1.3,3.5-3.7v-1.5c-0.2-2.4-1.7-3.6-3.5-3.6
			C464.8,595.9,463.5,597.6,463.5,600.3z"/>
		<path id="XMLID_5818_" class="st2" d="M490.5,600.2c0,3.6-2.4,6.3-5.6,6.3c-3.1,0-5.4-2.5-5.4-6.1c0-3.7,2.4-6.2,5.6-6.2
			C488.2,594.2,490.5,596.6,490.5,600.2z M481.4,600.2c0,2.7,1.6,4.5,3.7,4.5c2,0,3.5-1.7,3.5-4.3c0-2.8-1.6-4.5-3.7-4.5
			S481.4,597.6,481.4,600.2z"/>
		<path id="XMLID_5821_" class="st2" d="M499,595.9c0,0.2-0.1,0.4-0.4,0.4c-1.9,0.1-3.4,0.8-3.6,3.5v6.1c0,0.2-0.1,0.4-0.4,0.4h-1.3
			c-0.2,0-0.4-0.1-0.4-0.4l0.1-11c0-0.2,0.1-0.4,0.4-0.4h1.2c0.2,0,0.4,0.1,0.4,0.4v1.5h0.2c0.8-1.2,2-2,3.4-2.1
			c0.2,0,0.4,0.1,0.4,0.3L499,595.9L499,595.9z"/>
		<path id="XMLID_5823_" class="st2" d="M511.9,600.2c0,3.7-2.2,6.2-5.3,6.2c-1.5,0-2.5-0.5-3.4-1.4h-0.1v5.6c0,0.2-0.1,0.4-0.4,0.4
			h-1.3c-0.2,0-0.4-0.1-0.4-0.4l0.1-15.8c0-0.2,0.1-0.4,0.4-0.4h1.2c0.2,0,0.4,0.1,0.4,0.4v1.3h0.1c0.9-1.3,2.3-2,3.8-2
			C509.9,594.2,511.9,596.7,511.9,600.2z M503,599.7v1.5c0.2,2.4,1.7,3.6,3.5,3.6c2.2,0,3.5-1.7,3.5-4.4c0-2.8-1.4-4.5-3.5-4.5
			C504.7,595.9,503.2,597.3,503,599.7z"/>
		<path id="XMLID_5826_" class="st2" d="M516.7,596.3c0.9-1.2,2-1.9,3.6-1.9c2.2,0,3.6,1.5,3.7,4.2v7.3c0,0.2-0.1,0.4-0.4,0.4h-1.3
			c-0.2,0-0.4-0.1-0.4-0.4V599c0-1.9-0.9-2.8-2.4-2.8c-1.6,0-2.9,1.2-3.1,3.5v6.2c0,0.2-0.1,0.4-0.4,0.4h-1.3
			c-0.2,0-0.4-0.1-0.4-0.4l0.1-15.7c0-0.2,0.1-0.4,0.4-0.4h1.2c0.2,0,0.4,0.1,0.4,0.4v6.1H516.7z"/>
		<path id="XMLID_5828_" class="st2" d="M536.2,598.2l0.1,7.6c0,0.2-0.1,0.4-0.4,0.4h-1.3c-0.2,0-0.4-0.1-0.4-0.4v-1.5H534
			c-0.8,1.2-2.2,2-4,2c-2.1,0-3.6-1.1-3.6-3.2c0-2.4,1.8-3.5,6.1-3.9c1.1-0.1,1.6-0.4,1.6-1.3c0-1.2-0.9-2-2.7-2
			c-1.4,0-2.3,0.6-2.7,1.6c-0.1,0.2-0.2,0.3-0.4,0.3h-1.1c-0.2,0-0.4-0.1-0.3-0.3c0.5-2,2.1-3.3,4.7-3.3
			C534.6,594.2,536.2,595.7,536.2,598.2z M534.3,600.3c-0.4,0.2-0.9,0.3-1.7,0.4c-2.7,0.3-4.1,0.9-4.1,2.3c0,1.1,0.8,1.7,2.1,1.7
			c2.2,0,3.7-1.5,3.8-2.8L534.3,600.3L534.3,600.3z"/>
		<path id="XMLID_5831_" class="st2" d="M549.1,598.5v7.3c0,0.2-0.1,0.4-0.4,0.4h-1.3c-0.2,0-0.4-0.1-0.4-0.4v-6.9
			c0-1.9-0.9-2.9-2.4-2.9c-1.6,0-2.9,1.2-3.1,3.5v6.2c0,0.2-0.1,0.4-0.4,0.4h-1.3c-0.2,0-0.4-0.1-0.4-0.4l0.1-11
			c0-0.2,0.1-0.4,0.4-0.4h1.2c0.2,0,0.4,0.1,0.4,0.4v1.4h0.2c0.9-1.3,2.1-2,3.7-2C547.6,594.2,549.1,595.8,549.1,598.5z"/>
		<path id="XMLID_5833_" class="st2" d="M571.4,594.5c0.3,0,0.4,0.2,0.3,0.4l-3.1,11c-0.1,0.2-0.2,0.3-0.4,0.3h-1.8
			c-0.2,0-0.3-0.1-0.4-0.3l-2.2-7.7h-0.2l-2.1,7.7c-0.1,0.2-0.2,0.3-0.4,0.3h-1.9c-0.2,0-0.3-0.1-0.4-0.3l-3-11
			c-0.1-0.2,0-0.4,0.3-0.4h1.1c0.2,0,0.3,0.1,0.4,0.3l2.5,9.3h0.2l2.5-9.3c0.1-0.2,0.2-0.3,0.4-0.3h1c0.2,0,0.3,0.1,0.4,0.3l2.5,9.3
			h0.2l2.5-9.3c0.1-0.2,0.2-0.3,0.4-0.3H571.4z"/>
		<path id="XMLID_5835_" class="st2" d="M576.2,605.8c0,0.2-0.1,0.4-0.4,0.4h-1.3c-0.2,0-0.4-0.1-0.4-0.4l0.1-11
			c0-0.2,0.1-0.4,0.4-0.4h1.2c0.2,0,0.4,0.1,0.4,0.4V605.8z M576.1,591.6c0,0.2-0.1,0.4-0.4,0.4h-1.2c-0.2,0-0.4-0.1-0.4-0.4v-1.5
			c0-0.2,0.1-0.4,0.4-0.4h1.2c0.2,0,0.4,0.1,0.4,0.4V591.6z"/>
		<path id="XMLID_5838_" class="st2" d="M587.8,595.8L587.8,595.8c0,0.1-0.1,0.3-0.2,0.4l-6.2,8.3v0.1h6.2c0.2,0,0.4,0.1,0.4,0.4
			v0.9c0,0.2-0.1,0.4-0.4,0.4h-8.2c-0.2,0-0.4-0.1-0.4-0.4v-1c0-0.1,0-0.2,0.1-0.2l6.5-8.4v-0.1h-6c-0.2,0-0.4-0.1-0.4-0.4v-0.9
			c0-0.2,0.1-0.4,0.4-0.4h7.8c0.2,0,0.4,0.1,0.4,0.4L587.8,595.8L587.8,595.8z"/>
		<path id="XMLID_5840_" class="st2" d="M599.5,598.2l0.1,7.6c0,0.2-0.1,0.4-0.4,0.4h-1.3c-0.2,0-0.4-0.1-0.4-0.4v-1.5h-0.2
			c-0.8,1.2-2.2,2-4,2c-2.1,0-3.6-1.1-3.6-3.2c0-2.4,1.8-3.5,6.1-3.9c1.1-0.1,1.6-0.4,1.6-1.3c0-1.2-0.9-2-2.7-2
			c-1.4,0-2.3,0.6-2.7,1.6c-0.1,0.2-0.2,0.3-0.4,0.3h-1.1c-0.2,0-0.4-0.1-0.3-0.3c0.5-2,2.1-3.3,4.7-3.3
			C597.8,594.2,599.5,595.7,599.5,598.2z M597.5,600.3c-0.4,0.2-0.9,0.3-1.7,0.4c-2.7,0.3-4.1,0.9-4.1,2.3c0,1.1,0.8,1.7,2.1,1.7
			c2.2,0,3.7-1.5,3.8-2.8L597.5,600.3L597.5,600.3z"/>
		<path id="XMLID_5843_" class="st2" d="M608.7,595.9c0,0.2-0.1,0.4-0.4,0.4c-1.9,0.1-3.4,0.8-3.6,3.5v6.1c0,0.2-0.1,0.4-0.4,0.4
			H603c-0.2,0-0.4-0.1-0.4-0.4l0.1-11c0-0.2,0.1-0.4,0.4-0.4h1.2c0.2,0,0.4,0.1,0.4,0.4v1.5h0.2c0.8-1.2,2-2,3.4-2.1
			c0.2,0,0.4,0.1,0.4,0.3L608.7,595.9L608.7,595.9z"/>
		<path id="XMLID_5845_" class="st2" d="M621,605.8c0,0.2-0.1,0.4-0.4,0.4h-1.3c-0.2,0-0.4-0.1-0.4-0.4v-1.3h-0.1
			c-0.8,1.3-2.2,1.9-3.7,1.9c-2.9,0-4.9-2.5-4.9-6c0-3.7,2.2-6.2,5.4-6.2c1.4,0,2.4,0.5,3.3,1.4h0.1v-5.5c0-0.2,0.1-0.4,0.4-0.4h1.2
			c0.2,0,0.4,0.1,0.4,0.4V605.8z M612.1,600.3c0,2.8,1.4,4.4,3.5,4.4c1.8,0,3.3-1.3,3.5-3.7v-1.5c-0.2-2.4-1.7-3.6-3.5-3.6
			C613.4,595.9,612.1,597.6,612.1,600.3z"/>
		<path id="XMLID_5848_" class="st2" d="M627.2,596.2c0,0.2-0.1,0.4-0.4,0.4h-1.6c-0.2,0-0.4-0.1-0.4-0.4v-1.7
			c0-0.2,0.1-0.4,0.4-0.4h1.6c0.2,0,0.4,0.1,0.4,0.4V596.2z M627.2,605.6c0,2-0.5,3-1.4,4c-0.2,0.2-0.3,0.2-0.5,0.1h-0.1
			c-0.2-0.1-0.3-0.3-0.1-0.5c0.7-1.1,0.9-2.2,0.1-2.8c-0.2-0.1-0.2-0.2-0.2-0.4v-1.7c0-0.2,0.1-0.4,0.4-0.4h1.6
			c0.2,0,0.4,0.1,0.4,0.4v1.3L627.2,605.6L627.2,605.6z"/>
		<path id="XMLID_5851_" class="st2" d="M641.1,595.8c0,0.2-0.1,0.4-0.4,0.4h-2.1v9.7c0,0.2-0.1,0.4-0.4,0.4H637
			c-0.2,0-0.4-0.1-0.4-0.4v-9.7h-1.8c-0.2,0-0.4-0.1-0.4-0.4v-0.9c0-0.2,0.1-0.4,0.4-0.4h1.8v-4.2c0-0.2,0.1-0.4,0.4-0.4h1.2
			c0.2,0,0.4,0.1,0.4,0.4v4.2h2.2c0.2,0,0.4,0.1,0.4,0.4v0.9H641.1z"/>
		<path id="XMLID_5853_" class="st2" d="M645.4,596.3c0.9-1.2,2-1.9,3.6-1.9c2.2,0,3.6,1.5,3.7,4.2v7.3c0,0.2-0.1,0.4-0.4,0.4H651
			c-0.2,0-0.4-0.1-0.4-0.4V599c0-1.9-0.9-2.8-2.4-2.8c-1.6,0-2.9,1.2-3.1,3.5v6.2c0,0.2-0.1,0.4-0.4,0.4h-1.3
			c-0.2,0-0.4-0.1-0.4-0.4l0.1-15.7c0-0.2,0.1-0.4,0.4-0.4h1.2c0.2,0,0.4,0.1,0.4,0.4v6.1H645.4z"/>
		<path id="XMLID_5855_" class="st2" d="M665.8,600.3c0,0.2-0.1,0.4-0.4,0.4h-8.2c0,2.6,1.4,4.1,3.6,4.1c1.3,0,2.2-0.5,2.8-1.6
			c0.1-0.2,0.2-0.2,0.4-0.2h1.1c0.3,0,0.4,0.2,0.3,0.4c-0.9,2-2.6,3.1-4.8,3.1c-3.2,0-5.4-2.4-5.4-6.1s2.3-6.2,5.5-6.2
			C664.2,594.3,665.9,596.9,665.8,600.3z M657.3,599.1h6.5c-0.1-1.7-1.2-3.1-3.2-3.1C658.7,596,657.7,597.3,657.3,599.1z"/>
		<path id="XMLID_5858_" class="st2" d="M677.5,594.5c0.2,0,0.4,0.2,0.3,0.4l-5.5,15.8c-0.1,0.2-0.2,0.3-0.4,0.3h-1.3
			c-0.3,0-0.4-0.2-0.3-0.4l1.4-3.9l-4.2-11.8c-0.1-0.2,0-0.4,0.3-0.4h1.1c0.2,0,0.3,0.1,0.4,0.3l3.2,9.2h0.2l3.3-9.2
			c0.1-0.2,0.2-0.3,0.4-0.3L677.5,594.5L677.5,594.5z"/>
		<path id="XMLID_5860_" class="st2" d="M377.7,623.5c0.1,0.2,0,0.4-0.3,0.4h-1.1c-0.2,0-0.3-0.1-0.4-0.2c-0.5-0.9-1.4-1.4-2.7-1.4
			c-1.4,0-2.3,0.6-2.3,1.6c0,0.9,0.9,1.3,2.6,1.8l0.9,0.3c2.6,0.8,3.7,1.8,3.7,3.4c0,2.2-1.8,3.5-4.5,3.5s-4.3-1.4-4.9-3.2
			c-0.1-0.2,0-0.4,0.3-0.4h1.3c0.2,0,0.3,0.1,0.4,0.3c0.6,1.1,1.6,1.6,3,1.6s2.4-0.5,2.4-1.6c0-0.9-0.8-1.5-2.7-2l-0.9-0.3
			c-2.1-0.6-3.5-1.4-3.5-3.2c0-2,1.8-3.4,4.3-3.4C375.9,620.6,377.3,622.2,377.7,623.5z"/>
		<path id="XMLID_5862_" class="st2" d="M382.7,622.7c0.9-1.2,2-1.9,3.6-1.9c2.2,0,3.6,1.5,3.7,4.2v7.3c0,0.2-0.1,0.4-0.4,0.4h-1.3
			c-0.2,0-0.4-0.1-0.4-0.4v-6.9c0-1.9-0.9-2.8-2.4-2.8c-1.6,0-2.9,1.2-3.1,3.5v6.2c0,0.2-0.1,0.4-0.4,0.4h-1.3
			c-0.2,0-0.4-0.1-0.4-0.4l0.1-15.7c0-0.2,0.1-0.4,0.4-0.4h1.2c0.2,0,0.4,0.1,0.4,0.4v6.1L382.7,622.7L382.7,622.7z"/>
		<path id="XMLID_5864_" class="st2" d="M402.3,624.6l0.1,7.6c0,0.2-0.1,0.4-0.4,0.4h-1.3c-0.2,0-0.4-0.1-0.4-0.4v-1.5h-0.2
			c-0.8,1.2-2.2,2-4,2c-2.1,0-3.6-1.1-3.6-3.2c0-2.4,1.8-3.5,6.1-3.9c1.1-0.1,1.6-0.4,1.6-1.3c0-1.2-0.9-2-2.7-2
			c-1.4,0-2.3,0.6-2.7,1.6c-0.1,0.2-0.2,0.3-0.4,0.3h-1.1c-0.2,0-0.4-0.1-0.3-0.3c0.5-2,2.1-3.3,4.7-3.3
			C400.6,620.6,402.3,622.1,402.3,624.6z M400.3,626.7c-0.4,0.2-0.9,0.3-1.7,0.4c-2.7,0.3-4.1,0.9-4.1,2.3c0,1.1,0.8,1.7,2.1,1.7
			c2.2,0,3.7-1.5,3.8-2.8L400.3,626.7L400.3,626.7z"/>
		<path id="XMLID_5867_" class="st2" d="M411.5,622.3c0,0.2-0.1,0.4-0.4,0.4c-1.9,0.1-3.4,0.8-3.6,3.5v6.1c0,0.2-0.1,0.4-0.4,0.4
			H406c-0.2,0-0.4-0.1-0.4-0.4l0.1-11c0-0.2,0.1-0.4,0.4-0.4h1.2c0.2,0,0.4,0.1,0.4,0.4v1.5h0.2c0.8-1.2,2-2,3.4-2.1
			c0.2,0,0.4,0.1,0.4,0.3v1.3H411.5L411.5,622.3z"/>
		<path id="XMLID_5869_" class="st2" d="M423.5,626.7c0,0.2-0.1,0.4-0.4,0.4h-8.2c0,2.6,1.4,4.1,3.6,4.1c1.3,0,2.2-0.5,2.8-1.6
			c0.1-0.2,0.2-0.2,0.4-0.2h1.1c0.3,0,0.4,0.2,0.3,0.4c-0.9,2-2.6,3.1-4.8,3.1c-3.2,0-5.4-2.4-5.4-6.1s2.3-6.2,5.5-6.2
			C421.9,620.7,423.6,623.3,423.5,626.7z M415,625.5h6.5c-0.1-1.7-1.2-3.1-3.2-3.1C416.4,622.4,415.3,623.7,415,625.5z"/>
		<path id="XMLID_5872_" class="st2" d="M436.2,632.2c0,0.2-0.1,0.4-0.4,0.4h-1.3c-0.2,0-0.4-0.1-0.4-0.4v-1.3H434
			c-0.8,1.3-2.2,1.9-3.7,1.9c-2.9,0-4.9-2.5-4.9-6c0-3.7,2.2-6.2,5.4-6.2c1.4,0,2.4,0.5,3.3,1.4h0.1v-5.5c0-0.2,0.1-0.4,0.4-0.4h1.2
			c0.2,0,0.4,0.1,0.4,0.4L436.2,632.2L436.2,632.2z M427.4,626.7c0,2.8,1.4,4.4,3.5,4.4c1.8,0,3.3-1.3,3.5-3.7v-1.5
			c-0.2-2.4-1.7-3.6-3.5-3.6C428.7,622.3,427.4,624,427.4,626.7z"/>
		<path id="XMLID_5875_" class="st2" d="M453.1,624.6l0.1,7.6c0,0.2-0.1,0.4-0.4,0.4h-1.3c-0.2,0-0.4-0.1-0.4-0.4v-1.5H451
			c-0.8,1.2-2.2,2-4,2c-2.1,0-3.6-1.1-3.6-3.2c0-2.4,1.8-3.5,6.1-3.9c1.1-0.1,1.6-0.4,1.6-1.3c0-1.2-0.9-2-2.7-2
			c-1.4,0-2.3,0.6-2.7,1.6c-0.1,0.2-0.2,0.3-0.4,0.3h-1.1c-0.2,0-0.4-0.1-0.3-0.3c0.5-2,2.1-3.3,4.7-3.3
			C451.4,620.6,453.1,622.1,453.1,624.6z M451.1,626.7c-0.4,0.2-0.9,0.3-1.7,0.4c-2.7,0.3-4.1,0.9-4.1,2.3c0,1.1,0.8,1.7,2.1,1.7
			c2.2,0,3.7-1.5,3.8-2.8L451.1,626.7L451.1,626.7z"/>
		<path id="XMLID_5878_" class="st2" d="M463,622.1c0.8-1,1.9-1.4,3.3-1.4c3.2,0,5.4,2.5,5.4,6.2c0,3.5-2,6-4.9,6
			c-1.5,0-2.9-0.6-3.8-1.9h-0.1v1.3c0,0.2-0.1,0.4-0.4,0.4h-1.3c-0.2,0-0.4-0.1-0.4-0.4l0.1-15.7c0-0.2,0.1-0.4,0.4-0.4h1.1
			c0.2,0,0.4,0.1,0.4,0.4v5.5L463,622.1L463,622.1z M462.8,626v1.5c0.2,2.5,1.7,3.7,3.5,3.7c2.2,0,3.5-1.7,3.5-4.3
			c0-2.9-1.4-4.5-3.5-4.5C464.5,622.3,463,623.7,462.8,626z"/>
		<path id="XMLID_5881_" class="st2" d="M476.6,632.2c0,0.2-0.1,0.4-0.4,0.4h-1.3c-0.2,0-0.4-0.1-0.4-0.4l0.1-11
			c0-0.2,0.1-0.4,0.4-0.4h1.2c0.2,0,0.4,0.1,0.4,0.4L476.6,632.2z M476.5,618c0,0.2-0.1,0.4-0.4,0.4H475c-0.2,0-0.4-0.1-0.4-0.4
			v-1.5c0-0.2,0.1-0.4,0.4-0.4h1.2c0.2,0,0.4,0.1,0.4,0.4v1.5H476.5z"/>
		<path id="XMLID_5884_" class="st2" d="M486,622.3c0,0.2-0.1,0.4-0.4,0.4c-1.9,0.1-3.4,0.8-3.6,3.5v6.1c0,0.2-0.1,0.4-0.4,0.4h-1.3
			c-0.2,0-0.4-0.1-0.4-0.4l0.1-11c0-0.2,0.1-0.4,0.4-0.4h1.2c0.2,0,0.4,0.1,0.4,0.4v1.5h0.2c0.8-1.2,2-2,3.4-2.1
			c0.2,0,0.4,0.1,0.4,0.3L486,622.3L486,622.3z"/>
		<path id="XMLID_5886_" class="st2" d="M493.7,622.2c0,0.2-0.1,0.4-0.4,0.4h-2.1v9.7c0,0.2-0.1,0.4-0.4,0.4h-1.3
			c-0.2,0-0.4-0.1-0.4-0.4v-9.7h-1.8c-0.2,0-0.4-0.1-0.4-0.4v-0.9c0-0.2,0.1-0.4,0.4-0.4h1.8v-4.2c0-0.2,0.1-0.4,0.4-0.4h1.2
			c0.2,0,0.4,0.1,0.4,0.4v4.2h2.2c0.2,0,0.4,0.1,0.4,0.4L493.7,622.2L493.7,622.2z"/>
		<path id="XMLID_5888_" class="st2" d="M498,622.7c0.9-1.2,2-1.9,3.6-1.9c2.2,0,3.6,1.5,3.7,4.2v7.3c0,0.2-0.1,0.4-0.4,0.4h-1.3
			c-0.2,0-0.4-0.1-0.4-0.4v-6.9c0-1.9-0.9-2.8-2.4-2.8c-1.6,0-2.9,1.2-3.1,3.5v6.2c0,0.2-0.1,0.4-0.4,0.4H496
			c-0.2,0-0.4-0.1-0.4-0.4l0.1-15.7c0-0.2,0.1-0.4,0.4-0.4h1.2c0.2,0,0.4,0.1,0.4,0.4v6.1L498,622.7L498,622.7z"/>
		<path id="XMLID_5890_" class="st2" d="M518.6,632.2c0,0.2-0.1,0.4-0.4,0.4H517c-0.2,0-0.4-0.1-0.4-0.4v-1.3h-0.1
			c-0.8,1.3-2.2,1.9-3.7,1.9c-2.9,0-4.9-2.5-4.9-6c0-3.7,2.2-6.2,5.4-6.2c1.4,0,2.4,0.5,3.3,1.4h0.1v-5.5c0-0.2,0.1-0.4,0.4-0.4h1.2
			c0.2,0,0.4,0.1,0.4,0.4L518.6,632.2z M509.8,626.7c0,2.8,1.4,4.4,3.5,4.4c1.8,0,3.3-1.3,3.5-3.7v-1.5c-0.2-2.4-1.7-3.6-3.5-3.6
			C511.1,622.3,509.8,624,509.8,626.7z"/>
		<path id="XMLID_5893_" class="st2" d="M530.9,624.6l0.1,7.6c0,0.2-0.1,0.4-0.4,0.4h-1.3c-0.2,0-0.4-0.1-0.4-0.4v-1.5h-0.2
			c-0.8,1.2-2.2,2-4,2c-2.1,0-3.6-1.1-3.6-3.2c0-2.4,1.8-3.5,6.1-3.9c1.1-0.1,1.6-0.4,1.6-1.3c0-1.2-0.9-2-2.7-2
			c-1.4,0-2.3,0.6-2.7,1.6c-0.1,0.2-0.2,0.3-0.4,0.3h-1.1c-0.2,0-0.4-0.1-0.3-0.3c0.5-2,2.1-3.3,4.7-3.3
			C529.2,620.6,530.9,622.1,530.9,624.6z M528.9,626.7c-0.4,0.2-0.9,0.3-1.7,0.4c-2.7,0.3-4.1,0.9-4.1,2.3c0,1.1,0.8,1.7,2.1,1.7
			c2.2,0,3.7-1.5,3.8-2.8L528.9,626.7L528.9,626.7z"/>
		<path id="XMLID_5896_" class="st2" d="M543.3,620.9c0.2,0,0.4,0.2,0.3,0.4l-5.5,15.8c-0.1,0.2-0.2,0.3-0.4,0.3h-1.3
			c-0.3,0-0.4-0.2-0.3-0.4l1.4-3.9l-4.2-11.8c-0.1-0.2,0-0.4,0.3-0.4h1.1c0.2,0,0.3,0.1,0.4,0.3l3.2,9.2h0.2l3.3-9.2
			c0.1-0.2,0.2-0.3,0.4-0.3L543.3,620.9L543.3,620.9z"/>
		<path id="XMLID_5898_" class="st2" d="M549,632c0,2-0.4,3-1.4,4c-0.2,0.2-0.3,0.2-0.5,0.1L547,636c-0.2-0.1-0.2-0.3-0.1-0.5
			c0.7-1.1,0.9-2.2,0.1-2.8c-0.2-0.1-0.2-0.2-0.2-0.4v-1.7c0-0.2,0.1-0.4,0.4-0.4h1.5c0.2,0,0.4,0.1,0.4,0.4L549,632L549,632z"/>
		<path id="XMLID_5900_" class="st2" d="M564,625.4c0,5.3-2.1,7-6.5,7.1c-0.2,0-0.4-0.1-0.4-0.4v-1c0-0.2,0.1-0.4,0.4-0.4
			c3.3-0.1,4.4-1.5,4.5-5.2v-8.6c0-0.2,0.1-0.4,0.4-0.4h1.2c0.2,0,0.4,0.1,0.4,0.4L564,625.4L564,625.4z"/>
		<path id="XMLID_5902_" class="st2" d="M577.9,632.2c0,0.2-0.1,0.4-0.4,0.4h-1.3c-0.2,0-0.4-0.1-0.4-0.4v-1.4h-0.2
			c-0.9,1.3-2.1,2-3.6,2c-2.2,0-3.7-1.5-3.7-4.4v-7.2c0-0.2,0.1-0.4,0.4-0.4h1.2c0.2,0,0.4,0.1,0.4,0.4v6.7c0,2.1,0.9,3.1,2.3,3.1
			c1.7,0,2.9-1.2,3.1-3.6v-6.2c0-0.2,0.1-0.4,0.4-0.4h1.2c0.2,0,0.4,0.1,0.4,0.4L577.9,632.2z"/>
		<path id="XMLID_5904_" class="st2" d="M583.7,632.2c0,0.2-0.1,0.4-0.4,0.4H582c-0.2,0-0.4-0.1-0.4-0.4l0.1-15.7
			c0-0.2,0.1-0.4,0.4-0.4h1.2c0.2,0,0.4,0.1,0.4,0.4V632.2z"/>
		<path id="XMLID_5906_" class="st2" d="M596.5,620.9c0.2,0,0.4,0.2,0.3,0.4l-5.5,15.8c-0.1,0.2-0.2,0.3-0.4,0.3h-1.3
			c-0.3,0-0.4-0.2-0.3-0.4l1.4-3.9l-4.2-11.8c-0.1-0.2,0-0.4,0.3-0.4h1.1c0.2,0,0.3,0.1,0.4,0.3l3.2,9.2h0.2l3.3-9.2
			c0.1-0.2,0.2-0.3,0.4-0.3L596.5,620.9L596.5,620.9z"/>
		<path id="XMLID_5908_" class="st2" d="M613.9,628c0,2.6-1.8,4.8-5.3,4.8c-3.2,0-5.2-1.9-5.6-4c0-0.2,0.1-0.4,0.3-0.4h1.3
			c0.2,0,0.3,0.1,0.4,0.3c0.4,1.5,1.7,2.3,3.5,2.3c2.2,0,3.5-1.2,3.5-3.2c0-1.9-1.3-2.9-4.4-2.9H607c-0.2,0-0.4-0.1-0.4-0.4v-0.8
			c0-0.2,0.1-0.4,0.4-0.4h0.7c2.8,0,3.9-1.1,3.9-2.6c0-1.6-1.1-2.7-3-2.7c-1.6,0-2.8,0.8-3.4,2.3c-0.1,0.2-0.2,0.3-0.4,0.3h-1.1
			c-0.2,0-0.4-0.2-0.3-0.4c0.6-2,2.3-3.9,5.3-3.9c3.1,0,4.8,2,4.8,4.2c0,1.5-0.8,2.9-2.6,3.5C612.9,624.7,613.9,626.2,613.9,628z"/>
		<path id="XMLID_5910_" class="st2" d="M621.8,632.6c-0.2,0-0.4-0.1-0.4-0.4l0.1-14.1h-0.2l-4,3.5c-0.2,0.1-0.4,0.1-0.5,0l-0.7-0.8
			c-0.2-0.2-0.2-0.4,0-0.5l4.3-3.6c0.2-0.1,0.3-0.2,0.4-0.2h2.2c0.2,0,0.4,0.1,0.4,0.4l0.1,15.3c0,0.2-0.1,0.4-0.4,0.4L621.8,632.6
			L621.8,632.6z"/>
		<path id="XMLID_5912_" class="st2" d="M630.6,632.2c0,0.2-0.1,0.4-0.4,0.4h-1.5c-0.2,0-0.4-0.1-0.4-0.4v-1.6
			c0-0.2,0.1-0.4,0.4-0.4h1.5c0.2,0,0.4,0.1,0.4,0.4V632.2z"/>
	</g>
</g>
<g id="julyLine">
	<line id="XMLID_5_" class="st6" x1="349" y1="657.6" x2="819" y2="657.6"/>
</g>
<g id="stamp_1_">
	<g id="XMLID_105_">
		<g id="XMLID_106_">
			<path id="XMLID_112_" class="st7" d="M658.7,420.9c-5.7,0.9-11.5-1.5-14.8-6.1c-1.4,0.7-2.9,1.2-4.5,1.4
				c-4.1,0.6-8.2-0.3-11.5-2.8c-4.7-3.4-7-9.2-6.2-14.8c-5.4-1.8-9.5-6.5-10.4-12.2s1.5-11.5,6.1-14.8c-2.5-5.1-2.1-11.3,1.3-16
				c2.4-3.3,6-5.5,10.1-6.2c1.6-0.2,3.2-0.3,4.7,0c1.8-5.4,6.5-9.5,12.2-10.4s11.5,1.5,14.8,6.1c1.4-0.7,2.9-1.2,4.5-1.4
				c4.1-0.6,8.2,0.3,11.5,2.8c4.7,3.4,7,9.2,6.2,14.8c5.4,1.8,9.5,6.5,10.4,12.2s-1.5,11.5-6.1,14.8c2.5,5.1,2.1,11.3-1.3,16
				c-2.4,3.3-6,5.5-10.1,6.2l0,0c-1.6,0.2-3.2,0.3-4.7,0C669.2,416,664.4,420,658.7,420.9z"/>
		</g>
	</g>
	<g id="XMLID_97_">
		<g id="XMLID_101_">
			<path id="XMLID_104_" class="st8" d="M656.9,409.5c-16.3,2.6-31.6-8.6-34.1-24.8c-2.6-16.3,8.6-31.6,24.8-34.1
				c16.3-2.6,31.6,8.6,34.1,24.8C684.3,391.6,673.2,406.9,656.9,409.5z"/>
		</g>
	</g>
	<path id="XMLID_96_" class="st9" d="M671.6,394l-4.6-3.9l-4-25.1l2-2.6c0.2-0.3,0.2-0.8-0.1-1.1l-0.5-0.5c-0.1-0.1-0.3-0.2-0.5-0.2
		c0-0.1,0-0.3-0.1-0.4c-0.2-0.3-0.5-0.4-0.8-0.4l-11.7,1.8c-0.3,0.1-0.6,0.3-0.7,0.6c-0.1,0.3,0.1,0.7,0.3,0.9l3.2,2.1l1.7,10.5
		c-2,0.5-4.6,1-7.4,1.2h-0.1l-1.5-9.5l2-2.7c0.1-0.2,0.2-0.4,0.1-0.6c0-0.2-0.2-0.4-0.4-0.5l-0.6-0.4c-0.1-0.1-0.3-0.1-0.5-0.1
		c0-0.1,0-0.3-0.1-0.4c-0.2-0.3-0.5-0.4-0.8-0.4l-11.9,1.9c-0.3,0.1-0.6,0.3-0.7,0.6c-0.1,0.3,0.1,0.7,0.3,0.9l3.6,2.3l1.6,10.4
		c-2.1,1-3.4,2.8-4.1,5.4c-0.1,0.4,0.1,0.8,0.5,0.9l0.4,0.2c0.1,0,0.1,0.1,0.2,0.1c0,0.1,0,0.2,0.1,0.2c0.1,0.2,0.3,0.4,0.5,0.5
		l0.6,0.2c0.4,0.1,0.8-0.1,0.9-0.4c0.4-0.8,1-1.3,1.7-1.6l1.5,9.8l-2.7,3.2c-0.2,0.3-0.2,0.6-0.1,0.9c0.2,0.3,0.5,0.5,0.8,0.4
		l0.4-0.1c-0.1,0.1-0.1,0.2-0.1,0.3c-0.1,0.3,0,0.6,0.3,0.8l0.8,0.6c0.2,0.1,0.4,0.2,0.6,0.2l13.1-2.1c0.3,0,0.6-0.3,0.7-0.6
		c0.1-0.3,0-0.6-0.3-0.8l-4.7-3.9l-1.5-9.5c1.4-0.1,2.5-0.2,3.6-0.4c1.4-0.2,2.7-0.5,3.9-0.9l1.5,9.3l-2.7,3.2
		c-0.2,0.3-0.3,0.6-0.1,0.9s0.5,0.5,0.8,0.4l0.4-0.1c-0.1,0.1-0.1,0.2-0.1,0.3c-0.1,0.3,0,0.6,0.3,0.8l0.7,0.6
		c0.2,0.1,0.4,0.2,0.6,0.2l13.1-2.1c0.4-0.1,0.7-0.5,0.7-0.9C671.9,394.3,671.8,394.1,671.6,394z"/>
</g>
</svg>
