<?xml version="1.0" encoding="utf-8"?>
<!-- Generator: Adobe Illustrator 19.0.0, SVG Export Plug-In . SVG Version: 6.00 Build 0)  -->
<svg version="1.1" id="box1" xmlns="http://www.w3.org/2000/svg" xmlns:xlink="http://www.w3.org/1999/xlink" x="0px" y="0px"
	 viewBox="69 68.4 750 657.6" style="enable-background:new 69 68.4 750 657.6;" xml:space="preserve">
<style type="text/css">
	.st0{fill:#4760F0;}
	.st1{fill:#244EB2;}
	.st2{fill:#FFFFFF;}
	.st3{fill:#FFCF33;}
	.st4{fill:#D3DFD7;}
	.st5{fill:#F73948;}
	.st6{fill:#F9ED32;}
	.st7{fill:#191919;}
	.st8{fill:#FE6538;}
	.st9{fill:none;stroke:#FFFFFF;stroke-width:2;stroke-miterlimit:10;}
</style>
<g id="blueBg">
	<rect id="XMLID_589_" x="69" y="67.7" class="st0" width="750" height="586.4"/>
</g>
<g id="hogwarts">
	<g id="XMLID_118_">
		<g id="XMLID_120_">
			<path id="XMLID_144_" class="st1" d="M761.9,91.3c1,0,1.7-0.8,1.7-1.7c0-0.8-0.5-1.4-1.2-1.6l-0.6-5.4l-0.6,5.4
				c-0.7,0.2-1.2,0.9-1.2,1.6C760.2,90.5,761,91.3,761.9,91.3z"/>
			<circle id="XMLID_142_" class="st1" cx="494.4" cy="110.7" r="1.7"/>
			<polygon id="XMLID_141_" class="st1" points="494.4,102.7 494.2,108.9 494.4,108.9 494.6,108.9 			"/>
			<path id="XMLID_129_" class="st1" d="M819,196.1v-34.6l-3-23l-4.9,23h1v34.3l-4.4,7.3h-5.3v2.5h0.6v2.8h1.4l-1.4,2.4h-5.3v2.5
				h0.6v0.2h-0.7v-57h4.1l-16.6-58.4h4.6v6.2h-0.9l3.2,7.6l3.2-7.6h-0.9V91.2h1.1v7.5h-0.9l3.2,7.6l3.2-7.6H800V84.2h1.1V93h-0.9
				l3.2,7.6l3.2-7.6h-0.9V75.7h0.9l-3.2-7.6l-3.3,7.6h0.9v4.5h-0.7l-2.7-6.4l-3.2,7.6h0.9v5.7h-1.1V87h0.9l-3.2-7.6l-3.2,7.6h0.9v7
				h-5.7l-7.4-26h-1.4l-25.2,88.4h4.1v49h-7.3v-2.7h0.7l-3.2-11.2l-3.2,11.2h0.7v2.9h-3.1v-5.2h1.2v-2.8h-5.5v2.8h1.2v5.2h-4.4
				l-2.5-5.8l-0.9-5.7v0.2l0.6,3.1h1.5v-3.1h0.7v-2.8h-3.2l-1.2-7.4l0.5,2.6l0.6,3.1h1.5v-3.1h0.7v-2.8h-3.2l-4.2-25l-6.3,40.9
				l-2.5,5.8h-4.7l-0.4-1l0.1-0.5h-0.3l-1.8-4.2l-0.9-5.7v0.2l0.6,3.1h1.5v-3.1h0.7v-2.8h-3.2l-1.2-7.4l0.5,2.6l0.6,3.1h1.5v-3.1
				h0.7V184h-3.2l-3.9-25.1l-3.9,25.2H693v2.5h0.6v2.8h1.4l0.5-2.6l-0.6,4.1H692v2.5h0.6v2.8h1.4l0.1-0.4l-0.6,3.8l-2.7,6.3h14.6
				l0,0h-14.6v5.8l2.7,3.8V228h-29.8v-6.1h3.3v-15.4h-7.7l3.1-3.8v-15.1h1.1L652,174.4L640.6,188h1.1v3.6l-26.4,17.5v-8l2.8-1.7
				v-6.7h1l-10.3-12.4l0,0v-15.8h2.7v-2.3h-3.2V155l-4.6-11.9H602v-15.8h1.7L600,115l-3.6,12.4h1.7v15.7h-16.9l-1-3.6V95.7V80.6h1.3
				v-2.4h-6.2v2.4h1v15.1h-6.6l-0.8-4.5l-0.9,4.5h-10.8v42.8l-3.6,12.4h-29v-1.8h1.7l-3.6-17l-3.6,17h1.7v1.8h-25v-0.3h1.7
				l-3.6-12.4l-1.4,4.8L483,92.1v1.6l-0.2-0.8v-0.8l-0.1,0.5l-0.3-1.4l-2.1,10.7l0,0l-7.9,41.3l-1.5-5l-3.6,12.4h1.7v15.5h-2.9v1.5
				h0.7v50.5h-0.7v1.5h0.7v19.9c-0.5,0.1-0.9,0.3-1.4,0.4h-2.7v0.8c-6.9,1.9-10.8,2.3-19.3,0.5c-2.8-0.6-4.9,3.2-7.5,4.8
				c-4.1,2.6-13.8,4.7-15,11.2c-0.6,3.1-1.2,6.1-1.7,9.2c-9.6,8.6-21.3,15.6-24.2,20c-37.8,58.9-156.6,76.8-184.4,80.2H69v360.1h750
				V196.1z M795.2,215.1h3.1v1.1h1.5l-3.7,6.1h-0.9L795.2,215.1L795.2,215.1z"/>
		</g>
	</g>
</g>
<g id="title">
	<g id="XMLID_6000_">
		<path id="XMLID_6001_" class="st2" d="M130.2,153h-4.6v14.4h-4.1V153h-4.6v-3.1h13.3C130.2,149.9,130.2,153,130.2,153z"/>
		<path id="XMLID_6003_" class="st2" d="M146.4,167.4h-4.1v-7.1h-6.5v7.1h-4.1v-17.6h4.1v7.4h6.5v-7.4h4.1V167.4z"/>
		<path id="XMLID_6005_" class="st2" d="M159.5,159.9h-6.2v4.4h7.4v3.1h-11.5v-17.6h11.5v3.1h-7.4v3.8h6.2V159.9z"/>
		<path id="XMLID_6007_" class="st2" d="M178.4,162.1L178.4,162.1l4-12.3h5.4v17.5h-4.1v-11.2h-0.1l-3.9,11.3H177l-3.8-11.1h-0.1
			v11.1H169v-17.6h5.3L178.4,162.1z"/>
		<path id="XMLID_6009_" class="st2" d="M200,164h-5.2l-1,3.4h-4.3l5.7-17.5h2.2l0,0l0,0h2.2l5.7,17.5H201L200,164z M195.8,160.8
			h3.3l-1.6-5.4h-0.1L195.8,160.8z"/>
		<path id="XMLID_6012_" class="st2" d="M220.3,165c-0.6,0.7-1.5,1.4-2.6,1.9s-2.5,0.8-4.3,0.8c-2.2,0-3.9-0.7-5.3-2s-2-3.1-2-5.2
			v-3.7c0-2.1,0.7-3.8,2-5.2c1.3-1.3,3-2,5.1-2c2.2,0,3.9,0.5,5.1,1.5s1.7,2.4,1.7,4.1v0.1h-3.8c0-0.9-0.2-1.5-0.7-1.9
			s-1.1-0.6-2.1-0.6c-0.9,0-1.7,0.4-2.3,1.1s-0.9,1.7-0.9,2.9v3.7c0,1.2,0.3,2.2,0.9,2.9s1.4,1.1,2.4,1.1c0.7,0,1.3-0.1,1.8-0.2
			c0.5-0.1,0.8-0.3,1-0.5v-3.1h-3.1V158h7.2L220.3,165L220.3,165z"/>
		<path id="XMLID_6014_" class="st2" d="M227.1,167.4H223v-17.6h4.1V167.4z"/>
		<path id="XMLID_6016_" class="st2" d="M243.6,161.5L243.6,161.5c0.1,2.1-0.5,3.6-1.7,4.6s-2.8,1.5-4.9,1.5c-2.2,0-3.9-0.7-5.2-2
			s-2-3.1-2-5.2v-3.7c0-2.1,0.6-3.9,1.9-5.2c1.3-1.3,2.9-2,5-2c2.2,0,3.9,0.5,5.2,1.6s1.8,2.5,1.8,4.5v0.1h-4c0-1.1-0.2-1.8-0.7-2.3
			s-1.2-0.7-2.3-0.7c-0.9,0-1.6,0.4-2.1,1.1c-0.5,0.7-0.7,1.7-0.7,2.9v3.7c0,1.2,0.3,2.2,0.8,3c0.5,0.7,1.3,1.1,2.3,1.1
			c0.9,0,1.6-0.2,2-0.7s0.6-1.2,0.6-2.3L243.6,161.5L243.6,161.5z"/>
		<path id="XMLID_6018_" class="st2" d="M255.1,164h-5.2l-1,3.4h-4.3l5.7-17.5h2.2l0,0l0,0h2.2l5.7,17.5h-4.3L255.1,164z
			 M250.8,160.8h3.3l-1.6-5.4h-0.1L250.8,160.8z"/>
		<path id="XMLID_6021_" class="st2" d="M265.7,164.3h7.5v3.1h-11.6v-17.6h4.1V164.3z"/>
		<path id="XMLID_6023_" class="st2" d="M295.7,161.2L295.7,161.2l2.2-11.4h4.1l-4,17.5h-3.8l-3-10.8h-0.1l-2.9,10.8h-3.8l-4-17.5
			h4.1l2.1,11.4h0.1l3-11.4h3.1L295.7,161.2z"/>
		<path id="XMLID_6025_" class="st2" d="M318.1,160.2c0,2.2-0.7,3.9-2.1,5.3c-1.4,1.4-3.2,2.1-5.4,2.1s-4-0.7-5.4-2.1
			c-1.4-1.4-2.1-3.2-2.1-5.3V157c0-2.2,0.7-3.9,2.1-5.3c1.4-1.4,3.2-2.1,5.4-2.1s4,0.7,5.4,2.1s2.1,3.2,2.1,5.3V160.2z M314.1,157
			c0-1.3-0.3-2.3-0.9-3.1s-1.4-1.2-2.5-1.2s-1.9,0.4-2.5,1.2s-0.9,1.8-0.9,3.1v3.2c0,1.3,0.3,2.3,0.9,3.1s1.4,1.2,2.5,1.2
			s1.9-0.4,2.5-1.2s0.9-1.8,0.9-3.1V157z"/>
		<path id="XMLID_6028_" class="st2" d="M324.7,160.7v6.7h-4.1v-17.6h6.1c2,0,3.6,0.5,4.8,1.4c1.2,0.9,1.8,2.2,1.8,3.9
			c0,0.9-0.2,1.7-0.7,2.3c-0.5,0.7-1.2,1.2-2.1,1.6c1.1,0.3,1.8,0.8,2.3,1.5s0.7,1.6,0.7,2.7v1.1c0,0.5,0.1,1,0.2,1.6s0.4,1,0.7,1.3
			v0.2h-4.2c-0.3-0.2-0.5-0.7-0.6-1.3s-0.1-1.2-0.1-1.8v-1.1c0-0.8-0.2-1.5-0.7-1.9s-1.1-0.7-1.9-0.7L324.7,160.7L324.7,160.7z
			 M324.7,157.5h2.1c0.8,0,1.4-0.2,1.9-0.6c0.5-0.4,0.7-0.9,0.7-1.6c0-0.7-0.2-1.3-0.7-1.7c-0.4-0.4-1.1-0.7-1.9-0.7h-2L324.7,157.5
			L324.7,157.5z"/>
		<path id="XMLID_6031_" class="st2" d="M340.4,164.3h7.5v3.1h-11.6v-17.6h4.1V164.3z"/>
		<path id="XMLID_6033_" class="st2" d="M350.1,167.4v-17.6h6.4c2.1,0,3.8,0.7,5.2,2c1.4,1.3,2.1,3.1,2.1,5.2v3.2
			c0,2.1-0.7,3.8-2.1,5.2c-1.4,1.3-3.1,2-5.2,2C356.5,167.4,350.1,167.4,350.1,167.4z M354.2,153v11.3h2.3c0.9,0,1.7-0.4,2.3-1.1
			c0.6-0.8,0.9-1.7,0.9-2.9v-3.2c0-1.2-0.3-2.1-0.9-2.9s-1.4-1.1-2.3-1.1L354.2,153L354.2,153z"/>
		<path id="XMLID_6036_" class="st2" d="M387,160.2c0,2.2-0.7,3.9-2.1,5.3c-1.4,1.4-3.2,2.1-5.4,2.1c-2.2,0-4-0.7-5.4-2.1
			c-1.4-1.4-2.1-3.2-2.1-5.3V157c0-2.2,0.7-3.9,2.1-5.3s3.2-2.1,5.4-2.1c2.2,0,4,0.7,5.4,2.1s2.1,3.2,2.1,5.3V160.2z M382.9,157
			c0-1.3-0.3-2.3-0.9-3.1s-1.4-1.2-2.5-1.2s-1.9,0.4-2.5,1.2s-0.9,1.8-0.9,3.1v3.2c0,1.3,0.3,2.3,0.9,3.1s1.4,1.2,2.5,1.2
			s1.9-0.4,2.5-1.2s0.9-1.8,0.9-3.1V157z"/>
		<path id="XMLID_6039_" class="st2" d="M400,160.3h-6.4v7.1h-4.1v-17.6h11.7v3.1h-7.7v4.2h6.4v3.2H400z"/>
	</g>
	<g id="XMLID_5971_">
		<path id="XMLID_5972_" class="st3" d="M173,253.6h-15v-26.1h-24v26.1h-15v-64.9h15v27.2h24v-27.2h15V253.6z"/>
		<path id="XMLID_5974_" class="st3" d="M218,241h-19.3l-3.7,12.6h-15.8l21.1-64.8h8.1l0,0l0,0h8.1l21.2,64.8h-15.8L218,241z
			 M202.2,229.4h12.3l-6.1-20.1h-0.3L202.2,229.4z"/>
		<path id="XMLID_5977_" class="st3" d="M257.4,228.7v24.8h-15v-64.8H265c7.5,0,13.5,1.7,17.9,5.2s6.6,8.2,6.6,14.2
			c0,3.4-0.9,6.2-2.6,8.6c-1.8,2.4-4.4,4.4-7.8,5.9c4,1.1,6.8,3,8.6,5.6c1.7,2.6,2.6,5.9,2.6,9.8v4.1c0,1.7,0.3,3.6,0.8,5.8
			s1.4,3.7,2.6,4.6v0.9h-15.5c-1.2-0.9-2-2.5-2.3-4.9c-0.4-2.3-0.5-4.5-0.5-6.5v-3.9c0-3.1-0.8-5.4-2.4-7.1c-1.6-1.6-4-2.4-7.2-2.4
			L257.4,228.7L257.4,228.7z M257.4,217.1h7.6c3,0,5.3-0.7,6.9-2.1c1.6-1.4,2.4-3.4,2.4-5.9c0-2.6-0.8-4.8-2.5-6.4
			c-1.6-1.6-4-2.4-7-2.4h-7.5v16.8L257.4,217.1L257.4,217.1z"/>
		<path id="XMLID_5980_" class="st3" d="M315.5,228.7v24.8h-15v-64.8H323c7.5,0,13.5,1.7,17.9,5.2s6.6,8.2,6.6,14.2
			c0,3.4-0.9,6.2-2.6,8.6c-1.8,2.4-4.4,4.4-7.8,5.9c4,1.1,6.8,3,8.6,5.6c1.7,2.6,2.6,5.9,2.6,9.8v4.1c0,1.7,0.3,3.6,0.8,5.8
			s1.4,3.7,2.6,4.6v0.9H336c-1.2-0.9-2-2.5-2.3-4.9c-0.4-2.3-0.5-4.5-0.5-6.5v-3.9c0-3.1-0.8-5.4-2.4-7.1c-1.6-1.6-4-2.4-7.2-2.4
			L315.5,228.7L315.5,228.7z M315.5,217.1h7.6c3,0,5.3-0.7,6.9-2.1c1.6-1.4,2.4-3.4,2.4-5.9c0-2.6-0.8-4.8-2.5-6.4
			c-1.6-1.6-4-2.4-7-2.4h-7.5v16.8L315.5,217.1L315.5,217.1z"/>
		<path id="XMLID_5983_" class="st3" d="M380.2,217.1h0.3l12.9-28.3h16.3l-22,42v22.8h-15v-23.5l-21.6-41.4h16.3L380.2,217.1z"/>
		<path id="XMLID_5985_" class="st3" d="M134,315.7v22.2h-15v-64.8h24.8c7.7,0,13.8,2,18.3,5.9s6.8,9.1,6.8,15.4
			c0,6.4-2.3,11.5-6.8,15.4s-10.6,5.9-18.3,5.9L134,315.7L134,315.7z M134,304.1h9.7c3.3,0,5.8-0.9,7.5-2.7s2.6-4.1,2.6-6.9
			c0-2.9-0.9-5.2-2.6-7.1c-1.7-1.8-4.2-2.8-7.5-2.8H134V304.1z"/>
		<path id="XMLID_5988_" class="st3" d="M231,311.3c0,8-2.5,14.6-7.6,19.7c-5.1,5.2-11.7,7.8-19.8,7.8c-8.2,0-14.9-2.6-20-7.8
			s-7.7-11.8-7.7-19.7v-11.7c0-8,2.5-14.5,7.6-19.7s11.7-7.8,19.9-7.8c8.1,0,14.7,2.6,19.9,7.8c5.1,5.2,7.7,11.8,7.7,19.7L231,311.3
			L231,311.3z M216,299.5c0-4.6-1.1-8.4-3.3-11.4s-5.3-4.5-9.2-4.5c-4.1,0-7.2,1.5-9.3,4.4c-2.2,3-3.2,6.8-3.2,11.4v11.8
			c0,4.7,1.1,8.5,3.3,11.5s5.3,4.5,9.4,4.5c3.9,0,7-1.5,9.2-4.5s3.3-6.8,3.3-11.5v-11.7H216z"/>
		<path id="XMLID_5991_" class="st3" d="M284,284.6h-17.1v53.2h-15v-53.2H235V273h49V284.6z"/>
		<path id="XMLID_5993_" class="st3" d="M335.9,284.6h-17.1v53.2h-15v-53.2H287V273h49v11.6H335.9z"/>
		<path id="XMLID_5995_" class="st3" d="M379.9,310.1h-22.8v16.2h27.4v11.6H342v-64.8h42.5v11.6h-27.4v13.9h22.8V310.1z"/>
		<path id="XMLID_5997_" class="st3" d="M408,313v24.8h-15V273h22.6c7.5,0,13.5,1.7,17.9,5.2s6.6,8.2,6.6,14.2
			c0,3.4-0.9,6.2-2.6,8.6c-1.8,2.4-4.4,4.4-7.8,5.9c4,1.1,6.8,3,8.6,5.6c1.7,2.6,2.6,5.9,2.6,9.8v4.1c0,1.7,0.3,3.6,0.8,5.8
			s1.4,3.7,2.6,4.6v0.9h-15.5c-1.2-0.9-2-2.5-2.3-4.9c-0.4-2.3-0.5-4.5-0.5-6.5v-3.9c0-3.1-0.8-5.4-2.4-7.1c-1.6-1.6-4-2.4-7.2-2.4
			L408,313L408,313z M408,301.5h7.6c3,0,5.3-0.7,6.9-2.1c1.6-1.4,2.4-3.4,2.4-5.9c0-2.6-0.8-4.8-2.5-6.4c-1.6-1.6-4-2.4-7-2.4H408
			V301.5z"/>
	</g>
	<g id="XMLID_5928_">
		<path id="XMLID_5929_" class="st2" d="M126.2,378.6h-6.6l-1.3,4.3h-5.4l7.2-22.2h2.8l0,0l0,0h2.8l7.3,22.2h-5.4L126.2,378.6z
			 M120.8,374.6h4.2l-2.1-6.9h-0.1L120.8,374.6z"/>
		<path id="XMLID_5932_" class="st2" d="M153,382.9h-5.1l-8.1-14h-0.1v13.9h-5.2v-22.1h5.2l8.1,14h0.1v-14h5.1V382.9z"/>
		<path id="XMLID_5934_" class="st2" d="M156.5,382.9v-22.2h8.1c2.6,0,4.8,0.9,6.6,2.6c1.8,1.7,2.6,3.9,2.6,6.6v4
			c0,2.7-0.9,4.9-2.6,6.6c-1.8,1.7-3.9,2.5-6.6,2.5L156.5,382.9L156.5,382.9z M161.7,364.7V379h3c1.2,0,2.1-0.5,2.9-1.4
			c0.8-1,1.1-2.2,1.1-3.7v-4c0-1.5-0.4-2.7-1.1-3.7c-0.8-1-1.7-1.4-2.9-1.4L161.7,364.7L161.7,364.7z"/>
		<path id="XMLID_5937_" class="st2" d="M190.2,382.9H185v-22.2h5.1L190.2,382.9L190.2,382.9z"/>
		<path id="XMLID_5939_" class="st2" d="M209.1,364.7h-5.9v18.2H198v-18.2h-5.8v-4H209v4H209.1z"/>
		<path id="XMLID_5941_" class="st2" d="M215.9,365.2l-1.6,3.8h-2.5v-8.3h4.1V365.2z"/>
		<path id="XMLID_5943_" class="st2" d="M231.4,377c0-0.8-0.3-1.4-0.8-1.8s-1.5-0.9-2.8-1.3c-2.8-0.9-4.8-1.8-6.1-2.9
			c-1.3-1.1-2-2.5-2-4.4s0.8-3.4,2.3-4.5s3.5-1.7,5.9-1.7c2.5,0,4.6,0.6,6.1,1.8s2.3,2.9,2.2,5v0.1h-5c0-1-0.3-1.8-0.9-2.3
			c-0.6-0.5-1.4-0.7-2.6-0.7c-0.9,0-1.7,0.2-2.2,0.7s-0.8,1-0.8,1.7s0.3,1.2,0.8,1.6c0.6,0.4,1.6,0.9,3.1,1.5
			c2.6,0.8,4.5,1.7,5.8,2.8s2,2.6,2,4.5c0,2-0.8,3.5-2.3,4.6s-3.5,1.7-6.1,1.7c-2.5,0-4.6-0.6-6.4-1.8c-1.8-1.2-2.6-3-2.5-5.6v-0.1
			h5c0,1.3,0.3,2.2,1,2.8c0.6,0.5,1.6,0.8,2.9,0.8c1.1,0,1.9-0.2,2.4-0.6C231.1,378.3,231.4,377.7,231.4,377z"/>
		<path id="XMLID_5945_" class="st2" d="M264.2,375.4L264.2,375.4c0.1,2.6-0.6,4.5-2.1,5.8s-3.6,2-6.2,2c-2.7,0-5-0.8-6.6-2.5
			c-1.7-1.7-2.5-3.9-2.5-6.6v-4.6c0-2.7,0.8-4.9,2.4-6.6c1.6-1.7,3.7-2.5,6.4-2.5c2.8,0,5,0.7,6.5,2s2.3,3.2,2.3,5.7v0.1h-5
			c0-1.4-0.3-2.3-0.9-2.9c-0.6-0.6-1.5-0.9-2.9-0.9c-1.2,0-2,0.5-2.7,1.4c-0.6,0.9-0.9,2.2-0.9,3.7v4.7c0,1.6,0.3,2.8,1,3.7
			s1.7,1.4,2.9,1.4s2-0.3,2.6-0.9c0.5-0.6,0.8-1.6,0.8-3L264.2,375.4L264.2,375.4z"/>
		<path id="XMLID_5947_" class="st2" d="M285.3,360.7v14.4c0,2.5-0.8,4.5-2.5,6c-1.7,1.4-3.9,2.2-6.6,2.2s-5-0.7-6.6-2.2
			c-1.7-1.4-2.5-3.4-2.5-6v-14.4h5.2v14.4c0,1.4,0.4,2.4,1.1,3.1s1.7,1.1,3,1.1s2.2-0.3,2.9-1c0.7-0.7,1-1.7,1-3.1v-14.5H285.3z"/>
		<path id="XMLID_5949_" class="st2" d="M293.8,374.4v8.5h-5.2v-22.2h7.7c2.6,0,4.6,0.6,6.1,1.8s2.3,2.8,2.3,4.9
			c0,1.1-0.3,2.1-0.9,3c-0.6,0.8-1.5,1.5-2.7,2c1.4,0.4,2.3,1,2.9,1.9s0.9,2,0.9,3.4v1.4c0,0.6,0.1,1.2,0.3,2s0.5,1.3,0.9,1.6v0.3
			h-5.3c-0.4-0.3-0.7-0.9-0.8-1.7c-0.1-0.8-0.2-1.5-0.2-2.2v-1.4c0-1.1-0.3-1.9-0.8-2.4c-0.6-0.6-1.4-0.8-2.5-0.8L293.8,374.4
			L293.8,374.4L293.8,374.4z M293.8,370.4h2.6c1,0,1.8-0.2,2.4-0.7c0.5-0.5,0.8-1.2,0.8-2c0-0.9-0.3-1.6-0.8-2.2
			c-0.6-0.6-1.4-0.8-2.4-0.8h-2.6V370.4z"/>
		<path id="XMLID_5952_" class="st2" d="M314.1,382.9H309v-22.2h5.1V382.9z"/>
		<path id="XMLID_5954_" class="st2" d="M332.9,364.7H327v18.2h-5.2v-18.2H316v-4h16.8v4H332.9z"/>
		<path id="XMLID_5956_" class="st2" d="M353.1,373.8c0,2.7-0.9,5-2.6,6.8s-4,2.7-6.8,2.7s-5.1-0.9-6.8-2.7c-1.8-1.8-2.6-4-2.6-6.8
			v-4c0-2.7,0.9-5,2.6-6.8s4-2.7,6.8-2.7s5.1,0.9,6.8,2.7c1.7,1.8,2.6,4,2.6,6.8V373.8z M347.9,369.8c0-1.6-0.4-2.9-1.1-3.9
			s-1.8-1.5-3.2-1.5c-1.4,0-2.5,0.5-3.2,1.5s-1.1,2.3-1.1,3.9v4c0,1.6,0.4,2.9,1.1,3.9s1.8,1.5,3.2,1.5c1.4,0,2.4-0.5,3.1-1.5
			s1.1-2.3,1.1-3.9v-4H347.9z"/>
		<path id="XMLID_5959_" class="st2" d="M367.7,377c0-0.8-0.3-1.4-0.8-1.8s-1.5-0.9-2.8-1.3c-2.8-0.9-4.8-1.8-6.1-2.9
			c-1.3-1.1-2-2.5-2-4.4s0.8-3.4,2.3-4.5s3.5-1.7,5.9-1.7c2.5,0,4.6,0.6,6.1,1.8s2.3,2.9,2.2,5v0.1h-5c0-1-0.3-1.8-0.9-2.3
			s-1.4-0.7-2.6-0.7c-0.9,0-1.7,0.2-2.2,0.7s-0.8,1-0.8,1.7s0.3,1.2,0.8,1.6c0.6,0.4,1.6,0.9,3.1,1.5c2.6,0.8,4.5,1.7,5.8,2.8
			s2,2.6,2,4.5c0,2-0.8,3.5-2.3,4.6s-3.5,1.7-6.1,1.7c-2.5,0-4.6-0.6-6.4-1.8s-2.6-3-2.5-5.6v-0.1h5c0,1.3,0.3,2.2,1,2.8
			c0.6,0.5,1.6,0.8,2.9,0.8c1.1,0,1.9-0.2,2.4-0.6C367.4,378.3,367.7,377.7,367.7,377z"/>
		<path id="XMLID_5961_" class="st2" d="M381.1,382.9H376v-22.2h5.1V382.9z"/>
		<path id="XMLID_5963_" class="st2" d="M399.9,364.7H394v18.2h-5.2v-18.2H383v-4h16.8v4H399.9z"/>
		<path id="XMLID_5965_" class="st2" d="M407.5,382.9h-5.1v-22.2h5.1V382.9z"/>
		<path id="XMLID_5967_" class="st2" d="M424.3,373.4h-7.8v5.5h9.4v4h-14.5v-22.2H426v4h-9.4v4.8h7.8v3.9H424.3z"/>
		<path id="XMLID_5969_" class="st2" d="M440.2,377c0-0.8-0.3-1.4-0.8-1.8s-1.5-0.9-2.8-1.3c-2.8-0.9-4.8-1.8-6.1-2.9
			c-1.3-1.1-2-2.5-2-4.4s0.8-3.4,2.3-4.5s3.5-1.7,5.9-1.7c2.5,0,4.6,0.6,6.1,1.8s2.3,2.9,2.2,5v0.1h-5c0-1-0.3-1.8-0.9-2.3
			s-1.4-0.7-2.6-0.7c-0.9,0-1.7,0.2-2.2,0.7s-0.8,1-0.8,1.7s0.3,1.2,0.8,1.6c0.6,0.4,1.6,0.9,3.1,1.5c2.6,0.8,4.5,1.7,5.8,2.8
			s2,2.6,2,4.5c0,2-0.8,3.5-2.3,4.6s-3.5,1.7-6.1,1.7c-2.5,0-4.6-0.6-6.4-1.8s-2.6-3-2.5-5.6v-0.1h5c0,1.3,0.3,2.2,1,2.8
			c0.6,0.5,1.6,0.8,2.9,0.8c1.1,0,1.9-0.2,2.4-0.6C440,378.3,440.2,377.7,440.2,377z"/>
	</g>
</g>
<g id="titleWand">
	<path id="XMLID_7_" class="st3" d="M474.4,310.3v-13.1c0,0,3.6-2.9,3.6-7.1c0-4.2-3.6-7.1-3.6-7.1l-2.2-100.5h-1.3h-1.3L467.4,283
		c0,0-3.6,2.9-3.6,7.1c0,4.2,3.6,7.1,3.6,7.1v13.1c0,0-3.6,1.8-3.6,5.6s3.6,5.3,3.6,5.3v4.7h-1.6v10.8h5.1h5.1v-10.8h-1.6v-4.7
		c0,0,3.6-1.6,3.6-5.3C477.9,312.1,474.4,310.3,474.4,310.3z"/>
</g>
<g id="letter">
	<g id="XMLID_94_">
		<g id="white_2_">
			<g id="XMLID_114_">
				<path id="XMLID_116_" class="st2" d="M590.9,443.6c-4.4,0.7-8.5-2.3-9.2-6.7l-14.1-89.2c-0.7-4.4,2.3-8.5,6.7-9.2l139.3-22
					c4.8-0.8,8.5,2.3,9.2,6.7l14.1,89.2c0.7,4.4-2.3,8.5-6.7,9.2L590.9,443.6z"/>
			</g>
		</g>
		<path id="lower_1_" class="st4" d="M719.9,318.5L652,379.3l-83.2-37.6c0,0,1.6-2.3,5.5-3.2c3.9-0.8,136.5-21.6,139.3-22
			C718.2,315.7,719.9,318.5,719.9,318.5z"/>
		<path id="upper_1_" class="st4" d="M735.6,417.6l-83.4-36.8l-67.5,61.4c0,0,2.2,1.7,6.2,1.3s136.5-21.6,139.3-22
			C734.8,420.8,735.6,417.6,735.6,417.6z"/>
		<g id="stamp_1_">
			<g id="XMLID_105_">
				<g id="XMLID_106_">
					<path id="XMLID_112_" class="st5" d="M658.7,420.9c-5.7,0.9-11.5-1.5-14.8-6.1c-1.4,0.7-2.9,1.2-4.5,1.4
						c-4.1,0.6-8.2-0.3-11.5-2.8c-4.7-3.4-7-9.2-6.2-14.8c-5.4-1.8-9.5-6.5-10.4-12.2s1.5-11.5,6.1-14.8c-2.5-5.1-2.1-11.3,1.3-16
						c2.4-3.3,6-5.5,10.1-6.2c1.6-0.2,3.2-0.3,4.7,0c1.8-5.4,6.5-9.5,12.2-10.4s11.5,1.5,14.8,6.1c1.4-0.7,2.9-1.2,4.5-1.4
						c4.1-0.6,8.2,0.3,11.5,2.8c4.7,3.4,7,9.2,6.2,14.8c5.4,1.8,9.5,6.5,10.4,12.2s-1.5,11.5-6.1,14.8c2.5,5.1,2.1,11.3-1.3,16
						c-2.4,3.3-6,5.5-10.1,6.2l0,0c-1.6,0.2-3.2,0.3-4.7,0C669.2,416,664.4,420,658.7,420.9z"/>
				</g>
			</g>
			<g id="XMLID_97_">
				<g id="XMLID_101_">
					<path id="XMLID_104_" class="st6" d="M656.9,409.5c-16.3,2.6-31.6-8.6-34.1-24.8c-2.6-16.3,8.6-31.6,24.8-34.1
						c16.3-2.6,31.6,8.6,34.1,24.8C684.3,391.6,673.2,406.9,656.9,409.5z"/>
				</g>
			</g>
			<path id="XMLID_96_" class="st7" d="M671.6,394l-4.6-3.9l-4-25.1l2-2.6c0.2-0.3,0.2-0.8-0.1-1.1l-0.5-0.5
				c-0.1-0.1-0.3-0.2-0.5-0.2c0-0.1,0-0.3-0.1-0.4c-0.2-0.3-0.5-0.4-0.8-0.4l-11.7,1.8c-0.3,0.1-0.6,0.3-0.7,0.6
				c-0.1,0.3,0.1,0.7,0.3,0.9l3.2,2.1l1.7,10.5c-2,0.5-4.6,1-7.4,1.2h-0.1l-1.5-9.5l2-2.7c0.1-0.2,0.2-0.4,0.1-0.6
				c0-0.2-0.2-0.4-0.4-0.5l-0.6-0.4c-0.1-0.1-0.3-0.1-0.5-0.1c0-0.1,0-0.3-0.1-0.4c-0.2-0.3-0.5-0.4-0.8-0.4l-11.9,1.9
				c-0.3,0.1-0.6,0.3-0.7,0.6c-0.1,0.3,0.1,0.7,0.3,0.9l3.6,2.3l1.6,10.4c-2.1,1-3.4,2.8-4.1,5.4c-0.1,0.4,0.1,0.8,0.5,0.9l0.4,0.2
				c0.1,0,0.1,0.1,0.2,0.1c0,0.1,0,0.2,0.1,0.2c0.1,0.2,0.3,0.4,0.5,0.5l0.6,0.2c0.4,0.1,0.8-0.1,0.9-0.4c0.4-0.8,1-1.3,1.7-1.6
				l1.5,9.8l-2.7,3.2c-0.2,0.3-0.2,0.6-0.1,0.9c0.2,0.3,0.5,0.5,0.8,0.4l0.4-0.1c-0.1,0.1-0.1,0.2-0.1,0.3c-0.1,0.3,0,0.6,0.3,0.8
				l0.8,0.6c0.2,0.1,0.4,0.2,0.6,0.2l13.1-2.1c0.3,0,0.6-0.3,0.7-0.6c0.1-0.3,0-0.6-0.3-0.8l-4.7-3.9l-1.5-9.5
				c1.4-0.1,2.5-0.2,3.6-0.4c1.4-0.2,2.7-0.5,3.9-0.9l1.5,9.3l-2.7,3.2c-0.2,0.3-0.3,0.6-0.1,0.9c0.2,0.3,0.5,0.5,0.8,0.4l0.4-0.1
				c-0.1,0.1-0.1,0.2-0.1,0.3c-0.1,0.3,0,0.6,0.3,0.8l0.7,0.6c0.2,0.1,0.4,0.2,0.6,0.2l13.1-2.1c0.4-0.1,0.7-0.5,0.7-0.9
				C671.9,394.3,671.8,394.1,671.6,394z"/>
		</g>
	</g>
</g>
<g id="july31">
	<g id="XMLID_5919_">
		<path id="XMLID_5920_" class="st2" d="M170.8,537.9c-1.9,0-3.4-0.3-4.5-0.8v-4.4c1.4,0.4,2.9,0.6,4.5,0.6c2,0,3.5-0.6,4.6-1.8
			c1-1.2,1.6-3,1.6-5.3v-44.6h5.2v44.2c0,3.9-1,6.9-2.9,9C177.4,536.9,174.5,537.9,170.8,537.9z"/>
		<path id="XMLID_5922_" class="st2" d="M227.7,481.6v28.9c0,5.1-1.5,9.1-4.6,12s-7.3,4.4-12.7,4.4s-9.5-1.5-12.5-4.4
			c-2.9-2.9-4.4-7-4.4-12.1v-28.7h5.2v29c0,3.7,1,6.6,3,8.6s5,3,9,3c3.8,0,6.7-1,8.7-3s3-4.9,3-8.6v-29L227.7,481.6L227.7,481.6z"/>
		<path id="XMLID_5924_" class="st2" d="M239.5,526.2v-44.6h5.2v39.9h19.7v4.7L239.5,526.2L239.5,526.2z"/>
		<path id="XMLID_5926_" class="st2" d="M283.2,503.9l11.9-22.3h5.6l-14.9,27.3v17.3h-5.2v-17l-14.9-27.5h5.7L283.2,503.9z"/>
	</g>
	<g id="XMLID_5914_">
		<g id="XMLID_271_">
			<path id="XMLID_274_" class="st8" d="M231,576.4c0,6.1-1.7,11.2-5.2,15c-3.4,3.9-8.3,6.5-14.6,7.8v0.5c7.7,1,13.4,3.4,17.2,7.4
				c3.7,3.9,5.6,9.1,5.6,15.5c0,9.2-3.2,16.2-9.5,21.1c-6.4,4.9-15.4,7.4-27.1,7.4c-5.1,0-9.7-0.4-14-1.2c-4.2-0.8-8.3-2.1-12.3-4
				v-10.4c4.2,2.1,8.6,3.6,13.3,4.7c4.7,1.1,9.2,1.6,13.4,1.6c16.6,0,24.9-6.5,24.9-19.5c0-11.7-9.2-17.5-27.5-17.5h-9.5v-9.4h9.6
				c7.5,0,13.4-1.7,17.8-5s6.6-7.9,6.6-13.8c0-4.7-1.6-8.4-4.8-11c-3.2-2.7-7.6-4-13.1-4c-4.2,0-8.2,0.6-11.9,1.7
				c-3.7,1.1-8,3.2-12.7,6.3l-5.5-7.4c3.9-3.1,8.5-5.6,13.6-7.3c5.1-1.8,10.6-2.7,16.3-2.7c9.3,0,16.6,2.1,21.8,6.4
				S231,568.9,231,576.4z"/>
			<path id="XMLID_272_" class="st8" d="M288.8,649.9h-10.6v-68.5c0-5.7,0.2-11.1,0.5-16.2c-0.9,0.9-2,1.9-3.1,2.9
				s-6.4,5.3-15.6,12.8l-5.8-7.5l25.4-19.6h9.2V649.9L288.8,649.9z"/>
		</g>
	</g>
</g>
<g id="julyLine">
	<line id="XMLID_5_" class="st9" x1="349" y1="657.6" x2="819" y2="657.6"/>
</g>
</svg>
