<?xml version="1.0" encoding="utf-8"?>
<!-- Generator: Adobe Illustrator 19.0.0, SVG Export Plug-In . SVG Version: 6.00 Build 0)  -->
<svg version="1.1" id="box2" xmlns="http://www.w3.org/2000/svg" xmlns:xlink="http://www.w3.org/1999/xlink" x="0px" y="0px"
	 viewBox="69 212 750 369" style="enable-background:new 69 212 750 369;" xml:space="preserve">
<style type="text/css">
	.st0{fill:#FFFFFF;}
	.st1{fill:#FCB94D;}
	.st2{fill:#FCC478;}
	.st3{fill:#EC1C24;}
	.st4{fill:#FFD9A1;}
	.st5{fill:none;stroke:#4760F0;stroke-width:2;stroke-miterlimit:10;}
</style>
<g id="owlBg">
	<rect id="XMLID_537_" x="69" y="212.8" class="st0" width="750" height="367.5"/>
</g>
<g id="owlLetters">
	<g id="XMLID_248_">
		<path id="XMLID_456_" class="st1" d="M750.1,343.8C750.1,343.8,750,343.8,750.1,343.8c-0.1,0-0.1,0-0.2,0c-0.2,0-0.4,0.1-0.6,0.1
			l0,0c-1,0-3.2-0.4-6.5-1.2c-0.1,2.3-0.5,5.9-1,9.6c8.1,0.8,16.6,1.4,20.3,1.4c-2.6-4.1-7-10.9-9.4-14.1
			C750.9,343.5,750.5,343.6,750.1,343.8z"/>
		<path id="XMLID_440_" class="st2" d="M664.9,324.8c-2.5-0.3-4.9-0.5-7.1-0.7c-12.6-1.2-15.9-1.6-15.9-4l0,0c0-0.1,0-0.1,0-0.2l0,0
			c0.2-0.8,0.8-3.7,1.7-7.8c1.7-7.7,3.2-14.5,4.5-20.4c-2.4,0-8.1-0.1-13.6,0c-0.3,7.8-2.3,53.2-2.2,66.1
			C638.1,351.5,654.4,333.8,664.9,324.8z"/>
		<path id="XMLID_391_" class="st1" d="M754,337.1c2.4,2.9,7.7,11.2,10.1,15c2.6-8.7,10-43.4,12.9-57.4c0.9-4.3,1.5-7.2,1.9-8.7
			c-1.1-0.1-2.7-0.3-4.2-0.3c-2.6,6.8-6.4,16.5-9.9,25.5C759.4,324.8,756.1,332.5,754,337.1z"/>
		<path id="XMLID_382_" class="st2" d="M711.4,334.3c-4.8-1.3-9.6-2.6-14.4-3.9c-0.1,1.5-0.6,2.9-1.7,4.1c-1.2,1.3-3.8,3.2-9.1,3.2
			c-1.3,0-2.8-0.1-4.4-0.4c-3.7-0.6-6.4-2.2-8-4.6c-1.6-2.5-1.7-5.3-1.5-6.9c-1.3-0.2-2.6-0.3-3.8-0.5
			c-10.2,8.1-28.6,28.2-34.4,34.5c15.1,0.7,87.3,4.1,102.4,5C732,358.6,719.3,341.5,711.4,334.3z"/>
		<path id="XMLID_380_" class="st2" d="M720.3,336.6c-1.3-0.4-2.7-0.7-4.1-1.1c7.8,8.2,17.8,21.7,21.8,27.3
			c0.7-5.4,2.2-16.4,2.4-20.7C735.6,340.8,728.9,339,720.3,336.6z"/>
		<path id="XMLID_292_" class="st3" d="M675.8,331.3c1.2,1.8,3.3,3,6.3,3.5c5.3,0.8,9.4,0.1,11.3-2c0.8-0.9,1.2-2,1.1-3.1
			c-6.5-1.7-13.4-2.8-19.9-3.7C674.5,327.3,674.6,329.5,675.8,331.3z"/>
		<path id="XMLID_455_" class="st4" d="M645.2,316.8c8.3-7.2,32.3-27.9,42.6-34.3c-9.5-9.6-23.3-25.6-27.3-30.3
			c-2.9,7.7-11.4,46.9-14.4,60.4C645.8,314.3,645.4,315.6,645.2,316.8z"/>
		<path id="XMLID_441_" class="st4" d="M695.6,286.4c2.4-1.6,5.5-2.6,9.4-2.6c5.7,0.1,9.3,3.1,10.9,6.9c1.8-0.2,4.6-0.7,8-1.5l0,0
			c15.3-3.3,42.8-10.8,50.3-12.9c-7.2-4.2-45.2-16.3-111-24.6C669.6,259,688.5,280.8,695.6,286.4z"/>
		<path id="XMLID_437_" class="st4" d="M749.9,340.1c0.4-0.8,0.9-1.8,1.5-3.1c0-0.1,0.1-0.2,0.1-0.2c5.1-11.3,16-39,21.2-52.5
			c0-0.1,0.1-0.2,0.1-0.4c0.8-2.1,1.4-3.8,1.9-5.1c-7.7,2.1-33,9-48.6,12.5C731.8,301,746.1,331.8,749.9,340.1z"/>
		<path id="XMLID_436_" class="st3" d="M701.7,303.8c1.1,0.2,2.2,0.3,3.3,0.3l0,0c6.4,0,9.3-4.5,9.4-8.7c0-4.3-2.9-8.9-9.4-9.1
			c-3.6,0-6.5,1.1-8.5,2.6c0,0-0.1,0-0.1,0.1c-2,1.6-3.2,3.7-3.4,5.8C692.6,298.1,694.7,302.3,701.7,303.8z"/>
		<path id="XMLID_254_" class="st4" d="M720.9,334.3c11.4,3.2,22.3,6.2,26.7,7c-3.8-8.3-18.9-40.8-24.1-49.4c-2.8,0.6-5.2,1-6.9,1.3
			c0.1,0.8,0.2,1.5,0.2,2.3c-0.1,5.5-4.2,11.2-11.9,11.2l0,0c-1.2,0-2.5-0.1-3.8-0.4c-8.6-1.8-11.2-7.4-10.8-11.7
			c0.2-2.3,1.3-4.6,3.2-6.5c-1.1-1-2.5-2.2-4.1-3.7c-10.3,6.2-38.3,30.5-44.4,35.8c2.2,0.6,7.6,1.1,12.9,1.6c3.1,0.3,6.4,0.6,10,1
			l0,0c8.7,1,18.5,2.3,27.8,4.8C704.2,329.6,713.1,332.1,720.9,334.3z"/>
	</g>
</g>
<g id="owlLine">
	<line id="XMLID_9_" class="st5" x1="423" y1="521.7" x2="819" y2="521.7"/>
</g>
</svg>
