<?xml version="1.0" encoding="utf-8"?>
<!-- Generator: Adobe Illustrator 19.0.0, SVG Export Plug-In . SVG Version: 6.00 Build 0)  -->
<svg version="1.1" id="box2" xmlns="http://www.w3.org/2000/svg" xmlns:xlink="http://www.w3.org/1999/xlink" x="0px" y="0px"
	 viewBox="69 212 750 369" style="enable-background:new 69 212 750 369;" xml:space="preserve">
<style type="text/css">
	.st0{fill:none;stroke:#4760F0;stroke-width:2;stroke-miterlimit:10;}
	.st1{fill:#FFFFFF;}
	.st2{fill:#FCB94D;}
	.st3{fill:#FCC478;}
	.st4{fill:#EC1C24;}
	.st5{fill:#FFD9A1;}
	.st6{fill:#232323;}
	.st7{fill:#4760F0;}
</style>
<g id="owlLine">
	<line id="XMLID_9_" class="st0" x1="492" y1="733.7" x2="888" y2="733.7"/>
</g>
<g>
	<g id="owlBg">
		<rect id="XMLID_537_" x="69" y="212" class="st1" width="750.4" height="367.5"/>
	</g>
	<g id="owlLetters">
		<g id="XMLID_248_">
			<path id="XMLID_456_" class="st2" d="M750.5,343.1C750.5,343.1,750.4,343.1,750.5,343.1c-0.1,0-0.1,0-0.2,0
				c-0.2,0-0.4,0.1-0.6,0.1l0,0c-1,0-3.2-0.4-6.5-1.2c-0.1,2.3-0.5,5.9-1,9.6c8.1,0.8,16.6,1.4,20.3,1.4c-2.6-4.1-7-10.9-9.4-14.1
				C751.3,342.8,750.9,342.9,750.5,343.1z"/>
			<path id="XMLID_440_" class="st3" d="M665.3,324.1c-2.5-0.3-4.9-0.5-7.1-0.7c-12.6-1.2-15.9-1.6-15.9-4l0,0c0-0.1,0-0.1,0-0.2
				l0,0c0.2-0.8,0.8-3.7,1.7-7.8c1.7-7.7,3.2-14.5,4.5-20.4c-2.4,0-8.1-0.1-13.6,0c-0.3,7.8-2.3,53.2-2.2,66.1
				C638.5,350.7,654.8,333,665.3,324.1z"/>
			<path id="XMLID_391_" class="st2" d="M754.4,336.4c2.4,2.9,7.7,11.2,10.1,15c2.6-8.7,10-43.4,12.9-57.4c0.9-4.3,1.5-7.2,1.9-8.7
				c-1.1-0.1-2.7-0.3-4.2-0.3c-2.6,6.8-6.4,16.5-9.9,25.5C759.8,324,756.5,331.8,754.4,336.4z"/>
			<path id="XMLID_382_" class="st3" d="M711.8,333.5c-4.8-1.3-9.6-2.6-14.4-3.9c-0.1,1.5-0.6,2.9-1.7,4.1c-1.2,1.3-3.8,3.2-9.1,3.2
				c-1.3,0-2.8-0.1-4.4-0.4c-3.7-0.6-6.4-2.2-8-4.6c-1.6-2.5-1.7-5.3-1.5-6.9c-1.3-0.2-2.6-0.3-3.8-0.5
				c-10.2,8.1-28.6,28.2-34.4,34.5c15.1,0.7,87.3,4.1,102.4,5C732.4,357.9,719.7,340.8,711.8,333.5z"/>
			<path id="XMLID_380_" class="st3" d="M720.7,335.9c-1.3-0.4-2.7-0.7-4.1-1.1c7.8,8.2,17.8,21.7,21.8,27.3
				c0.7-5.4,2.2-16.4,2.4-20.7C736,340.1,729.3,338.3,720.7,335.9z"/>
			<path id="XMLID_292_" class="st4" d="M676.2,330.6c1.2,1.8,3.3,3,6.3,3.5c5.3,0.8,9.4,0.1,11.3-2c0.8-0.9,1.2-2,1.1-3.1
				c-6.5-1.7-13.4-2.8-19.9-3.7C674.9,326.5,675,328.7,676.2,330.6z"/>
			<path id="XMLID_455_" class="st5" d="M645.6,316c8.3-7.2,32.3-27.9,42.6-34.3c-9.5-9.6-23.3-25.6-27.3-30.3
				c-2.9,7.7-11.4,46.9-14.4,60.4C646.2,313.5,645.8,314.9,645.6,316z"/>
			<path id="XMLID_441_" class="st5" d="M696,285.7c2.4-1.6,5.5-2.6,9.4-2.6c5.7,0.1,9.3,3.1,10.9,6.9c1.8-0.2,4.6-0.7,8-1.5l0,0
				c15.3-3.3,42.8-10.8,50.3-12.9c-7.2-4.2-45.2-16.3-111-24.6C670,258.3,688.9,280,696,285.7z"/>
			<path id="XMLID_437_" class="st5" d="M750.3,339.4c0.4-0.8,0.9-1.8,1.5-3.1c0-0.1,0.1-0.2,0.1-0.2c5.1-11.3,16-39,21.2-52.5
				c0-0.1,0.1-0.2,0.1-0.4c0.8-2.1,1.4-3.8,1.9-5.1c-7.7,2.1-33,9-48.6,12.5C732.2,300.3,746.5,331.1,750.3,339.4z"/>
			<path id="XMLID_436_" class="st4" d="M702.1,303c1.1,0.2,2.2,0.3,3.3,0.3l0,0c6.4,0,9.3-4.5,9.4-8.7c0-4.3-2.9-8.9-9.4-9.1
				c-3.6,0-6.5,1.1-8.5,2.6c0,0-0.1,0-0.1,0.1c-2,1.6-3.2,3.7-3.4,5.8C693,297.4,695.1,301.5,702.1,303z"/>
			<path id="XMLID_254_" class="st5" d="M721.3,333.5c11.4,3.2,22.3,6.2,26.7,7c-3.8-8.3-18.9-40.8-24.1-49.4
				c-2.8,0.6-5.2,1-6.9,1.3c0.1,0.8,0.2,1.5,0.2,2.3c-0.1,5.5-4.2,11.2-11.9,11.2l0,0c-1.2,0-2.5-0.1-3.8-0.4
				c-8.6-1.8-11.2-7.4-10.8-11.7c0.2-2.3,1.3-4.6,3.2-6.5c-1.1-1-2.5-2.2-4.1-3.7c-10.3,6.2-38.3,30.5-44.4,35.8
				c2.2,0.6,7.6,1.1,12.9,1.6c3.1,0.3,6.4,0.6,10,1l0,0c8.7,1,18.5,2.3,27.8,4.8C704.6,328.9,713.5,331.4,721.3,333.5z"/>
		</g>
	</g>
	<g id="owlText">
		<g id="XMLID_5208_">
			<path id="XMLID_5209_" class="st6" d="M128.7,273.4c0,4.3-2.8,7.4-6.6,7.4c-3.7,0-6.4-3-6.4-7.1c0-4.2,2.8-7.1,6.6-7.1
				C126.1,266.5,128.7,269.3,128.7,273.4z M117.5,273.5c0,3.5,2,5.8,4.8,5.8c2.7,0,4.8-2.2,4.8-5.7s-2.1-5.6-4.8-5.6
				C119.5,268,117.5,270,117.5,273.5z"/>
			<path id="XMLID_5212_" class="st6" d="M139.2,273.9v6.3c0,0.2-0.1,0.3-0.3,0.3h-1.1c-0.2,0-0.3-0.1-0.3-0.3v-5.9
				c0-1.7-0.8-2.5-2.1-2.5c-1.4,0-2.5,1-2.7,3.1v5.4c0,0.2-0.1,0.3-0.3,0.3h-1.1c-0.2,0-0.3-0.1-0.3-0.3l0.1-9.5
				c0-0.2,0.1-0.3,0.3-0.3h1c0.2,0,0.3,0.1,0.3,0.3v1.2h0.1c0.8-1.1,1.8-1.7,3.2-1.7C138,270.2,139.2,271.5,139.2,273.9z"/>
			<path id="XMLID_5214_" class="st6" d="M150.8,271.5c0,0.2-0.1,0.3-0.3,0.3h-1.8v8.4c0,0.2-0.1,0.3-0.3,0.3h-1.1
				c-0.2,0-0.3-0.1-0.3-0.3v-8.4h-1.5c-0.2,0-0.3-0.1-0.3-0.3v-0.8c0-0.2,0.1-0.3,0.3-0.3h1.5v-3.6c0-0.2,0.1-0.3,0.3-0.3h1
				c0.2,0,0.3,0.1,0.3,0.3v3.6h1.9c0.2,0,0.3,0.1,0.3,0.3V271.5L150.8,271.5z"/>
			<path id="XMLID_5216_" class="st6" d="M154.5,272c0.7-1,1.8-1.7,3.1-1.7c1.9,0,3.1,1.3,3.2,3.6v6.3c0,0.2-0.1,0.3-0.3,0.3h-1.1
				c-0.2,0-0.3-0.1-0.3-0.3v-5.9c0-1.6-0.8-2.4-2-2.4c-1.4,0-2.5,1-2.7,3v5.4c0,0.2-0.1,0.3-0.3,0.3H153c-0.2,0-0.3-0.1-0.3-0.3
				l0.1-13.6c0-0.2,0.1-0.3,0.3-0.3h1c0.2,0,0.3,0.1,0.3,0.3v5.3L154.5,272z"/>
			<path id="XMLID_5218_" class="st6" d="M172.2,275.4c0,0.2-0.1,0.3-0.3,0.3h-7.1c0,2.2,1.2,3.6,3.1,3.6c1.1,0,1.9-0.4,2.4-1.3
				c0.1-0.2,0.2-0.2,0.4-0.2h1c0.2,0,0.3,0.2,0.2,0.4c-0.8,1.7-2.3,2.7-4.1,2.7c-2.8,0-4.7-2.1-4.7-5.2c0-3.2,2-5.3,4.8-5.3
				C170.8,270.2,172.2,272.5,172.2,275.4z M164.8,274.4h5.6c-0.1-1.5-1-2.7-2.8-2.7C166,271.7,165.1,272.9,164.8,274.4z"/>
			<path id="XMLID_5221_" class="st6" d="M183.6,267.5c0,0.2-0.1,0.3-0.3,0.3c-1.7,0-2.5,0.3-2.5,2.3v0.3h2.4c0.2,0,0.3,0.1,0.3,0.3
				v0.8c0,0.2-0.1,0.3-0.3,0.3h-2.4l0.1,8.4c0,0.2-0.1,0.3-0.3,0.3h-1.2c-0.2,0-0.3-0.1-0.3-0.3l0.1-8.4h-1.3
				c-0.2,0-0.3-0.1-0.3-0.3v-0.8c0-0.2,0.1-0.3,0.3-0.3h1.3v-0.2c0-3.2,1.7-4,4.1-3.9c0.2,0,0.3,0.1,0.3,0.3V267.5L183.6,267.5z"/>
			<path id="XMLID_5223_" class="st6" d="M187.3,280.2c0,0.2-0.1,0.3-0.3,0.3h-1.1c-0.2,0-0.3-0.1-0.3-0.3l0.1-9.5
				c0-0.2,0.1-0.3,0.3-0.3h1c0.2,0,0.3,0.1,0.3,0.3V280.2z M187.3,268c0,0.2-0.1,0.3-0.3,0.3h-1c-0.2,0-0.3-0.1-0.3-0.3v-1.3
				c0-0.2,0.1-0.3,0.3-0.3h1c0.2,0,0.3,0.1,0.3,0.3V268z"/>
			<path id="XMLID_5226_" class="st6" d="M195.5,271.7c0,0.2-0.1,0.3-0.3,0.3c-1.7,0.1-2.9,0.7-3.1,3v5.2c0,0.2-0.1,0.3-0.3,0.3
				h-1.1c-0.2,0-0.3-0.1-0.3-0.3l0.1-9.5c0-0.2,0.1-0.3,0.3-0.3h1c0.2,0,0.3,0.1,0.3,0.3v1.3h0.1c0.7-1,1.7-1.7,3-1.8
				c0.2,0,0.3,0.1,0.3,0.3V271.7z"/>
			<path id="XMLID_5228_" class="st6" d="M204.7,272.7c0.1,0.2,0,0.3-0.2,0.3h-1c-0.2,0-0.3-0.1-0.4-0.2c-0.5-0.7-1.2-1.2-2.4-1.2
				c-1.2,0-2,0.6-2,1.4s0.8,1.1,2.2,1.5l0.8,0.2c2.3,0.7,3.2,1.6,3.2,2.9c0,1.9-1.5,3-3.9,3c-2.3,0-3.7-1.2-4.3-2.8
				c-0.1-0.2,0-0.3,0.2-0.3h1.1c0.2,0,0.3,0.1,0.4,0.2c0.5,1,1.4,1.4,2.6,1.4c1.2,0,2.1-0.4,2.1-1.4c0-0.8-0.7-1.3-2.3-1.7l-0.8-0.2
				c-1.8-0.5-3.1-1.2-3.1-2.8c0-1.7,1.6-2.9,3.7-2.9C203.1,270.2,204.3,271.5,204.7,272.7z"/>
			<path id="XMLID_5230_" class="st6" d="M212,271.5c0,0.2-0.1,0.3-0.3,0.3h-1.8v8.4c0,0.2-0.1,0.3-0.3,0.3h-1.2
				c-0.2,0-0.3-0.1-0.3-0.3v-8.4h-1.5c-0.2,0-0.3-0.1-0.3-0.3v-0.8c0-0.2,0.1-0.3,0.3-0.3h1.5v-3.6c0-0.2,0.1-0.3,0.3-0.3h1
				c0.2,0,0.3,0.1,0.3,0.3v3.6h1.9c0.2,0,0.3,0.1,0.3,0.3v0.8H212z"/>
			<path id="XMLID_5232_" class="st6" d="M231.4,273.9v6.3c0,0.2-0.1,0.3-0.3,0.3H230c-0.2,0-0.3-0.1-0.3-0.3v-5.9
				c0-1.7-0.7-2.5-1.8-2.5c-1.3,0-2.4,1-2.5,3.1v5.3c0,0.2-0.1,0.3-0.3,0.3H224c-0.2,0-0.3-0.1-0.3-0.3v-5.9c0-1.7-0.7-2.5-1.8-2.5
				c-1.3,0-2.4,0.9-2.6,3.1v5.4c0,0.2-0.1,0.3-0.3,0.3h-1.1c-0.2,0-0.3-0.1-0.3-0.3l0.1-9.5c0-0.2,0.1-0.3,0.3-0.3h1
				c0.2,0,0.3,0.1,0.3,0.3v1.2h0.1c0.8-1,1.8-1.7,3.1-1.7c1.3,0,2.2,0.6,2.6,1.9h0.1c0.8-1.2,1.8-1.9,3.2-1.9
				C230.3,270.2,231.4,271.5,231.4,273.9z"/>
			<path id="XMLID_5234_" class="st6" d="M243.1,275.4c0,3.1-2.1,5.4-4.8,5.4c-2.7,0-4.7-2.2-4.7-5.2c0-3.2,2.1-5.3,4.8-5.3
				C241.1,270.2,243.1,272.3,243.1,275.4z M235.3,275.4c0,2.4,1.4,3.9,3.2,3.9c1.8,0,3-1.5,3-3.7c0-2.4-1.4-3.9-3.2-3.9
				C236.5,271.7,235.3,273.1,235.3,275.4z"/>
			<path id="XMLID_5237_" class="st6" d="M250.1,280.3c-0.1,0.2-0.2,0.2-0.3,0.2h-1.7c-0.2,0-0.3-0.1-0.3-0.2l-3.2-9.5
				c-0.1-0.2,0-0.3,0.2-0.3h1c0.2,0,0.3,0.1,0.3,0.2l2.8,8h0.2l2.8-8c0.1-0.2,0.2-0.2,0.3-0.2h1c0.2,0,0.3,0.1,0.2,0.3L250.1,280.3z
				"/>
			<path id="XMLID_5239_" class="st6" d="M257.2,280.2c0,0.2-0.1,0.3-0.3,0.3h-1.1c-0.2,0-0.3-0.1-0.3-0.3l0.1-9.5
				c0-0.2,0.1-0.3,0.3-0.3h1c0.2,0,0.3,0.1,0.3,0.3V280.2z M257.2,268c0,0.2-0.1,0.3-0.3,0.3h-1c-0.2,0-0.3-0.1-0.3-0.3v-1.3
				c0-0.2,0.1-0.3,0.3-0.3h1c0.2,0,0.3,0.1,0.3,0.3V268z"/>
			<path id="XMLID_5242_" class="st6" d="M268.8,275.4c0,0.2-0.1,0.3-0.3,0.3h-7.1c0,2.2,1.2,3.6,3.1,3.6c1.1,0,1.9-0.4,2.4-1.3
				c0.1-0.2,0.2-0.2,0.4-0.2h1c0.2,0,0.3,0.2,0.2,0.4c-0.8,1.7-2.3,2.7-4.1,2.7c-2.8,0-4.7-2.1-4.7-5.2c0-3.2,2-5.3,4.8-5.3
				C267.4,270.2,268.9,272.5,268.8,275.4z M261.4,274.4h5.6c-0.1-1.5-1-2.7-2.8-2.7C262.6,271.7,261.7,272.9,261.4,274.4z"/>
			<path id="XMLID_5245_" class="st6" d="M273.8,280c0,1.7-0.4,2.6-1.2,3.5c-0.1,0.1-0.3,0.2-0.4,0.1l-0.1-0.1
				c-0.2-0.1-0.2-0.2-0.1-0.4c0.6-1,0.8-1.9,0.1-2.4c-0.1-0.1-0.2-0.2-0.2-0.4v-1.5c0-0.2,0.1-0.3,0.3-0.3h1.3
				c0.2,0,0.3,0.1,0.3,0.3L273.8,280L273.8,280z"/>
			<path id="XMLID_5247_" class="st6" d="M290.9,280.5c-0.2,0-0.3-0.1-0.3-0.3V274h-7.5v6.2c0,0.2-0.1,0.3-0.3,0.3h-1.2
				c-0.2,0-0.3-0.1-0.3-0.3l0.1-13.2c0-0.2,0.1-0.3,0.3-0.3h1c0.2,0,0.3,0.1,0.3,0.3v5.5h7.6V267c0-0.2,0.1-0.3,0.3-0.3h1.1
				c0.2,0,0.3,0.1,0.3,0.3l0.1,13.2c0,0.2-0.1,0.3-0.3,0.3H290.9z"/>
			<path id="XMLID_5249_" class="st6" d="M303,273.7l0.1,6.6c0,0.2-0.1,0.3-0.3,0.3h-1.1c-0.2,0-0.3-0.1-0.3-0.3V279h-0.1
				c-0.7,1-1.9,1.8-3.5,1.8c-1.8,0-3.1-1-3.1-2.8c0-2.1,1.6-3,5.3-3.4c0.9-0.1,1.4-0.4,1.4-1.1c0-1-0.8-1.8-2.3-1.8
				c-1.2,0-2,0.5-2.3,1.4c-0.1,0.2-0.2,0.2-0.3,0.2h-1c-0.2,0-0.3-0.1-0.3-0.3c0.4-1.7,1.8-2.8,4-2.8
				C301.5,270.2,303,271.5,303,273.7z M301.3,275.5c-0.3,0.2-0.8,0.3-1.5,0.3c-2.3,0.3-3.5,0.8-3.5,2c0,1,0.7,1.5,1.8,1.5
				c1.9,0,3.2-1.3,3.3-2.4L301.3,275.5L301.3,275.5z"/>
			<path id="XMLID_5252_" class="st6" d="M311,271.7c0,0.2-0.1,0.3-0.3,0.3c-1.7,0.1-2.9,0.7-3.1,3v5.2c0,0.2-0.1,0.3-0.3,0.3h-1.1
				c-0.2,0-0.3-0.1-0.3-0.3l0.1-9.5c0-0.2,0.1-0.3,0.3-0.3h1c0.2,0,0.3,0.1,0.3,0.3v1.3h0.1c0.7-1,1.7-1.7,3-1.8
				c0.2,0,0.3,0.1,0.3,0.3V271.7z"/>
			<path id="XMLID_5254_" class="st6" d="M317.9,271.7c0,0.2-0.1,0.3-0.3,0.3c-1.7,0.1-2.9,0.7-3.1,3v5.2c0,0.2-0.1,0.3-0.3,0.3
				h-1.1c-0.2,0-0.3-0.1-0.3-0.3l0.1-9.5c0-0.2,0.1-0.3,0.3-0.3h1c0.2,0,0.3,0.1,0.3,0.3v1.3h0.1c0.7-1,1.7-1.7,3-1.8
				c0.2,0,0.3,0.1,0.3,0.3V271.7z"/>
			<path id="XMLID_5256_" class="st6" d="M327.6,270.4c0.2,0,0.3,0.1,0.2,0.3l-4.8,13.7c-0.1,0.2-0.2,0.2-0.4,0.2h-1.1
				c-0.2,0-0.3-0.1-0.2-0.3l1.2-3.4l-3.6-10.2c-0.1-0.2,0-0.3,0.2-0.3h1c0.2,0,0.3,0.1,0.3,0.2l2.8,8h0.1l2.9-8
				c0.1-0.2,0.2-0.2,0.4-0.2L327.6,270.4L327.6,270.4z"/>
			<path id="XMLID_5258_" class="st6" d="M339.3,266.7c2.8,0,4.6,1.7,4.6,4.1c0,2.5-1.8,4.3-4.6,4.3h-3.9v5.1c0,0.2-0.1,0.3-0.3,0.3
				h-1.2c-0.2,0-0.3-0.1-0.3-0.3l0.1-13.2c0-0.2,0.1-0.3,0.3-0.3H339.3L339.3,266.7z M339.1,273.7c2,0,3.1-1,3.1-2.7
				s-1.2-2.8-3.1-2.8h-3.7v5.5H339.1z"/>
			<path id="XMLID_5261_" class="st6" d="M355.1,275.4c0,3.1-2.1,5.4-4.8,5.4c-2.7,0-4.7-2.2-4.7-5.2c0-3.2,2.1-5.3,4.8-5.3
				C353.1,270.2,355.1,272.3,355.1,275.4z M347.2,275.4c0,2.4,1.4,3.9,3.2,3.9c1.8,0,3-1.5,3-3.7c0-2.4-1.4-3.9-3.2-3.9
				C348.5,271.7,347.2,273.1,347.2,275.4z"/>
			<path id="XMLID_5264_" class="st6" d="M362.1,271.5c0,0.2-0.1,0.3-0.3,0.3H360v8.4c0,0.2-0.1,0.3-0.3,0.3h-1.1
				c-0.2,0-0.3-0.1-0.3-0.3v-8.4h-1.5c-0.2,0-0.3-0.1-0.3-0.3v-0.8c0-0.2,0.1-0.3,0.3-0.3h1.5v-3.6c0-0.2,0.1-0.3,0.3-0.3h1
				c0.2,0,0.3,0.1,0.3,0.3v3.6h1.9c0.2,0,0.3,0.1,0.3,0.3V271.5z"/>
			<path id="XMLID_5266_" class="st6" d="M368.8,271.5c0,0.2-0.1,0.3-0.3,0.3h-1.8v8.4c0,0.2-0.1,0.3-0.3,0.3h-1.1
				c-0.2,0-0.3-0.1-0.3-0.3v-8.4h-1.5c-0.2,0-0.3-0.1-0.3-0.3v-0.8c0-0.2,0.1-0.3,0.3-0.3h1.5v-3.6c0-0.2,0.1-0.3,0.3-0.3h1
				c0.2,0,0.3,0.1,0.3,0.3v3.6h1.9c0.2,0,0.3,0.1,0.3,0.3V271.5z"/>
			<path id="XMLID_5268_" class="st6" d="M379.2,275.4c0,0.2-0.1,0.3-0.3,0.3h-7.1c0,2.2,1.2,3.6,3.1,3.6c1.1,0,1.9-0.4,2.4-1.3
				c0.1-0.2,0.2-0.2,0.4-0.2h1c0.2,0,0.3,0.2,0.2,0.4c-0.8,1.7-2.3,2.7-4.1,2.7c-2.8,0-4.7-2.1-4.7-5.2c0-3.2,2-5.3,4.8-5.3
				C377.8,270.2,379.3,272.5,379.2,275.4z M371.8,274.4h5.6c-0.1-1.5-1-2.7-2.8-2.7C373,271.7,372.1,272.9,371.8,274.4z"/>
			<path id="XMLID_5271_" class="st6" d="M386.5,271.7c0,0.2-0.1,0.3-0.3,0.3c-1.7,0.1-2.9,0.7-3.1,3v5.2c0,0.2-0.1,0.3-0.3,0.3
				h-1.1c-0.2,0-0.3-0.1-0.3-0.3l0.1-9.5c0-0.2,0.1-0.3,0.3-0.3h1c0.2,0,0.3,0.1,0.3,0.3v1.3h0.1c0.7-1,1.7-1.7,3-1.8
				c0.2,0,0.3,0.1,0.3,0.3V271.7z"/>
			<path id="XMLID_5273_" class="st6" d="M400.1,273.7l0.1,6.6c0,0.2-0.1,0.3-0.3,0.3h-1.1c-0.2,0-0.3-0.1-0.3-0.3V279h-0.1
				c-0.7,1-1.9,1.8-3.5,1.8c-1.8,0-3.1-1-3.1-2.8c0-2.1,1.6-3,5.3-3.4c0.9-0.1,1.4-0.4,1.4-1.1c0-1-0.8-1.8-2.3-1.8
				c-1.2,0-2,0.5-2.3,1.4c-0.1,0.2-0.2,0.2-0.3,0.2h-1c-0.2,0-0.3-0.1-0.3-0.3c0.4-1.7,1.8-2.8,4-2.8
				C398.7,270.2,400.1,271.5,400.1,273.7z M398.4,275.5c-0.3,0.2-0.8,0.3-1.5,0.3c-2.3,0.3-3.5,0.8-3.5,2c0,1,0.7,1.5,1.8,1.5
				c1.9,0,3.2-1.3,3.3-2.4L398.4,275.5L398.4,275.5z"/>
			<path id="XMLID_5276_" class="st6" d="M411.2,273.9v6.3c0,0.2-0.1,0.3-0.3,0.3h-1.1c-0.2,0-0.3-0.1-0.3-0.3v-5.9
				c0-1.7-0.8-2.5-2.1-2.5c-1.4,0-2.5,1-2.7,3.1v5.4c0,0.2-0.1,0.3-0.3,0.3h-1.1c-0.2,0-0.3-0.1-0.3-0.3l0.1-9.5
				c0-0.2,0.1-0.3,0.3-0.3h1c0.2,0,0.3,0.1,0.3,0.3v1.2h0.1c0.8-1.1,1.8-1.7,3.2-1.7C409.9,270.2,411.2,271.5,411.2,273.9z"/>
			<path id="XMLID_5278_" class="st6" d="M422.7,280.2c0,0.2-0.1,0.3-0.3,0.3h-1.1c-0.2,0-0.3-0.1-0.3-0.3v-1.1h-0.1
				c-0.7,1.1-1.9,1.7-3.2,1.7c-2.5,0-4.2-2.2-4.2-5.2c0-3.2,1.9-5.4,4.7-5.4c1.2,0,2.1,0.4,2.8,1.2h0.1v-4.8c0-0.2,0.1-0.3,0.3-0.3
				h1c0.2,0,0.3,0.1,0.3,0.3L422.7,280.2z M415.1,275.5c0,2.4,1.2,3.8,3,3.8c1.5,0,2.8-1.1,3-3.2v-1.3c-0.2-2.1-1.5-3.1-3-3.1
				C416.2,271.7,415.1,273.1,415.1,275.5z"/>
			<path id="XMLID_5281_" class="st6" d="M434.3,271.5c0,0.2-0.1,0.3-0.3,0.3h-1.8v8.4c0,0.2-0.1,0.3-0.3,0.3h-1.1
				c-0.2,0-0.3-0.1-0.3-0.3v-8.4H429c-0.2,0-0.3-0.1-0.3-0.3v-0.8c0-0.2,0.1-0.3,0.3-0.3h1.5v-3.6c0-0.2,0.1-0.3,0.3-0.3h1
				c0.2,0,0.3,0.1,0.3,0.3v3.6h1.9c0.2,0,0.3,0.1,0.3,0.3V271.5z"/>
			<path id="XMLID_5283_" class="st6" d="M438,272c0.7-1,1.8-1.7,3.1-1.7c1.9,0,3.1,1.3,3.2,3.6v6.3c0,0.2-0.1,0.3-0.3,0.3h-1.1
				c-0.2,0-0.3-0.1-0.3-0.3v-5.9c0-1.6-0.8-2.4-2-2.4c-1.4,0-2.5,1-2.7,3v5.4c0,0.2-0.1,0.3-0.3,0.3h-1.2c-0.2,0-0.3-0.1-0.3-0.3
				l0.1-13.6c0-0.2,0.1-0.3,0.3-0.3h1c0.2,0,0.3,0.1,0.3,0.3v5.3L438,272z"/>
			<path id="XMLID_5285_" class="st6" d="M455.6,275.4c0,0.2-0.1,0.3-0.3,0.3h-7.1c0,2.2,1.2,3.6,3.1,3.6c1.1,0,1.9-0.4,2.4-1.3
				c0.1-0.2,0.2-0.2,0.4-0.2h1c0.2,0,0.3,0.2,0.2,0.4c-0.8,1.7-2.3,2.7-4.1,2.7c-2.8,0-4.7-2.1-4.7-5.2c0-3.2,2-5.3,4.8-5.3
				C454.3,270.2,455.7,272.5,455.6,275.4z M448.3,274.4h5.6c-0.1-1.5-1-2.7-2.8-2.7C449.5,271.7,448.6,272.9,448.3,274.4z"/>
			<path id="XMLID_5288_" class="st6" d="M118,295.3h5.9c0.2,0,0.3,0.1,0.3,0.3v0.9c0,0.2-0.1,0.3-0.3,0.3H118v6.2
				c0,0.2-0.1,0.3-0.3,0.3h-1.2c-0.2,0-0.3-0.1-0.3-0.3l0.1-13.2c0-0.2,0.1-0.3,0.3-0.3h8.2c0.2,0,0.3,0.1,0.3,0.3v0.9
				c0,0.2-0.1,0.3-0.3,0.3h-6.9L118,295.3z"/>
			<path id="XMLID_5290_" class="st6" d="M129.4,303c0,0.2-0.1,0.3-0.3,0.3H128c-0.2,0-0.3-0.1-0.3-0.3l0.1-9.5
				c0-0.2,0.1-0.3,0.3-0.3h1c0.2,0,0.3,0.1,0.3,0.3V303z M129.4,290.8c0,0.2-0.1,0.3-0.3,0.3h-1c-0.2,0-0.3-0.1-0.3-0.3v-1.3
				c0-0.2,0.1-0.3,0.3-0.3h1c0.2,0,0.3,0.1,0.3,0.3V290.8z"/>
			<path id="XMLID_5293_" class="st6" d="M134.6,303c0,0.2-0.1,0.3-0.3,0.3h-1.1c-0.2,0-0.3-0.1-0.3-0.3l0.1-13.6
				c0-0.2,0.1-0.3,0.3-0.3h1c0.2,0,0.3,0.1,0.3,0.3V303z"/>
			<path id="XMLID_5295_" class="st6" d="M146.8,298.2c0,3.1-2.1,5.4-4.8,5.4c-2.7,0-4.7-2.2-4.7-5.2c0-3.2,2.1-5.3,4.8-5.3
				C144.8,293,146.8,295.1,146.8,298.2z M138.9,298.2c0,2.4,1.4,3.9,3.2,3.9c1.8,0,3-1.5,3-3.7c0-2.4-1.4-3.9-3.2-3.9
				C140.2,294.5,138.9,295.9,138.9,298.2z"/>
			<path id="XMLID_5298_" class="st6" d="M156.5,295.5c0.1,0.2,0,0.3-0.2,0.3h-1c-0.2,0-0.3-0.1-0.4-0.2c-0.5-0.7-1.2-1.2-2.4-1.2
				c-1.2,0-2,0.6-2,1.4c0,0.8,0.8,1.1,2.2,1.5l0.8,0.2c2.3,0.7,3.2,1.6,3.2,2.9c0,1.9-1.5,3-3.9,3c-2.3,0-3.7-1.2-4.3-2.8
				c-0.1-0.2,0-0.3,0.2-0.3h1.1c0.2,0,0.3,0.1,0.4,0.2c0.5,1,1.4,1.4,2.6,1.4s2.1-0.4,2.1-1.4c0-0.8-0.7-1.3-2.3-1.7l-0.8-0.2
				c-1.8-0.5-3.1-1.2-3.1-2.8c0-1.7,1.6-2.9,3.7-2.9C154.9,293,156.1,294.3,156.5,295.5z"/>
			<path id="XMLID_5300_" class="st6" d="M167.9,298.2c0,3.1-2.1,5.4-4.8,5.4c-2.7,0-4.7-2.2-4.7-5.2c0-3.2,2.1-5.3,4.8-5.3
				C165.9,293,167.9,295.1,167.9,298.2z M160,298.2c0,2.4,1.4,3.9,3.2,3.9c1.8,0,3-1.5,3-3.7c0-2.4-1.4-3.9-3.2-3.9
				C161.3,294.5,160,295.9,160,298.2z"/>
			<path id="XMLID_5303_" class="st6" d="M179.4,298.2c0,3.2-1.9,5.4-4.5,5.4c-1.3,0-2.2-0.4-2.9-1.2h-0.1v4.8
				c0,0.2-0.1,0.3-0.3,0.3h-1.2c-0.2,0-0.3-0.1-0.3-0.3l0.1-13.7c0-0.2,0.1-0.3,0.3-0.3h1c0.2,0,0.3,0.1,0.3,0.3v1.2h0.1
				c0.7-1.1,2-1.7,3.2-1.7C177.7,293,179.4,295.2,179.4,298.2z M171.8,297.7v1.3c0.2,2.1,1.5,3.1,3,3.1c1.9,0,3-1.4,3-3.8
				c0-2.4-1.2-3.9-3-3.9C173.2,294.5,171.9,295.6,171.8,297.7z"/>
			<path id="XMLID_5306_" class="st6" d="M183.6,294.8c0.7-1,1.8-1.7,3.1-1.7c1.9,0,3.1,1.3,3.2,3.6v6.3c0,0.2-0.1,0.3-0.3,0.3h-1.2
				c-0.2,0-0.3-0.1-0.3-0.3v-5.9c0-1.6-0.8-2.4-2-2.4c-1.4,0-2.5,1-2.7,3v5.4c0,0.2-0.1,0.3-0.3,0.3H182c-0.2,0-0.3-0.1-0.3-0.3
				l0.1-13.6c0-0.2,0.1-0.3,0.3-0.3h1c0.2,0,0.3,0.1,0.3,0.3v5.3H183.6z"/>
			<path id="XMLID_5308_" class="st6" d="M201.2,298.2c0,0.2-0.1,0.3-0.3,0.3h-7.1c0,2.2,1.2,3.6,3.1,3.6c1.1,0,1.9-0.4,2.4-1.3
				c0.1-0.2,0.2-0.2,0.4-0.2h1c0.2,0,0.3,0.2,0.2,0.4c-0.8,1.7-2.3,2.7-4.1,2.7c-2.8,0-4.7-2.1-4.7-5.2c0-3.2,2-5.3,4.8-5.3
				C199.8,293,201.3,295.3,201.2,298.2z M193.9,297.2h5.6c-0.1-1.5-1-2.7-2.8-2.7C195.1,294.5,194.1,295.7,193.9,297.2z"/>
			<path id="XMLID_5311_" class="st6" d="M208.6,294.5c0,0.2-0.1,0.3-0.3,0.3c-1.7,0.1-2.9,0.7-3.1,3v5.2c0,0.2-0.1,0.3-0.3,0.3
				h-1.1c-0.2,0-0.3-0.1-0.3-0.3l0.1-9.5c0-0.2,0.1-0.3,0.3-0.3h1c0.2,0,0.3,0.1,0.3,0.3v1.3h0.1c0.7-1,1.7-1.7,3-1.8
				c0.2,0,0.3,0.1,0.3,0.3V294.5z"/>
			<path id="XMLID_5313_" class="st6" d="M224.2,292.6c0.1,0.2,0,0.3-0.2,0.3h-1c-0.2,0-0.3-0.1-0.4-0.2c-0.6-1-1.7-1.9-3.5-1.9
				c-1.9,0-2.9,0.8-2.9,2c0,1.3,1,1.8,3.3,2.5l0.7,0.2c3.1,1,4.3,2.3,4.3,4.2c0,2.4-2,3.8-5,3.8c-3.6,0-5.2-2.1-5.7-3.7
				c-0.1-0.2,0.1-0.3,0.3-0.3h1.1c0.2,0,0.3,0.1,0.3,0.2c0.6,1.2,1.7,2.3,4,2.3c2,0,3.2-0.7,3.2-2.1c0-1.3-1-2.1-3.4-2.9l-0.8-0.2
				c-2.6-0.8-4.1-1.8-4.1-3.8c-0.1-2.3,2.1-3.7,4.8-3.7C221.9,289.3,223.6,290.9,224.2,292.6z"/>
			<path id="XMLID_5315_" class="st6" d="M231.6,294.3c0,0.2-0.1,0.3-0.3,0.3h-1.8v8.4c0,0.2-0.1,0.3-0.3,0.3h-1.1
				c-0.2,0-0.3-0.1-0.3-0.3v-8.4h-1.5c-0.2,0-0.3-0.1-0.3-0.3v-0.8c0-0.2,0.1-0.3,0.3-0.3h1.5v-3.6c0-0.2,0.1-0.3,0.3-0.3h1
				c0.2,0,0.3,0.1,0.3,0.3v3.6h1.9c0.2,0,0.3,0.1,0.3,0.3L231.6,294.3L231.6,294.3z"/>
			<path id="XMLID_5317_" class="st6" d="M242.4,298.2c0,3.1-2.1,5.4-4.8,5.4c-2.7,0-4.7-2.2-4.7-5.2c0-3.2,2.1-5.3,4.8-5.3
				C240.4,293,242.4,295.1,242.4,298.2z M234.5,298.2c0,2.4,1.4,3.9,3.2,3.9c1.8,0,3-1.5,3-3.7c0-2.4-1.4-3.9-3.2-3.9
				C235.8,294.5,234.5,295.9,234.5,298.2z"/>
			<path id="XMLID_5320_" class="st6" d="M252.9,296.7v6.3c0,0.2-0.1,0.3-0.3,0.3h-1.2c-0.2,0-0.3-0.1-0.3-0.3v-5.9
				c0-1.7-0.8-2.5-2.1-2.5c-1.4,0-2.5,1-2.7,3.1v5.4c0,0.2-0.1,0.3-0.3,0.3h-1.1c-0.2,0-0.3-0.1-0.3-0.3l0.1-9.5
				c0-0.2,0.1-0.3,0.3-0.3h1c0.2,0,0.3,0.1,0.3,0.3v1.2h0.1c0.8-1.1,1.8-1.7,3.2-1.7C251.6,293,252.9,294.3,252.9,296.7z"/>
			<path id="XMLID_5322_" class="st6" d="M264.2,298.2c0,0.2-0.1,0.3-0.3,0.3h-7.1c0,2.2,1.2,3.6,3.1,3.6c1.1,0,1.9-0.4,2.4-1.3
				c0.1-0.2,0.2-0.2,0.4-0.2h1c0.2,0,0.3,0.2,0.2,0.4c-0.8,1.7-2.3,2.7-4.1,2.7c-2.8,0-4.7-2.1-4.7-5.2c0-3.2,2-5.3,4.8-5.3
				C262.8,293,264.3,295.3,264.2,298.2z M256.9,297.2h5.6c-0.1-1.5-1-2.7-2.8-2.7C258.1,294.5,257.2,295.7,256.9,297.2z"/>
			<path id="XMLID_5325_" class="st6" d="M268.5,290.9c0,1.7-0.4,2.6-1.2,3.5c-0.1,0.1-0.3,0.2-0.4,0.1l-0.1-0.1
				c-0.2-0.1-0.2-0.2-0.1-0.4c0.6-0.9,0.8-1.9,0.1-2.4c-0.1-0.1-0.2-0.2-0.2-0.4v-1.5c0-0.2,0.1-0.3,0.3-0.3h1.3
				c0.2,0,0.3,0.1,0.3,0.3L268.5,290.9L268.5,290.9z"/>
			<path id="XMLID_5327_" class="st6" d="M278.3,295.5c0.1,0.2,0,0.3-0.2,0.3h-1c-0.2,0-0.3-0.1-0.4-0.2c-0.5-0.7-1.2-1.2-2.4-1.2
				c-1.2,0-2,0.6-2,1.4c0,0.8,0.8,1.1,2.2,1.5l0.8,0.2c2.3,0.7,3.2,1.6,3.2,2.9c0,1.9-1.5,3-3.9,3c-2.3,0-3.7-1.2-4.3-2.8
				c-0.1-0.2,0-0.3,0.2-0.3h1.1c0.2,0,0.3,0.1,0.4,0.2c0.5,1,1.4,1.4,2.6,1.4s2.1-0.4,2.1-1.4c0-0.8-0.7-1.3-2.3-1.7l-0.8-0.2
				c-1.8-0.5-3.1-1.2-3.1-2.8c0-1.7,1.6-2.9,3.7-2.9C276.7,293,277.9,294.3,278.3,295.5z"/>
			<path id="XMLID_5329_" class="st6" d="M283.6,302.8c0,1.7-0.4,2.6-1.2,3.5c-0.1,0.1-0.3,0.2-0.4,0.1l-0.1-0.1
				c-0.2-0.1-0.2-0.2-0.1-0.4c0.6-1,0.8-1.9,0.1-2.4c-0.1-0.1-0.2-0.2-0.2-0.4v-1.5c0-0.2,0.1-0.3,0.3-0.3h1.3
				c0.2,0,0.3,0.1,0.3,0.3L283.6,302.8L283.6,302.8z"/>
			<path id="XMLID_5331_" class="st6" d="M295.9,294.3c0,0.2-0.1,0.3-0.3,0.3h-1.8v8.4c0,0.2-0.1,0.3-0.3,0.3h-1.1
				c-0.2,0-0.3-0.1-0.3-0.3v-8.4h-1.5c-0.2,0-0.3-0.1-0.3-0.3v-0.8c0-0.2,0.1-0.3,0.3-0.3h1.5v-3.6c0-0.2,0.1-0.3,0.3-0.3h1
				c0.2,0,0.3,0.1,0.3,0.3v3.6h1.9c0.2,0,0.3,0.1,0.3,0.3L295.9,294.3L295.9,294.3z"/>
			<path id="XMLID_5333_" class="st6" d="M299.6,294.8c0.7-1,1.8-1.7,3.1-1.7c1.9,0,3.1,1.3,3.2,3.6v6.3c0,0.2-0.1,0.3-0.3,0.3h-1.1
				c-0.2,0-0.3-0.1-0.3-0.3v-5.9c0-1.6-0.8-2.4-2-2.4c-1.4,0-2.5,1-2.7,3v5.4c0,0.2-0.1,0.3-0.3,0.3h-1.1c-0.2,0-0.3-0.1-0.3-0.3
				l0.1-13.6c0-0.2,0.1-0.3,0.3-0.3h1c0.2,0,0.3,0.1,0.3,0.3L299.6,294.8L299.6,294.8z"/>
			<path id="XMLID_5335_" class="st6" d="M317.3,298.2c0,0.2-0.1,0.3-0.3,0.3h-7.1c0,2.2,1.2,3.6,3.1,3.6c1.1,0,1.9-0.4,2.4-1.3
				c0.1-0.2,0.2-0.2,0.4-0.2h1c0.2,0,0.3,0.2,0.2,0.4c-0.8,1.7-2.3,2.7-4.1,2.7c-2.8,0-4.7-2.1-4.7-5.2c0-3.2,2-5.3,4.8-5.3
				C315.9,293,317.3,295.3,317.3,298.2z M309.9,297.2h5.6c-0.1-1.5-1-2.7-2.8-2.7C311.1,294.5,310.2,295.7,309.9,297.2z"/>
			<path id="XMLID_5338_" class="st6" d="M330.3,294.7h0.1v-1.2c0-0.2,0.1-0.3,0.3-0.3h1c0.2,0,0.3,0.1,0.3,0.3l0.1,8.5
				c0,3.8-1.8,5.7-4.6,5.7c-2,0-3.3-0.9-4-2.5c-0.1-0.2,0-0.4,0.2-0.4h1c0.2,0,0.3,0.1,0.4,0.2c0.5,0.7,1.3,1.2,2.4,1.2
				c1.8,0,2.9-1,2.8-3.7V302h-0.1c-0.7,0.9-1.6,1.3-2.8,1.3c-2.8,0-4.7-2-4.7-5.2c0-2.9,1.7-5.1,4.2-5.1
				C328.4,293,329.6,293.6,330.3,294.7z M324.5,298.3c0,2.2,1.1,3.5,3,3.5c1.6,0,2.8-0.9,3-2.8v-1.3c-0.2-2.1-1.5-3.3-3-3.3
				C325.8,294.5,324.5,296,324.5,298.3z"/>
			<path id="XMLID_5341_" class="st6" d="M340.1,294.5c0,0.2-0.1,0.3-0.3,0.3c-1.7,0.1-2.9,0.7-3.1,3v5.2c0,0.2-0.1,0.3-0.3,0.3
				h-1.1c-0.2,0-0.3-0.1-0.3-0.3l0.1-9.5c0-0.2,0.1-0.3,0.3-0.3h1c0.2,0,0.3,0.1,0.3,0.3v1.3h0.1c0.7-1,1.7-1.7,3-1.8
				c0.2,0,0.3,0.1,0.3,0.3V294.5z"/>
			<path id="XMLID_5343_" class="st6" d="M349.7,296.5l0.1,6.6c0,0.2-0.1,0.3-0.3,0.3h-1.1c-0.2,0-0.3-0.1-0.3-0.3v-1.3H348
				c-0.7,1-1.9,1.8-3.5,1.8c-1.8,0-3.1-1-3.1-2.8c0-2.1,1.6-3,5.3-3.4c0.9-0.1,1.4-0.4,1.4-1.1c0-1-0.8-1.8-2.3-1.8
				c-1.2,0-2,0.5-2.3,1.4c-0.1,0.2-0.2,0.2-0.3,0.2h-1c-0.2,0-0.3-0.1-0.3-0.3c0.4-1.7,1.8-2.8,4-2.8
				C348.3,293,349.7,294.3,349.7,296.5z M348,298.3c-0.3,0.2-0.8,0.3-1.5,0.3c-2.3,0.3-3.5,0.8-3.5,2c0,1,0.7,1.5,1.8,1.5
				c1.9,0,3.2-1.3,3.3-2.4L348,298.3L348,298.3z"/>
			<path id="XMLID_5346_" class="st6" d="M361.9,298.2c0,3.2-1.9,5.4-4.5,5.4c-1.3,0-2.2-0.4-2.9-1.2h-0.1v4.8
				c0,0.2-0.1,0.3-0.3,0.3H353c-0.2,0-0.3-0.1-0.3-0.3l0.1-13.7c0-0.2,0.1-0.3,0.3-0.3h1c0.2,0,0.3,0.1,0.3,0.3v1.2h0.1
				c0.7-1.1,2-1.7,3.2-1.7C360.2,293,361.9,295.2,361.9,298.2z M354.2,297.7v1.3c0.2,2.1,1.5,3.1,3,3.1c1.9,0,3-1.4,3-3.8
				c0-2.4-1.2-3.9-3-3.9C355.7,294.5,354.4,295.6,354.2,297.7z"/>
			<path id="XMLID_5349_" class="st6" d="M366,294.8c0.7-1,1.8-1.7,3.1-1.7c1.9,0,3.1,1.3,3.2,3.6v6.3c0,0.2-0.1,0.3-0.3,0.3h-1.1
				c-0.2,0-0.3-0.1-0.3-0.3v-5.9c0-1.6-0.8-2.4-2-2.4c-1.4,0-2.5,1-2.7,3v5.4c0,0.2-0.1,0.3-0.3,0.3h-1.1c-0.2,0-0.3-0.1-0.3-0.3
				l0.1-13.6c0-0.2,0.1-0.3,0.3-0.3h1c0.2,0,0.3,0.1,0.3,0.3L366,294.8L366,294.8z"/>
			<path id="XMLID_5351_" class="st6" d="M377.1,303c0,0.2-0.1,0.3-0.3,0.3h-1.1c-0.2,0-0.3-0.1-0.3-0.3l0.1-9.5
				c0-0.2,0.1-0.3,0.3-0.3h1c0.2,0,0.3,0.1,0.3,0.3V303z M377.1,290.8c0,0.2-0.1,0.3-0.3,0.3h-1c-0.2,0-0.3-0.1-0.3-0.3v-1.3
				c0-0.2,0.1-0.3,0.3-0.3h1c0.2,0,0.3,0.1,0.3,0.3V290.8z"/>
			<path id="XMLID_5354_" class="st6" d="M388.3,295.9c0.1,0.2-0.1,0.3-0.3,0.3h-1c-0.2,0-0.3-0.1-0.4-0.2c-0.5-1-1.3-1.5-2.5-1.5
				c-1.9,0-3,1.3-3,3.9c0,2.5,1.1,3.7,3.1,3.7c1.3,0,2-0.6,2.4-1.4c0.1-0.2,0.2-0.2,0.4-0.2h1c0.2,0,0.3,0.1,0.2,0.3
				c-0.5,1.4-1.9,2.8-4.1,2.8c-2.8,0-4.6-2.1-4.6-5.2c0-3.3,1.9-5.4,4.6-5.4C386.4,293,387.9,294.4,388.3,295.9z"/>
			<path id="XMLID_5356_" class="st6" d="M397.6,295.5c0.1,0.2,0,0.3-0.2,0.3h-1c-0.2,0-0.3-0.1-0.4-0.2c-0.5-0.7-1.2-1.2-2.4-1.2
				c-1.2,0-2,0.6-2,1.4c0,0.8,0.8,1.1,2.2,1.5l0.8,0.2c2.3,0.7,3.2,1.6,3.2,2.9c0,1.9-1.5,3-3.9,3c-2.3,0-3.7-1.2-4.3-2.8
				c-0.1-0.2,0-0.3,0.2-0.3h1.1c0.2,0,0.3,0.1,0.4,0.2c0.5,1,1.4,1.4,2.6,1.4s2.1-0.4,2.1-1.4c0-0.8-0.7-1.3-2.3-1.7l-0.8-0.2
				c-1.8-0.5-3.1-1.2-3.1-2.8c0-1.7,1.6-2.9,3.7-2.9C396,293,397.3,294.3,397.6,295.5z"/>
			<path id="XMLID_5358_" class="st6" d="M408.8,294.3c0,0.2-0.1,0.3-0.3,0.3h-1.8v8.4c0,0.2-0.1,0.3-0.3,0.3h-1.1
				c-0.2,0-0.3-0.1-0.3-0.3v-8.4h-1.5c-0.2,0-0.3-0.1-0.3-0.3v-0.8c0-0.2,0.1-0.3,0.3-0.3h1.5v-3.6c0-0.2,0.1-0.3,0.3-0.3h1
				c0.2,0,0.3,0.1,0.3,0.3v3.6h1.9c0.2,0,0.3,0.1,0.3,0.3V294.3z"/>
			<path id="XMLID_5360_" class="st6" d="M419.2,298.2c0,0.2-0.1,0.3-0.3,0.3h-7.1c0,2.2,1.2,3.6,3.1,3.6c1.1,0,1.9-0.4,2.4-1.3
				c0.1-0.2,0.2-0.2,0.4-0.2h1c0.2,0,0.3,0.2,0.2,0.4c-0.8,1.7-2.3,2.7-4.1,2.7c-2.8,0-4.7-2.1-4.7-5.2c0-3.2,2-5.3,4.8-5.3
				C417.8,293,419.3,295.3,419.2,298.2z M411.9,297.2h5.6c-0.1-1.5-1-2.7-2.8-2.7C413.1,294.5,412.1,295.7,411.9,297.2z"/>
			<path id="XMLID_5363_" class="st6" d="M429.2,296.5l0.1,6.6c0,0.2-0.1,0.3-0.3,0.3h-1.1c-0.2,0-0.3-0.1-0.3-0.3v-1.3h-0.1
				c-0.7,1-1.9,1.8-3.5,1.8c-1.8,0-3.1-1-3.1-2.8c0-2.1,1.6-3,5.3-3.4c0.9-0.1,1.4-0.4,1.4-1.1c0-1-0.8-1.8-2.3-1.8
				c-1.2,0-2,0.5-2.3,1.4c-0.1,0.2-0.2,0.2-0.3,0.2h-1c-0.2,0-0.3-0.1-0.3-0.3c0.4-1.7,1.8-2.8,4-2.8
				C427.8,293,429.2,294.3,429.2,296.5z M427.5,298.3c-0.3,0.2-0.8,0.3-1.5,0.3c-2.3,0.3-3.5,0.8-3.5,2c0,1,0.7,1.5,1.8,1.5
				c1.9,0,3.2-1.3,3.3-2.4L427.5,298.3L427.5,298.3z"/>
			<path id="XMLID_5366_" class="st6" d="M445.8,296.7v6.3c0,0.2-0.1,0.3-0.3,0.3h-1.1c-0.2,0-0.3-0.1-0.3-0.3v-5.9
				c0-1.7-0.7-2.5-1.8-2.5c-1.3,0-2.4,1-2.5,3.1v5.3c0,0.2-0.1,0.3-0.3,0.3h-1.1c-0.2,0-0.3-0.1-0.3-0.3v-5.9c0-1.7-0.7-2.5-1.8-2.5
				c-1.3,0-2.4,0.9-2.6,3.1v5.4c0,0.2-0.1,0.3-0.3,0.3h-1.1c-0.2,0-0.3-0.1-0.3-0.3l0.1-9.5c0-0.2,0.1-0.3,0.3-0.3h1
				c0.2,0,0.3,0.1,0.3,0.3v1.2h0.1c0.8-1,1.8-1.7,3.1-1.7c1.3,0,2.2,0.6,2.6,1.9h0.1c0.8-1.2,1.8-1.9,3.2-1.9
				C444.7,293,445.8,294.3,445.8,296.7z"/>
			<path id="XMLID_5368_" class="st6" d="M118.2,317.6c0.7-1,1.8-1.7,3.1-1.7c1.9,0,3.1,1.3,3.2,3.6v6.3c0,0.2-0.1,0.3-0.3,0.3h-1.1
				c-0.2,0-0.3-0.1-0.3-0.3v-5.9c0-1.6-0.8-2.4-2-2.4c-1.4,0-2.5,1-2.7,3v5.4c0,0.2-0.1,0.3-0.3,0.3h-1.1c-0.2,0-0.3-0.1-0.3-0.3
				l0.1-13.6c0-0.2,0.1-0.3,0.3-0.3h1c0.2,0,0.3,0.1,0.3,0.3v5.3L118.2,317.6z"/>
			<path id="XMLID_5370_" class="st6" d="M135.1,319.3l0.1,6.6c0,0.2-0.1,0.3-0.3,0.3h-1.1c-0.2,0-0.3-0.1-0.3-0.3v-1.3h-0.1
				c-0.7,1-1.9,1.8-3.5,1.8c-1.8,0-3.1-1-3.1-2.8c0-2.1,1.6-3,5.3-3.4c0.9-0.1,1.4-0.4,1.4-1.1c0-1-0.8-1.8-2.3-1.8
				c-1.2,0-2,0.5-2.3,1.4c-0.1,0.2-0.2,0.2-0.3,0.2h-1c-0.2,0-0.3-0.1-0.3-0.3c0.4-1.7,1.8-2.8,4-2.8
				C133.6,315.8,135.1,317.1,135.1,319.3z M133.4,321.1c-0.3,0.2-0.8,0.3-1.5,0.3c-2.3,0.3-3.5,0.8-3.5,2c0,1,0.7,1.5,1.8,1.5
				c1.9,0,3.2-1.3,3.3-2.4L133.4,321.1L133.4,321.1z"/>
			<path id="XMLID_5373_" class="st6" d="M146.2,319.5v6.3c0,0.2-0.1,0.3-0.3,0.3h-1.1c-0.2,0-0.3-0.1-0.3-0.3v-5.9
				c0-1.7-0.8-2.5-2.1-2.5c-1.4,0-2.5,1-2.7,3.1v5.4c0,0.2-0.1,0.3-0.3,0.3h-1.1c-0.2,0-0.3-0.1-0.3-0.3l0.1-9.5
				c0-0.2,0.1-0.3,0.3-0.3h1c0.2,0,0.3,0.1,0.3,0.3v1.2h0.1c0.8-1.1,1.8-1.7,3.2-1.7C144.9,315.8,146.2,317.1,146.2,319.5z"/>
			<path id="XMLID_5375_" class="st6" d="M157.7,325.8c0,0.2-0.1,0.3-0.3,0.3h-1.1c-0.2,0-0.3-0.1-0.3-0.3v-1.1h-0.1
				c-0.7,1.1-1.9,1.7-3.2,1.7c-2.5,0-4.2-2.2-4.2-5.2c0-3.2,1.9-5.4,4.7-5.4c1.2,0,2.1,0.4,2.8,1.2h0.1v-4.8c0-0.2,0.1-0.3,0.3-0.3
				h1c0.2,0,0.3,0.1,0.3,0.3V325.8z M150.1,321.1c0,2.4,1.2,3.8,3,3.8c1.5,0,2.8-1.1,3-3.2v-1.3c-0.2-2.1-1.5-3.1-3-3.1
				C151.2,317.3,150.1,318.7,150.1,321.1z"/>
			<path id="XMLID_5378_" class="st6" d="M168,321.2c0,0.2-0.1,0.3-0.3,0.3h-6c-0.2,0-0.3-0.1-0.3-0.3v-0.9c0-0.2,0.1-0.3,0.3-0.3h6
				c0.2,0,0.3,0.1,0.3,0.3V321.2z"/>
			<path id="XMLID_5380_" class="st6" d="M184.2,316c0.2,0,0.3,0.1,0.3,0.3l-2.6,9.5c-0.1,0.2-0.2,0.3-0.3,0.3H180
				c-0.2,0-0.3-0.1-0.3-0.2l-1.9-6.7h-0.2l-1.8,6.7c-0.1,0.2-0.2,0.3-0.3,0.3h-1.6c-0.2,0-0.3-0.1-0.3-0.3l-2.6-9.5
				c-0.1-0.2,0-0.3,0.3-0.3h1c0.2,0,0.3,0.1,0.3,0.3l2.1,8h0.2l2.1-8c0.1-0.2,0.2-0.3,0.3-0.3h0.9c0.2,0,0.3,0.1,0.3,0.3l2.2,8h0.2
				l2.1-8c0.1-0.2,0.2-0.3,0.3-0.3L184.2,316L184.2,316z"/>
			<path id="XMLID_5382_" class="st6" d="M191.5,317.3c0,0.2-0.1,0.3-0.3,0.3c-1.7,0.1-2.9,0.7-3.1,3v5.2c0,0.2-0.1,0.3-0.3,0.3
				h-1.1c-0.2,0-0.3-0.1-0.3-0.3l0.1-9.5c0-0.2,0.1-0.3,0.3-0.3h1c0.2,0,0.3,0.1,0.3,0.3v1.3h0.1c0.7-1,1.7-1.7,3-1.8
				c0.2,0,0.3,0.1,0.3,0.3V317.3z"/>
			<path id="XMLID_5384_" class="st6" d="M202.3,321c0,3.1-2.1,5.4-4.8,5.4c-2.7,0-4.7-2.2-4.7-5.2c0-3.2,2.1-5.3,4.8-5.3
				C200.3,315.8,202.3,317.9,202.3,321z M194.4,321c0,2.4,1.4,3.9,3.2,3.9c1.8,0,3-1.5,3-3.7c0-2.4-1.4-3.9-3.2-3.9
				C195.7,317.3,194.4,318.7,194.4,321z"/>
			<path id="XMLID_5387_" class="st6" d="M209.4,317.1c0,0.2-0.1,0.3-0.3,0.3h-1.8v8.4c0,0.2-0.1,0.3-0.3,0.3h-1.1
				c-0.2,0-0.3-0.1-0.3-0.3v-8.4h-1.5c-0.2,0-0.3-0.1-0.3-0.3v-0.8c0-0.2,0.1-0.3,0.3-0.3h1.5v-3.6c0-0.2,0.1-0.3,0.3-0.3h1
				c0.2,0,0.3,0.1,0.3,0.3v3.6h1.9c0.2,0,0.3,0.1,0.3,0.3V317.1L209.4,317.1z"/>
			<path id="XMLID_5389_" class="st6" d="M219.7,321c0,0.2-0.1,0.3-0.3,0.3h-7.1c0,2.2,1.2,3.6,3.1,3.6c1.1,0,1.9-0.4,2.4-1.3
				c0.1-0.2,0.2-0.2,0.4-0.2h1c0.2,0,0.3,0.2,0.2,0.4c-0.8,1.7-2.3,2.7-4.1,2.7c-2.8,0-4.7-2.1-4.7-5.2c0-3.2,2-5.3,4.8-5.3
				C218.4,315.8,219.8,318.1,219.7,321z M212.4,320h5.6c-0.1-1.5-1-2.7-2.8-2.7C213.6,317.3,212.7,318.5,212.4,320z"/>
			<path id="XMLID_5392_" class="st6" d="M230.7,317.1c0,0.2-0.1,0.3-0.3,0.3h-1.8v8.4c0,0.2-0.1,0.3-0.3,0.3h-1.1
				c-0.2,0-0.3-0.1-0.3-0.3v-8.4h-1.5c-0.2,0-0.3-0.1-0.3-0.3v-0.8c0-0.2,0.1-0.3,0.3-0.3h1.5v-3.6c0-0.2,0.1-0.3,0.3-0.3h1
				c0.2,0,0.3,0.1,0.3,0.3v3.6h1.9c0.2,0,0.3,0.1,0.3,0.3V317.1z"/>
			<path id="XMLID_5394_" class="st6" d="M234.5,317.6c0.7-1,1.8-1.7,3.1-1.7c1.9,0,3.1,1.3,3.2,3.6v6.3c0,0.2-0.1,0.3-0.3,0.3h-1.1
				c-0.2,0-0.3-0.1-0.3-0.3v-5.9c0-1.6-0.8-2.4-2-2.4c-1.4,0-2.5,1-2.7,3v5.4c0,0.2-0.1,0.3-0.3,0.3H233c-0.2,0-0.3-0.1-0.3-0.3
				l0.1-13.6c0-0.2,0.1-0.3,0.3-0.3h1c0.2,0,0.3,0.1,0.3,0.3v5.3L234.5,317.6z"/>
			<path id="XMLID_5396_" class="st6" d="M252.5,321c0,3.1-2.1,5.4-4.8,5.4c-2.7,0-4.7-2.2-4.7-5.2c0-3.2,2.1-5.3,4.8-5.3
				C250.5,315.8,252.5,317.9,252.5,321z M244.7,321c0,2.4,1.4,3.9,3.2,3.9c1.8,0,3-1.5,3-3.7c0-2.4-1.4-3.9-3.2-3.9
				C245.9,317.3,244.7,318.7,244.7,321z"/>
			<path id="XMLID_5399_" class="st6" d="M262.9,325.8c0,0.2-0.1,0.3-0.3,0.3h-1.1c-0.2,0-0.3-0.1-0.3-0.3v-1.2h-0.1
				c-0.7,1.1-1.8,1.7-3.1,1.7c-1.9,0-3.2-1.3-3.2-3.8v-6.2c0-0.2,0.1-0.3,0.3-0.3h1c0.2,0,0.3,0.1,0.3,0.3v5.8c0,1.8,0.8,2.6,2,2.6
				c1.4,0,2.5-1,2.7-3.1v-5.4c0-0.2,0.1-0.3,0.3-0.3h1c0.2,0,0.3,0.1,0.3,0.3L262.9,325.8z"/>
			<path id="XMLID_5401_" class="st6" d="M273.2,318.3c0.1,0.2,0,0.3-0.2,0.3h-1c-0.2,0-0.3-0.1-0.4-0.2c-0.5-0.7-1.2-1.2-2.4-1.2
				s-2,0.6-2,1.4c0,0.8,0.8,1.1,2.2,1.5l0.8,0.2c2.3,0.7,3.2,1.6,3.2,2.9c0,1.9-1.5,3-3.9,3c-2.3,0-3.7-1.2-4.3-2.8
				c-0.1-0.2,0-0.3,0.2-0.3h1.1c0.2,0,0.3,0.1,0.4,0.2c0.5,1,1.4,1.4,2.6,1.4s2.1-0.4,2.1-1.4c0-0.8-0.7-1.3-2.3-1.7l-0.8-0.2
				c-1.8-0.5-3.1-1.2-3.1-2.8c0-1.7,1.6-2.9,3.7-2.9C271.6,315.8,272.8,317.1,273.2,318.3z"/>
			<path id="XMLID_5403_" class="st6" d="M283.4,319.3l0.1,6.6c0,0.2-0.1,0.3-0.3,0.3h-1.1c-0.2,0-0.3-0.1-0.3-0.3v-1.3h-0.1
				c-0.7,1-1.9,1.8-3.5,1.8c-1.8,0-3.1-1-3.1-2.8c0-2.1,1.6-3,5.3-3.4c0.9-0.1,1.4-0.4,1.4-1.1c0-1-0.8-1.8-2.3-1.8
				c-1.2,0-2,0.5-2.3,1.4c-0.1,0.2-0.2,0.2-0.3,0.2h-1c-0.2,0-0.3-0.1-0.3-0.3c0.4-1.7,1.8-2.8,4-2.8
				C282,315.8,283.4,317.1,283.4,319.3z M281.7,321.1c-0.3,0.2-0.8,0.3-1.5,0.3c-2.3,0.3-3.5,0.8-3.5,2c0,1,0.7,1.5,1.8,1.5
				c1.9,0,3.2-1.3,3.3-2.4L281.7,321.1L281.7,321.1z"/>
			<path id="XMLID_5406_" class="st6" d="M294.5,319.5v6.3c0,0.2-0.1,0.3-0.3,0.3h-1.1c-0.2,0-0.3-0.1-0.3-0.3v-5.9
				c0-1.7-0.8-2.5-2.1-2.5c-1.4,0-2.5,1-2.7,3.1v5.4c0,0.2-0.1,0.3-0.3,0.3h-1.1c-0.2,0-0.3-0.1-0.3-0.3l0.1-9.5
				c0-0.2,0.1-0.3,0.3-0.3h1c0.2,0,0.3,0.1,0.3,0.3v1.2h0.1c0.8-1.1,1.8-1.7,3.2-1.7C293.2,315.8,294.5,317.1,294.5,319.5z"/>
			<path id="XMLID_5408_" class="st6" d="M306,325.8c0,0.2-0.1,0.3-0.3,0.3h-1.1c-0.2,0-0.3-0.1-0.3-0.3v-1.1h-0.1
				c-0.7,1.1-1.9,1.7-3.2,1.7c-2.5,0-4.2-2.2-4.2-5.2c0-3.2,1.9-5.4,4.7-5.4c1.2,0,2.1,0.4,2.8,1.2h0.1v-4.8c0-0.2,0.1-0.3,0.3-0.3
				h1c0.2,0,0.3,0.1,0.3,0.3L306,325.8L306,325.8z M298.4,321.1c0,2.4,1.2,3.8,3,3.8c1.5,0,2.8-1.1,3-3.2v-1.3
				c-0.2-2.1-1.5-3.1-3-3.1C299.5,317.3,298.4,318.7,298.4,321.1z"/>
			<path id="XMLID_5411_" class="st6" d="M321.7,321c0,3.1-2.1,5.4-4.8,5.4s-4.7-2.2-4.7-5.2c0-3.2,2.1-5.3,4.8-5.3
				C319.7,315.8,321.7,317.9,321.7,321z M313.9,321c0,2.4,1.4,3.9,3.2,3.9c1.8,0,3-1.5,3-3.7c0-2.4-1.4-3.9-3.2-3.9
				S313.9,318.7,313.9,321z"/>
			<path id="XMLID_5414_" class="st6" d="M329.2,313.1c0,0.2-0.1,0.3-0.3,0.3c-1.7,0-2.5,0.3-2.5,2.3v0.3h2.4c0.2,0,0.3,0.1,0.3,0.3
				v0.8c0,0.2-0.1,0.3-0.3,0.3h-2.4l0.1,8.4c0,0.2-0.1,0.3-0.3,0.3h-1.1c-0.2,0-0.3-0.1-0.3-0.3l0.1-8.4h-1.5
				c-0.2,0-0.3-0.1-0.3-0.3v-0.8c0-0.2,0.1-0.3,0.3-0.3h1.3v-0.2c0-3.2,1.7-4,4.1-3.9c0.2,0,0.3,0.1,0.3,0.3v0.9L329.2,313.1
				L329.2,313.1z"/>
			<path id="XMLID_5416_" class="st6" d="M337.1,325.8c0,0.2-0.1,0.3-0.3,0.3h-1.1c-0.2,0-0.3-0.1-0.3-0.3l0.1-13.6
				c0-0.2,0.1-0.3,0.3-0.3h1c0.2,0,0.3,0.1,0.3,0.3V325.8z"/>
			<path id="XMLID_5418_" class="st6" d="M348.9,321c0,0.2-0.1,0.3-0.3,0.3h-7.1c0,2.2,1.2,3.6,3.1,3.6c1.1,0,1.9-0.4,2.4-1.3
				c0.1-0.2,0.2-0.2,0.4-0.2h1c0.2,0,0.3,0.2,0.2,0.4c-0.8,1.7-2.3,2.7-4.1,2.7c-2.8,0-4.7-2.1-4.7-5.2c0-3.2,2-5.3,4.8-5.3
				C347.5,315.8,349,318.1,348.9,321z M341.6,320h5.6c-0.1-1.5-1-2.7-2.8-2.7C342.8,317.3,341.8,318.5,341.6,320z"/>
			<path id="XMLID_5421_" class="st6" d="M356,317.1c0,0.2-0.1,0.3-0.3,0.3h-1.8v8.4c0,0.2-0.1,0.3-0.3,0.3h-1.2
				c-0.2,0-0.3-0.1-0.3-0.3v-8.4h-1.5c-0.2,0-0.3-0.1-0.3-0.3v-0.8c0-0.2,0.1-0.3,0.3-0.3h1.5v-3.6c0-0.2,0.1-0.3,0.3-0.3h1
				c0.2,0,0.3,0.1,0.3,0.3v3.6h1.9c0.2,0,0.3,0.1,0.3,0.3v0.8H356z"/>
			<path id="XMLID_5423_" class="st6" d="M362.6,317.1c0,0.2-0.1,0.3-0.3,0.3h-1.8v8.4c0,0.2-0.1,0.3-0.3,0.3h-1.1
				c-0.2,0-0.3-0.1-0.3-0.3v-8.4h-1.5c-0.2,0-0.3-0.1-0.3-0.3v-0.8c0-0.2,0.1-0.3,0.3-0.3h1.5v-3.6c0-0.2,0.1-0.3,0.3-0.3h1
				c0.2,0,0.3,0.1,0.3,0.3v3.6h1.9c0.2,0,0.3,0.1,0.3,0.3V317.1z"/>
			<path id="XMLID_5425_" class="st6" d="M373,321c0,0.2-0.1,0.3-0.3,0.3h-7.1c0,2.2,1.2,3.6,3.1,3.6c1.1,0,1.9-0.4,2.4-1.3
				c0.1-0.2,0.2-0.2,0.4-0.2h1c0.2,0,0.3,0.2,0.2,0.4c-0.8,1.7-2.3,2.7-4.1,2.7c-2.8,0-4.7-2.1-4.7-5.2c0-3.2,2-5.3,4.8-5.3
				C371.6,315.8,373.1,318.1,373,321z M365.7,320h5.6c-0.1-1.5-1-2.7-2.8-2.7C366.9,317.3,365.9,318.5,365.7,320z"/>
			<path id="XMLID_5428_" class="st6" d="M380.4,317.3c0,0.2-0.1,0.3-0.3,0.3c-1.7,0.1-2.9,0.7-3.1,3v5.2c0,0.2-0.1,0.3-0.3,0.3
				h-1.1c-0.2,0-0.3-0.1-0.3-0.3l0.1-9.5c0-0.2,0.1-0.3,0.3-0.3h1c0.2,0,0.3,0.1,0.3,0.3v1.3h0.1c0.7-1,1.7-1.7,3-1.8
				c0.2,0,0.3,0.1,0.3,0.3V317.3z"/>
			<path id="XMLID_5430_" class="st6" d="M389.6,318.3c0.1,0.2,0,0.3-0.2,0.3h-1c-0.2,0-0.3-0.1-0.4-0.2c-0.5-0.7-1.2-1.2-2.4-1.2
				c-1.2,0-2,0.6-2,1.4c0,0.8,0.8,1.1,2.2,1.5l0.8,0.2c2.3,0.7,3.2,1.6,3.2,2.9c0,1.9-1.5,3-3.9,3c-2.3,0-3.7-1.2-4.3-2.8
				c-0.1-0.2,0-0.3,0.2-0.3h1.1c0.2,0,0.3,0.1,0.4,0.2c0.5,1,1.4,1.4,2.6,1.4s2.1-0.4,2.1-1.4c0-0.8-0.7-1.3-2.3-1.7l-0.8-0.2
				c-1.8-0.5-3.1-1.2-3.1-2.8c0-1.7,1.6-2.9,3.7-2.9C388,315.8,389.2,317.1,389.6,318.3z"/>
			<path id="XMLID_5432_" class="st6" d="M397.8,317c0.7-0.8,1.7-1.2,2.8-1.2c2.8,0,4.7,2.1,4.7,5.4c0,3-1.7,5.2-4.2,5.2
				c-1.3,0-2.5-0.6-3.2-1.7h-0.1v1.1c0,0.2-0.1,0.3-0.3,0.3h-1.1c-0.2,0-0.3-0.1-0.3-0.3l0.1-13.6c0-0.2,0.1-0.3,0.3-0.3h1
				c0.2,0,0.3,0.1,0.3,0.3V317L397.8,317z M397.6,320.5v1.3c0.2,2.1,1.5,3.2,3,3.2c1.9,0,3-1.5,3-3.7c0-2.5-1.2-3.9-3-3.9
				C399.1,317.3,397.8,318.4,397.6,320.5z"/>
			<path id="XMLID_5435_" class="st6" d="M415.7,325.8c0,0.2-0.1,0.3-0.3,0.3h-1.1c-0.2,0-0.3-0.1-0.3-0.3v-1.2h-0.1
				c-0.7,1.1-1.8,1.7-3.1,1.7c-1.9,0-3.2-1.3-3.2-3.8v-6.2c0-0.2,0.1-0.3,0.3-0.3h1c0.2,0,0.3,0.1,0.3,0.3v5.8c0,1.8,0.8,2.6,2,2.6
				c1.4,0,2.5-1,2.7-3.1v-5.4c0-0.2,0.1-0.3,0.3-0.3h1c0.2,0,0.3,0.1,0.3,0.3L415.7,325.8z"/>
			<path id="XMLID_5437_" class="st6" d="M423.3,317.1c0,0.2-0.1,0.3-0.3,0.3h-1.8v8.4c0,0.2-0.1,0.3-0.3,0.3h-1.1
				c-0.2,0-0.3-0.1-0.3-0.3v-8.4H418c-0.2,0-0.3-0.1-0.3-0.3v-0.8c0-0.2,0.1-0.3,0.3-0.3h1.5v-3.6c0-0.2,0.1-0.3,0.3-0.3h1
				c0.2,0,0.3,0.1,0.3,0.3v3.6h1.9c0.2,0,0.3,0.1,0.3,0.3V317.1z"/>
			<path id="XMLID_5439_" class="st6" d="M433.9,317.1c0,0.2-0.1,0.3-0.3,0.3h-1.8v8.4c0,0.2-0.1,0.3-0.3,0.3h-1.1
				c-0.2,0-0.3-0.1-0.3-0.3v-8.4h-1.5c-0.2,0-0.3-0.1-0.3-0.3v-0.8c0-0.2,0.1-0.3,0.3-0.3h1.5v-3.6c0-0.2,0.1-0.3,0.3-0.3h1
				c0.2,0,0.3,0.1,0.3,0.3v3.6h1.9c0.2,0,0.3,0.1,0.3,0.3L433.9,317.1L433.9,317.1z"/>
			<path id="XMLID_5441_" class="st6" d="M437.6,317.6c0.7-1,1.8-1.7,3.1-1.7c1.9,0,3.1,1.3,3.2,3.6v6.3c0,0.2-0.1,0.3-0.3,0.3h-1.1
				c-0.2,0-0.3-0.1-0.3-0.3v-5.9c0-1.6-0.8-2.4-2-2.4c-1.4,0-2.5,1-2.7,3v5.4c0,0.2-0.1,0.3-0.3,0.3h-1.1c-0.2,0-0.3-0.1-0.3-0.3
				l0.1-13.6c0-0.2,0.1-0.3,0.3-0.3h1c0.2,0,0.3,0.1,0.3,0.3L437.6,317.6L437.6,317.6z"/>
			<path id="XMLID_5443_" class="st6" d="M455.3,321c0,0.2-0.1,0.3-0.3,0.3h-7.1c0,2.2,1.2,3.6,3.1,3.6c1.1,0,1.9-0.4,2.4-1.3
				c0.1-0.2,0.2-0.2,0.4-0.2h1c0.2,0,0.3,0.2,0.2,0.4c-0.8,1.7-2.3,2.7-4.1,2.7c-2.8,0-4.7-2.1-4.7-5.2c0-3.2,2-5.3,4.8-5.3
				C453.9,315.8,455.4,318.1,455.3,321z M447.9,320h5.6c-0.1-1.5-1-2.7-2.8-2.7C449.1,317.3,448.2,318.5,447.9,320z"/>
			<path id="XMLID_5446_" class="st6" d="M465.8,319.5v6.3c0,0.2-0.1,0.3-0.3,0.3h-1.1c-0.2,0-0.3-0.1-0.3-0.3v-5.9
				c0-1.7-0.8-2.5-2.1-2.5c-1.4,0-2.5,1-2.7,3.1v5.4c0,0.2-0.1,0.3-0.3,0.3h-1.1c-0.2,0-0.3-0.1-0.3-0.3l0.1-9.5
				c0-0.2,0.1-0.3,0.3-0.3h1c0.2,0,0.3,0.1,0.3,0.3v1.2h0.1c0.8-1.1,1.8-1.7,3.2-1.7C464.5,315.8,465.8,317.1,465.8,319.5z"/>
			<path id="XMLID_5448_" class="st6" d="M477.7,313.1c0,0.2-0.1,0.3-0.3,0.3c-1.7,0-2.5,0.3-2.5,2.3v0.3h2.4c0.2,0,0.3,0.1,0.3,0.3
				v0.8c0,0.2-0.1,0.3-0.3,0.3h-2.4l0.1,8.4c0,0.2-0.1,0.3-0.3,0.3h-1.1c-0.2,0-0.3-0.1-0.3-0.3l0.1-8.4h-1.3
				c-0.2,0-0.3-0.1-0.3-0.3v-0.8c0-0.2,0.1-0.3,0.3-0.3h1.3v-0.2c0-3.2,1.7-4,4.1-3.9c0.2,0,0.3,0.1,0.3,0.3v0.9L477.7,313.1
				L477.7,313.1z"/>
			<path id="XMLID_5450_" class="st6" d="M488.5,321c0,3.1-2.1,5.4-4.8,5.4c-2.7,0-4.7-2.2-4.7-5.2c0-3.2,2.1-5.3,4.8-5.3
				C486.5,315.8,488.5,317.9,488.5,321z M480.6,321c0,2.4,1.4,3.9,3.2,3.9c1.8,0,3-1.5,3-3.7c0-2.4-1.4-3.9-3.2-3.9
				C481.9,317.3,480.6,318.7,480.6,321z"/>
			<path id="XMLID_5453_" class="st6" d="M498.9,325.8c0,0.2-0.1,0.3-0.3,0.3h-1.1c-0.2,0-0.3-0.1-0.3-0.3v-1.2h-0.1
				c-0.7,1.1-1.8,1.7-3.1,1.7c-1.9,0-3.2-1.3-3.2-3.8v-6.2c0-0.2,0.1-0.3,0.3-0.3h1c0.2,0,0.3,0.1,0.3,0.3v5.8c0,1.8,0.8,2.6,2,2.6
				c1.4,0,2.5-1,2.7-3.1v-5.4c0-0.2,0.1-0.3,0.3-0.3h1c0.2,0,0.3,0.1,0.3,0.3L498.9,325.8z"/>
			<path id="XMLID_5455_" class="st6" d="M509.9,319.5v6.3c0,0.2-0.1,0.3-0.3,0.3h-1.1c-0.2,0-0.3-0.1-0.3-0.3v-5.9
				c0-1.7-0.8-2.5-2.1-2.5c-1.4,0-2.5,1-2.7,3.1v5.4c0,0.2-0.1,0.3-0.3,0.3H502c-0.2,0-0.3-0.1-0.3-0.3l0.1-9.5
				c0-0.2,0.1-0.3,0.3-0.3h1c0.2,0,0.3,0.1,0.3,0.3v1.2h0.1c0.8-1.1,1.8-1.7,3.2-1.7C508.7,315.8,509.9,317.1,509.9,319.5z"/>
			<path id="XMLID_5457_" class="st6" d="M521.5,325.8c0,0.2-0.1,0.3-0.3,0.3h-1.1c-0.2,0-0.3-0.1-0.3-0.3v-1.1h-0.1
				c-0.7,1.1-1.9,1.7-3.2,1.7c-2.5,0-4.2-2.2-4.2-5.2c0-3.2,1.9-5.4,4.7-5.4c1.2,0,2.1,0.4,2.8,1.2h0.1v-4.8c0-0.2,0.1-0.3,0.3-0.3
				h1c0.2,0,0.3,0.1,0.3,0.3V325.8z M513.8,321.1c0,2.4,1.2,3.8,3,3.8c1.5,0,2.8-1.1,3-3.2v-1.3c-0.2-2.1-1.5-3.1-3-3.1
				C515,317.3,513.8,318.7,513.8,321.1z"/>
			<path id="XMLID_5460_" class="st6" d="M125.3,343.8c0,3.1-2.1,5.4-4.8,5.4c-2.7,0-4.7-2.2-4.7-5.2c0-3.2,2.1-5.3,4.8-5.3
				C123.3,338.6,125.3,340.7,125.3,343.8z M117.4,343.8c0,2.4,1.4,3.9,3.2,3.9c1.8,0,3-1.5,3-3.7c0-2.4-1.4-3.9-3.2-3.9
				C118.7,340.1,117.4,341.5,117.4,343.8z"/>
			<path id="XMLID_5463_" class="st6" d="M135.7,348.6c0,0.2-0.1,0.3-0.3,0.3h-1.1c-0.2,0-0.3-0.1-0.3-0.3v-1.2h-0.1
				c-0.7,1.1-1.8,1.7-3.1,1.7c-1.9,0-3.2-1.3-3.2-3.8v-6.2c0-0.2,0.1-0.3,0.3-0.3h1c0.2,0,0.3,0.1,0.3,0.3v5.8c0,1.8,0.8,2.6,2,2.6
				c1.4,0,2.5-1,2.7-3.1V339c0-0.2,0.1-0.3,0.3-0.3h1c0.2,0,0.3,0.1,0.3,0.3L135.7,348.6z"/>
			<path id="XMLID_5465_" class="st6" d="M143.3,339.9c0,0.2-0.1,0.3-0.3,0.3h-1.8v8.4c0,0.2-0.1,0.3-0.3,0.3h-1.1
				c-0.2,0-0.3-0.1-0.3-0.3v-8.4H138c-0.2,0-0.3-0.1-0.3-0.3v-0.8c0-0.2,0.1-0.3,0.3-0.3h1.5v-3.6c0-0.2,0.1-0.3,0.3-0.3h1
				c0.2,0,0.3,0.1,0.3,0.3v3.6h1.9c0.2,0,0.3,0.1,0.3,0.3V339.9L143.3,339.9z"/>
			<path id="XMLID_5467_" class="st6" d="M153.9,339.9c0,0.2-0.1,0.3-0.3,0.3h-1.8v8.4c0,0.2-0.1,0.3-0.3,0.3h-1.1
				c-0.2,0-0.3-0.1-0.3-0.3v-8.4h-1.5c-0.2,0-0.3-0.1-0.3-0.3v-0.8c0-0.2,0.1-0.3,0.3-0.3h1.5v-3.6c0-0.2,0.1-0.3,0.3-0.3h1
				c0.2,0,0.3,0.1,0.3,0.3v3.6h1.9c0.2,0,0.3,0.1,0.3,0.3V339.9z"/>
			<path id="XMLID_5469_" class="st6" d="M157.6,340.4c0.7-1,1.8-1.7,3.1-1.7c1.9,0,3.1,1.3,3.2,3.6v6.3c0,0.2-0.1,0.3-0.3,0.3h-1.2
				c-0.2,0-0.3-0.1-0.3-0.3v-5.9c0-1.6-0.8-2.4-2-2.4c-1.4,0-2.5,1-2.7,3v5.4c0,0.2-0.1,0.3-0.3,0.3H156c-0.2,0-0.3-0.1-0.3-0.3
				l0.1-13.6c0-0.2,0.1-0.3,0.3-0.3h1c0.2,0,0.3,0.1,0.3,0.3v5.3L157.6,340.4z"/>
			<path id="XMLID_5471_" class="st6" d="M174.5,342.1l0.1,6.6c0,0.2-0.1,0.3-0.3,0.3h-1.1c-0.2,0-0.3-0.1-0.3-0.3v-1.3h-0.1
				c-0.7,1-1.9,1.8-3.5,1.8c-1.8,0-3.1-1-3.1-2.8c0-2.1,1.6-3,5.3-3.4c0.9-0.1,1.4-0.4,1.4-1.1c0-1-0.8-1.8-2.3-1.8
				c-1.2,0-2,0.5-2.3,1.4c-0.1,0.2-0.2,0.2-0.3,0.2h-1c-0.2,0-0.3-0.1-0.3-0.3c0.4-1.7,1.8-2.8,4-2.8
				C173,338.6,174.5,339.9,174.5,342.1z M172.8,343.9c-0.3,0.2-0.8,0.3-1.5,0.3c-2.3,0.3-3.5,0.8-3.5,2c0,1,0.7,1.5,1.8,1.5
				c1.9,0,3.2-1.3,3.3-2.4L172.8,343.9L172.8,343.9z"/>
			<path id="XMLID_5474_" class="st6" d="M182.2,339.9c0,0.2-0.1,0.3-0.3,0.3h-1.8v8.4c0,0.2-0.1,0.3-0.3,0.3h-1.1
				c-0.2,0-0.3-0.1-0.3-0.3v-8.4h-1.5c-0.2,0-0.3-0.1-0.3-0.3v-0.8c0-0.2,0.1-0.3,0.3-0.3h1.5v-3.6c0-0.2,0.1-0.3,0.3-0.3h1
				c0.2,0,0.3,0.1,0.3,0.3v3.6h1.9c0.2,0,0.3,0.1,0.3,0.3L182.2,339.9L182.2,339.9z"/>
			<path id="XMLID_5476_" class="st6" d="M192.7,339.9c0,0.2-0.1,0.3-0.3,0.3h-1.8v8.4c0,0.2-0.1,0.3-0.3,0.3h-1.1
				c-0.2,0-0.3-0.1-0.3-0.3v-8.4h-1.5c-0.2,0-0.3-0.1-0.3-0.3v-0.8c0-0.2,0.1-0.3,0.3-0.3h1.5v-3.6c0-0.2,0.1-0.3,0.3-0.3h1
				c0.2,0,0.3,0.1,0.3,0.3v3.6h1.9c0.2,0,0.3,0.1,0.3,0.3V339.9z"/>
			<path id="XMLID_5478_" class="st6" d="M196.5,340.4c0.7-1,1.8-1.7,3.1-1.7c1.9,0,3.1,1.3,3.2,3.6v6.3c0,0.2-0.1,0.3-0.3,0.3h-1.1
				c-0.2,0-0.3-0.1-0.3-0.3v-5.9c0-1.6-0.8-2.4-2-2.4c-1.4,0-2.5,1-2.7,3v5.4c0,0.2-0.1,0.3-0.3,0.3H195c-0.2,0-0.3-0.1-0.3-0.3
				l0.1-13.6c0-0.2,0.1-0.3,0.3-0.3h1c0.2,0,0.3,0.1,0.3,0.3v5.3L196.5,340.4z"/>
			<path id="XMLID_5480_" class="st6" d="M214.1,343.8c0,0.2-0.1,0.3-0.3,0.3h-7.1c0,2.2,1.2,3.6,3.1,3.6c1.1,0,1.9-0.4,2.4-1.3
				c0.1-0.2,0.2-0.2,0.4-0.2h1c0.2,0,0.3,0.2,0.2,0.4c-0.8,1.7-2.3,2.7-4.1,2.7c-2.8,0-4.7-2.1-4.7-5.2c0-3.2,2-5.3,4.8-5.3
				C212.7,338.6,214.2,340.9,214.1,343.8z M206.8,342.8h5.6c-0.1-1.5-1-2.7-2.8-2.7C208,340.1,207,341.3,206.8,342.8z"/>
			<path id="XMLID_5483_" class="st6" d="M224.2,338.8c0.2,0,0.3,0.1,0.2,0.3l-4.8,13.7c-0.1,0.2-0.2,0.2-0.4,0.2h-1.1
				c-0.2,0-0.3-0.1-0.2-0.3l1.2-3.4l-3.6-10.2c-0.1-0.2,0-0.3,0.2-0.3h1c0.2,0,0.3,0.1,0.3,0.2l2.8,8h0.1l2.9-8
				c0.1-0.2,0.2-0.2,0.4-0.2H224.2z"/>
			<path id="XMLID_5485_" class="st6" d="M242.8,338.8c0.2,0,0.3,0.1,0.3,0.3l-2.6,9.5c-0.1,0.2-0.2,0.3-0.3,0.3h-1.6
				c-0.2,0-0.3-0.1-0.3-0.2l-1.9-6.7h-0.2l-1.8,6.7c-0.1,0.2-0.2,0.3-0.3,0.3h-1.6c-0.2,0-0.3-0.1-0.3-0.3l-2.6-9.5
				c-0.1-0.2,0-0.3,0.3-0.3h1c0.2,0,0.3,0.1,0.3,0.3l2.1,8h0.2l2.1-8c0.1-0.2,0.2-0.3,0.3-0.3h0.9c0.2,0,0.3,0.1,0.3,0.3l2.2,8h0.2
				l2.1-8c0.1-0.2,0.2-0.3,0.3-0.3L242.8,338.8L242.8,338.8z"/>
			<path id="XMLID_5487_" class="st6" d="M253.5,343.8c0,0.2-0.1,0.3-0.3,0.3h-7.1c0,2.2,1.2,3.6,3.1,3.6c1.1,0,1.9-0.4,2.4-1.3
				c0.1-0.2,0.2-0.2,0.4-0.2h1c0.2,0,0.3,0.2,0.2,0.4c-0.8,1.7-2.3,2.7-4.1,2.7c-2.8,0-4.7-2.1-4.7-5.2c0-3.2,2-5.3,4.8-5.3
				C252.1,338.6,253.6,340.9,253.5,343.8z M246.2,342.8h5.6c-0.1-1.5-1-2.7-2.8-2.7C247.4,340.1,246.4,341.3,246.2,342.8z"/>
			<path id="XMLID_5490_" class="st6" d="M260.9,340.1c0,0.2-0.1,0.3-0.3,0.3c-1.7,0.1-2.9,0.7-3.1,3v5.2c0,0.2-0.1,0.3-0.3,0.3
				h-1.1c-0.2,0-0.3-0.1-0.3-0.3l0.1-9.5c0-0.2,0.1-0.3,0.3-0.3h1c0.2,0,0.3,0.1,0.3,0.3v1.3h0.1c0.7-1,1.7-1.7,3-1.8
				c0.2,0,0.3,0.1,0.3,0.3V340.1z"/>
			<path id="XMLID_5492_" class="st6" d="M271.2,343.8c0,0.2-0.1,0.3-0.3,0.3h-7.1c0,2.2,1.2,3.6,3.1,3.6c1.1,0,1.9-0.4,2.4-1.3
				c0.1-0.2,0.2-0.2,0.4-0.2h1c0.2,0,0.3,0.2,0.2,0.4c-0.8,1.7-2.3,2.7-4.1,2.7c-2.8,0-4.7-2.1-4.7-5.2c0-3.2,2-5.3,4.8-5.3
				C269.8,338.6,271.3,340.9,271.2,343.8z M263.9,342.8h5.6c-0.1-1.5-1-2.7-2.8-2.7C265.1,340.1,264.2,341.3,263.9,342.8z"/>
			<path id="XMLID_5495_" class="st6" d="M282.2,339.9c0,0.2-0.1,0.3-0.3,0.3h-1.8v8.4c0,0.2-0.1,0.3-0.3,0.3h-1.1
				c-0.2,0-0.3-0.1-0.3-0.3v-8.4h-1.5c-0.2,0-0.3-0.1-0.3-0.3v-0.8c0-0.2,0.1-0.3,0.3-0.3h1.5v-3.6c0-0.2,0.1-0.3,0.3-0.3h1
				c0.2,0,0.3,0.1,0.3,0.3v3.6h1.9c0.2,0,0.3,0.1,0.3,0.3V339.9L282.2,339.9z"/>
			<path id="XMLID_5497_" class="st6" d="M293,343.8c0,3.1-2.1,5.4-4.8,5.4c-2.7,0-4.7-2.2-4.7-5.2c0-3.2,2.1-5.3,4.8-5.3
				C291,338.6,293,340.7,293,343.8z M285.2,343.8c0,2.4,1.4,3.9,3.2,3.9s3-1.5,3-3.7c0-2.4-1.4-3.9-3.2-3.9
				C286.4,340.1,285.2,341.5,285.2,343.8z"/>
			<path id="XMLID_5500_" class="st6" d="M304.2,343.8c0,3.1-2.1,5.4-4.8,5.4s-4.7-2.2-4.7-5.2c0-3.2,2.1-5.3,4.8-5.3
				C302.3,338.6,304.2,340.7,304.2,343.8z M296.4,343.8c0,2.4,1.4,3.9,3.2,3.9c1.8,0,3-1.5,3-3.7c0-2.4-1.4-3.9-3.2-3.9
				S296.4,341.5,296.4,343.8z"/>
			<path id="XMLID_5503_" class="st6" d="M312.3,340.4c0.7-1,1.8-1.7,3.1-1.7c1.9,0,3.1,1.3,3.2,3.6v6.3c0,0.2-0.1,0.3-0.3,0.3h-1.1
				c-0.2,0-0.3-0.1-0.3-0.3v-5.9c0-1.6-0.8-2.4-2-2.4c-1.4,0-2.5,1-2.7,3v5.4c0,0.2-0.1,0.3-0.3,0.3h-1.1c-0.2,0-0.3-0.1-0.3-0.3
				l0.1-13.6c0-0.2,0.1-0.3,0.3-0.3h1c0.2,0,0.3,0.1,0.3,0.3L312.3,340.4L312.3,340.4z"/>
			<path id="XMLID_5505_" class="st6" d="M329.9,343.8c0,0.2-0.1,0.3-0.3,0.3h-7.1c0,2.2,1.2,3.6,3.1,3.6c1.1,0,1.9-0.4,2.4-1.3
				c0.1-0.2,0.2-0.2,0.4-0.2h1c0.2,0,0.3,0.2,0.2,0.4c-0.8,1.7-2.3,2.7-4.1,2.7c-2.8,0-4.7-2.1-4.7-5.2c0-3.2,2-5.3,4.8-5.3
				C328.6,338.6,330,340.9,329.9,343.8z M322.6,342.8h5.6c-0.1-1.5-1-2.7-2.8-2.7C323.8,340.1,322.9,341.3,322.6,342.8z"/>
			<path id="XMLID_5508_" class="st6" d="M340,342.1l0.1,6.6c0,0.2-0.1,0.3-0.3,0.3h-1.1c-0.2,0-0.3-0.1-0.3-0.3v-1.3h-0.1
				c-0.7,1-1.9,1.8-3.5,1.8c-1.8,0-3.1-1-3.1-2.8c0-2.1,1.6-3,5.3-3.4c0.9-0.1,1.4-0.4,1.4-1.1c0-1-0.8-1.8-2.3-1.8
				c-1.2,0-2,0.5-2.3,1.4c-0.1,0.2-0.2,0.2-0.3,0.2h-1c-0.2,0-0.3-0.1-0.3-0.3c0.4-1.7,1.8-2.8,4-2.8
				C338.5,338.6,340,339.9,340,342.1z M338.3,343.9c-0.3,0.2-0.8,0.3-1.5,0.3c-2.3,0.3-3.5,0.8-3.5,2c0,1,0.7,1.5,1.8,1.5
				c1.9,0,3.2-1.3,3.3-2.4L338.3,343.9L338.3,343.9z"/>
			<path id="XMLID_5511_" class="st6" d="M347.6,348.7c-0.1,0.2-0.2,0.2-0.3,0.2h-1.7c-0.2,0-0.3-0.1-0.3-0.2l-3.2-9.5
				c-0.1-0.2,0-0.3,0.2-0.3h1c0.2,0,0.3,0.1,0.3,0.2l2.8,8h0.2l2.8-8c0.1-0.2,0.2-0.2,0.3-0.2h1c0.2,0,0.3,0.1,0.2,0.3L347.6,348.7z
				"/>
			<path id="XMLID_5513_" class="st6" d="M360.5,338.8c0.2,0,0.3,0.1,0.2,0.3l-4.8,13.7c-0.1,0.2-0.2,0.2-0.4,0.2h-1.1
				c-0.2,0-0.3-0.1-0.2-0.3l1.2-3.4l-3.6-10.2c-0.1-0.2,0-0.3,0.2-0.3h1c0.2,0,0.3,0.1,0.3,0.2l2.8,8h0.1l2.9-8
				c0.1-0.2,0.2-0.2,0.4-0.2H360.5z"/>
			<path id="XMLID_5515_" class="st6" d="M371.9,335.9c0,0.2-0.1,0.3-0.3,0.3c-1.7,0-2.5,0.3-2.5,2.3v0.3h2.4c0.2,0,0.3,0.1,0.3,0.3
				v0.8c0,0.2-0.1,0.3-0.3,0.3h-2.4l0.1,8.4c0,0.2-0.1,0.3-0.3,0.3h-1.1c-0.2,0-0.3-0.1-0.3-0.3l0.1-8.4h-1.3
				c-0.2,0-0.3-0.1-0.3-0.3v-0.8c0-0.2,0.1-0.3,0.3-0.3h1.3v-0.2c0-3.2,1.7-4,4.1-3.9c0.2,0,0.3,0.1,0.3,0.3v0.9L371.9,335.9
				L371.9,335.9z"/>
			<path id="XMLID_5517_" class="st6" d="M382.7,343.8c0,3.1-2.1,5.4-4.8,5.4c-2.7,0-4.7-2.2-4.7-5.2c0-3.2,2.1-5.3,4.8-5.3
				C380.7,338.6,382.7,340.7,382.7,343.8z M374.8,343.8c0,2.4,1.4,3.9,3.2,3.9c1.8,0,3-1.5,3-3.7c0-2.4-1.4-3.9-3.2-3.9
				C376.1,340.1,374.8,341.5,374.8,343.8z"/>
			<path id="XMLID_5520_" class="st6" d="M390,340.1c0,0.2-0.1,0.3-0.3,0.3c-1.7,0.1-2.9,0.7-3.1,3v5.2c0,0.2-0.1,0.3-0.3,0.3h-1.1
				c-0.2,0-0.3-0.1-0.3-0.3l0.1-9.5c0-0.2,0.1-0.3,0.3-0.3h1c0.2,0,0.3,0.1,0.3,0.3v1.3h0.1c0.7-1,1.7-1.7,3-1.8
				c0.2,0,0.3,0.1,0.3,0.3V340.1z"/>
			<path id="XMLID_5522_" class="st6" d="M400.6,339.9c0,0.2-0.1,0.3-0.3,0.3h-1.8v8.4c0,0.2-0.1,0.3-0.3,0.3h-1.1
				c-0.2,0-0.3-0.1-0.3-0.3v-8.4h-1.5c-0.2,0-0.3-0.1-0.3-0.3v-0.8c0-0.2,0.1-0.3,0.3-0.3h1.5v-3.6c0-0.2,0.1-0.3,0.3-0.3h1
				c0.2,0,0.3,0.1,0.3,0.3v3.6h1.9c0.2,0,0.3,0.1,0.3,0.3V339.9z"/>
			<path id="XMLID_5524_" class="st6" d="M404.3,340.4c0.7-1,1.8-1.7,3.1-1.7c1.9,0,3.1,1.3,3.2,3.6v6.3c0,0.2-0.1,0.3-0.3,0.3h-1.1
				c-0.2,0-0.3-0.1-0.3-0.3v-5.9c0-1.6-0.8-2.4-2-2.4c-1.4,0-2.5,1-2.7,3v5.4c0,0.2-0.1,0.3-0.3,0.3h-1.1c-0.2,0-0.3-0.1-0.3-0.3
				l0.1-13.6c0-0.2,0.1-0.3,0.3-0.3h1c0.2,0,0.3,0.1,0.3,0.3L404.3,340.4L404.3,340.4z"/>
			<path id="XMLID_5526_" class="st6" d="M422,343.8c0,0.2-0.1,0.3-0.3,0.3h-7.1c0,2.2,1.2,3.6,3.1,3.6c1.1,0,1.9-0.4,2.4-1.3
				c0.1-0.2,0.2-0.2,0.4-0.2h1c0.2,0,0.3,0.2,0.2,0.4c-0.8,1.7-2.3,2.7-4.1,2.7c-2.8,0-4.7-2.1-4.7-5.2c0-3.2,2-5.3,4.8-5.3
				C420.6,338.6,422.1,340.9,422,343.8z M414.6,342.8h5.6c-0.1-1.5-1-2.7-2.8-2.7C415.8,340.1,414.9,341.3,414.6,342.8z"/>
			<path id="XMLID_5529_" class="st6" d="M437.1,343.8c0,3.1-2.1,5.4-4.8,5.4c-2.7,0-4.7-2.2-4.7-5.2c0-3.2,2.1-5.3,4.8-5.3
				C435.1,338.6,437.1,340.7,437.1,343.8z M429.3,343.8c0,2.4,1.4,3.9,3.2,3.9c1.8,0,3-1.5,3-3.7c0-2.4-1.4-3.9-3.2-3.9
				C430.5,340.1,429.3,341.5,429.3,343.8z"/>
			<path id="XMLID_5532_" class="st6" d="M451.9,338.8c0.2,0,0.3,0.1,0.3,0.3l-2.6,9.5c-0.1,0.2-0.2,0.3-0.3,0.3h-1.6
				c-0.2,0-0.3-0.1-0.3-0.2l-1.9-6.7h-0.2l-1.8,6.7c-0.1,0.2-0.2,0.3-0.3,0.3h-1.8c-0.2,0-0.3-0.1-0.3-0.3l-2.6-9.5
				c-0.1-0.2,0-0.3,0.3-0.3h1c0.2,0,0.3,0.1,0.3,0.3l2.1,8h0.2l2.1-8c0.1-0.2,0.2-0.3,0.3-0.3h0.9c0.2,0,0.3,0.1,0.3,0.3l2.2,8h0.2
				l2.1-8c0.1-0.2,0.2-0.3,0.3-0.3L451.9,338.8L451.9,338.8z"/>
			<path id="XMLID_5534_" class="st6" d="M456.3,348.6c0,0.2-0.1,0.3-0.3,0.3h-1.1c-0.2,0-0.3-0.1-0.3-0.3l0.1-13.6
				c0-0.2,0.1-0.3,0.3-0.3h1c0.2,0,0.3,0.1,0.3,0.3V348.6z"/>
			<path id="XMLID_5536_" class="st6" d="M466.9,341.1c0.1,0.2,0,0.3-0.2,0.3h-1c-0.2,0-0.3-0.1-0.4-0.2c-0.5-0.7-1.2-1.2-2.4-1.2
				c-1.2,0-2,0.6-2,1.4c0,0.8,0.8,1.1,2.2,1.5l0.8,0.2c2.3,0.7,3.2,1.6,3.2,2.9c0,1.9-1.5,3-3.9,3c-2.3,0-3.7-1.2-4.3-2.8
				c-0.1-0.2,0-0.3,0.2-0.3h1.1c0.2,0,0.3,0.1,0.4,0.2c0.5,1,1.4,1.4,2.6,1.4s2.1-0.4,2.1-1.4c0-0.8-0.7-1.3-2.3-1.7l-0.8-0.2
				c-1.8-0.5-3.1-1.2-3.1-2.8c0-1.7,1.6-2.9,3.7-2.9C465.3,338.6,466.5,339.9,466.9,341.1z"/>
			<path id="XMLID_5538_" class="st6" d="M472.2,348.4c0,1.7-0.4,2.6-1.2,3.5c-0.1,0.1-0.3,0.2-0.4,0.1l-0.1-0.1
				c-0.2-0.1-0.2-0.2-0.1-0.4c0.6-0.9,0.8-1.9,0.1-2.4c-0.1-0.1-0.2-0.2-0.2-0.4v-1.5c0-0.2,0.1-0.3,0.3-0.3h1.3
				c0.2,0,0.3,0.1,0.3,0.3L472.2,348.4L472.2,348.4z"/>
			<path id="XMLID_5540_" class="st6" d="M487.1,341.1c0.1,0.2,0,0.3-0.2,0.3h-1c-0.2,0-0.3-0.1-0.4-0.2c-0.5-0.7-1.2-1.2-2.4-1.2
				c-1.2,0-2,0.6-2,1.4c0,0.8,0.8,1.1,2.2,1.5l0.8,0.2c2.3,0.7,3.2,1.6,3.2,2.9c0,1.9-1.5,3-3.9,3c-2.3,0-3.7-1.2-4.3-2.8
				c-0.1-0.2,0-0.3,0.2-0.3h1.1c0.2,0,0.3,0.1,0.4,0.2c0.5,1,1.4,1.4,2.6,1.4s2.1-0.4,2.1-1.4c0-0.8-0.7-1.3-2.3-1.7l-0.8-0.2
				c-1.8-0.5-3.1-1.2-3.1-2.8c0-1.7,1.6-2.9,3.7-2.9C485.5,338.6,486.7,339.9,487.1,341.1z"/>
			<path id="XMLID_5542_" class="st6" d="M498.5,343.8c0,3.1-2.1,5.4-4.8,5.4c-2.7,0-4.7-2.2-4.7-5.2c0-3.2,2.1-5.3,4.8-5.3
				C496.5,338.6,498.5,340.7,498.5,343.8z M490.6,343.8c0,2.4,1.4,3.9,3.2,3.9c1.8,0,3-1.5,3-3.7c0-2.4-1.4-3.9-3.2-3.9
				C491.9,340.1,490.6,341.5,490.6,343.8z"/>
			<path id="XMLID_5545_" class="st6" d="M509.5,339.9c0,0.2-0.1,0.3-0.3,0.3h-1.8v8.4c0,0.2-0.1,0.3-0.3,0.3H506
				c-0.2,0-0.3-0.1-0.3-0.3v-8.4h-1.5c-0.2,0-0.3-0.1-0.3-0.3v-0.8c0-0.2,0.1-0.3,0.3-0.3h1.5v-3.6c0-0.2,0.1-0.3,0.3-0.3h1
				c0.2,0,0.3,0.1,0.3,0.3v3.6h1.9c0.2,0,0.3,0.1,0.3,0.3L509.5,339.9L509.5,339.9z"/>
			<path id="XMLID_5547_" class="st6" d="M513.2,340.4c0.7-1,1.8-1.7,3.1-1.7c1.9,0,3.1,1.3,3.2,3.6v6.3c0,0.2-0.1,0.3-0.3,0.3h-1.1
				c-0.2,0-0.3-0.1-0.3-0.3v-5.9c0-1.6-0.8-2.4-2-2.4c-1.4,0-2.5,1-2.7,3v5.4c0,0.2-0.1,0.3-0.3,0.3h-1.1c-0.2,0-0.3-0.1-0.3-0.3
				l0.1-13.6c0-0.2,0.1-0.3,0.3-0.3h1c0.2,0,0.3,0.1,0.3,0.3L513.2,340.4L513.2,340.4z"/>
			<path id="XMLID_5549_" class="st6" d="M530.9,343.8c0,0.2-0.1,0.3-0.3,0.3h-7.2c0,2.2,1.2,3.6,3.1,3.6c1.1,0,1.9-0.4,2.4-1.3
				c0.1-0.2,0.2-0.2,0.4-0.2h1c0.2,0,0.3,0.2,0.2,0.4c-0.8,1.7-2.3,2.7-4.1,2.7c-2.8,0-4.7-2.1-4.7-5.2c0-3.2,2-5.3,4.8-5.3
				C529.5,338.6,531,340.9,530.9,343.8z M523.5,342.8h5.6c-0.1-1.5-1-2.7-2.8-2.7C524.7,340.1,523.8,341.3,523.5,342.8z"/>
			<path id="XMLID_5552_" class="st6" d="M540.9,338.8c0.2,0,0.3,0.1,0.2,0.3l-4.8,13.7c-0.1,0.2-0.2,0.2-0.4,0.2h-1.1
				c-0.2,0-0.3-0.1-0.2-0.3l1.2-3.4l-3.6-10.2c-0.1-0.2,0-0.3,0.2-0.3h1c0.2,0,0.3,0.1,0.3,0.2l2.8,8h0.1l2.9-8
				c0.1-0.2,0.2-0.2,0.4-0.2H540.9z"/>
			<path id="XMLID_5554_" class="st6" d="M118.2,363.2c0.7-1,1.8-1.7,3.1-1.7c1.9,0,3.1,1.3,3.2,3.6v6.3c0,0.2-0.1,0.3-0.3,0.3h-1.1
				c-0.2,0-0.3-0.1-0.3-0.3v-5.9c0-1.6-0.8-2.4-2-2.4c-1.4,0-2.5,1-2.7,3v5.4c0,0.2-0.1,0.3-0.3,0.3h-1.1c-0.2,0-0.3-0.1-0.3-0.3
				l0.1-13.6c0-0.2,0.1-0.3,0.3-0.3h1c0.2,0,0.3,0.1,0.3,0.3v5.3H118.2z"/>
			<path id="XMLID_5556_" class="st6" d="M135.1,364.9l0.1,6.6c0,0.2-0.1,0.3-0.3,0.3h-1.1c-0.2,0-0.3-0.1-0.3-0.3v-1.3h-0.1
				c-0.7,1-1.9,1.8-3.5,1.8c-1.8,0-3.1-1-3.1-2.8c0-2.1,1.6-3,5.3-3.4c0.9-0.1,1.4-0.4,1.4-1.1c0-1-0.8-1.8-2.3-1.8
				c-1.2,0-2,0.5-2.3,1.4c-0.1,0.2-0.2,0.2-0.3,0.2h-1c-0.2,0-0.3-0.1-0.3-0.3c0.4-1.7,1.8-2.8,4-2.8
				C133.6,361.4,135.1,362.7,135.1,364.9z M133.4,366.7c-0.3,0.2-0.8,0.3-1.5,0.3c-2.3,0.3-3.5,0.8-3.5,2c0,1,0.7,1.5,1.8,1.5
				c1.9,0,3.2-1.3,3.3-2.4L133.4,366.7L133.4,366.7z"/>
			<path id="XMLID_5559_" class="st6" d="M146.7,371.4c0,0.2-0.1,0.3-0.3,0.3h-1.1c-0.2,0-0.3-0.1-0.3-0.3v-1.1h-0.1
				c-0.7,1.1-1.9,1.7-3.2,1.7c-2.5,0-4.2-2.2-4.2-5.2c0-3.2,1.9-5.4,4.7-5.4c1.2,0,2.1,0.4,2.8,1.2h0.1v-4.8c0-0.2,0.1-0.3,0.3-0.3
				h1c0.2,0,0.3,0.1,0.3,0.3V371.4z M139,366.7c0,2.4,1.2,3.8,3,3.8c1.5,0,2.8-1.1,3-3.2V366c-0.2-2.1-1.5-3.1-3-3.1
				C140.2,362.9,139,364.3,139,366.7z"/>
			<path id="XMLID_5562_" class="st6" d="M158.2,362.7c0,0.2-0.1,0.3-0.3,0.3h-1.8v8.4c0,0.2-0.1,0.3-0.3,0.3h-1.1
				c-0.2,0-0.3-0.1-0.3-0.3V363h-1.5c-0.2,0-0.3-0.1-0.3-0.3v-0.8c0-0.2,0.1-0.3,0.3-0.3h1.5V358c0-0.2,0.1-0.3,0.3-0.3h1
				c0.2,0,0.3,0.1,0.3,0.3v3.6h1.9c0.2,0,0.3,0.1,0.3,0.3C158.2,361.9,158.2,362.7,158.2,362.7z"/>
			<path id="XMLID_5564_" class="st6" d="M169,366.6c0,3.1-2.1,5.4-4.8,5.4c-2.7,0-4.7-2.2-4.7-5.2c0-3.2,2.1-5.3,4.8-5.3
				C167,361.4,169,363.5,169,366.6z M161.2,366.6c0,2.4,1.4,3.9,3.2,3.9c1.8,0,3-1.5,3-3.7c0-2.4-1.4-3.9-3.2-3.9
				C162.4,362.9,161.2,364.3,161.2,366.6z"/>
			<path id="XMLID_5567_" class="st6" d="M188.9,365.1v6.3c0,0.2-0.1,0.3-0.3,0.3h-1.1c-0.2,0-0.3-0.1-0.3-0.3v-5.9
				c0-1.7-0.7-2.5-1.8-2.5c-1.3,0-2.4,1-2.5,3.1v5.3c0,0.2-0.1,0.3-0.3,0.3h-1.2c-0.2,0-0.3-0.1-0.3-0.3v-5.9c0-1.7-0.7-2.5-1.8-2.5
				c-1.3,0-2.4,0.9-2.6,3.1v5.4c0,0.2-0.1,0.3-0.3,0.3h-1.1c-0.2,0-0.3-0.1-0.3-0.3l0.1-9.5c0-0.2,0.1-0.3,0.3-0.3h1
				c0.2,0,0.3,0.1,0.3,0.3v1.2h0.1c0.8-1,1.8-1.7,3.1-1.7c1.3,0,2.2,0.6,2.6,1.9h0.1c0.8-1.2,1.8-1.9,3.2-1.9
				C187.8,361.4,188.9,362.7,188.9,365.1z"/>
			<path id="XMLID_5569_" class="st6" d="M199.4,364.9l0.1,6.6c0,0.2-0.1,0.3-0.3,0.3h-1.1c-0.2,0-0.3-0.1-0.3-0.3v-1.3h-0.1
				c-0.7,1-1.9,1.8-3.5,1.8c-1.8,0-3.1-1-3.1-2.8c0-2.1,1.6-3,5.3-3.4c0.9-0.1,1.4-0.4,1.4-1.1c0-1-0.8-1.8-2.3-1.8
				c-1.2,0-2,0.5-2.3,1.4c-0.1,0.2-0.2,0.2-0.3,0.2h-1c-0.2,0-0.3-0.1-0.3-0.3c0.4-1.7,1.8-2.8,4-2.8
				C198,361.4,199.4,362.7,199.4,364.9z M197.7,366.7c-0.3,0.2-0.8,0.3-1.5,0.3c-2.3,0.3-3.5,0.8-3.5,2c0,1,0.7,1.5,1.8,1.5
				c1.9,0,3.2-1.3,3.3-2.4L197.7,366.7L197.7,366.7z"/>
			<path id="XMLID_5572_" class="st6" d="M204,368v3.5c0,0.2-0.1,0.3-0.3,0.3h-1.1c-0.2,0-0.3-0.1-0.3-0.3l0.1-13.6
				c0-0.2,0.1-0.3,0.3-0.3h1c0.2,0,0.3,0.1,0.3,0.3v8.3l4.6-4.4c0.1-0.1,0.2-0.2,0.4-0.2h1.2c0.3,0,0.4,0.2,0.2,0.4l-3.9,3.7
				l4.2,5.6c0.2,0.2,0.1,0.4-0.2,0.4h-1.3c-0.2,0-0.3-0.1-0.4-0.2l-3.4-4.8L204,368z"/>
			<path id="XMLID_5574_" class="st6" d="M221.6,366.6c0,0.2-0.1,0.3-0.3,0.3h-7.1c0,2.2,1.2,3.6,3.1,3.6c1.1,0,1.9-0.4,2.4-1.3
				c0.1-0.2,0.2-0.2,0.4-0.2h1c0.2,0,0.3,0.2,0.2,0.4c-0.8,1.7-2.3,2.7-4.1,2.7c-2.8,0-4.7-2.1-4.7-5.2c0-3.2,2-5.3,4.8-5.3
				C220.2,361.4,221.7,363.7,221.6,366.6z M214.2,365.6h5.6c-0.1-1.5-1-2.7-2.8-2.7C215.4,362.9,214.5,364.1,214.2,365.6z"/>
			<path id="XMLID_5577_" class="st6" d="M232.6,362.7c0,0.2-0.1,0.3-0.3,0.3h-1.9v8.4c0,0.2-0.1,0.3-0.3,0.3H229
				c-0.2,0-0.3-0.1-0.3-0.3V363h-1.5c-0.2,0-0.3-0.1-0.3-0.3v-0.8c0-0.2,0.1-0.3,0.3-0.3h1.5V358c0-0.2,0.1-0.3,0.3-0.3h1
				c0.2,0,0.3,0.1,0.3,0.3v3.6h1.9c0.2,0,0.3,0.1,0.3,0.3v0.8H232.6z"/>
			<path id="XMLID_5579_" class="st6" d="M236.3,363.2c0.7-1,1.8-1.7,3.1-1.7c1.9,0,3.1,1.3,3.2,3.6v6.3c0,0.2-0.1,0.3-0.3,0.3h-1.1
				c-0.2,0-0.3-0.1-0.3-0.3v-5.9c0-1.6-0.8-2.4-2-2.4c-1.4,0-2.5,1-2.7,3v5.4c0,0.2-0.1,0.3-0.3,0.3h-1.1c-0.2,0-0.3-0.1-0.3-0.3
				l0.1-13.6c0-0.2,0.1-0.3,0.3-0.3h1c0.2,0,0.3,0.1,0.3,0.3v5.3H236.3z"/>
			<path id="XMLID_5581_" class="st6" d="M253.9,366.6c0,0.2-0.1,0.3-0.3,0.3h-7.1c0,2.2,1.2,3.6,3.1,3.6c1.1,0,1.9-0.4,2.4-1.3
				c0.1-0.2,0.2-0.2,0.4-0.2h1c0.2,0,0.3,0.2,0.2,0.4c-0.8,1.7-2.3,2.7-4.1,2.7c-2.8,0-4.7-2.1-4.7-5.2c0-3.2,2-5.3,4.8-5.3
				C252.5,361.4,254,363.7,253.9,366.6z M246.6,365.6h5.6c-0.1-1.5-1-2.7-2.8-2.7C247.8,362.9,246.9,364.1,246.6,365.6z"/>
			<path id="XMLID_5584_" class="st6" d="M269.9,365.1v6.3c0,0.2-0.1,0.3-0.3,0.3h-1.1c-0.2,0-0.3-0.1-0.3-0.3v-5.9
				c0-1.7-0.7-2.5-1.8-2.5c-1.3,0-2.4,1-2.5,3.1v5.3c0,0.2-0.1,0.3-0.3,0.3h-1.2c-0.2,0-0.3-0.1-0.3-0.3v-5.9c0-1.7-0.7-2.5-1.8-2.5
				c-1.3,0-2.4,0.9-2.6,3.1v5.4c0,0.2-0.1,0.3-0.3,0.3h-1.1c-0.2,0-0.3-0.1-0.3-0.3l0.1-9.5c0-0.2,0.1-0.3,0.3-0.3h1
				c0.2,0,0.3,0.1,0.3,0.3v1.2h0.1c0.8-1,1.8-1.7,3.1-1.7s2.2,0.6,2.6,1.9h0.1c0.8-1.2,1.8-1.9,3.2-1.9
				C268.7,361.4,269.9,362.7,269.9,365.1z"/>
			<path id="XMLID_5586_" class="st6" d="M284.3,364.9l0.1,6.6c0,0.2-0.1,0.3-0.3,0.3H283c-0.2,0-0.3-0.1-0.3-0.3v-1.3h-0.1
				c-0.7,1-1.9,1.8-3.5,1.8c-1.8,0-3.1-1-3.1-2.8c0-2.1,1.6-3,5.3-3.4c0.9-0.1,1.4-0.4,1.4-1.1c0-1-0.8-1.8-2.3-1.8
				c-1.2,0-2,0.5-2.3,1.4c-0.1,0.2-0.2,0.2-0.3,0.2h-1c-0.2,0-0.3-0.1-0.3-0.3c0.4-1.7,1.8-2.8,4-2.8
				C282.9,361.4,284.3,362.7,284.3,364.9z M282.6,366.7c-0.3,0.2-0.8,0.3-1.5,0.3c-2.3,0.3-3.5,0.8-3.5,2c0,1,0.7,1.5,1.8,1.5
				c1.9,0,3.2-1.3,3.3-2.4L282.6,366.7L282.6,366.7z"/>
			<path id="XMLID_5589_" class="st6" d="M294.1,363.1L294.1,363.1l0.1-1.2c0-0.2,0.1-0.3,0.3-0.3h1c0.2,0,0.3,0.1,0.3,0.3l0.1,8.5
				c0,3.8-1.8,5.7-4.6,5.7c-2,0-3.3-0.9-4-2.5c-0.1-0.2,0-0.4,0.2-0.4h1c0.2,0,0.3,0.1,0.4,0.2c0.5,0.7,1.3,1.2,2.4,1.2
				c1.8,0,2.9-1,2.8-3.7v-0.4H294c-0.7,0.9-1.6,1.3-2.8,1.3c-2.8,0-4.7-2-4.7-5.2c0-2.9,1.7-5.1,4.2-5.1
				C292.2,361.4,293.4,362,294.1,363.1z M288.3,366.7c0,2.2,1.1,3.5,3,3.5c1.6,0,2.8-0.9,3-2.8v-1.3c-0.2-2.1-1.5-3.3-3-3.3
				C289.5,362.9,288.3,364.4,288.3,366.7z"/>
			<path id="XMLID_5592_" class="st6" d="M306.5,364.9l0.1,6.6c0,0.2-0.1,0.3-0.3,0.3h-1.1c-0.2,0-0.3-0.1-0.3-0.3v-1.3h-0.1
				c-0.7,1-1.9,1.8-3.5,1.8c-1.8,0-3.1-1-3.1-2.8c0-2.1,1.6-3,5.3-3.4c0.9-0.1,1.4-0.4,1.4-1.1c0-1-0.8-1.8-2.3-1.8
				c-1.2,0-2,0.5-2.3,1.4c-0.1,0.2-0.2,0.2-0.3,0.2h-1c-0.2,0-0.3-0.1-0.3-0.3c0.4-1.7,1.8-2.8,4-2.8
				C305.1,361.4,306.5,362.7,306.5,364.9z M304.8,366.7c-0.3,0.2-0.8,0.3-1.5,0.3c-2.3,0.3-3.5,0.8-3.5,2c0,1,0.7,1.5,1.8,1.5
				c1.9,0,3.2-1.3,3.3-2.4L304.8,366.7L304.8,366.7z"/>
			<path id="XMLID_5595_" class="st6" d="M311.4,371.4c0,0.2-0.1,0.3-0.3,0.3H310c-0.2,0-0.3-0.1-0.3-0.3l0.1-9.5
				c0-0.2,0.1-0.3,0.3-0.3h1c0.2,0,0.3,0.1,0.3,0.3V371.4z M311.3,359.2c0,0.2-0.1,0.3-0.3,0.3h-1c-0.2,0-0.3-0.1-0.3-0.3v-1.3
				c0-0.2,0.1-0.3,0.3-0.3h1c0.2,0,0.3,0.1,0.3,0.3V359.2z"/>
			<path id="XMLID_5598_" class="st6" d="M322.6,365.1v6.3c0,0.2-0.1,0.3-0.3,0.3h-1.1c-0.2,0-0.3-0.1-0.3-0.3v-5.9
				c0-1.7-0.8-2.5-2.1-2.5c-1.4,0-2.5,1-2.7,3.1v5.4c0,0.2-0.1,0.3-0.3,0.3h-1.1c-0.2,0-0.3-0.1-0.3-0.3l0.1-9.5
				c0-0.2,0.1-0.3,0.3-0.3h1c0.2,0,0.3,0.1,0.3,0.3v1.2h0.1c0.8-1.1,1.8-1.7,3.2-1.7C321.3,361.4,322.6,362.7,322.6,365.1z"/>
			<path id="XMLID_5600_" class="st6" d="M327.8,371.4c0,0.2-0.1,0.3-0.3,0.3h-1.3c-0.2,0-0.3-0.1-0.3-0.3V370
				c0-0.2,0.1-0.3,0.3-0.3h1.3c0.2,0,0.3,0.1,0.3,0.3V371.4z"/>
		</g>
	</g>
	<g id="owlBold">
		<g id="XMLID_5085_">
			<g id="XMLID_6846_">
				<path id="XMLID_6968_" class="st7" d="M492.3,433.8h6.7c0.3,0,0.4,0.2,0.4,0.4v1.5c0,0.3-0.2,0.4-0.4,0.4h-6.7v4.9h7.6
					c0.3,0,0.4,0.2,0.4,0.4v1.5c0,0.3-0.2,0.4-0.4,0.4H490c-0.3,0-0.4-0.2-0.4-0.4l0.1-15.2c0-0.3,0.2-0.4,0.4-0.4h9.9
					c0.3,0,0.4,0.2,0.4,0.4v1.5c0,0.3-0.2,0.4-0.4,0.4h-7.7V433.8z"/>
				<path id="XMLID_6966_" class="st7" d="M509.2,443c-0.1,0.2-0.2,0.4-0.5,0.4h-2.6c-0.2,0-0.4-0.1-0.5-0.4l-3.7-11
					c-0.1-0.3,0-0.5,0.4-0.5h1.6c0.2,0,0.4,0.1,0.5,0.4l2.9,8.7h0.3l2.9-8.7c0.1-0.2,0.2-0.4,0.5-0.4h1.6c0.3,0,0.5,0.2,0.4,0.5
					L509.2,443z"/>
				<path id="XMLID_6963_" class="st7" d="M525.2,437.6c0,0.3-0.2,0.4-0.5,0.4h-7.9c0.1,2.4,1.5,3.4,3.3,3.4c1,0,1.7-0.4,2.3-1.3
					c0.1-0.2,0.3-0.3,0.5-0.3h1.6c0.3,0,0.5,0.2,0.4,0.5c-0.9,2.2-2.8,3.3-5,3.3c-3.3,0-5.6-2.4-5.6-6.2c0-3.7,2.3-6.4,5.8-6.4
					C523.7,431.1,525.4,434,525.2,437.6z M517,436h5.6c0-1.3-0.9-2.6-2.7-2.6C518,433.4,517.3,434.7,517,436z"/>
				<path id="XMLID_6961_" class="st7" d="M537.7,435.7v7.2c0,0.3-0.2,0.4-0.4,0.4h-1.9c-0.3,0-0.4-0.2-0.4-0.4v-6.5
					c0-1.8-0.8-2.8-2.1-2.8c-1.6,0-2.8,1.3-2.7,4.1v5.2c0,0.3-0.2,0.4-0.4,0.4H528c-0.3,0-0.4-0.2-0.4-0.4l0.1-10.9
					c0-0.3,0.2-0.4,0.4-0.4h1.7c0.3,0,0.4,0.2,0.4,0.4v1.2h0.2c0.9-1.3,2-2,3.4-2C536.1,431.2,537.7,432.8,537.7,435.7z"/>
				<path id="XMLID_6959_" class="st7" d="M551.1,433.2c0,0.3-0.2,0.4-0.4,0.4h-1.9v9.2c0,0.3-0.2,0.4-0.4,0.4h-1.8
					c-0.3,0-0.4-0.2-0.4-0.4v-9.2h-1.6c-0.3,0-0.4-0.2-0.4-0.4v-1.3c0-0.3,0.2-0.4,0.4-0.4h1.6v-4c0-0.3,0.2-0.4,0.4-0.4h1.7
					c0.3,0,0.4,0.2,0.4,0.4v4h1.9c0.3,0,0.4,0.2,0.4,0.4L551.1,433.2L551.1,433.2z"/>
				<path id="XMLID_6957_" class="st7" d="M556,433.1c0.8-1.3,2-1.8,3.3-1.8c2.3,0,3.8,1.6,3.8,4.4v7.2c0,0.3-0.2,0.4-0.4,0.4h-1.8
					c-0.3,0-0.4-0.2-0.4-0.4l0.1-6.5c0-1.8-0.8-2.6-2.1-2.6c-1.6,0-2.8,1.2-2.7,3.9v5.2c0,0.3-0.2,0.4-0.4,0.4h-1.8
					c-0.3,0-0.4-0.2-0.4-0.4l0.1-15.7c0-0.3,0.2-0.4,0.4-0.4h1.7c0.3,0,0.4,0.2,0.4,0.4v5.9H556L556,433.1z"/>
				<path id="XMLID_6954_" class="st7" d="M576.4,437.6c0,0.3-0.2,0.4-0.5,0.4H568c0.1,2.4,1.5,3.4,3.3,3.4c1,0,1.7-0.4,2.3-1.3
					c0.1-0.2,0.3-0.3,0.5-0.3h1.6c0.3,0,0.5,0.2,0.4,0.5c-0.9,2.2-2.8,3.3-5,3.3c-3.3,0-5.6-2.4-5.6-6.2c0-3.7,2.3-6.4,5.8-6.4
					C574.9,431.1,576.6,434,576.4,437.6z M568.2,436h5.6c0-1.3-0.9-2.6-2.7-2.6C569.2,433.4,568.5,434.7,568.2,436z"/>
				<path id="XMLID_6952_" class="st7" d="M588.9,435.7v7.2c0,0.3-0.2,0.4-0.4,0.4h-1.8c-0.3,0-0.4-0.2-0.4-0.4v-6.5
					c0-1.8-0.8-2.8-2.1-2.8c-1.6,0-2.8,1.3-2.7,4.1v5.2c0,0.3-0.2,0.4-0.4,0.4h-1.8c-0.3,0-0.4-0.2-0.4-0.4L579,432
					c0-0.3,0.2-0.4,0.4-0.4h1.7c0.3,0,0.4,0.2,0.4,0.4v1.2h0.2c0.9-1.3,2-2,3.4-2C587.3,431.2,588.9,432.8,588.9,435.7z"/>
				<path id="XMLID_6949_" class="st7" d="M596.1,442.6c0,2.3-0.5,3.6-1.8,4.8c-0.2,0.2-0.4,0.2-0.6,0.1l-0.2-0.1
					c-0.3-0.1-0.3-0.4-0.1-0.6c0.9-1.3,1.1-2.6,0-3.3c-0.2-0.1-0.3-0.3-0.3-0.5v-1.9c0-0.3,0.2-0.4,0.4-0.4h2.2
					c0.3,0,0.4,0.2,0.4,0.4L596.1,442.6L596.1,442.6z"/>
				<path id="XMLID_6946_" class="st7" d="M607.5,442.9c0,0.3-0.2,0.4-0.4,0.4h-1.8c-0.3,0-0.4-0.2-0.4-0.4L605,432
					c0-0.3,0.2-0.4,0.4-0.4h1.7c0.3,0,0.4,0.2,0.4,0.4V442.9z M607.5,428.9c0,0.3-0.2,0.4-0.4,0.4h-1.7c-0.3,0-0.4-0.2-0.4-0.4v-1.7
					c0-0.3,0.2-0.4,0.4-0.4h1.7c0.3,0,0.4,0.2,0.4,0.4L607.5,428.9L607.5,428.9z"/>
				<path id="XMLID_6944_" class="st7" d="M616.8,433.2c0,0.3-0.2,0.4-0.4,0.4h-1.9v9.2c0,0.3-0.2,0.4-0.4,0.4h-1.8
					c-0.3,0-0.4-0.2-0.4-0.4v-9.2h-1.6c-0.3,0-0.4-0.2-0.4-0.4v-1.3c0-0.3,0.2-0.4,0.4-0.4h1.6v-4c0-0.3,0.2-0.4,0.4-0.4h1.7
					c0.3,0,0.4,0.2,0.4,0.4v4h1.9c0.3,0,0.4,0.2,0.4,0.4L616.8,433.2L616.8,433.2z"/>
				<path id="XMLID_6942_" class="st7" d="M629.2,433.2c0,0.3-0.2,0.4-0.4,0.4h-1.9v9.2c0,0.3-0.2,0.4-0.4,0.4h-1.8
					c-0.3,0-0.4-0.2-0.4-0.4v-9.2h-1.6c-0.3,0-0.4-0.2-0.4-0.4v-1.3c0-0.3,0.2-0.4,0.4-0.4h1.6v-4c0-0.3,0.2-0.4,0.4-0.4h1.7
					c0.3,0,0.4,0.2,0.4,0.4v4h1.9c0.3,0,0.4,0.2,0.4,0.4L629.2,433.2L629.2,433.2z"/>
				<path id="XMLID_6939_" class="st7" d="M642.1,437.3c0,3.7-2.5,6.4-5.9,6.4c-3.2,0-5.7-2.6-5.7-6.2c0-3.7,2.5-6.3,5.9-6.3
					C639.6,431.2,642.1,433.6,642.1,437.3z M633.1,437.2c0,2.5,1.5,4.1,3.3,4.1c1.7,0,3-1.5,3-3.8c0-2.6-1.5-4.1-3.3-4.1
					C634.4,433.4,633.1,434.9,633.1,437.2z"/>
				<path id="XMLID_6936_" class="st7" d="M655.2,437.3c0,3.7-2.5,6.4-5.9,6.4c-3.2,0-5.7-2.6-5.7-6.2c0-3.7,2.5-6.3,5.9-6.3
					C652.8,431.2,655.2,433.6,655.2,437.3z M646.3,437.2c0,2.5,1.5,4.1,3.3,4.1c1.7,0,3-1.5,3-3.8c0-2.6-1.5-4.1-3.3-4.1
					C647.6,433.4,646.3,434.9,646.3,437.2z"/>
				<path id="XMLID_6934_" class="st7" d="M660.3,439v3.9c0,0.3-0.2,0.4-0.4,0.4h-1.8c-0.3,0-0.4-0.2-0.4-0.4l0.1-15.7
					c0-0.3,0.2-0.4,0.4-0.4h1.7c0.3,0,0.4,0.2,0.4,0.4v9l4.7-4.5c0.2-0.2,0.3-0.2,0.5-0.2h1.9c0.4,0,0.5,0.3,0.2,0.5l-4.6,4.4
					l4.8,6.3c0.2,0.3,0.1,0.5-0.3,0.5h-2c-0.2,0-0.4-0.1-0.5-0.3l-3.6-5.1L660.3,439z"/>
				<path id="XMLID_6932_" class="st7" d="M680.8,433.2c0,0.3-0.2,0.4-0.4,0.4h-1.9v9.2c0,0.3-0.2,0.4-0.4,0.4h-1.8
					c-0.3,0-0.4-0.2-0.4-0.4v-9.2h-1.6c-0.3,0-0.4-0.2-0.4-0.4v-1.3c0-0.3,0.2-0.4,0.4-0.4h1.6v-4c0-0.3,0.2-0.4,0.4-0.4h1.7
					c0.3,0,0.4,0.2,0.4,0.4v4h1.9c0.3,0,0.4,0.2,0.4,0.4L680.8,433.2L680.8,433.2z"/>
				<path id="XMLID_6930_" class="st7" d="M685.7,433.1c0.8-1.3,2-1.8,3.3-1.8c2.3,0,3.8,1.6,3.8,4.4v7.2c0,0.3-0.2,0.4-0.4,0.4
					h-1.8c-0.3,0-0.4-0.2-0.4-0.4l0.1-6.5c0-1.8-0.8-2.6-2.1-2.6c-1.6,0-2.8,1.2-2.7,3.9v5.2c0,0.3-0.2,0.4-0.4,0.4h-1.8
					c-0.3,0-0.4-0.2-0.4-0.4l0.1-15.7c0-0.3,0.2-0.4,0.4-0.4h1.7c0.3,0,0.4,0.2,0.4,0.4v5.9H685.7L685.7,433.1z"/>
				<path id="XMLID_6927_" class="st7" d="M706.2,437.6c0,0.3-0.2,0.4-0.5,0.4h-7.9c0.1,2.4,1.5,3.4,3.3,3.4c1,0,1.7-0.4,2.3-1.3
					c0.1-0.2,0.3-0.3,0.5-0.3h1.6c0.3,0,0.5,0.2,0.4,0.5c-0.9,2.2-2.8,3.3-5,3.3c-3.3,0-5.6-2.4-5.6-6.2c0-3.7,2.3-6.4,5.8-6.4
					C704.7,431.1,706.4,434,706.2,437.6z M697.9,436h5.6c0-1.3-0.9-2.6-2.7-2.6S698.2,434.7,697.9,436z"/>
				<path id="XMLID_6924_" class="st7" d="M482.4,463.7c0,3.7-2.5,6.4-5.9,6.4c-3.2,0-5.7-2.6-5.7-6.2c0-3.7,2.5-6.3,5.9-6.3
					C480,457.6,482.4,460,482.4,463.7z M473.5,463.6c0,2.5,1.5,4.1,3.3,4.1c1.7,0,3-1.5,3-3.8c0-2.6-1.5-4.1-3.3-4.1
					C474.8,459.8,473.5,461.3,473.5,463.6z"/>
				<path id="XMLID_6922_" class="st7" d="M499.7,457.9c0.3,0,0.5,0.2,0.4,0.5l-2.9,11c-0.1,0.2-0.2,0.4-0.5,0.4h-2.5
					c-0.3,0-0.4-0.1-0.5-0.4l-1.7-6.5h-0.2l-1.7,6.5c-0.1,0.2-0.2,0.4-0.5,0.4h-2.5c-0.3,0-0.4-0.1-0.5-0.4l-2.9-11
					c-0.1-0.3,0.1-0.5,0.4-0.5h1.6c0.3,0,0.4,0.1,0.5,0.4l2.1,8.7h0.3l2.1-8.7c0.1-0.2,0.2-0.4,0.5-0.4h1.4c0.3,0,0.4,0.1,0.5,0.4
					l2.1,8.7h0.3l2.1-8.7c0.1-0.2,0.2-0.4,0.5-0.4H499.7z"/>
				<path id="XMLID_6920_" class="st7" d="M505.2,469.3c0,0.3-0.2,0.4-0.4,0.4H503c-0.3,0-0.4-0.2-0.4-0.4l0.1-15.7
					c0-0.3,0.2-0.4,0.4-0.4h1.7c0.3,0,0.4,0.2,0.4,0.4L505.2,469.3z"/>
				<path id="XMLID_6918_" class="st7" d="M517.9,460.8c0.1,0.3-0.1,0.5-0.4,0.5h-1.6c-0.2,0-0.4-0.1-0.5-0.3
					c-0.5-0.7-1.3-1.1-2.4-1.1c-1.2,0-1.9,0.6-1.9,1.3c0,0.6,0.7,0.9,2.4,1.4l0.9,0.3c2.8,0.8,3.9,1.9,3.9,3.5
					c0,2.3-1.9,3.8-4.8,3.8c-3,0-4.6-1.6-5.2-3.4c-0.1-0.3,0.1-0.5,0.4-0.5h1.8c0.2,0,0.4,0.1,0.5,0.3c0.6,1,1.5,1.3,2.7,1.3
					c1.3,0,2-0.4,2-1.3c0-0.7-0.6-1.1-2.4-1.7l-0.9-0.2c-2.2-0.6-3.8-1.5-3.8-3.4c0-2.2,2-3.7,4.6-3.7
					C515.9,457.6,517.5,459.3,517.9,460.8z"/>
				<path id="XMLID_6916_" class="st7" d="M534.1,460.8c0.1,0.3-0.1,0.5-0.4,0.5h-1.6c-0.2,0-0.4-0.1-0.5-0.3
					c-0.5-0.7-1.3-1.1-2.4-1.1c-1.2,0-1.9,0.6-1.9,1.3c0,0.6,0.7,0.9,2.4,1.4l0.9,0.3c2.8,0.8,3.9,1.9,3.9,3.5
					c0,2.3-1.9,3.8-4.8,3.8c-3,0-4.6-1.6-5.2-3.4c-0.1-0.3,0.1-0.5,0.4-0.5h1.8c0.2,0,0.4,0.1,0.5,0.3c0.6,1,1.5,1.3,2.7,1.3
					c1.3,0,2-0.4,2-1.3c0-0.7-0.6-1.1-2.4-1.7l-0.9-0.2c-2.2-0.6-3.8-1.5-3.8-3.4c0-2.2,2-3.7,4.6-3.7
					C532.1,457.6,533.7,459.3,534.1,460.8z"/>
				<path id="XMLID_6913_" class="st7" d="M539.6,469.3c0,0.3-0.2,0.4-0.4,0.4h-1.8c-0.3,0-0.4-0.2-0.4-0.4l0.1-10.9
					c0-0.3,0.2-0.4,0.4-0.4h1.7c0.3,0,0.4,0.2,0.4,0.4V469.3z M539.6,455.3c0,0.3-0.2,0.4-0.4,0.4h-1.7c-0.3,0-0.4-0.2-0.4-0.4v-1.7
					c0-0.3,0.2-0.4,0.4-0.4h1.7c0.3,0,0.4,0.2,0.4,0.4V455.3z"/>
				<path id="XMLID_6911_" class="st7" d="M552.9,469.2c0.2,0.3,0.1,0.5-0.3,0.5h-2c-0.2,0-0.4-0.1-0.5-0.3l-2.6-3.9l-2.6,3.9
					c-0.1,0.2-0.3,0.3-0.5,0.3h-1.9c-0.4,0-0.5-0.2-0.3-0.5l4-5.6l-3.4-5.1c-0.2-0.3-0.1-0.5,0.3-0.5h1.8c0.2,0,0.4,0.1,0.5,0.3
					l2.6,3.8l2.6-3.8c0.1-0.2,0.3-0.3,0.5-0.3h1.7c0.4,0,0.5,0.2,0.3,0.5l-3.8,5.5L552.9,469.2z"/>
				<path id="XMLID_6909_" class="st7" d="M576.5,462.1l0.1,7.2c0,0.3-0.2,0.4-0.4,0.4h-1.8c-0.3,0-0.4-0.2-0.4-0.4v-6.5
					c0-1.9-0.6-2.8-1.9-2.8c-1.5,0-2.7,1.3-2.5,4.1v5.2c0,0.3-0.2,0.4-0.4,0.4h-1.8c-0.3,0-0.4-0.2-0.4-0.4v-6.5
					c0-1.9-0.7-2.8-1.9-2.8c-1.3,0-2.7,1.1-2.5,4.1v5.2c0,0.3-0.2,0.4-0.4,0.4h-1.8c-0.3,0-0.4-0.2-0.4-0.4l0.1-10.9
					c0-0.3,0.2-0.4,0.4-0.4h1.7c0.3,0,0.4,0.2,0.4,0.4v1.2h0.1c0.9-1.2,2-2,3.3-2c1.4,0,2.5,0.7,3.1,2.2h0.2c1-1.4,2.1-2.2,3.6-2.2
					C575,457.6,576.5,459.2,576.5,462.1z"/>
				<path id="XMLID_6906_" class="st7" d="M590.3,463.7c0,3.7-2.5,6.4-5.9,6.4c-3.2,0-5.7-2.6-5.7-6.2c0-3.7,2.5-6.3,5.9-6.3
					C587.9,457.6,590.3,460,590.3,463.7z M581.4,463.6c0,2.5,1.5,4.1,3.3,4.1c1.7,0,3-1.5,3-3.8c0-2.6-1.5-4.1-3.3-4.1
					S581.4,461.3,581.4,463.6z"/>
				<path id="XMLID_6904_" class="st7" d="M602.8,462.1v7.2c0,0.3-0.2,0.4-0.4,0.4h-1.8c-0.3,0-0.4-0.2-0.4-0.4v-6.5
					c0-1.8-0.8-2.8-2.1-2.8c-1.6,0-2.8,1.3-2.7,4.1v5.2c0,0.3-0.2,0.4-0.4,0.4h-1.8c-0.3,0-0.4-0.2-0.4-0.4l0.1-10.9
					c0-0.3,0.2-0.4,0.4-0.4h1.7c0.3,0,0.4,0.2,0.4,0.4v1.2h0.2c0.9-1.3,2-2,3.4-2C601.2,457.6,602.8,459.2,602.8,462.1z"/>
				<path id="XMLID_6902_" class="st7" d="M611.9,459.6c0,0.3-0.2,0.4-0.4,0.4h-1.9v9.2c0,0.3-0.2,0.4-0.4,0.4h-1.8
					c-0.3,0-0.4-0.2-0.4-0.4V460h-1.6c-0.3,0-0.4-0.2-0.4-0.4v-1.3c0-0.3,0.2-0.4,0.4-0.4h1.6v-4c0-0.3,0.2-0.4,0.4-0.4h1.7
					c0.3,0,0.4,0.2,0.4,0.4v4h1.9c0.3,0,0.4,0.2,0.4,0.4L611.9,459.6L611.9,459.6z"/>
				<path id="XMLID_6900_" class="st7" d="M616.7,459.5c0.8-1.3,2-1.8,3.3-1.8c2.3,0,3.8,1.6,3.8,4.4v7.2c0,0.3-0.2,0.4-0.4,0.4
					h-1.8c-0.3,0-0.4-0.2-0.4-0.4l0.1-6.5c0-1.8-0.8-2.6-2.1-2.6c-1.6,0-2.8,1.2-2.7,3.9v5.2c0,0.3-0.2,0.4-0.4,0.4h-1.8
					c-0.3,0-0.4-0.2-0.4-0.4l0.1-15.7c0-0.3,0.2-0.4,0.4-0.4h1.7c0.3,0,0.4,0.2,0.4,0.4v5.9H616.7L616.7,459.5z"/>
				<path id="XMLID_6898_" class="st7" d="M636.2,460.8c0.1,0.3-0.1,0.5-0.4,0.5h-1.6c-0.2,0-0.4-0.1-0.5-0.3
					c-0.5-0.7-1.3-1.1-2.4-1.1c-1.2,0-1.9,0.6-1.9,1.3c0,0.6,0.7,0.9,2.4,1.4l0.9,0.3c2.8,0.8,3.9,1.9,3.9,3.5
					c0,2.3-1.9,3.8-4.8,3.8c-3,0-4.6-1.6-5.2-3.4c-0.1-0.3,0.1-0.5,0.4-0.5h1.8c0.2,0,0.4,0.1,0.5,0.3c0.6,1,1.5,1.3,2.7,1.3
					c1.3,0,2-0.4,2-1.3c0-0.7-0.6-1.1-2.4-1.7l-0.9-0.2c-2.2-0.6-3.8-1.5-3.8-3.4c0-2.2,2-3.7,4.6-3.7
					C634.2,457.6,635.8,459.3,636.2,460.8z"/>
				<path id="XMLID_6896_" class="st7" d="M649.2,459.6c0,0.3-0.2,0.4-0.4,0.4h-1.9v9.2c0,0.3-0.2,0.4-0.4,0.4h-1.8
					c-0.3,0-0.4-0.2-0.4-0.4V460h-1.6c-0.3,0-0.4-0.2-0.4-0.4v-1.3c0-0.3,0.2-0.4,0.4-0.4h1.6v-4c0-0.3,0.2-0.4,0.4-0.4h1.7
					c0.3,0,0.4,0.2,0.4,0.4v4h1.9c0.3,0,0.4,0.2,0.4,0.4L649.2,459.6L649.2,459.6z"/>
				<path id="XMLID_6893_" class="st7" d="M662,463.7c0,3.7-2.5,6.4-5.9,6.4c-3.2,0-5.7-2.6-5.7-6.2c0-3.7,2.5-6.3,5.9-6.3
					C659.6,457.6,662,460,662,463.7z M653.1,463.6c0,2.5,1.5,4.1,3.3,4.1c1.7,0,3-1.5,3-3.8c0-2.6-1.5-4.1-3.3-4.1
					C654.4,459.8,653.1,461.3,653.1,463.6z"/>
				<path id="XMLID_6891_" class="st7" d="M671.8,469.3c0,0.3-0.2,0.4-0.4,0.4h-1.8c-0.3,0-0.4-0.2-0.4-0.4l0.1-15.7
					c0-0.3,0.2-0.4,0.4-0.4h1.7c0.3,0,0.4,0.2,0.4,0.4V469.3z"/>
				<path id="XMLID_6888_" class="st7" d="M685.5,464c0,0.3-0.2,0.4-0.5,0.4h-7.9c0.1,2.4,1.5,3.4,3.3,3.4c1,0,1.7-0.4,2.3-1.3
					c0.1-0.2,0.3-0.3,0.5-0.3h1.6c0.3,0,0.5,0.2,0.4,0.5c-0.9,2.2-2.8,3.3-5,3.3c-3.3,0-5.6-2.4-5.6-6.2c0-3.7,2.3-6.4,5.8-6.4
					C684,457.5,685.7,460.4,685.5,464z M677.3,462.4h5.6c0-1.3-0.9-2.6-2.7-2.6C678.3,459.8,677.6,461.1,677.3,462.4z"/>
				<path id="XMLID_6885_" class="st7" d="M697.5,461.8l0.1,7.5c0,0.3-0.2,0.4-0.4,0.4h-1.8c-0.3,0-0.4-0.2-0.4-0.4V468h-0.2
					c-0.8,1.2-2.2,2-4,2c-2.1,0-3.6-1.2-3.6-3.3c0-2.5,1.9-3.6,6.3-4.1c1-0.1,1.5-0.5,1.5-1.2c0-0.9-0.9-1.6-2.3-1.6
					c-1.2,0-1.9,0.5-2.3,1.3c-0.1,0.2-0.3,0.4-0.5,0.4h-1.6c-0.3,0-0.5-0.2-0.4-0.4c0.5-2.1,2.2-3.5,5-3.5
					C695.6,457.6,697.5,459.1,697.5,461.8z M694.8,464.1c-0.4,0.1-1,0.3-1.5,0.4c-2.2,0.4-3.5,0.8-3.5,2c0,0.8,0.5,1.3,1.7,1.3
					c2.2,0,3.6-1.7,3.5-2.9v-0.6L694.8,464.1z"/>
				<path id="XMLID_6883_" class="st7" d="M707,459.9c0,0.3-0.2,0.4-0.4,0.4c-2,0.1-3.5,0.7-3.3,3.7v5.3c0,0.3-0.2,0.4-0.4,0.4h-1.8
					c-0.3,0-0.4-0.2-0.4-0.4l0.1-10.9c0-0.3,0.2-0.4,0.4-0.4h1.7c0.3,0,0.4,0.2,0.4,0.4v1.1h0.2c0.8-1.1,2-1.8,3.2-1.9
					c0.3,0,0.5,0.1,0.5,0.4v1.9H707z"/>
				<path id="XMLID_6881_" class="st7" d="M719.1,462.1v7.2c0,0.3-0.2,0.4-0.4,0.4h-1.8c-0.3,0-0.4-0.2-0.4-0.4v-6.5
					c0-1.8-0.8-2.8-2.1-2.8c-1.6,0-2.8,1.3-2.7,4.1v5.2c0,0.3-0.2,0.4-0.4,0.4h-1.9c-0.3,0-0.4-0.2-0.4-0.4l0.1-10.9
					c0-0.3,0.2-0.4,0.4-0.4h1.7c0.3,0,0.4,0.2,0.4,0.4v1.2h0.2c0.9-1.3,2-2,3.4-2C717.5,457.6,719.1,459.2,719.1,462.1z"/>
				<path id="XMLID_6879_" class="st7" d="M503.6,485.9c0.8-1.3,2-1.8,3.3-1.8c2.3,0,3.8,1.6,3.8,4.4v7.2c0,0.3-0.2,0.4-0.4,0.4
					h-1.8c-0.3,0-0.4-0.2-0.4-0.4l0.1-6.5c0-1.8-0.8-2.6-2.1-2.6c-1.6,0-2.8,1.2-2.7,3.9v5.2c0,0.3-0.2,0.4-0.4,0.4h-1.8
					c-0.3,0-0.4-0.2-0.4-0.4l0.1-15.7c0-0.3,0.2-0.4,0.4-0.4h1.7c0.3,0,0.4,0.2,0.4,0.4v5.9H503.6L503.6,485.9z"/>
				<path id="XMLID_6876_" class="st7" d="M524.6,490.1c0,3.7-2.5,6.4-5.9,6.4c-3.2,0-5.7-2.6-5.7-6.2c0-3.7,2.5-6.3,5.9-6.3
					C522.2,484,524.6,486.4,524.6,490.1z M515.7,490c0,2.5,1.5,4.1,3.3,4.1c1.7,0,3-1.5,3-3.8c0-2.6-1.5-4.1-3.3-4.1
					S515.7,487.7,515.7,490z"/>
				<path id="XMLID_6874_" class="st7" d="M541.8,484.3c0.3,0,0.5,0.2,0.4,0.5l-2.9,11c-0.1,0.2-0.2,0.4-0.5,0.4h-2.5
					c-0.3,0-0.4-0.1-0.5-0.4l-1.7-6.5h-0.2l-1.7,6.5c-0.1,0.2-0.2,0.4-0.5,0.4h-2.3c-0.3,0-0.4-0.1-0.5-0.4l-2.9-11
					c-0.1-0.3,0.1-0.5,0.4-0.5h1.6c0.3,0,0.4,0.1,0.5,0.4l2.1,8.7h0.3l2.1-8.7c0.1-0.2,0.2-0.4,0.5-0.4h1.4c0.3,0,0.4,0.1,0.5,0.4
					l2.1,8.7h0.3l2.1-8.7c0.1-0.2,0.2-0.4,0.5-0.4H541.8z"/>
				<path id="XMLID_6872_" class="st7" d="M554.7,486c0,0.3-0.2,0.4-0.4,0.4h-1.9v9.2c0,0.3-0.2,0.4-0.4,0.4h-1.8
					c-0.3,0-0.4-0.2-0.4-0.4v-9.2h-1.6c-0.3,0-0.4-0.2-0.4-0.4v-1.3c0-0.3,0.2-0.4,0.4-0.4h1.6v-4c0-0.3,0.2-0.4,0.4-0.4h1.7
					c0.3,0,0.4,0.2,0.4,0.4v4h1.9c0.3,0,0.4,0.2,0.4,0.4L554.7,486L554.7,486z"/>
				<path id="XMLID_6869_" class="st7" d="M567.5,490.1c0,3.7-2.5,6.4-5.9,6.4c-3.2,0-5.7-2.6-5.7-6.2c0-3.7,2.5-6.3,5.9-6.3
					C565.1,484,567.5,486.4,567.5,490.1z M558.6,490c0,2.5,1.5,4.1,3.3,4.1c1.7,0,3-1.5,3-3.8c0-2.6-1.5-4.1-3.3-4.1
					S558.6,487.7,558.6,490z"/>
				<path id="XMLID_6867_" class="st7" d="M584.2,487.6c0.1,0.3-0.1,0.5-0.4,0.5h-1.6c-0.2,0-0.4-0.1-0.5-0.3
					c-0.6-1-1.3-1.5-2.6-1.5c-1.8,0-3,1-3,4.1c0,2.9,1.2,3.9,3.1,3.9c1.3,0,1.9-0.6,2.3-1.3c0.1-0.2,0.3-0.3,0.5-0.3h1.6
					c0.3,0,0.5,0.2,0.4,0.5c-0.6,1.7-2.3,3.5-5,3.5c-3.3,0-5.5-2.4-5.5-6.1c0-4,2.3-6.4,5.6-6.4
					C581.9,483.9,583.7,485.8,584.2,487.6z"/>
				<path id="XMLID_6864_" class="st7" d="M595.7,488.2l0.1,7.5c0,0.3-0.2,0.4-0.4,0.4h-1.7c-0.3,0-0.4-0.2-0.4-0.4v-1.3h-0.2
					c-0.8,1.2-2.2,2-4,2c-2.1,0-3.6-1.2-3.6-3.3c0-2.5,1.9-3.6,6.3-4.1c1-0.1,1.5-0.5,1.5-1.2c0-0.9-0.9-1.6-2.3-1.6
					c-1.2,0-1.9,0.5-2.3,1.3c-0.1,0.2-0.3,0.4-0.5,0.4h-1.6c-0.3,0-0.5-0.2-0.4-0.4c0.5-2.1,2.2-3.5,5-3.5
					C593.9,484,595.7,485.5,595.7,488.2z M593.1,490.5c-0.4,0.1-1,0.3-1.5,0.4c-2.2,0.4-3.5,0.8-3.5,2c0,0.8,0.5,1.3,1.7,1.3
					c2.2,0,3.6-1.7,3.5-2.9v-0.6L593.1,490.5z"/>
				<path id="XMLID_6862_" class="st7" d="M605.3,486.3c0,0.3-0.2,0.4-0.4,0.4c-2,0.1-3.5,0.7-3.3,3.7v5.3c0,0.3-0.2,0.4-0.4,0.4
					h-1.8c-0.3,0-0.4-0.2-0.4-0.4l0.1-10.9c0-0.3,0.2-0.4,0.4-0.4h1.7c0.3,0,0.4,0.2,0.4,0.4v1.1h0.2c0.8-1.1,2-1.8,3.2-1.9
					c0.3,0,0.5,0.1,0.5,0.4v1.9H605.3z"/>
				<path id="XMLID_6860_" class="st7" d="M613.7,486.3c0,0.3-0.2,0.4-0.4,0.4c-2,0.1-3.5,0.7-3.3,3.7v5.3c0,0.3-0.2,0.4-0.4,0.4
					h-1.8c-0.3,0-0.4-0.2-0.4-0.4l0.1-10.9c0-0.3,0.2-0.4,0.4-0.4h1.7c0.3,0,0.4,0.2,0.4,0.4v1.1h0.2c0.8-1.1,2-1.8,3.2-1.9
					c0.3,0,0.5,0.1,0.5,0.4v1.9H613.7z"/>
				<path id="XMLID_6858_" class="st7" d="M625.5,484.3c0.3,0,0.5,0.2,0.4,0.5l-5.4,15.8c-0.1,0.2-0.2,0.4-0.5,0.4h-1.9
					c-0.3,0-0.5-0.2-0.4-0.5l1.3-3.7l-4.2-12c-0.1-0.3,0-0.5,0.4-0.5h1.6c0.2,0,0.4,0.1,0.5,0.4l2.9,8.6h0.2l3.1-8.6
					c0.1-0.2,0.2-0.4,0.5-0.4H625.5z"/>
				<path id="XMLID_6856_" class="st7" d="M638.3,486c0,0.3-0.2,0.4-0.4,0.4H636v9.2c0,0.3-0.2,0.4-0.4,0.4h-1.8
					c-0.3,0-0.4-0.2-0.4-0.4v-9.2h-1.6c-0.3,0-0.4-0.2-0.4-0.4v-1.3c0-0.3,0.2-0.4,0.4-0.4h1.6v-4c0-0.3,0.2-0.4,0.4-0.4h1.7
					c0.3,0,0.4,0.2,0.4,0.4v4h1.9c0.3,0,0.4,0.2,0.4,0.4L638.3,486L638.3,486z"/>
				<path id="XMLID_6854_" class="st7" d="M643.2,485.9c0.8-1.3,2-1.8,3.3-1.8c2.3,0,3.8,1.6,3.8,4.4v7.2c0,0.3-0.2,0.4-0.4,0.4
					h-1.8c-0.3,0-0.4-0.2-0.4-0.4l0.1-6.5c0-1.8-0.8-2.6-2.1-2.6c-1.6,0-2.8,1.2-2.7,3.9v5.2c0,0.3-0.2,0.4-0.4,0.4h-1.8
					c-0.3,0-0.4-0.2-0.4-0.4l0.1-15.7c0-0.3,0.2-0.4,0.4-0.4h1.7c0.3,0,0.4,0.2,0.4,0.4v5.9H643.2L643.2,485.9z"/>
				<path id="XMLID_6851_" class="st7" d="M663.7,490.4c0,0.3-0.2,0.4-0.5,0.4h-7.9c0.1,2.4,1.5,3.4,3.3,3.4c1,0,1.7-0.4,2.3-1.3
					c0.1-0.2,0.3-0.3,0.5-0.3h1.6c0.3,0,0.5,0.2,0.4,0.5c-0.9,2.2-2.8,3.3-5,3.3c-3.3,0-5.6-2.4-5.6-6.2c0-3.7,2.3-6.4,5.8-6.4
					C662.2,483.9,663.9,486.8,663.7,490.4z M655.4,488.8h5.6c0-1.3-0.9-2.6-2.7-2.6S655.7,487.5,655.4,488.8z"/>
				<path id="XMLID_6849_" class="st7" d="M682.7,488.5l0.1,7.2c0,0.3-0.2,0.4-0.4,0.4h-1.8c-0.3,0-0.4-0.2-0.4-0.4v-6.5
					c0-1.9-0.6-2.8-1.9-2.8c-1.5,0-2.7,1.3-2.5,4.1v5.2c0,0.3-0.2,0.4-0.4,0.4h-1.8c-0.3,0-0.4-0.2-0.4-0.4v-6.5
					c0-1.9-0.7-2.8-1.9-2.8c-1.3,0-2.7,1.1-2.5,4.1v5.2c0,0.3-0.2,0.4-0.4,0.4h-2c-0.3,0-0.4-0.2-0.4-0.4l0.1-10.9
					c0-0.3,0.2-0.4,0.4-0.4h1.7c0.3,0,0.4,0.2,0.4,0.4v1.2h0.1c0.9-1.2,2-2,3.3-2c1.4,0,2.5,0.7,3.1,2.2h0.2c1-1.4,2.1-2.2,3.6-2.2
					C681.3,484,682.7,485.6,682.7,488.5z"/>
				<path id="XMLID_6847_" class="st7" d="M689.3,495.7c0,0.3-0.2,0.4-0.4,0.4h-2c-0.3,0-0.4-0.2-0.4-0.4v-1.8
					c0-0.3,0.2-0.4,0.4-0.4h2c0.3,0,0.4,0.2,0.4,0.4V495.7z"/>
			</g>
		</g>
	</g>
	<g id="owlLine_1_">
		<line id="XMLID_1_" class="st0" x1="423.4" y1="520.9" x2="819.4" y2="520.9"/>
	</g>
</g>
</svg>
