<?xml version="1.0" encoding="utf-8"?>
<!-- Generator: Adobe Illustrator 19.0.0, SVG Export Plug-In . SVG Version: 6.00 Build 0)  -->
<svg version="1.1" id="box2" xmlns="http://www.w3.org/2000/svg" xmlns:xlink="http://www.w3.org/1999/xlink" x="0px" y="0px"
	 viewBox="69 212 750 369" style="enable-background:new 69 212 750 369;" xml:space="preserve">
<style type="text/css">
	.st0{fill:none;stroke:#4760F0;stroke-width:2;stroke-miterlimit:10;}
	.st1{fill:#FFFFFF;}
	.st2{fill:#FCB94D;}
	.st3{fill:#FCC478;}
	.st4{fill:#EC1C24;}
	.st5{fill:#FFD9A1;}
	.st6{fill:#232323;}
	.st7{fill:#4760F0;}
</style>
<g id="owlLine">
	<line id="XMLID_9_" class="st0" x1="561" y1="945.7" x2="957" y2="945.7"/>
</g>
<g>
	<g id="owlBg">
		<rect id="XMLID_537_" x="68.8" y="212.8" class="st1" width="750.4" height="367.5"/>
	</g>
	<g id="owlLetters">
		<g id="XMLID_248_">
			<path id="XMLID_456_" class="st2" d="M750.3,343.9C750.3,343.9,750.2,343.9,750.3,343.9c-0.1,0-0.1,0-0.2,0
				c-0.2,0-0.4,0.1-0.6,0.1l0,0c-1,0-3.2-0.4-6.5-1.2c-0.1,2.3-0.5,5.9-1,9.6c8.1,0.8,16.6,1.4,20.3,1.4c-2.6-4.1-7-10.9-9.4-14.1
				C751.1,343.5,750.7,343.6,750.3,343.9z"/>
			<path id="XMLID_440_" class="st3" d="M665.1,324.9c-2.5-0.3-4.9-0.5-7.1-0.7c-12.6-1.2-15.9-1.6-15.9-4l0,0c0-0.1,0-0.1,0-0.2
				l0,0c0.2-0.8,0.8-3.7,1.7-7.8c1.7-7.7,3.2-14.5,4.5-20.4c-2.4,0-8.1-0.1-13.6,0c-0.3,7.8-2.3,53.2-2.2,66.1
				C638.3,351.5,654.6,333.8,665.1,324.9z"/>
			<path id="XMLID_391_" class="st2" d="M754.2,337.1c2.4,2.9,7.7,11.2,10.1,15c2.6-8.7,10-43.4,12.9-57.4c0.9-4.3,1.5-7.2,1.9-8.7
				c-1.1-0.1-2.7-0.3-4.2-0.3c-2.6,6.8-6.4,16.5-9.9,25.5C759.6,324.8,756.3,332.5,754.2,337.1z"/>
			<path id="XMLID_382_" class="st3" d="M711.6,334.3c-4.8-1.3-9.6-2.6-14.4-3.9c-0.1,1.5-0.6,2.9-1.7,4.1c-1.2,1.3-3.8,3.2-9.1,3.2
				c-1.3,0-2.8-0.1-4.4-0.4c-3.7-0.6-6.4-2.2-8-4.6c-1.6-2.5-1.7-5.3-1.5-6.9c-1.3-0.2-2.6-0.3-3.8-0.5
				c-10.2,8.1-28.6,28.2-34.4,34.5c15.1,0.7,87.3,4.1,102.4,5C732.2,358.6,719.5,341.5,711.6,334.3z"/>
			<path id="XMLID_380_" class="st3" d="M720.5,336.6c-1.3-0.4-2.7-0.7-4.1-1.1c7.8,8.2,17.8,21.7,21.8,27.3
				c0.7-5.4,2.2-16.4,2.4-20.7C735.8,340.9,729.1,339,720.5,336.6z"/>
			<path id="XMLID_292_" class="st4" d="M676,331.4c1.2,1.8,3.3,3,6.3,3.5c5.3,0.8,9.4,0.1,11.3-2c0.8-0.9,1.2-2,1.1-3.1
				c-6.5-1.7-13.4-2.8-19.9-3.7C674.7,327.3,674.8,329.5,676,331.4z"/>
			<path id="XMLID_455_" class="st5" d="M645.4,316.8c8.3-7.2,32.3-27.9,42.6-34.3c-9.5-9.6-23.3-25.6-27.3-30.3
				c-2.9,7.7-11.4,46.9-14.4,60.4C646,314.3,645.6,315.6,645.4,316.8z"/>
			<path id="XMLID_441_" class="st5" d="M695.8,286.5c2.4-1.6,5.5-2.6,9.4-2.6c5.7,0.1,9.3,3.1,10.9,6.9c1.8-0.2,4.6-0.7,8-1.5l0,0
				c15.3-3.3,42.8-10.8,50.3-12.9c-7.2-4.2-45.2-16.3-111-24.6C669.8,259,688.7,280.8,695.8,286.5z"/>
			<path id="XMLID_437_" class="st5" d="M750.1,340.1c0.4-0.8,0.9-1.8,1.5-3.1c0-0.1,0.1-0.2,0.1-0.2c5.1-11.3,16-39,21.2-52.5
				c0-0.1,0.1-0.2,0.1-0.4c0.8-2.1,1.4-3.8,1.9-5.1c-7.7,2.1-33,9-48.6,12.5C732,301,746.3,331.9,750.1,340.1z"/>
			<path id="XMLID_436_" class="st4" d="M701.9,303.8c1.1,0.2,2.2,0.3,3.3,0.3l0,0c6.4,0,9.3-4.5,9.4-8.7c0-4.3-2.9-8.9-9.4-9.1
				c-3.6,0-6.5,1.1-8.5,2.6c0,0-0.1,0-0.1,0.1c-2,1.6-3.2,3.7-3.4,5.8C692.8,298.1,694.9,302.3,701.9,303.8z"/>
			<path id="XMLID_254_" class="st5" d="M721.1,334.3c11.4,3.2,22.3,6.2,26.7,7c-3.8-8.3-18.9-40.8-24.1-49.4
				c-2.8,0.6-5.2,1-6.9,1.3c0.1,0.8,0.2,1.5,0.2,2.3c-0.1,5.5-4.2,11.2-11.9,11.2l0,0c-1.2,0-2.5-0.1-3.8-0.4
				c-8.6-1.8-11.2-7.4-10.8-11.7c0.2-2.3,1.3-4.6,3.2-6.5c-1.1-1-2.5-2.2-4.1-3.7c-10.3,6.2-38.3,30.5-44.4,35.8
				c2.2,0.6,7.6,1.1,12.9,1.6c3.1,0.3,6.4,0.6,10,1l0,0c8.7,1,18.5,2.3,27.8,4.8C704.4,329.6,713.3,332.1,721.1,334.3z"/>
		</g>
	</g>
	<g id="owlText">
		<g id="XMLID_5208_">
			<path id="XMLID_5209_" class="st6" d="M128.5,274.1c0,4.3-2.8,7.4-6.6,7.4c-3.7,0-6.4-3-6.4-7.1c0-4.2,2.8-7.1,6.6-7.1
				C125.9,267.3,128.5,270,128.5,274.1z M117.3,274.3c0,3.5,2,5.8,4.8,5.8c2.7,0,4.8-2.2,4.8-5.7s-2.1-5.6-4.8-5.6
				C119.3,268.8,117.3,270.8,117.3,274.3z"/>
			<path id="XMLID_5212_" class="st6" d="M139,274.6v6.3c0,0.2-0.1,0.3-0.3,0.3h-1.1c-0.2,0-0.3-0.1-0.3-0.3V275
				c0-1.7-0.8-2.5-2.1-2.5c-1.4,0-2.5,1-2.7,3.1v5.4c0,0.2-0.1,0.3-0.3,0.3h-1.1c-0.2,0-0.3-0.1-0.3-0.3l0.1-9.5
				c0-0.2,0.1-0.3,0.3-0.3h1c0.2,0,0.3,0.1,0.3,0.3v1.2h0.1c0.8-1.1,1.8-1.7,3.2-1.7C137.8,271,139,272.3,139,274.6z"/>
			<path id="XMLID_5214_" class="st6" d="M150.6,272.3c0,0.2-0.1,0.3-0.3,0.3h-1.8v8.4c0,0.2-0.1,0.3-0.3,0.3h-1.1
				c-0.2,0-0.3-0.1-0.3-0.3v-8.4h-1.5c-0.2,0-0.3-0.1-0.3-0.3v-0.8c0-0.2,0.1-0.3,0.3-0.3h1.5v-3.6c0-0.2,0.1-0.3,0.3-0.3h1
				c0.2,0,0.3,0.1,0.3,0.3v3.6h1.9c0.2,0,0.3,0.1,0.3,0.3L150.6,272.3L150.6,272.3z"/>
			<path id="XMLID_5216_" class="st6" d="M154.3,272.8c0.7-1,1.8-1.7,3.1-1.7c1.9,0,3.1,1.3,3.2,3.6v6.3c0,0.2-0.1,0.3-0.3,0.3h-1.1
				c-0.2,0-0.3-0.1-0.3-0.3V275c0-1.6-0.8-2.4-2-2.4c-1.4,0-2.5,1-2.7,3v5.4c0,0.2-0.1,0.3-0.3,0.3h-1.1c-0.2,0-0.3-0.1-0.3-0.3
				l0.1-13.6c0-0.2,0.1-0.3,0.3-0.3h1c0.2,0,0.3,0.1,0.3,0.3L154.3,272.8L154.3,272.8z"/>
			<path id="XMLID_5218_" class="st6" d="M172,276.1c0,0.2-0.1,0.3-0.3,0.3h-7.1c0,2.2,1.2,3.6,3.1,3.6c1.1,0,1.9-0.4,2.4-1.3
				c0.1-0.2,0.2-0.2,0.4-0.2h1c0.2,0,0.3,0.2,0.2,0.4c-0.8,1.7-2.3,2.7-4.1,2.7c-2.8,0-4.7-2.1-4.7-5.2c0-3.2,2-5.3,4.8-5.3
				C170.6,271,172,273.3,172,276.1z M164.6,275.1h5.6c-0.1-1.5-1-2.7-2.8-2.7C165.8,272.5,164.9,273.6,164.6,275.1z"/>
			<path id="XMLID_5221_" class="st6" d="M183.4,268.3c0,0.2-0.1,0.3-0.3,0.3c-1.7,0-2.5,0.3-2.5,2.3v0.3h2.4c0.2,0,0.3,0.1,0.3,0.3
				v0.8c0,0.2-0.1,0.3-0.3,0.3h-2.4l0.1,8.4c0,0.2-0.1,0.3-0.3,0.3h-1.2c-0.2,0-0.3-0.1-0.3-0.3l0.1-8.4h-1.3
				c-0.2,0-0.3-0.1-0.3-0.3v-0.8c0-0.2,0.1-0.3,0.3-0.3h1.3v-0.2c0-3.2,1.7-4,4.1-3.9c0.2,0,0.3,0.1,0.3,0.3L183.4,268.3
				L183.4,268.3z"/>
			<path id="XMLID_5223_" class="st6" d="M187.1,281c0,0.2-0.1,0.3-0.3,0.3h-1.1c-0.2,0-0.3-0.1-0.3-0.3l0.1-9.5
				c0-0.2,0.1-0.3,0.3-0.3h1c0.2,0,0.3,0.1,0.3,0.3V281z M187.1,268.8c0,0.2-0.1,0.3-0.3,0.3h-1c-0.2,0-0.3-0.1-0.3-0.3v-1.3
				c0-0.2,0.1-0.3,0.3-0.3h1c0.2,0,0.3,0.1,0.3,0.3V268.8z"/>
			<path id="XMLID_5226_" class="st6" d="M195.3,272.5c0,0.2-0.1,0.3-0.3,0.3c-1.7,0.1-2.9,0.7-3.1,3v5.2c0,0.2-0.1,0.3-0.3,0.3
				h-1.1c-0.2,0-0.3-0.1-0.3-0.3l0.1-9.5c0-0.2,0.1-0.3,0.3-0.3h1c0.2,0,0.3,0.1,0.3,0.3v1.3h0.1c0.7-1,1.7-1.7,3-1.8
				c0.2,0,0.3,0.1,0.3,0.3V272.5z"/>
			<path id="XMLID_5228_" class="st6" d="M204.5,273.5c0.1,0.2,0,0.3-0.2,0.3h-1c-0.2,0-0.3-0.1-0.4-0.2c-0.5-0.7-1.2-1.2-2.4-1.2
				s-2,0.6-2,1.4s0.8,1.1,2.2,1.5l0.8,0.2c2.3,0.7,3.2,1.6,3.2,2.9c0,1.9-1.5,3-3.9,3c-2.3,0-3.7-1.2-4.3-2.8
				c-0.1-0.2,0-0.3,0.2-0.3h1.1c0.2,0,0.3,0.1,0.4,0.2c0.5,1,1.4,1.4,2.6,1.4c1.2,0,2.1-0.4,2.1-1.4c0-0.8-0.7-1.3-2.3-1.7l-0.8-0.2
				c-1.8-0.5-3.1-1.2-3.1-2.8c0-1.7,1.6-2.9,3.7-2.9C202.9,271,204.1,272.3,204.5,273.5z"/>
			<path id="XMLID_5230_" class="st6" d="M211.8,272.3c0,0.2-0.1,0.3-0.3,0.3h-1.8v8.4c0,0.2-0.1,0.3-0.3,0.3h-1.2
				c-0.2,0-0.3-0.1-0.3-0.3v-8.4h-1.5c-0.2,0-0.3-0.1-0.3-0.3v-0.8c0-0.2,0.1-0.3,0.3-0.3h1.5v-3.6c0-0.2,0.1-0.3,0.3-0.3h1
				c0.2,0,0.3,0.1,0.3,0.3v3.6h1.9c0.2,0,0.3,0.1,0.3,0.3v0.8H211.8z"/>
			<path id="XMLID_5232_" class="st6" d="M231.2,274.6v6.3c0,0.2-0.1,0.3-0.3,0.3h-1.1c-0.2,0-0.3-0.1-0.3-0.3V275
				c0-1.7-0.7-2.5-1.8-2.5c-1.3,0-2.4,1-2.5,3.1v5.3c0,0.2-0.1,0.3-0.3,0.3h-1.1c-0.2,0-0.3-0.1-0.3-0.3V275c0-1.7-0.7-2.5-1.8-2.5
				c-1.3,0-2.4,0.9-2.6,3.1v5.4c0,0.2-0.1,0.3-0.3,0.3h-1.1c-0.2,0-0.3-0.1-0.3-0.3l0.1-9.5c0-0.2,0.1-0.3,0.3-0.3h1
				c0.2,0,0.3,0.1,0.3,0.3v1.2h0.1c0.8-1,1.8-1.7,3.1-1.7s2.2,0.6,2.6,1.9h0.1c0.8-1.2,1.8-1.9,3.2-1.9
				C230.1,271,231.2,272.3,231.2,274.6z"/>
			<path id="XMLID_5234_" class="st6" d="M242.9,276.1c0,3.1-2.1,5.4-4.8,5.4s-4.7-2.2-4.7-5.2c0-3.2,2.1-5.3,4.8-5.3
				C240.9,271,242.9,273,242.9,276.1z M235.1,276.1c0,2.4,1.4,3.9,3.2,3.9s3-1.5,3-3.7c0-2.4-1.4-3.9-3.2-3.9
				C236.3,272.5,235.1,273.9,235.1,276.1z"/>
			<path id="XMLID_5237_" class="st6" d="M249.9,281c-0.1,0.2-0.2,0.2-0.3,0.2h-1.7c-0.2,0-0.3-0.1-0.3-0.2l-3.2-9.5
				c-0.1-0.2,0-0.3,0.2-0.3h1c0.2,0,0.3,0.1,0.3,0.2l2.8,8h0.2l2.8-8c0.1-0.2,0.2-0.2,0.3-0.2h1c0.2,0,0.3,0.1,0.2,0.3L249.9,281z"
				/>
			<path id="XMLID_5239_" class="st6" d="M257,281c0,0.2-0.1,0.3-0.3,0.3h-1.1c-0.2,0-0.3-0.1-0.3-0.3l0.1-9.5
				c0-0.2,0.1-0.3,0.3-0.3h1c0.2,0,0.3,0.1,0.3,0.3V281z M257,268.8c0,0.2-0.1,0.3-0.3,0.3h-1c-0.2,0-0.3-0.1-0.3-0.3v-1.3
				c0-0.2,0.1-0.3,0.3-0.3h1c0.2,0,0.3,0.1,0.3,0.3V268.8z"/>
			<path id="XMLID_5242_" class="st6" d="M268.6,276.1c0,0.2-0.1,0.3-0.3,0.3h-7.1c0,2.2,1.2,3.6,3.1,3.6c1.1,0,1.9-0.4,2.4-1.3
				c0.1-0.2,0.2-0.2,0.4-0.2h1c0.2,0,0.3,0.2,0.2,0.4c-0.8,1.7-2.3,2.7-4.1,2.7c-2.8,0-4.7-2.1-4.7-5.2c0-3.2,2-5.3,4.8-5.3
				C267.2,271,268.7,273.3,268.6,276.1z M261.2,275.1h5.6c-0.1-1.5-1-2.7-2.8-2.7C262.4,272.5,261.5,273.6,261.2,275.1z"/>
			<path id="XMLID_5245_" class="st6" d="M273.6,280.8c0,1.7-0.4,2.6-1.2,3.5c-0.1,0.1-0.3,0.2-0.4,0.1l-0.1-0.1
				c-0.2-0.1-0.2-0.2-0.1-0.4c0.6-1,0.8-1.9,0.1-2.4c-0.1-0.1-0.2-0.2-0.2-0.4v-1.5c0-0.2,0.1-0.3,0.3-0.3h1.3
				c0.2,0,0.3,0.1,0.3,0.3L273.6,280.8L273.6,280.8z"/>
			<path id="XMLID_5247_" class="st6" d="M290.7,281.3c-0.2,0-0.3-0.1-0.3-0.3v-6.2h-7.5v6.2c0,0.2-0.1,0.3-0.3,0.3h-1.2
				c-0.2,0-0.3-0.1-0.3-0.3l0.1-13.2c0-0.2,0.1-0.3,0.3-0.3h1c0.2,0,0.3,0.1,0.3,0.3v5.5h7.6v-5.5c0-0.2,0.1-0.3,0.3-0.3h1.1
				c0.2,0,0.3,0.1,0.3,0.3l0.1,13.2c0,0.2-0.1,0.3-0.3,0.3H290.7z"/>
			<path id="XMLID_5249_" class="st6" d="M302.8,274.5l0.1,6.6c0,0.2-0.1,0.3-0.3,0.3h-1.1c-0.2,0-0.3-0.1-0.3-0.3v-1.3h-0.1
				c-0.7,1-1.9,1.8-3.5,1.8c-1.8,0-3.1-1-3.1-2.8c0-2.1,1.6-3,5.3-3.4c0.9-0.1,1.4-0.4,1.4-1.1c0-1-0.8-1.8-2.3-1.8
				c-1.2,0-2,0.5-2.3,1.4c-0.1,0.2-0.2,0.2-0.3,0.2h-1c-0.2,0-0.3-0.1-0.3-0.3c0.4-1.7,1.8-2.8,4-2.8
				C301.3,271,302.8,272.3,302.8,274.5z M301.1,276.3c-0.3,0.2-0.8,0.3-1.5,0.3c-2.3,0.3-3.5,0.8-3.5,2c0,1,0.7,1.5,1.8,1.5
				c1.9,0,3.2-1.3,3.3-2.4L301.1,276.3L301.1,276.3z"/>
			<path id="XMLID_5252_" class="st6" d="M310.8,272.5c0,0.2-0.1,0.3-0.3,0.3c-1.7,0.1-2.9,0.7-3.1,3v5.2c0,0.2-0.1,0.3-0.3,0.3H306
				c-0.2,0-0.3-0.1-0.3-0.3l0.1-9.5c0-0.2,0.1-0.3,0.3-0.3h1c0.2,0,0.3,0.1,0.3,0.3v1.3h0.1c0.7-1,1.7-1.7,3-1.8
				c0.2,0,0.3,0.1,0.3,0.3V272.5z"/>
			<path id="XMLID_5254_" class="st6" d="M317.7,272.5c0,0.2-0.1,0.3-0.3,0.3c-1.7,0.1-2.9,0.7-3.1,3v5.2c0,0.2-0.1,0.3-0.3,0.3
				h-1.1c-0.2,0-0.3-0.1-0.3-0.3l0.1-9.5c0-0.2,0.1-0.3,0.3-0.3h1c0.2,0,0.3,0.1,0.3,0.3v1.3h0.1c0.7-1,1.7-1.7,3-1.8
				c0.2,0,0.3,0.1,0.3,0.3V272.5z"/>
			<path id="XMLID_5256_" class="st6" d="M327.4,271.1c0.2,0,0.3,0.1,0.2,0.3l-4.8,13.7c-0.1,0.2-0.2,0.2-0.4,0.2h-1.1
				c-0.2,0-0.3-0.1-0.2-0.3l1.2-3.4l-3.6-10.2c-0.1-0.2,0-0.3,0.2-0.3h1c0.2,0,0.3,0.1,0.3,0.2l2.8,8h0.1l2.9-8
				c0.1-0.2,0.2-0.2,0.4-0.2L327.4,271.1L327.4,271.1z"/>
			<path id="XMLID_5258_" class="st6" d="M339.1,267.5c2.8,0,4.6,1.7,4.6,4.1c0,2.5-1.8,4.3-4.6,4.3h-3.9v5.1c0,0.2-0.1,0.3-0.3,0.3
				h-1.2c-0.2,0-0.3-0.1-0.3-0.3l0.1-13.2c0-0.2,0.1-0.3,0.3-0.3H339.1L339.1,267.5z M338.9,274.5c2,0,3.1-1,3.1-2.7
				s-1.2-2.8-3.1-2.8h-3.7v5.5H338.9z"/>
			<path id="XMLID_5261_" class="st6" d="M354.9,276.1c0,3.1-2.1,5.4-4.8,5.4c-2.7,0-4.7-2.2-4.7-5.2c0-3.2,2.1-5.3,4.8-5.3
				C352.9,271,354.9,273,354.9,276.1z M347,276.1c0,2.4,1.4,3.9,3.2,3.9c1.8,0,3-1.5,3-3.7c0-2.4-1.4-3.9-3.2-3.9
				C348.3,272.5,347,273.9,347,276.1z"/>
			<path id="XMLID_5264_" class="st6" d="M361.9,272.3c0,0.2-0.1,0.3-0.3,0.3h-1.8v8.4c0,0.2-0.1,0.3-0.3,0.3h-1.1
				c-0.2,0-0.3-0.1-0.3-0.3v-8.4h-1.5c-0.2,0-0.3-0.1-0.3-0.3v-0.8c0-0.2,0.1-0.3,0.3-0.3h1.5v-3.6c0-0.2,0.1-0.3,0.3-0.3h1
				c0.2,0,0.3,0.1,0.3,0.3v3.6h1.9c0.2,0,0.3,0.1,0.3,0.3L361.9,272.3L361.9,272.3z"/>
			<path id="XMLID_5266_" class="st6" d="M368.6,272.3c0,0.2-0.1,0.3-0.3,0.3h-1.8v8.4c0,0.2-0.1,0.3-0.3,0.3h-1.1
				c-0.2,0-0.3-0.1-0.3-0.3v-8.4h-1.5c-0.2,0-0.3-0.1-0.3-0.3v-0.8c0-0.2,0.1-0.3,0.3-0.3h1.5v-3.6c0-0.2,0.1-0.3,0.3-0.3h1
				c0.2,0,0.3,0.1,0.3,0.3v3.6h1.9c0.2,0,0.3,0.1,0.3,0.3V272.3z"/>
			<path id="XMLID_5268_" class="st6" d="M379,276.1c0,0.2-0.1,0.3-0.3,0.3h-7.1c0,2.2,1.2,3.6,3.1,3.6c1.1,0,1.9-0.4,2.4-1.3
				c0.1-0.2,0.2-0.2,0.4-0.2h1c0.2,0,0.3,0.2,0.2,0.4c-0.8,1.7-2.3,2.7-4.1,2.7c-2.8,0-4.7-2.1-4.7-5.2c0-3.2,2-5.3,4.8-5.3
				C377.6,271,379.1,273.3,379,276.1z M371.6,275.1h5.6c-0.1-1.5-1-2.7-2.8-2.7C372.8,272.5,371.9,273.6,371.6,275.1z"/>
			<path id="XMLID_5271_" class="st6" d="M386.3,272.5c0,0.2-0.1,0.3-0.3,0.3c-1.7,0.1-2.9,0.7-3.1,3v5.2c0,0.2-0.1,0.3-0.3,0.3
				h-1.1c-0.2,0-0.3-0.1-0.3-0.3l0.1-9.5c0-0.2,0.1-0.3,0.3-0.3h1c0.2,0,0.3,0.1,0.3,0.3v1.3h0.1c0.7-1,1.7-1.7,3-1.8
				c0.2,0,0.3,0.1,0.3,0.3V272.5z"/>
			<path id="XMLID_5273_" class="st6" d="M399.9,274.5l0.1,6.6c0,0.2-0.1,0.3-0.3,0.3h-1.1c-0.2,0-0.3-0.1-0.3-0.3v-1.3h-0.1
				c-0.7,1-1.9,1.8-3.5,1.8c-1.8,0-3.1-1-3.1-2.8c0-2.1,1.6-3,5.3-3.4c0.9-0.1,1.4-0.4,1.4-1.1c0-1-0.8-1.8-2.3-1.8
				c-1.2,0-2,0.5-2.3,1.4c-0.1,0.2-0.2,0.2-0.3,0.2h-1c-0.2,0-0.3-0.1-0.3-0.3c0.4-1.7,1.8-2.8,4-2.8
				C398.5,271,399.9,272.3,399.9,274.5z M398.2,276.3c-0.3,0.2-0.8,0.3-1.5,0.3c-2.3,0.3-3.5,0.8-3.5,2c0,1,0.7,1.5,1.8,1.5
				c1.9,0,3.2-1.3,3.3-2.4L398.2,276.3L398.2,276.3z"/>
			<path id="XMLID_5276_" class="st6" d="M411,274.6v6.3c0,0.2-0.1,0.3-0.3,0.3h-1.1c-0.2,0-0.3-0.1-0.3-0.3V275
				c0-1.7-0.8-2.5-2.1-2.5c-1.4,0-2.5,1-2.7,3.1v5.4c0,0.2-0.1,0.3-0.3,0.3h-1.1c-0.2,0-0.3-0.1-0.3-0.3l0.1-9.5
				c0-0.2,0.1-0.3,0.3-0.3h1c0.2,0,0.3,0.1,0.3,0.3v1.2h0.1c0.8-1.1,1.8-1.7,3.2-1.7C409.7,271,411,272.3,411,274.6z"/>
			<path id="XMLID_5278_" class="st6" d="M422.5,281c0,0.2-0.1,0.3-0.3,0.3h-1.1c-0.2,0-0.3-0.1-0.3-0.3v-1.1h-0.1
				c-0.7,1.1-1.9,1.7-3.2,1.7c-2.5,0-4.2-2.2-4.2-5.2c0-3.2,1.9-5.4,4.7-5.4c1.2,0,2.1,0.4,2.8,1.2h0.1v-4.8c0-0.2,0.1-0.3,0.3-0.3
				h1c0.2,0,0.3,0.1,0.3,0.3L422.5,281z M414.9,276.3c0,2.4,1.2,3.8,3,3.8c1.5,0,2.8-1.1,3-3.2v-1.3c-0.2-2.1-1.5-3.1-3-3.1
				C416,272.5,414.9,273.9,414.9,276.3z"/>
			<path id="XMLID_5281_" class="st6" d="M434.1,272.3c0,0.2-0.1,0.3-0.3,0.3H432v8.4c0,0.2-0.1,0.3-0.3,0.3h-1.1
				c-0.2,0-0.3-0.1-0.3-0.3v-8.4h-1.5c-0.2,0-0.3-0.1-0.3-0.3v-0.8c0-0.2,0.1-0.3,0.3-0.3h1.5v-3.6c0-0.2,0.1-0.3,0.3-0.3h1
				c0.2,0,0.3,0.1,0.3,0.3v3.6h1.9c0.2,0,0.3,0.1,0.3,0.3L434.1,272.3L434.1,272.3z"/>
			<path id="XMLID_5283_" class="st6" d="M437.8,272.8c0.7-1,1.8-1.7,3.1-1.7c1.9,0,3.1,1.3,3.2,3.6v6.3c0,0.2-0.1,0.3-0.3,0.3h-1.1
				c-0.2,0-0.3-0.1-0.3-0.3V275c0-1.6-0.8-2.4-2-2.4c-1.4,0-2.5,1-2.7,3v5.4c0,0.2-0.1,0.3-0.3,0.3h-1.2c-0.2,0-0.3-0.1-0.3-0.3
				l0.1-13.6c0-0.2,0.1-0.3,0.3-0.3h1c0.2,0,0.3,0.1,0.3,0.3v5.3L437.8,272.8z"/>
			<path id="XMLID_5285_" class="st6" d="M455.4,276.1c0,0.2-0.1,0.3-0.3,0.3H448c0,2.2,1.2,3.6,3.1,3.6c1.1,0,1.9-0.4,2.4-1.3
				c0.1-0.2,0.2-0.2,0.4-0.2h1c0.2,0,0.3,0.2,0.2,0.4c-0.8,1.7-2.3,2.7-4.1,2.7c-2.8,0-4.7-2.1-4.7-5.2c0-3.2,2-5.3,4.8-5.3
				C454.1,271,455.5,273.3,455.4,276.1z M448.1,275.1h5.6c-0.1-1.5-1-2.7-2.8-2.7C449.3,272.5,448.4,273.6,448.1,275.1z"/>
			<path id="XMLID_5288_" class="st6" d="M117.8,296h5.9c0.2,0,0.3,0.1,0.3,0.3v0.9c0,0.2-0.1,0.3-0.3,0.3h-5.9v6.2
				c0,0.2-0.1,0.3-0.3,0.3h-1.2c-0.2,0-0.3-0.1-0.3-0.3l0.1-13.2c0-0.2,0.1-0.3,0.3-0.3h8.2c0.2,0,0.3,0.1,0.3,0.3v0.9
				c0,0.2-0.1,0.3-0.3,0.3h-6.9L117.8,296z"/>
			<path id="XMLID_5290_" class="st6" d="M129.2,303.8c0,0.2-0.1,0.3-0.3,0.3h-1.1c-0.2,0-0.3-0.1-0.3-0.3l0.1-9.5
				c0-0.2,0.1-0.3,0.3-0.3h1c0.2,0,0.3,0.1,0.3,0.3V303.8z M129.2,291.5c0,0.2-0.1,0.3-0.3,0.3h-1c-0.2,0-0.3-0.1-0.3-0.3v-1.3
				c0-0.2,0.1-0.3,0.3-0.3h1c0.2,0,0.3,0.1,0.3,0.3V291.5z"/>
			<path id="XMLID_5293_" class="st6" d="M134.4,303.8c0,0.2-0.1,0.3-0.3,0.3H133c-0.2,0-0.3-0.1-0.3-0.3l0.1-13.6
				c0-0.2,0.1-0.3,0.3-0.3h1c0.2,0,0.3,0.1,0.3,0.3V303.8z"/>
			<path id="XMLID_5295_" class="st6" d="M146.6,299c0,3.1-2.1,5.4-4.8,5.4s-4.7-2.2-4.7-5.2c0-3.2,2.1-5.3,4.8-5.3
				C144.6,293.8,146.6,295.9,146.6,299z M138.7,299c0,2.4,1.4,3.9,3.2,3.9s3-1.5,3-3.7c0-2.4-1.4-3.9-3.2-3.9
				C140,295.3,138.7,296.6,138.7,299z"/>
			<path id="XMLID_5298_" class="st6" d="M156.3,296.3c0.1,0.2,0,0.3-0.2,0.3h-1c-0.2,0-0.3-0.1-0.4-0.2c-0.5-0.7-1.2-1.2-2.4-1.2
				s-2,0.6-2,1.4s0.8,1.1,2.2,1.5l0.8,0.2c2.3,0.7,3.2,1.6,3.2,2.9c0,1.9-1.5,3-3.9,3c-2.3,0-3.7-1.2-4.3-2.8
				c-0.1-0.2,0-0.3,0.2-0.3h1.1c0.2,0,0.3,0.1,0.4,0.2c0.5,1,1.4,1.4,2.6,1.4s2.1-0.4,2.1-1.4c0-0.8-0.7-1.3-2.3-1.7l-0.8-0.2
				c-1.8-0.5-3.1-1.2-3.1-2.8c0-1.7,1.6-2.9,3.7-2.9C154.7,293.8,155.9,295,156.3,296.3z"/>
			<path id="XMLID_5300_" class="st6" d="M167.7,299c0,3.1-2.1,5.4-4.8,5.4s-4.7-2.2-4.7-5.2c0-3.2,2.1-5.3,4.8-5.3
				C165.7,293.8,167.7,295.9,167.7,299z M159.8,299c0,2.4,1.4,3.9,3.2,3.9s3-1.5,3-3.7c0-2.4-1.4-3.9-3.2-3.9
				C161.1,295.3,159.8,296.6,159.8,299z"/>
			<path id="XMLID_5303_" class="st6" d="M179.2,299c0,3.2-1.9,5.4-4.5,5.4c-1.3,0-2.2-0.4-2.9-1.2h-0.1v4.8c0,0.2-0.1,0.3-0.3,0.3
				h-1.2c-0.2,0-0.3-0.1-0.3-0.3l0.1-13.7c0-0.2,0.1-0.3,0.3-0.3h1c0.2,0,0.3,0.1,0.3,0.3v1.2h0.1c0.7-1.1,2-1.7,3.2-1.7
				C177.5,293.8,179.2,296,179.2,299z M171.6,298.5v1.3c0.2,2.1,1.5,3.1,3,3.1c1.9,0,3-1.4,3-3.8s-1.2-3.9-3-3.9
				C173,295.3,171.7,296.4,171.6,298.5z"/>
			<path id="XMLID_5306_" class="st6" d="M183.4,295.5c0.7-1,1.8-1.7,3.1-1.7c1.9,0,3.1,1.3,3.2,3.6v6.3c0,0.2-0.1,0.3-0.3,0.3h-1.2
				c-0.2,0-0.3-0.1-0.3-0.3v-5.9c0-1.6-0.8-2.4-2-2.4c-1.4,0-2.5,1-2.7,3v5.4c0,0.2-0.1,0.3-0.3,0.3h-1.1c-0.2,0-0.3-0.1-0.3-0.3
				l0.1-13.6c0-0.2,0.1-0.3,0.3-0.3h1c0.2,0,0.3,0.1,0.3,0.3v5.3L183.4,295.5L183.4,295.5z"/>
			<path id="XMLID_5308_" class="st6" d="M201,299c0,0.2-0.1,0.3-0.3,0.3h-7.1c0,2.2,1.2,3.6,3.1,3.6c1.1,0,1.9-0.4,2.4-1.3
				c0.1-0.2,0.2-0.2,0.4-0.2h1c0.2,0,0.3,0.2,0.2,0.4c-0.8,1.7-2.3,2.7-4.1,2.7c-2.8,0-4.7-2.1-4.7-5.2c0-3.2,2-5.3,4.8-5.3
				C199.6,293.8,201.1,296,201,299z M193.7,298h5.6c-0.1-1.5-1-2.7-2.8-2.7C194.9,295.3,193.9,296.5,193.7,298z"/>
			<path id="XMLID_5311_" class="st6" d="M208.4,295.3c0,0.2-0.1,0.3-0.3,0.3c-1.7,0.1-2.9,0.7-3.1,3v5.2c0,0.2-0.1,0.3-0.3,0.3
				h-1.1c-0.2,0-0.3-0.1-0.3-0.3l0.1-9.5c0-0.2,0.1-0.3,0.3-0.3h1c0.2,0,0.3,0.1,0.3,0.3v1.3h0.1c0.7-1,1.7-1.7,3-1.8
				c0.2,0,0.3,0.1,0.3,0.3V295.3z"/>
			<path id="XMLID_5313_" class="st6" d="M224,293.4c0.1,0.2,0,0.3-0.2,0.3h-1c-0.2,0-0.3-0.1-0.4-0.2c-0.6-1-1.7-1.9-3.5-1.9
				c-1.9,0-2.9,0.8-2.9,2c0,1.3,1,1.8,3.3,2.5l0.7,0.2c3.1,1,4.3,2.3,4.3,4.2c0,2.4-2,3.8-5,3.8c-3.6,0-5.2-2.1-5.7-3.7
				c-0.1-0.2,0.1-0.3,0.3-0.3h1.1c0.2,0,0.3,0.1,0.3,0.2c0.6,1.2,1.7,2.3,4,2.3c2,0,3.2-0.7,3.2-2.1c0-1.3-1-2.1-3.4-2.9l-0.8-0.2
				c-2.6-0.8-4.1-1.8-4.1-3.8c-0.1-2.3,2.1-3.7,4.8-3.7C221.7,290,223.4,291.6,224,293.4z"/>
			<path id="XMLID_5315_" class="st6" d="M231.4,295c0,0.2-0.1,0.3-0.3,0.3h-1.8v8.4c0,0.2-0.1,0.3-0.3,0.3h-1.1
				c-0.2,0-0.3-0.1-0.3-0.3v-8.4h-1.5c-0.2,0-0.3-0.1-0.3-0.3v-0.8c0-0.2,0.1-0.3,0.3-0.3h1.5v-3.6c0-0.2,0.1-0.3,0.3-0.3h1
				c0.2,0,0.3,0.1,0.3,0.3v3.6h1.9c0.2,0,0.3,0.1,0.3,0.3L231.4,295L231.4,295z"/>
			<path id="XMLID_5317_" class="st6" d="M242.2,299c0,3.1-2.1,5.4-4.8,5.4s-4.7-2.2-4.7-5.2c0-3.2,2.1-5.3,4.8-5.3
				C240.2,293.8,242.2,295.9,242.2,299z M234.3,299c0,2.4,1.4,3.9,3.2,3.9s3-1.5,3-3.7c0-2.4-1.4-3.9-3.2-3.9
				C235.6,295.3,234.3,296.6,234.3,299z"/>
			<path id="XMLID_5320_" class="st6" d="M252.7,297.5v6.3c0,0.2-0.1,0.3-0.3,0.3h-1.2c-0.2,0-0.3-0.1-0.3-0.3v-5.9
				c0-1.7-0.8-2.5-2.1-2.5c-1.4,0-2.5,1-2.7,3.1v5.4c0,0.2-0.1,0.3-0.3,0.3h-1.1c-0.2,0-0.3-0.1-0.3-0.3l0.1-9.5
				c0-0.2,0.1-0.3,0.3-0.3h1c0.2,0,0.3,0.1,0.3,0.3v1.2h0.1c0.8-1.1,1.8-1.7,3.2-1.7C251.4,293.8,252.7,295,252.7,297.5z"/>
			<path id="XMLID_5322_" class="st6" d="M264,299c0,0.2-0.1,0.3-0.3,0.3h-7.1c0,2.2,1.2,3.6,3.1,3.6c1.1,0,1.9-0.4,2.4-1.3
				c0.1-0.2,0.2-0.2,0.4-0.2h1c0.2,0,0.3,0.2,0.2,0.4c-0.8,1.7-2.3,2.7-4.1,2.7c-2.8,0-4.7-2.1-4.7-5.2c0-3.2,2-5.3,4.8-5.3
				C262.6,293.8,264.1,296,264,299z M256.7,298h5.6c-0.1-1.5-1-2.7-2.8-2.7C257.9,295.3,257,296.5,256.7,298z"/>
			<path id="XMLID_5325_" class="st6" d="M268.3,291.6c0,1.7-0.4,2.6-1.2,3.5c-0.1,0.1-0.3,0.2-0.4,0.1l-0.1-0.1
				c-0.2-0.1-0.2-0.2-0.1-0.4c0.6-0.9,0.8-1.9,0.1-2.4c-0.1-0.1-0.2-0.2-0.2-0.4v-1.5c0-0.2,0.1-0.3,0.3-0.3h1.3
				c0.2,0,0.3,0.1,0.3,0.3L268.3,291.6L268.3,291.6z"/>
			<path id="XMLID_5327_" class="st6" d="M278.1,296.3c0.1,0.2,0,0.3-0.2,0.3h-1c-0.2,0-0.3-0.1-0.4-0.2c-0.5-0.7-1.2-1.2-2.4-1.2
				c-1.2,0-2,0.6-2,1.4s0.8,1.1,2.2,1.5l0.8,0.2c2.3,0.7,3.2,1.6,3.2,2.9c0,1.9-1.5,3-3.9,3c-2.3,0-3.7-1.2-4.3-2.8
				c-0.1-0.2,0-0.3,0.2-0.3h1.1c0.2,0,0.3,0.1,0.4,0.2c0.5,1,1.4,1.4,2.6,1.4s2.1-0.4,2.1-1.4c0-0.8-0.7-1.3-2.3-1.7l-0.8-0.2
				c-1.8-0.5-3.1-1.2-3.1-2.8c0-1.7,1.6-2.9,3.7-2.9C276.5,293.8,277.7,295,278.1,296.3z"/>
			<path id="XMLID_5329_" class="st6" d="M283.4,303.5c0,1.7-0.4,2.6-1.2,3.5c-0.1,0.1-0.3,0.2-0.4,0.1l-0.1-0.1
				c-0.2-0.1-0.2-0.2-0.1-0.4c0.6-1,0.8-1.9,0.1-2.4c-0.1-0.1-0.2-0.2-0.2-0.4v-1.5c0-0.2,0.1-0.3,0.3-0.3h1.3
				c0.2,0,0.3,0.1,0.3,0.3L283.4,303.5L283.4,303.5z"/>
			<path id="XMLID_5331_" class="st6" d="M295.7,295c0,0.2-0.1,0.3-0.3,0.3h-1.8v8.4c0,0.2-0.1,0.3-0.3,0.3h-1.1
				c-0.2,0-0.3-0.1-0.3-0.3v-8.4h-1.5c-0.2,0-0.3-0.1-0.3-0.3v-0.8c0-0.2,0.1-0.3,0.3-0.3h1.5v-3.6c0-0.2,0.1-0.3,0.3-0.3h1
				c0.2,0,0.3,0.1,0.3,0.3v3.6h1.9c0.2,0,0.3,0.1,0.3,0.3V295L295.7,295z"/>
			<path id="XMLID_5333_" class="st6" d="M299.4,295.5c0.7-1,1.8-1.7,3.1-1.7c1.9,0,3.1,1.3,3.2,3.6v6.3c0,0.2-0.1,0.3-0.3,0.3h-1.1
				c-0.2,0-0.3-0.1-0.3-0.3v-5.9c0-1.6-0.8-2.4-2-2.4c-1.4,0-2.5,1-2.7,3v5.4c0,0.2-0.1,0.3-0.3,0.3h-1.1c-0.2,0-0.3-0.1-0.3-0.3
				l0.1-13.6c0-0.2,0.1-0.3,0.3-0.3h1c0.2,0,0.3,0.1,0.3,0.3L299.4,295.5L299.4,295.5z"/>
			<path id="XMLID_5335_" class="st6" d="M317.1,299c0,0.2-0.1,0.3-0.3,0.3h-7.1c0,2.2,1.2,3.6,3.1,3.6c1.1,0,1.9-0.4,2.4-1.3
				c0.1-0.2,0.2-0.2,0.4-0.2h1c0.2,0,0.3,0.2,0.2,0.4c-0.8,1.7-2.3,2.7-4.1,2.7c-2.8,0-4.7-2.1-4.7-5.2c0-3.2,2-5.3,4.8-5.3
				C315.7,293.8,317.1,296,317.1,299z M309.7,298h5.6c-0.1-1.5-1-2.7-2.8-2.7C310.9,295.3,310,296.5,309.7,298z"/>
			<path id="XMLID_5338_" class="st6" d="M330.1,295.5h0.1v-1.2c0-0.2,0.1-0.3,0.3-0.3h1c0.2,0,0.3,0.1,0.3,0.3l0.1,8.5
				c0,3.8-1.8,5.7-4.6,5.7c-2,0-3.3-0.9-4-2.5c-0.1-0.2,0-0.4,0.2-0.4h1c0.2,0,0.3,0.1,0.4,0.2c0.5,0.7,1.3,1.2,2.4,1.2
				c1.8,0,2.9-1,2.8-3.7v-0.5H330c-0.7,0.9-1.6,1.3-2.8,1.3c-2.8,0-4.7-2-4.7-5.2c0-2.9,1.7-5.1,4.2-5.1
				C328.2,293.8,329.4,294.4,330.1,295.5z M324.3,299c0,2.2,1.1,3.5,3,3.5c1.6,0,2.8-0.9,3-2.8v-1.3c-0.2-2.1-1.5-3.3-3-3.3
				C325.6,295.3,324.3,296.8,324.3,299z"/>
			<path id="XMLID_5341_" class="st6" d="M339.9,295.3c0,0.2-0.1,0.3-0.3,0.3c-1.7,0.1-2.9,0.7-3.1,3v5.2c0,0.2-0.1,0.3-0.3,0.3
				h-1.1c-0.2,0-0.3-0.1-0.3-0.3l0.1-9.5c0-0.2,0.1-0.3,0.3-0.3h1c0.2,0,0.3,0.1,0.3,0.3v1.3h0.1c0.7-1,1.7-1.7,3-1.8
				c0.2,0,0.3,0.1,0.3,0.3V295.3z"/>
			<path id="XMLID_5343_" class="st6" d="M349.5,297.3l0.1,6.6c0,0.2-0.1,0.3-0.3,0.3h-1.1c-0.2,0-0.3-0.1-0.3-0.3v-1.3h-0.1
				c-0.7,1-1.9,1.8-3.5,1.8c-1.8,0-3.1-1-3.1-2.8c0-2.1,1.6-3,5.3-3.4c0.9-0.1,1.4-0.4,1.4-1.1c0-1-0.8-1.8-2.3-1.8
				c-1.2,0-2,0.5-2.3,1.4c-0.1,0.2-0.2,0.2-0.3,0.2h-1c-0.2,0-0.3-0.1-0.3-0.3c0.4-1.7,1.8-2.8,4-2.8
				C348.1,293.8,349.5,295,349.5,297.3z M347.8,299c-0.3,0.2-0.8,0.3-1.5,0.3c-2.3,0.3-3.5,0.8-3.5,2c0,1,0.7,1.5,1.8,1.5
				c1.9,0,3.2-1.3,3.3-2.4L347.8,299L347.8,299z"/>
			<path id="XMLID_5346_" class="st6" d="M361.7,299c0,3.2-1.9,5.4-4.5,5.4c-1.3,0-2.2-0.4-2.9-1.2h-0.1v4.8c0,0.2-0.1,0.3-0.3,0.3
				h-1.1c-0.2,0-0.3-0.1-0.3-0.3l0.1-13.7c0-0.2,0.1-0.3,0.3-0.3h1c0.2,0,0.3,0.1,0.3,0.3v1.2h0.1c0.7-1.1,2-1.7,3.2-1.7
				C360,293.8,361.7,296,361.7,299z M354,298.5v1.3c0.2,2.1,1.5,3.1,3,3.1c1.9,0,3-1.4,3-3.8s-1.2-3.9-3-3.9
				C355.5,295.3,354.2,296.4,354,298.5z"/>
			<path id="XMLID_5349_" class="st6" d="M365.8,295.5c0.7-1,1.8-1.7,3.1-1.7c1.9,0,3.1,1.3,3.2,3.6v6.3c0,0.2-0.1,0.3-0.3,0.3h-1.1
				c-0.2,0-0.3-0.1-0.3-0.3v-5.9c0-1.6-0.8-2.4-2-2.4c-1.4,0-2.5,1-2.7,3v5.4c0,0.2-0.1,0.3-0.3,0.3h-1.1c-0.2,0-0.3-0.1-0.3-0.3
				l0.1-13.6c0-0.2,0.1-0.3,0.3-0.3h1c0.2,0,0.3,0.1,0.3,0.3L365.8,295.5L365.8,295.5z"/>
			<path id="XMLID_5351_" class="st6" d="M376.9,303.8c0,0.2-0.1,0.3-0.3,0.3h-1.1c-0.2,0-0.3-0.1-0.3-0.3l0.1-9.5
				c0-0.2,0.1-0.3,0.3-0.3h1c0.2,0,0.3,0.1,0.3,0.3V303.8z M376.9,291.5c0,0.2-0.1,0.3-0.3,0.3h-1c-0.2,0-0.3-0.1-0.3-0.3v-1.3
				c0-0.2,0.1-0.3,0.3-0.3h1c0.2,0,0.3,0.1,0.3,0.3V291.5z"/>
			<path id="XMLID_5354_" class="st6" d="M388.1,296.6c0.1,0.2-0.1,0.3-0.3,0.3h-1c-0.2,0-0.3-0.1-0.4-0.2c-0.5-1-1.3-1.5-2.5-1.5
				c-1.9,0-3,1.3-3,3.9c0,2.5,1.1,3.7,3.1,3.7c1.3,0,2-0.6,2.4-1.4c0.1-0.2,0.2-0.2,0.4-0.2h1c0.2,0,0.3,0.1,0.2,0.3
				c-0.5,1.4-1.9,2.8-4.1,2.8c-2.8,0-4.6-2.1-4.6-5.2c0-3.3,1.9-5.4,4.6-5.4C386.2,293.8,387.7,295.1,388.1,296.6z"/>
			<path id="XMLID_5356_" class="st6" d="M397.4,296.3c0.1,0.2,0,0.3-0.2,0.3h-1c-0.2,0-0.3-0.1-0.4-0.2c-0.5-0.7-1.2-1.2-2.4-1.2
				c-1.2,0-2,0.6-2,1.4s0.8,1.1,2.2,1.5l0.8,0.2c2.3,0.7,3.2,1.6,3.2,2.9c0,1.9-1.5,3-3.9,3c-2.3,0-3.7-1.2-4.3-2.8
				c-0.1-0.2,0-0.3,0.2-0.3h1.1c0.2,0,0.3,0.1,0.4,0.2c0.5,1,1.4,1.4,2.6,1.4s2.1-0.4,2.1-1.4c0-0.8-0.7-1.3-2.3-1.7l-0.8-0.2
				c-1.8-0.5-3.1-1.2-3.1-2.8c0-1.7,1.6-2.9,3.7-2.9C395.8,293.8,397.1,295,397.4,296.3z"/>
			<path id="XMLID_5358_" class="st6" d="M408.6,295c0,0.2-0.1,0.3-0.3,0.3h-1.8v8.4c0,0.2-0.1,0.3-0.3,0.3h-1.1
				c-0.2,0-0.3-0.1-0.3-0.3v-8.4h-1.5c-0.2,0-0.3-0.1-0.3-0.3v-0.8c0-0.2,0.1-0.3,0.3-0.3h1.5v-3.6c0-0.2,0.1-0.3,0.3-0.3h1
				c0.2,0,0.3,0.1,0.3,0.3v3.6h1.9c0.2,0,0.3,0.1,0.3,0.3V295z"/>
			<path id="XMLID_5360_" class="st6" d="M419,299c0,0.2-0.1,0.3-0.3,0.3h-7.1c0,2.2,1.2,3.6,3.1,3.6c1.1,0,1.9-0.4,2.4-1.3
				c0.1-0.2,0.2-0.2,0.4-0.2h1c0.2,0,0.3,0.2,0.2,0.4c-0.8,1.7-2.3,2.7-4.1,2.7c-2.8,0-4.7-2.1-4.7-5.2c0-3.2,2-5.3,4.8-5.3
				C417.6,293.8,419.1,296,419,299z M411.7,298h5.6c-0.1-1.5-1-2.7-2.8-2.7C412.9,295.3,411.9,296.5,411.7,298z"/>
			<path id="XMLID_5363_" class="st6" d="M429,297.3l0.1,6.6c0,0.2-0.1,0.3-0.3,0.3h-1.1c-0.2,0-0.3-0.1-0.3-0.3v-1.3h-0.1
				c-0.7,1-1.9,1.8-3.5,1.8c-1.8,0-3.1-1-3.1-2.8c0-2.1,1.6-3,5.3-3.4c0.9-0.1,1.4-0.4,1.4-1.1c0-1-0.8-1.8-2.3-1.8
				c-1.2,0-2,0.5-2.3,1.4c-0.1,0.2-0.2,0.2-0.3,0.2h-1c-0.2,0-0.3-0.1-0.3-0.3c0.4-1.7,1.8-2.8,4-2.8C427.6,293.8,429,295,429,297.3
				z M427.3,299c-0.3,0.2-0.8,0.3-1.5,0.3c-2.3,0.3-3.5,0.8-3.5,2c0,1,0.7,1.5,1.8,1.5c1.9,0,3.2-1.3,3.3-2.4L427.3,299L427.3,299z"
				/>
			<path id="XMLID_5366_" class="st6" d="M445.6,297.5v6.3c0,0.2-0.1,0.3-0.3,0.3h-1.1c-0.2,0-0.3-0.1-0.3-0.3v-5.9
				c0-1.7-0.7-2.5-1.8-2.5c-1.3,0-2.4,1-2.5,3.1v5.3c0,0.2-0.1,0.3-0.3,0.3h-1.1c-0.2,0-0.3-0.1-0.3-0.3v-5.9c0-1.7-0.7-2.5-1.8-2.5
				c-1.3,0-2.4,0.9-2.6,3.1v5.4c0,0.2-0.1,0.3-0.3,0.3h-1.1c-0.2,0-0.3-0.1-0.3-0.3l0.1-9.5c0-0.2,0.1-0.3,0.3-0.3h1
				c0.2,0,0.3,0.1,0.3,0.3v1.2h0.1c0.8-1,1.8-1.7,3.1-1.7c1.3,0,2.2,0.6,2.6,1.9h0.1c0.8-1.2,1.8-1.9,3.2-1.9
				C444.5,293.8,445.6,295,445.6,297.5z"/>
			<path id="XMLID_5368_" class="st6" d="M118,318.4c0.7-1,1.8-1.7,3.1-1.7c1.9,0,3.1,1.3,3.2,3.6v6.3c0,0.2-0.1,0.3-0.3,0.3h-1.1
				c-0.2,0-0.3-0.1-0.3-0.3v-5.9c0-1.6-0.8-2.4-2-2.4c-1.4,0-2.5,1-2.7,3v5.4c0,0.2-0.1,0.3-0.3,0.3h-1.1c-0.2,0-0.3-0.1-0.3-0.3
				l0.1-13.6c0-0.2,0.1-0.3,0.3-0.3h1c0.2,0,0.3,0.1,0.3,0.3v5.3L118,318.4z"/>
			<path id="XMLID_5370_" class="st6" d="M134.9,320l0.1,6.6c0,0.2-0.1,0.3-0.3,0.3h-1.1c-0.2,0-0.3-0.1-0.3-0.3v-1.3h-0.1
				c-0.7,1-1.9,1.8-3.5,1.8c-1.8,0-3.1-1-3.1-2.8c0-2.1,1.6-3,5.3-3.4c0.9-0.1,1.4-0.4,1.4-1.1c0-1-0.8-1.8-2.3-1.8
				c-1.2,0-2,0.5-2.3,1.4c-0.1,0.2-0.2,0.2-0.3,0.2h-1c-0.2,0-0.3-0.1-0.3-0.3c0.4-1.7,1.8-2.8,4-2.8
				C133.4,316.5,134.9,317.9,134.9,320z M133.2,321.9c-0.3,0.2-0.8,0.3-1.5,0.3c-2.3,0.3-3.5,0.8-3.5,2c0,1,0.7,1.5,1.8,1.5
				c1.9,0,3.2-1.3,3.3-2.4L133.2,321.9L133.2,321.9z"/>
			<path id="XMLID_5373_" class="st6" d="M146,320.3v6.3c0,0.2-0.1,0.3-0.3,0.3h-1.1c-0.2,0-0.3-0.1-0.3-0.3v-5.9
				c0-1.7-0.8-2.5-2.1-2.5c-1.4,0-2.5,1-2.7,3.1v5.4c0,0.2-0.1,0.3-0.3,0.3h-1.1c-0.2,0-0.3-0.1-0.3-0.3l0.1-9.5
				c0-0.2,0.1-0.3,0.3-0.3h1c0.2,0,0.3,0.1,0.3,0.3v1.2h0.1c0.8-1.1,1.8-1.7,3.2-1.7C144.7,316.5,146,317.9,146,320.3z"/>
			<path id="XMLID_5375_" class="st6" d="M157.5,326.5c0,0.2-0.1,0.3-0.3,0.3h-1.1c-0.2,0-0.3-0.1-0.3-0.3v-1.1h-0.1
				c-0.7,1.1-1.9,1.7-3.2,1.7c-2.5,0-4.2-2.2-4.2-5.2c0-3.2,1.9-5.4,4.7-5.4c1.2,0,2.1,0.4,2.8,1.2h0.1V313c0-0.2,0.1-0.3,0.3-0.3h1
				c0.2,0,0.3,0.1,0.3,0.3V326.5z M149.9,321.9c0,2.4,1.2,3.8,3,3.8c1.5,0,2.8-1.1,3-3.2v-1.3c-0.2-2.1-1.5-3.1-3-3.1
				C151,318,149.9,319.5,149.9,321.9z"/>
			<path id="XMLID_5378_" class="st6" d="M167.8,322c0,0.2-0.1,0.3-0.3,0.3h-6c-0.2,0-0.3-0.1-0.3-0.3v-0.9c0-0.2,0.1-0.3,0.3-0.3h6
				c0.2,0,0.3,0.1,0.3,0.3V322z"/>
			<path id="XMLID_5380_" class="st6" d="M184,316.8c0.2,0,0.3,0.1,0.3,0.3l-2.6,9.5c-0.1,0.2-0.2,0.3-0.3,0.3h-1.6
				c-0.2,0-0.3-0.1-0.3-0.2l-1.9-6.7h-0.2l-1.8,6.7c-0.1,0.2-0.2,0.3-0.3,0.3h-1.6c-0.2,0-0.3-0.1-0.3-0.3l-2.6-9.5
				c-0.1-0.2,0-0.3,0.3-0.3h1c0.2,0,0.3,0.1,0.3,0.3l2.1,8h0.2l2.1-8c0.1-0.2,0.2-0.3,0.3-0.3h0.9c0.2,0,0.3,0.1,0.3,0.3l2.2,8h0.2
				l2.1-8c0.1-0.2,0.2-0.3,0.3-0.3L184,316.8L184,316.8z"/>
			<path id="XMLID_5382_" class="st6" d="M191.3,318c0,0.2-0.1,0.3-0.3,0.3c-1.7,0.1-2.9,0.7-3.1,3v5.2c0,0.2-0.1,0.3-0.3,0.3h-1.1
				c-0.2,0-0.3-0.1-0.3-0.3l0.1-9.5c0-0.2,0.1-0.3,0.3-0.3h1c0.2,0,0.3,0.1,0.3,0.3v1.3h0.1c0.7-1,1.7-1.7,3-1.8
				c0.2,0,0.3,0.1,0.3,0.3V318z"/>
			<path id="XMLID_5384_" class="st6" d="M202.1,321.8c0,3.1-2.1,5.4-4.8,5.4s-4.7-2.2-4.7-5.2c0-3.2,2.1-5.3,4.8-5.3
				C200.1,316.5,202.1,318.6,202.1,321.8z M194.2,321.8c0,2.4,1.4,3.9,3.2,3.9s3-1.5,3-3.7c0-2.4-1.4-3.9-3.2-3.9
				C195.5,318,194.2,319.5,194.2,321.8z"/>
			<path id="XMLID_5387_" class="st6" d="M209.2,317.9c0,0.2-0.1,0.3-0.3,0.3h-1.8v8.4c0,0.2-0.1,0.3-0.3,0.3h-1.1
				c-0.2,0-0.3-0.1-0.3-0.3v-8.4h-1.5c-0.2,0-0.3-0.1-0.3-0.3v-0.8c0-0.2,0.1-0.3,0.3-0.3h1.5v-3.6c0-0.2,0.1-0.3,0.3-0.3h1
				c0.2,0,0.3,0.1,0.3,0.3v3.6h1.9c0.2,0,0.3,0.1,0.3,0.3L209.2,317.9L209.2,317.9z"/>
			<path id="XMLID_5389_" class="st6" d="M219.5,321.8c0,0.2-0.1,0.3-0.3,0.3h-7.1c0,2.2,1.2,3.6,3.1,3.6c1.1,0,1.9-0.4,2.4-1.3
				c0.1-0.2,0.2-0.2,0.4-0.2h1c0.2,0,0.3,0.2,0.2,0.4c-0.8,1.7-2.3,2.7-4.1,2.7c-2.8,0-4.7-2.1-4.7-5.2c0-3.2,2-5.3,4.8-5.3
				C218.2,316.5,219.6,318.9,219.5,321.8z M212.2,320.8h5.6c-0.1-1.5-1-2.7-2.8-2.7C213.4,318,212.5,319.3,212.2,320.8z"/>
			<path id="XMLID_5392_" class="st6" d="M230.5,317.9c0,0.2-0.1,0.3-0.3,0.3h-1.8v8.4c0,0.2-0.1,0.3-0.3,0.3H227
				c-0.2,0-0.3-0.1-0.3-0.3v-8.4h-1.5c-0.2,0-0.3-0.1-0.3-0.3v-0.8c0-0.2,0.1-0.3,0.3-0.3h1.5v-3.6c0-0.2,0.1-0.3,0.3-0.3h1
				c0.2,0,0.3,0.1,0.3,0.3v3.6h1.9c0.2,0,0.3,0.1,0.3,0.3L230.5,317.9L230.5,317.9z"/>
			<path id="XMLID_5394_" class="st6" d="M234.3,318.4c0.7-1,1.8-1.7,3.1-1.7c1.9,0,3.1,1.3,3.2,3.6v6.3c0,0.2-0.1,0.3-0.3,0.3h-1.1
				c-0.2,0-0.3-0.1-0.3-0.3v-5.9c0-1.6-0.8-2.4-2-2.4c-1.4,0-2.5,1-2.7,3v5.4c0,0.2-0.1,0.3-0.3,0.3h-1.1c-0.2,0-0.3-0.1-0.3-0.3
				l0.1-13.6c0-0.2,0.1-0.3,0.3-0.3h1c0.2,0,0.3,0.1,0.3,0.3L234.3,318.4L234.3,318.4z"/>
			<path id="XMLID_5396_" class="st6" d="M252.3,321.8c0,3.1-2.1,5.4-4.8,5.4s-4.7-2.2-4.7-5.2c0-3.2,2.1-5.3,4.8-5.3
				C250.3,316.5,252.3,318.6,252.3,321.8z M244.5,321.8c0,2.4,1.4,3.9,3.2,3.9s3-1.5,3-3.7c0-2.4-1.4-3.9-3.2-3.9
				S244.5,319.5,244.5,321.8z"/>
			<path id="XMLID_5399_" class="st6" d="M262.7,326.5c0,0.2-0.1,0.3-0.3,0.3h-1.1c-0.2,0-0.3-0.1-0.3-0.3v-1.2h-0.1
				c-0.7,1.1-1.8,1.7-3.1,1.7c-1.9,0-3.2-1.3-3.2-3.8V317c0-0.2,0.1-0.3,0.3-0.3h1c0.2,0,0.3,0.1,0.3,0.3v5.8c0,1.8,0.8,2.6,2,2.6
				c1.4,0,2.5-1,2.7-3.1v-5.4c0-0.2,0.1-0.3,0.3-0.3h1c0.2,0,0.3,0.1,0.3,0.3L262.7,326.5z"/>
			<path id="XMLID_5401_" class="st6" d="M273,319c0.1,0.2,0,0.3-0.2,0.3h-1c-0.2,0-0.3-0.1-0.4-0.2c-0.5-0.7-1.2-1.2-2.4-1.2
				s-2,0.6-2,1.4s0.8,1.1,2.2,1.5l0.8,0.2c2.3,0.7,3.2,1.6,3.2,2.9c0,1.9-1.5,3-3.9,3c-2.3,0-3.7-1.2-4.3-2.8
				c-0.1-0.2,0-0.3,0.2-0.3h1.1c0.2,0,0.3,0.1,0.4,0.2c0.5,1,1.4,1.4,2.6,1.4s2.1-0.4,2.1-1.4c0-0.8-0.7-1.3-2.3-1.7l-0.8-0.2
				c-1.8-0.5-3.1-1.2-3.1-2.8c0-1.7,1.6-2.9,3.7-2.9C271.4,316.5,272.6,317.9,273,319z"/>
			<path id="XMLID_5403_" class="st6" d="M283.2,320l0.1,6.6c0,0.2-0.1,0.3-0.3,0.3h-1.1c-0.2,0-0.3-0.1-0.3-0.3v-1.3h-0.1
				c-0.7,1-1.9,1.8-3.5,1.8c-1.8,0-3.1-1-3.1-2.8c0-2.1,1.6-3,5.3-3.4c0.9-0.1,1.4-0.4,1.4-1.1c0-1-0.8-1.8-2.3-1.8
				c-1.2,0-2,0.5-2.3,1.4c-0.1,0.2-0.2,0.2-0.3,0.2h-1c-0.2,0-0.3-0.1-0.3-0.3c0.4-1.7,1.8-2.8,4-2.8
				C281.8,316.5,283.2,317.9,283.2,320z M281.5,321.9c-0.3,0.2-0.8,0.3-1.5,0.3c-2.3,0.3-3.5,0.8-3.5,2c0,1,0.7,1.5,1.8,1.5
				c1.9,0,3.2-1.3,3.3-2.4L281.5,321.9L281.5,321.9z"/>
			<path id="XMLID_5406_" class="st6" d="M294.3,320.3v6.3c0,0.2-0.1,0.3-0.3,0.3h-1.1c-0.2,0-0.3-0.1-0.3-0.3v-5.9
				c0-1.7-0.8-2.5-2.1-2.5c-1.4,0-2.5,1-2.7,3.1v5.4c0,0.2-0.1,0.3-0.3,0.3h-1.1c-0.2,0-0.3-0.1-0.3-0.3l0.1-9.5
				c0-0.2,0.1-0.3,0.3-0.3h1c0.2,0,0.3,0.1,0.3,0.3v1.2h0.1c0.8-1.1,1.8-1.7,3.2-1.7C293,316.5,294.3,317.9,294.3,320.3z"/>
			<path id="XMLID_5408_" class="st6" d="M305.8,326.5c0,0.2-0.1,0.3-0.3,0.3h-1.1c-0.2,0-0.3-0.1-0.3-0.3v-1.1H304
				c-0.7,1.1-1.9,1.7-3.2,1.7c-2.5,0-4.2-2.2-4.2-5.2c0-3.2,1.9-5.4,4.7-5.4c1.2,0,2.1,0.4,2.8,1.2h0.1V313c0-0.2,0.1-0.3,0.3-0.3h1
				c0.2,0,0.3,0.1,0.3,0.3L305.8,326.5L305.8,326.5z M298.2,321.9c0,2.4,1.2,3.8,3,3.8c1.5,0,2.8-1.1,3-3.2v-1.3
				c-0.2-2.1-1.5-3.1-3-3.1C299.3,318,298.2,319.5,298.2,321.9z"/>
			<path id="XMLID_5411_" class="st6" d="M321.5,321.8c0,3.1-2.1,5.4-4.8,5.4s-4.7-2.2-4.7-5.2c0-3.2,2.1-5.3,4.8-5.3
				C319.5,316.5,321.5,318.6,321.5,321.8z M313.7,321.8c0,2.4,1.4,3.9,3.2,3.9c1.8,0,3-1.5,3-3.7c0-2.4-1.4-3.9-3.2-3.9
				S313.7,319.5,313.7,321.8z"/>
			<path id="XMLID_5414_" class="st6" d="M329,313.9c0,0.2-0.1,0.3-0.3,0.3c-1.7,0-2.5,0.3-2.5,2.3v0.3h2.4c0.2,0,0.3,0.1,0.3,0.3
				v0.8c0,0.2-0.1,0.3-0.3,0.3h-2.4l0.1,8.4c0,0.2-0.1,0.3-0.3,0.3h-1.1c-0.2,0-0.3-0.1-0.3-0.3l0.1-8.4h-1.5
				c-0.2,0-0.3-0.1-0.3-0.3V317c0-0.2,0.1-0.3,0.3-0.3h1.3v-0.2c0-3.2,1.7-4,4.1-3.9c0.2,0,0.3,0.1,0.3,0.3L329,313.9L329,313.9
				L329,313.9z"/>
			<path id="XMLID_5416_" class="st6" d="M336.9,326.5c0,0.2-0.1,0.3-0.3,0.3h-1.1c-0.2,0-0.3-0.1-0.3-0.3l0.1-13.6
				c0-0.2,0.1-0.3,0.3-0.3h1c0.2,0,0.3,0.1,0.3,0.3V326.5z"/>
			<path id="XMLID_5418_" class="st6" d="M348.7,321.8c0,0.2-0.1,0.3-0.3,0.3h-7.1c0,2.2,1.2,3.6,3.1,3.6c1.1,0,1.9-0.4,2.4-1.3
				c0.1-0.2,0.2-0.2,0.4-0.2h1c0.2,0,0.3,0.2,0.2,0.4c-0.8,1.7-2.3,2.7-4.1,2.7c-2.8,0-4.7-2.1-4.7-5.2c0-3.2,2-5.3,4.8-5.3
				C347.3,316.5,348.8,318.9,348.7,321.8z M341.4,320.8h5.6c-0.1-1.5-1-2.7-2.8-2.7C342.6,318,341.6,319.3,341.4,320.8z"/>
			<path id="XMLID_5421_" class="st6" d="M355.8,317.9c0,0.2-0.1,0.3-0.3,0.3h-1.8v8.4c0,0.2-0.1,0.3-0.3,0.3h-1.2
				c-0.2,0-0.3-0.1-0.3-0.3v-8.4h-1.5c-0.2,0-0.3-0.1-0.3-0.3v-0.8c0-0.2,0.1-0.3,0.3-0.3h1.5v-3.6c0-0.2,0.1-0.3,0.3-0.3h1
				c0.2,0,0.3,0.1,0.3,0.3v3.6h1.9c0.2,0,0.3,0.1,0.3,0.3v0.8H355.8z"/>
			<path id="XMLID_5423_" class="st6" d="M362.4,317.9c0,0.2-0.1,0.3-0.3,0.3h-1.8v8.4c0,0.2-0.1,0.3-0.3,0.3h-1.1
				c-0.2,0-0.3-0.1-0.3-0.3v-8.4h-1.5c-0.2,0-0.3-0.1-0.3-0.3v-0.8c0-0.2,0.1-0.3,0.3-0.3h1.5v-3.6c0-0.2,0.1-0.3,0.3-0.3h1
				c0.2,0,0.3,0.1,0.3,0.3v3.6h1.9c0.2,0,0.3,0.1,0.3,0.3V317.9z"/>
			<path id="XMLID_5425_" class="st6" d="M372.8,321.8c0,0.2-0.1,0.3-0.3,0.3h-7.1c0,2.2,1.2,3.6,3.1,3.6c1.1,0,1.9-0.4,2.4-1.3
				c0.1-0.2,0.2-0.2,0.4-0.2h1c0.2,0,0.3,0.2,0.2,0.4c-0.8,1.7-2.3,2.7-4.1,2.7c-2.8,0-4.7-2.1-4.7-5.2c0-3.2,2-5.3,4.8-5.3
				C371.4,316.5,372.9,318.9,372.8,321.8z M365.5,320.8h5.6c-0.1-1.5-1-2.7-2.8-2.7C366.7,318,365.7,319.3,365.5,320.8z"/>
			<path id="XMLID_5428_" class="st6" d="M380.2,318c0,0.2-0.1,0.3-0.3,0.3c-1.7,0.1-2.9,0.7-3.1,3v5.2c0,0.2-0.1,0.3-0.3,0.3h-1.1
				c-0.2,0-0.3-0.1-0.3-0.3l0.1-9.5c0-0.2,0.1-0.3,0.3-0.3h1c0.2,0,0.3,0.1,0.3,0.3v1.3h0.1c0.7-1,1.7-1.7,3-1.8
				c0.2,0,0.3,0.1,0.3,0.3V318z"/>
			<path id="XMLID_5430_" class="st6" d="M389.4,319c0.1,0.2,0,0.3-0.2,0.3h-1c-0.2,0-0.3-0.1-0.4-0.2c-0.5-0.7-1.2-1.2-2.4-1.2
				c-1.2,0-2,0.6-2,1.4s0.8,1.1,2.2,1.5l0.8,0.2c2.3,0.7,3.2,1.6,3.2,2.9c0,1.9-1.5,3-3.9,3c-2.3,0-3.7-1.2-4.3-2.8
				c-0.1-0.2,0-0.3,0.2-0.3h1.1c0.2,0,0.3,0.1,0.4,0.2c0.5,1,1.4,1.4,2.6,1.4s2.1-0.4,2.1-1.4c0-0.8-0.7-1.3-2.3-1.7l-0.8-0.2
				c-1.8-0.5-3.1-1.2-3.1-2.8c0-1.7,1.6-2.9,3.7-2.9C387.8,316.5,389,317.9,389.4,319z"/>
			<path id="XMLID_5432_" class="st6" d="M397.6,317.8c0.7-0.8,1.7-1.2,2.8-1.2c2.8,0,4.7,2.1,4.7,5.4c0,3-1.7,5.2-4.2,5.2
				c-1.3,0-2.5-0.6-3.2-1.7h-0.1v1.1c0,0.2-0.1,0.3-0.3,0.3h-1.1c-0.2,0-0.3-0.1-0.3-0.3l0.1-13.6c0-0.2,0.1-0.3,0.3-0.3h1
				c0.2,0,0.3,0.1,0.3,0.3L397.6,317.8L397.6,317.8z M397.4,321.3v1.3c0.2,2.1,1.5,3.2,3,3.2c1.9,0,3-1.5,3-3.7c0-2.5-1.2-3.9-3-3.9
				C398.9,318,397.6,319.1,397.4,321.3z"/>
			<path id="XMLID_5435_" class="st6" d="M415.5,326.5c0,0.2-0.1,0.3-0.3,0.3h-1.1c-0.2,0-0.3-0.1-0.3-0.3v-1.2h-0.1
				c-0.7,1.1-1.8,1.7-3.1,1.7c-1.9,0-3.2-1.3-3.2-3.8V317c0-0.2,0.1-0.3,0.3-0.3h1c0.2,0,0.3,0.1,0.3,0.3v5.8c0,1.8,0.8,2.6,2,2.6
				c1.4,0,2.5-1,2.7-3.1v-5.4c0-0.2,0.1-0.3,0.3-0.3h1c0.2,0,0.3,0.1,0.3,0.3L415.5,326.5z"/>
			<path id="XMLID_5437_" class="st6" d="M423.1,317.9c0,0.2-0.1,0.3-0.3,0.3H421v8.4c0,0.2-0.1,0.3-0.3,0.3h-1.1
				c-0.2,0-0.3-0.1-0.3-0.3v-8.4h-1.5c-0.2,0-0.3-0.1-0.3-0.3v-0.8c0-0.2,0.1-0.3,0.3-0.3h1.5v-3.6c0-0.2,0.1-0.3,0.3-0.3h1
				c0.2,0,0.3,0.1,0.3,0.3v3.6h1.9c0.2,0,0.3,0.1,0.3,0.3L423.1,317.9L423.1,317.9z"/>
			<path id="XMLID_5439_" class="st6" d="M433.7,317.9c0,0.2-0.1,0.3-0.3,0.3h-1.8v8.4c0,0.2-0.1,0.3-0.3,0.3h-1.1
				c-0.2,0-0.3-0.1-0.3-0.3v-8.4h-1.5c-0.2,0-0.3-0.1-0.3-0.3v-0.8c0-0.2,0.1-0.3,0.3-0.3h1.5v-3.6c0-0.2,0.1-0.3,0.3-0.3h1
				c0.2,0,0.3,0.1,0.3,0.3v3.6h1.9c0.2,0,0.3,0.1,0.3,0.3V317.9L433.7,317.9z"/>
			<path id="XMLID_5441_" class="st6" d="M437.4,318.4c0.7-1,1.8-1.7,3.1-1.7c1.9,0,3.1,1.3,3.2,3.6v6.3c0,0.2-0.1,0.3-0.3,0.3h-1.1
				c-0.2,0-0.3-0.1-0.3-0.3v-5.9c0-1.6-0.8-2.4-2-2.4c-1.4,0-2.5,1-2.7,3v5.4c0,0.2-0.1,0.3-0.3,0.3h-1.1c-0.2,0-0.3-0.1-0.3-0.3
				l0.1-13.6c0-0.2,0.1-0.3,0.3-0.3h1c0.2,0,0.3,0.1,0.3,0.3L437.4,318.4L437.4,318.4z"/>
			<path id="XMLID_5443_" class="st6" d="M455.1,321.8c0,0.2-0.1,0.3-0.3,0.3h-7.1c0,2.2,1.2,3.6,3.1,3.6c1.1,0,1.9-0.4,2.4-1.3
				c0.1-0.2,0.2-0.2,0.4-0.2h1c0.2,0,0.3,0.2,0.2,0.4c-0.8,1.7-2.3,2.7-4.1,2.7c-2.8,0-4.7-2.1-4.7-5.2c0-3.2,2-5.3,4.8-5.3
				C453.7,316.5,455.2,318.9,455.1,321.8z M447.7,320.8h5.6c-0.1-1.5-1-2.7-2.8-2.7C448.9,318,448,319.3,447.7,320.8z"/>
			<path id="XMLID_5446_" class="st6" d="M465.6,320.3v6.3c0,0.2-0.1,0.3-0.3,0.3h-1.1c-0.2,0-0.3-0.1-0.3-0.3v-5.9
				c0-1.7-0.8-2.5-2.1-2.5c-1.4,0-2.5,1-2.7,3.1v5.4c0,0.2-0.1,0.3-0.3,0.3h-1.1c-0.2,0-0.3-0.1-0.3-0.3l0.1-9.5
				c0-0.2,0.1-0.3,0.3-0.3h1c0.2,0,0.3,0.1,0.3,0.3v1.2h0.1c0.8-1.1,1.8-1.7,3.2-1.7C464.3,316.5,465.6,317.9,465.6,320.3z"/>
			<path id="XMLID_5448_" class="st6" d="M477.5,313.9c0,0.2-0.1,0.3-0.3,0.3c-1.7,0-2.5,0.3-2.5,2.3v0.3h2.4c0.2,0,0.3,0.1,0.3,0.3
				v0.8c0,0.2-0.1,0.3-0.3,0.3h-2.4l0.1,8.4c0,0.2-0.1,0.3-0.3,0.3h-1.1c-0.2,0-0.3-0.1-0.3-0.3l0.1-8.4h-1.3
				c-0.2,0-0.3-0.1-0.3-0.3V317c0-0.2,0.1-0.3,0.3-0.3h1.3v-0.2c0-3.2,1.7-4,4.1-3.9c0.2,0,0.3,0.1,0.3,0.3v0.9L477.5,313.9
				L477.5,313.9z"/>
			<path id="XMLID_5450_" class="st6" d="M488.3,321.8c0,3.1-2.1,5.4-4.8,5.4c-2.7,0-4.7-2.2-4.7-5.2c0-3.2,2.1-5.3,4.8-5.3
				C486.3,316.5,488.3,318.6,488.3,321.8z M480.4,321.8c0,2.4,1.4,3.9,3.2,3.9c1.8,0,3-1.5,3-3.7c0-2.4-1.4-3.9-3.2-3.9
				C481.7,318,480.4,319.5,480.4,321.8z"/>
			<path id="XMLID_5453_" class="st6" d="M498.7,326.5c0,0.2-0.1,0.3-0.3,0.3h-1.1c-0.2,0-0.3-0.1-0.3-0.3v-1.2h-0.1
				c-0.7,1.1-1.8,1.7-3.1,1.7c-1.9,0-3.2-1.3-3.2-3.8V317c0-0.2,0.1-0.3,0.3-0.3h1c0.2,0,0.3,0.1,0.3,0.3v5.8c0,1.8,0.8,2.6,2,2.6
				c1.4,0,2.5-1,2.7-3.1v-5.4c0-0.2,0.1-0.3,0.3-0.3h1c0.2,0,0.3,0.1,0.3,0.3L498.7,326.5z"/>
			<path id="XMLID_5455_" class="st6" d="M509.7,320.3v6.3c0,0.2-0.1,0.3-0.3,0.3h-1.1c-0.2,0-0.3-0.1-0.3-0.3v-5.9
				c0-1.7-0.8-2.5-2.1-2.5c-1.4,0-2.5,1-2.7,3.1v5.4c0,0.2-0.1,0.3-0.3,0.3h-1.1c-0.2,0-0.3-0.1-0.3-0.3l0.1-9.5
				c0-0.2,0.1-0.3,0.3-0.3h1c0.2,0,0.3,0.1,0.3,0.3v1.2h0.1c0.8-1.1,1.8-1.7,3.2-1.7C508.5,316.5,509.7,317.9,509.7,320.3z"/>
			<path id="XMLID_5457_" class="st6" d="M521.3,326.5c0,0.2-0.1,0.3-0.3,0.3h-1.1c-0.2,0-0.3-0.1-0.3-0.3v-1.1h-0.1
				c-0.7,1.1-1.9,1.7-3.2,1.7c-2.5,0-4.2-2.2-4.2-5.2c0-3.2,1.9-5.4,4.7-5.4c1.2,0,2.1,0.4,2.8,1.2h0.1V313c0-0.2,0.1-0.3,0.3-0.3h1
				c0.2,0,0.3,0.1,0.3,0.3V326.5z M513.6,321.9c0,2.4,1.2,3.8,3,3.8c1.5,0,2.8-1.1,3-3.2v-1.3c-0.2-2.1-1.5-3.1-3-3.1
				C514.8,318,513.6,319.5,513.6,321.9z"/>
			<path id="XMLID_5460_" class="st6" d="M125.1,344.5c0,3.1-2.1,5.4-4.8,5.4c-2.7,0-4.7-2.2-4.7-5.2c0-3.2,2.1-5.3,4.8-5.3
				C123.1,339.4,125.1,341.5,125.1,344.5z M117.2,344.5c0,2.4,1.4,3.9,3.2,3.9c1.8,0,3-1.5,3-3.7c0-2.4-1.4-3.9-3.2-3.9
				C118.5,340.9,117.2,342.3,117.2,344.5z"/>
			<path id="XMLID_5463_" class="st6" d="M135.5,349.4c0,0.2-0.1,0.3-0.3,0.3h-1.1c-0.2,0-0.3-0.1-0.3-0.3v-1.2h-0.1
				c-0.7,1.1-1.8,1.7-3.1,1.7c-1.9,0-3.2-1.3-3.2-3.8v-6.2c0-0.2,0.1-0.3,0.3-0.3h1c0.2,0,0.3,0.1,0.3,0.3v5.8c0,1.8,0.8,2.6,2,2.6
				c1.4,0,2.5-1,2.7-3.1v-5.4c0-0.2,0.1-0.3,0.3-0.3h1c0.2,0,0.3,0.1,0.3,0.3L135.5,349.4z"/>
			<path id="XMLID_5465_" class="st6" d="M143.1,340.6c0,0.2-0.1,0.3-0.3,0.3H141v8.4c0,0.2-0.1,0.3-0.3,0.3h-1.1
				c-0.2,0-0.3-0.1-0.3-0.3v-8.4h-1.5c-0.2,0-0.3-0.1-0.3-0.3v-0.8c0-0.2,0.1-0.3,0.3-0.3h1.5V336c0-0.2,0.1-0.3,0.3-0.3h1
				c0.2,0,0.3,0.1,0.3,0.3v3.6h1.9c0.2,0,0.3,0.1,0.3,0.3V340.6L143.1,340.6z"/>
			<path id="XMLID_5467_" class="st6" d="M153.7,340.6c0,0.2-0.1,0.3-0.3,0.3h-1.8v8.4c0,0.2-0.1,0.3-0.3,0.3h-1.1
				c-0.2,0-0.3-0.1-0.3-0.3v-8.4h-1.5c-0.2,0-0.3-0.1-0.3-0.3v-0.8c0-0.2,0.1-0.3,0.3-0.3h1.5V336c0-0.2,0.1-0.3,0.3-0.3h1
				c0.2,0,0.3,0.1,0.3,0.3v3.6h1.9c0.2,0,0.3,0.1,0.3,0.3L153.7,340.6L153.7,340.6z"/>
			<path id="XMLID_5469_" class="st6" d="M157.4,341.1c0.7-1,1.8-1.7,3.1-1.7c1.9,0,3.1,1.3,3.2,3.6v6.3c0,0.2-0.1,0.3-0.3,0.3h-1.2
				c-0.2,0-0.3-0.1-0.3-0.3v-5.9c0-1.6-0.8-2.4-2-2.4c-1.4,0-2.5,1-2.7,3v5.4c0,0.2-0.1,0.3-0.3,0.3h-1.1c-0.2,0-0.3-0.1-0.3-0.3
				l0.1-13.6c0-0.2,0.1-0.3,0.3-0.3h1c0.2,0,0.3,0.1,0.3,0.3v5.3L157.4,341.1z"/>
			<path id="XMLID_5471_" class="st6" d="M174.3,342.9l0.1,6.6c0,0.2-0.1,0.3-0.3,0.3H173c-0.2,0-0.3-0.1-0.3-0.3v-1.3h-0.1
				c-0.7,1-1.9,1.8-3.5,1.8c-1.8,0-3.1-1-3.1-2.8c0-2.1,1.6-3,5.3-3.4c0.9-0.1,1.4-0.4,1.4-1.1c0-1-0.8-1.8-2.3-1.8
				c-1.2,0-2,0.5-2.3,1.4c-0.1,0.2-0.2,0.2-0.3,0.2h-1c-0.2,0-0.3-0.1-0.3-0.3c0.4-1.7,1.8-2.8,4-2.8
				C172.8,339.4,174.3,340.6,174.3,342.9z M172.6,344.6c-0.3,0.2-0.8,0.3-1.5,0.3c-2.3,0.3-3.5,0.8-3.5,2c0,1,0.7,1.5,1.8,1.5
				c1.9,0,3.2-1.3,3.3-2.4L172.6,344.6L172.6,344.6z"/>
			<path id="XMLID_5474_" class="st6" d="M182,340.6c0,0.2-0.1,0.3-0.3,0.3h-1.8v8.4c0,0.2-0.1,0.3-0.3,0.3h-1.1
				c-0.2,0-0.3-0.1-0.3-0.3v-8.4h-1.5c-0.2,0-0.3-0.1-0.3-0.3v-0.8c0-0.2,0.1-0.3,0.3-0.3h1.5V336c0-0.2,0.1-0.3,0.3-0.3h1
				c0.2,0,0.3,0.1,0.3,0.3v3.6h1.9c0.2,0,0.3,0.1,0.3,0.3L182,340.6L182,340.6z"/>
			<path id="XMLID_5476_" class="st6" d="M192.5,340.6c0,0.2-0.1,0.3-0.3,0.3h-1.8v8.4c0,0.2-0.1,0.3-0.3,0.3H189
				c-0.2,0-0.3-0.1-0.3-0.3v-8.4h-1.5c-0.2,0-0.3-0.1-0.3-0.3v-0.8c0-0.2,0.1-0.3,0.3-0.3h1.5V336c0-0.2,0.1-0.3,0.3-0.3h1
				c0.2,0,0.3,0.1,0.3,0.3v3.6h1.9c0.2,0,0.3,0.1,0.3,0.3L192.5,340.6L192.5,340.6z"/>
			<path id="XMLID_5478_" class="st6" d="M196.3,341.1c0.7-1,1.8-1.7,3.1-1.7c1.9,0,3.1,1.3,3.2,3.6v6.3c0,0.2-0.1,0.3-0.3,0.3h-1.1
				c-0.2,0-0.3-0.1-0.3-0.3v-5.9c0-1.6-0.8-2.4-2-2.4c-1.4,0-2.5,1-2.7,3v5.4c0,0.2-0.1,0.3-0.3,0.3h-1.1c-0.2,0-0.3-0.1-0.3-0.3
				l0.1-13.6c0-0.2,0.1-0.3,0.3-0.3h1c0.2,0,0.3,0.1,0.3,0.3L196.3,341.1L196.3,341.1z"/>
			<path id="XMLID_5480_" class="st6" d="M213.9,344.5c0,0.2-0.1,0.3-0.3,0.3h-7.1c0,2.2,1.2,3.6,3.1,3.6c1.1,0,1.9-0.4,2.4-1.3
				c0.1-0.2,0.2-0.2,0.4-0.2h1c0.2,0,0.3,0.2,0.2,0.4c-0.8,1.7-2.3,2.7-4.1,2.7c-2.8,0-4.7-2.1-4.7-5.2c0-3.2,2-5.3,4.8-5.3
				C212.5,339.4,214,341.6,213.9,344.5z M206.6,343.5h5.6c-0.1-1.5-1-2.7-2.8-2.7C207.8,340.9,206.8,342,206.6,343.5z"/>
			<path id="XMLID_5483_" class="st6" d="M224,339.5c0.2,0,0.3,0.1,0.2,0.3l-4.8,13.7c-0.1,0.2-0.2,0.2-0.4,0.2h-1.1
				c-0.2,0-0.3-0.1-0.2-0.3l1.2-3.4l-3.6-10.2c-0.1-0.2,0-0.3,0.2-0.3h1c0.2,0,0.3,0.1,0.3,0.2l2.8,8h0.1l2.9-8
				c0.1-0.2,0.2-0.2,0.4-0.2L224,339.5L224,339.5z"/>
			<path id="XMLID_5485_" class="st6" d="M242.6,339.5c0.2,0,0.3,0.1,0.3,0.3l-2.6,9.5c-0.1,0.2-0.2,0.3-0.3,0.3h-1.6
				c-0.2,0-0.3-0.1-0.3-0.2l-1.9-6.7H236l-1.8,6.7c-0.1,0.2-0.2,0.3-0.3,0.3h-1.6c-0.2,0-0.3-0.1-0.3-0.3l-2.6-9.5
				c-0.1-0.2,0-0.3,0.3-0.3h1c0.2,0,0.3,0.1,0.3,0.3l2.1,8h0.2l2.1-8c0.1-0.2,0.2-0.3,0.3-0.3h0.9c0.2,0,0.3,0.1,0.3,0.3l2.2,8h0.2
				l2.1-8c0.1-0.2,0.2-0.3,0.3-0.3L242.6,339.5L242.6,339.5z"/>
			<path id="XMLID_5487_" class="st6" d="M253.3,344.5c0,0.2-0.1,0.3-0.3,0.3h-7.1c0,2.2,1.2,3.6,3.1,3.6c1.1,0,1.9-0.4,2.4-1.3
				c0.1-0.2,0.2-0.2,0.4-0.2h1c0.2,0,0.3,0.2,0.2,0.4c-0.8,1.7-2.3,2.7-4.1,2.7c-2.8,0-4.7-2.1-4.7-5.2c0-3.2,2-5.3,4.8-5.3
				C251.9,339.4,253.4,341.6,253.3,344.5z M246,343.5h5.6c-0.1-1.5-1-2.7-2.8-2.7C247.2,340.9,246.2,342,246,343.5z"/>
			<path id="XMLID_5490_" class="st6" d="M260.7,340.9c0,0.2-0.1,0.3-0.3,0.3c-1.7,0.1-2.9,0.7-3.1,3v5.2c0,0.2-0.1,0.3-0.3,0.3
				h-1.1c-0.2,0-0.3-0.1-0.3-0.3l0.1-9.5c0-0.2,0.1-0.3,0.3-0.3h1c0.2,0,0.3,0.1,0.3,0.3v1.3h0.1c0.7-1,1.7-1.7,3-1.8
				c0.2,0,0.3,0.1,0.3,0.3V340.9z"/>
			<path id="XMLID_5492_" class="st6" d="M271,344.5c0,0.2-0.1,0.3-0.3,0.3h-7.1c0,2.2,1.2,3.6,3.1,3.6c1.1,0,1.9-0.4,2.4-1.3
				c0.1-0.2,0.2-0.2,0.4-0.2h1c0.2,0,0.3,0.2,0.2,0.4c-0.8,1.7-2.3,2.7-4.1,2.7c-2.8,0-4.7-2.1-4.7-5.2c0-3.2,2-5.3,4.8-5.3
				C269.6,339.4,271.1,341.6,271,344.5z M263.7,343.5h5.6c-0.1-1.5-1-2.7-2.8-2.7C264.9,340.9,264,342,263.7,343.5z"/>
			<path id="XMLID_5495_" class="st6" d="M282,340.6c0,0.2-0.1,0.3-0.3,0.3h-1.8v8.4c0,0.2-0.1,0.3-0.3,0.3h-1.1
				c-0.2,0-0.3-0.1-0.3-0.3v-8.4h-1.5c-0.2,0-0.3-0.1-0.3-0.3v-0.8c0-0.2,0.1-0.3,0.3-0.3h1.5V336c0-0.2,0.1-0.3,0.3-0.3h1
				c0.2,0,0.3,0.1,0.3,0.3v3.6h1.9c0.2,0,0.3,0.1,0.3,0.3V340.6L282,340.6z"/>
			<path id="XMLID_5497_" class="st6" d="M292.8,344.5c0,3.1-2.1,5.4-4.8,5.4c-2.7,0-4.7-2.2-4.7-5.2c0-3.2,2.1-5.3,4.8-5.3
				C290.8,339.4,292.8,341.5,292.8,344.5z M285,344.5c0,2.4,1.4,3.9,3.2,3.9s3-1.5,3-3.7c0-2.4-1.4-3.9-3.2-3.9
				C286.2,340.9,285,342.3,285,344.5z"/>
			<path id="XMLID_5500_" class="st6" d="M304,344.5c0,3.1-2.1,5.4-4.8,5.4s-4.7-2.2-4.7-5.2c0-3.2,2.1-5.3,4.8-5.3
				C302.1,339.4,304,341.5,304,344.5z M296.2,344.5c0,2.4,1.4,3.9,3.2,3.9c1.8,0,3-1.5,3-3.7c0-2.4-1.4-3.9-3.2-3.9
				S296.2,342.3,296.2,344.5z"/>
			<path id="XMLID_5503_" class="st6" d="M312.1,341.1c0.7-1,1.8-1.7,3.1-1.7c1.9,0,3.1,1.3,3.2,3.6v6.3c0,0.2-0.1,0.3-0.3,0.3H317
				c-0.2,0-0.3-0.1-0.3-0.3v-5.9c0-1.6-0.8-2.4-2-2.4c-1.4,0-2.5,1-2.7,3v5.4c0,0.2-0.1,0.3-0.3,0.3h-1.1c-0.2,0-0.3-0.1-0.3-0.3
				l0.1-13.6c0-0.2,0.1-0.3,0.3-0.3h1c0.2,0,0.3,0.1,0.3,0.3L312.1,341.1L312.1,341.1z"/>
			<path id="XMLID_5505_" class="st6" d="M329.7,344.5c0,0.2-0.1,0.3-0.3,0.3h-7.1c0,2.2,1.2,3.6,3.1,3.6c1.1,0,1.9-0.4,2.4-1.3
				c0.1-0.2,0.2-0.2,0.4-0.2h1c0.2,0,0.3,0.2,0.2,0.4c-0.8,1.7-2.3,2.7-4.1,2.7c-2.8,0-4.7-2.1-4.7-5.2c0-3.2,2-5.3,4.8-5.3
				C328.4,339.4,329.8,341.6,329.7,344.5z M322.4,343.5h5.6c-0.1-1.5-1-2.7-2.8-2.7C323.6,340.9,322.7,342,322.4,343.5z"/>
			<path id="XMLID_5508_" class="st6" d="M339.8,342.9l0.1,6.6c0,0.2-0.1,0.3-0.3,0.3h-1.1c-0.2,0-0.3-0.1-0.3-0.3v-1.3h-0.1
				c-0.7,1-1.9,1.8-3.5,1.8c-1.8,0-3.1-1-3.1-2.8c0-2.1,1.6-3,5.3-3.4c0.9-0.1,1.4-0.4,1.4-1.1c0-1-0.8-1.8-2.3-1.8
				c-1.2,0-2,0.5-2.3,1.4c-0.1,0.2-0.2,0.2-0.3,0.2h-1c-0.2,0-0.3-0.1-0.3-0.3c0.4-1.7,1.8-2.8,4-2.8
				C338.3,339.4,339.8,340.6,339.8,342.9z M338.1,344.6c-0.3,0.2-0.8,0.3-1.5,0.3c-2.3,0.3-3.5,0.8-3.5,2c0,1,0.7,1.5,1.8,1.5
				c1.9,0,3.2-1.3,3.3-2.4L338.1,344.6L338.1,344.6z"/>
			<path id="XMLID_5511_" class="st6" d="M347.4,349.5c-0.1,0.2-0.2,0.2-0.3,0.2h-1.7c-0.2,0-0.3-0.1-0.3-0.2l-3.2-9.5
				c-0.1-0.2,0-0.3,0.2-0.3h1c0.2,0,0.3,0.1,0.3,0.2l2.8,8h0.2l2.8-8c0.1-0.2,0.2-0.2,0.3-0.2h1c0.2,0,0.3,0.1,0.2,0.3L347.4,349.5z
				"/>
			<path id="XMLID_5513_" class="st6" d="M360.3,339.5c0.2,0,0.3,0.1,0.2,0.3l-4.8,13.7c-0.1,0.2-0.2,0.2-0.4,0.2h-1.1
				c-0.2,0-0.3-0.1-0.2-0.3l1.2-3.4l-3.6-10.2c-0.1-0.2,0-0.3,0.2-0.3h1c0.2,0,0.3,0.1,0.3,0.2l2.8,8h0.1l2.9-8
				c0.1-0.2,0.2-0.2,0.4-0.2L360.3,339.5L360.3,339.5z"/>
			<path id="XMLID_5515_" class="st6" d="M371.7,336.6c0,0.2-0.1,0.3-0.3,0.3c-1.7,0-2.5,0.3-2.5,2.3v0.3h2.4c0.2,0,0.3,0.1,0.3,0.3
				v0.8c0,0.2-0.1,0.3-0.3,0.3h-2.4l0.1,8.4c0,0.2-0.1,0.3-0.3,0.3h-1.1c-0.2,0-0.3-0.1-0.3-0.3l0.1-8.4h-1.3
				c-0.2,0-0.3-0.1-0.3-0.3v-0.8c0-0.2,0.1-0.3,0.3-0.3h1.3v-0.2c0-3.2,1.7-4,4.1-3.9c0.2,0,0.3,0.1,0.3,0.3v0.9L371.7,336.6
				L371.7,336.6z"/>
			<path id="XMLID_5517_" class="st6" d="M382.5,344.5c0,3.1-2.1,5.4-4.8,5.4c-2.7,0-4.7-2.2-4.7-5.2c0-3.2,2.1-5.3,4.8-5.3
				C380.5,339.4,382.5,341.5,382.5,344.5z M374.6,344.5c0,2.4,1.4,3.9,3.2,3.9c1.8,0,3-1.5,3-3.7c0-2.4-1.4-3.9-3.2-3.9
				C375.9,340.9,374.6,342.3,374.6,344.5z"/>
			<path id="XMLID_5520_" class="st6" d="M389.8,340.9c0,0.2-0.1,0.3-0.3,0.3c-1.7,0.1-2.9,0.7-3.1,3v5.2c0,0.2-0.1,0.3-0.3,0.3H385
				c-0.2,0-0.3-0.1-0.3-0.3l0.1-9.5c0-0.2,0.1-0.3,0.3-0.3h1c0.2,0,0.3,0.1,0.3,0.3v1.3h0.1c0.7-1,1.7-1.7,3-1.8
				c0.2,0,0.3,0.1,0.3,0.3V340.9z"/>
			<path id="XMLID_5522_" class="st6" d="M400.4,340.6c0,0.2-0.1,0.3-0.3,0.3h-1.8v8.4c0,0.2-0.1,0.3-0.3,0.3h-1.1
				c-0.2,0-0.3-0.1-0.3-0.3v-8.4h-1.5c-0.2,0-0.3-0.1-0.3-0.3v-0.8c0-0.2,0.1-0.3,0.3-0.3h1.5V336c0-0.2,0.1-0.3,0.3-0.3h1
				c0.2,0,0.3,0.1,0.3,0.3v3.6h1.9c0.2,0,0.3,0.1,0.3,0.3V340.6z"/>
			<path id="XMLID_5524_" class="st6" d="M404.1,341.1c0.7-1,1.8-1.7,3.1-1.7c1.9,0,3.1,1.3,3.2,3.6v6.3c0,0.2-0.1,0.3-0.3,0.3H409
				c-0.2,0-0.3-0.1-0.3-0.3v-5.9c0-1.6-0.8-2.4-2-2.4c-1.4,0-2.5,1-2.7,3v5.4c0,0.2-0.1,0.3-0.3,0.3h-1.1c-0.2,0-0.3-0.1-0.3-0.3
				l0.1-13.6c0-0.2,0.1-0.3,0.3-0.3h1c0.2,0,0.3,0.1,0.3,0.3L404.1,341.1L404.1,341.1z"/>
			<path id="XMLID_5526_" class="st6" d="M421.8,344.5c0,0.2-0.1,0.3-0.3,0.3h-7.1c0,2.2,1.2,3.6,3.1,3.6c1.1,0,1.9-0.4,2.4-1.3
				c0.1-0.2,0.2-0.2,0.4-0.2h1c0.2,0,0.3,0.2,0.2,0.4c-0.8,1.7-2.3,2.7-4.1,2.7c-2.8,0-4.7-2.1-4.7-5.2c0-3.2,2-5.3,4.8-5.3
				C420.4,339.4,421.9,341.6,421.8,344.5z M414.4,343.5h5.6c-0.1-1.5-1-2.7-2.8-2.7C415.6,340.9,414.7,342,414.4,343.5z"/>
			<path id="XMLID_5529_" class="st6" d="M436.9,344.5c0,3.1-2.1,5.4-4.8,5.4c-2.7,0-4.7-2.2-4.7-5.2c0-3.2,2.1-5.3,4.8-5.3
				C434.9,339.4,436.9,341.5,436.9,344.5z M429.1,344.5c0,2.4,1.4,3.9,3.2,3.9c1.8,0,3-1.5,3-3.7c0-2.4-1.4-3.9-3.2-3.9
				C430.3,340.9,429.1,342.3,429.1,344.5z"/>
			<path id="XMLID_5532_" class="st6" d="M451.7,339.5c0.2,0,0.3,0.1,0.3,0.3l-2.6,9.5c-0.1,0.2-0.2,0.3-0.3,0.3h-1.6
				c-0.2,0-0.3-0.1-0.3-0.2l-1.9-6.7h-0.2l-1.8,6.7c-0.1,0.2-0.2,0.3-0.3,0.3h-1.8c-0.2,0-0.3-0.1-0.3-0.3l-2.6-9.5
				c-0.1-0.2,0-0.3,0.3-0.3h1c0.2,0,0.3,0.1,0.3,0.3l2.1,8h0.2l2.1-8c0.1-0.2,0.2-0.3,0.3-0.3h0.9c0.2,0,0.3,0.1,0.3,0.3l2.2,8h0.2
				l2.1-8c0.1-0.2,0.2-0.3,0.3-0.3L451.7,339.5L451.7,339.5z"/>
			<path id="XMLID_5534_" class="st6" d="M456.1,349.4c0,0.2-0.1,0.3-0.3,0.3h-1.1c-0.2,0-0.3-0.1-0.3-0.3l0.1-13.6
				c0-0.2,0.1-0.3,0.3-0.3h1c0.2,0,0.3,0.1,0.3,0.3V349.4z"/>
			<path id="XMLID_5536_" class="st6" d="M466.7,341.9c0.1,0.2,0,0.3-0.2,0.3h-1c-0.2,0-0.3-0.1-0.4-0.2c-0.5-0.7-1.2-1.2-2.4-1.2
				c-1.2,0-2,0.6-2,1.4s0.8,1.1,2.2,1.5l0.8,0.2c2.3,0.7,3.2,1.6,3.2,2.9c0,1.9-1.5,3-3.9,3c-2.3,0-3.7-1.2-4.3-2.8
				c-0.1-0.2,0-0.3,0.2-0.3h1.1c0.2,0,0.3,0.1,0.4,0.2c0.5,1,1.4,1.4,2.6,1.4s2.1-0.4,2.1-1.4c0-0.8-0.7-1.3-2.3-1.7l-0.8-0.2
				c-1.8-0.5-3.1-1.2-3.1-2.8c0-1.7,1.6-2.9,3.7-2.9C465.1,339.4,466.3,340.6,466.7,341.9z"/>
			<path id="XMLID_5538_" class="st6" d="M472,349.1c0,1.7-0.4,2.6-1.2,3.5c-0.1,0.1-0.3,0.2-0.4,0.1l-0.1-0.1
				c-0.2-0.1-0.2-0.2-0.1-0.4c0.6-0.9,0.8-1.9,0.1-2.4c-0.1-0.1-0.2-0.2-0.2-0.4V348c0-0.2,0.1-0.3,0.3-0.3h1.3
				c0.2,0,0.3,0.1,0.3,0.3L472,349.1L472,349.1z"/>
			<path id="XMLID_5540_" class="st6" d="M486.9,341.9c0.1,0.2,0,0.3-0.2,0.3h-1c-0.2,0-0.3-0.1-0.4-0.2c-0.5-0.7-1.2-1.2-2.4-1.2
				c-1.2,0-2,0.6-2,1.4s0.8,1.1,2.2,1.5l0.8,0.2c2.3,0.7,3.2,1.6,3.2,2.9c0,1.9-1.5,3-3.9,3c-2.3,0-3.7-1.2-4.3-2.8
				c-0.1-0.2,0-0.3,0.2-0.3h1.1c0.2,0,0.3,0.1,0.4,0.2c0.5,1,1.4,1.4,2.6,1.4s2.1-0.4,2.1-1.4c0-0.8-0.7-1.3-2.3-1.7l-0.8-0.2
				c-1.8-0.5-3.1-1.2-3.1-2.8c0-1.7,1.6-2.9,3.7-2.9C485.3,339.4,486.5,340.6,486.9,341.9z"/>
			<path id="XMLID_5542_" class="st6" d="M498.3,344.5c0,3.1-2.1,5.4-4.8,5.4c-2.7,0-4.7-2.2-4.7-5.2c0-3.2,2.1-5.3,4.8-5.3
				C496.3,339.4,498.3,341.5,498.3,344.5z M490.4,344.5c0,2.4,1.4,3.9,3.2,3.9c1.8,0,3-1.5,3-3.7c0-2.4-1.4-3.9-3.2-3.9
				C491.7,340.9,490.4,342.3,490.4,344.5z"/>
			<path id="XMLID_5545_" class="st6" d="M509.3,340.6c0,0.2-0.1,0.3-0.3,0.3h-1.8v8.4c0,0.2-0.1,0.3-0.3,0.3h-1.1
				c-0.2,0-0.3-0.1-0.3-0.3v-8.4H504c-0.2,0-0.3-0.1-0.3-0.3v-0.8c0-0.2,0.1-0.3,0.3-0.3h1.5V336c0-0.2,0.1-0.3,0.3-0.3h1
				c0.2,0,0.3,0.1,0.3,0.3v3.6h1.9c0.2,0,0.3,0.1,0.3,0.3L509.3,340.6L509.3,340.6z"/>
			<path id="XMLID_5547_" class="st6" d="M513,341.1c0.7-1,1.8-1.7,3.1-1.7c1.9,0,3.1,1.3,3.2,3.6v6.3c0,0.2-0.1,0.3-0.3,0.3h-1.1
				c-0.2,0-0.3-0.1-0.3-0.3v-5.9c0-1.6-0.8-2.4-2-2.4c-1.4,0-2.5,1-2.7,3v5.4c0,0.2-0.1,0.3-0.3,0.3h-1.1c-0.2,0-0.3-0.1-0.3-0.3
				l0.1-13.6c0-0.2,0.1-0.3,0.3-0.3h1c0.2,0,0.3,0.1,0.3,0.3L513,341.1L513,341.1z"/>
			<path id="XMLID_5549_" class="st6" d="M530.7,344.5c0,0.2-0.1,0.3-0.3,0.3h-7.2c0,2.2,1.2,3.6,3.1,3.6c1.1,0,1.9-0.4,2.4-1.3
				c0.1-0.2,0.2-0.2,0.4-0.2h1c0.2,0,0.3,0.2,0.2,0.4c-0.8,1.7-2.3,2.7-4.1,2.7c-2.8,0-4.7-2.1-4.7-5.2c0-3.2,2-5.3,4.8-5.3
				C529.3,339.4,530.8,341.6,530.7,344.5z M523.3,343.5h5.6c-0.1-1.5-1-2.7-2.8-2.7C524.5,340.9,523.6,342,523.3,343.5z"/>
			<path id="XMLID_5552_" class="st6" d="M540.7,339.5c0.2,0,0.3,0.1,0.2,0.3l-4.8,13.7c-0.1,0.2-0.2,0.2-0.4,0.2h-1.1
				c-0.2,0-0.3-0.1-0.2-0.3l1.2-3.4l-3.6-10.2c-0.1-0.2,0-0.3,0.2-0.3h1c0.2,0,0.3,0.1,0.3,0.2l2.8,8h0.1l2.9-8
				c0.1-0.2,0.2-0.2,0.4-0.2L540.7,339.5L540.7,339.5z"/>
			<path id="XMLID_5554_" class="st6" d="M118,364c0.7-1,1.8-1.7,3.1-1.7c1.9,0,3.1,1.3,3.2,3.6v6.3c0,0.2-0.1,0.3-0.3,0.3h-1.1
				c-0.2,0-0.3-0.1-0.3-0.3v-5.9c0-1.6-0.8-2.4-2-2.4c-1.4,0-2.5,1-2.7,3v5.4c0,0.2-0.1,0.3-0.3,0.3h-1.1c-0.2,0-0.3-0.1-0.3-0.3
				l0.1-13.6c0-0.2,0.1-0.3,0.3-0.3h1c0.2,0,0.3,0.1,0.3,0.3v5.3L118,364L118,364z"/>
			<path id="XMLID_5556_" class="st6" d="M134.9,365.6l0.1,6.6c0,0.2-0.1,0.3-0.3,0.3h-1.1c-0.2,0-0.3-0.1-0.3-0.3V371h-0.1
				c-0.7,1-1.9,1.8-3.5,1.8c-1.8,0-3.1-1-3.1-2.8c0-2.1,1.6-3,5.3-3.4c0.9-0.1,1.4-0.4,1.4-1.1c0-1-0.8-1.8-2.3-1.8
				c-1.2,0-2,0.5-2.3,1.4c-0.1,0.2-0.2,0.2-0.3,0.2h-1c-0.2,0-0.3-0.1-0.3-0.3c0.4-1.7,1.8-2.8,4-2.8
				C133.4,362.1,134.9,363.5,134.9,365.6z M133.2,367.5c-0.3,0.2-0.8,0.3-1.5,0.3c-2.3,0.3-3.5,0.8-3.5,2c0,1,0.7,1.5,1.8,1.5
				c1.9,0,3.2-1.3,3.3-2.4L133.2,367.5L133.2,367.5z"/>
			<path id="XMLID_5559_" class="st6" d="M146.5,372.1c0,0.2-0.1,0.3-0.3,0.3h-1.1c-0.2,0-0.3-0.1-0.3-0.3V371h-0.1
				c-0.7,1.1-1.9,1.7-3.2,1.7c-2.5,0-4.2-2.2-4.2-5.2c0-3.2,1.9-5.4,4.7-5.4c1.2,0,2.1,0.4,2.8,1.2h0.1v-4.8c0-0.2,0.1-0.3,0.3-0.3
				h1c0.2,0,0.3,0.1,0.3,0.3V372.1z M138.8,367.5c0,2.4,1.2,3.8,3,3.8c1.5,0,2.8-1.1,3-3.2v-1.3c-0.2-2.1-1.5-3.1-3-3.1
				C140,363.6,138.8,365,138.8,367.5z"/>
			<path id="XMLID_5562_" class="st6" d="M158,363.5c0,0.2-0.1,0.3-0.3,0.3h-1.8v8.4c0,0.2-0.1,0.3-0.3,0.3h-1.1
				c-0.2,0-0.3-0.1-0.3-0.3v-8.4h-1.5c-0.2,0-0.3-0.1-0.3-0.3v-0.8c0-0.2,0.1-0.3,0.3-0.3h1.5v-3.6c0-0.2,0.1-0.3,0.3-0.3h1
				c0.2,0,0.3,0.1,0.3,0.3v3.6h1.9c0.2,0,0.3,0.1,0.3,0.3C158,362.6,158,363.5,158,363.5z"/>
			<path id="XMLID_5564_" class="st6" d="M168.8,367.4c0,3.1-2.1,5.4-4.8,5.4s-4.7-2.2-4.7-5.2c0-3.2,2.1-5.3,4.8-5.3
				C166.8,362.1,168.8,364.3,168.8,367.4z M161,367.4c0,2.4,1.4,3.9,3.2,3.9s3-1.5,3-3.7c0-2.4-1.4-3.9-3.2-3.9S161,365,161,367.4z"
				/>
			<path id="XMLID_5567_" class="st6" d="M188.7,365.9v6.3c0,0.2-0.1,0.3-0.3,0.3h-1.1c-0.2,0-0.3-0.1-0.3-0.3v-5.9
				c0-1.7-0.7-2.5-1.8-2.5c-1.3,0-2.4,1-2.5,3.1v5.3c0,0.2-0.1,0.3-0.3,0.3h-1.2c-0.2,0-0.3-0.1-0.3-0.3v-5.9c0-1.7-0.7-2.5-1.8-2.5
				c-1.3,0-2.4,0.9-2.6,3.1v5.4c0,0.2-0.1,0.3-0.3,0.3h-1.1c-0.2,0-0.3-0.1-0.3-0.3l0.1-9.5c0-0.2,0.1-0.3,0.3-0.3h1
				c0.2,0,0.3,0.1,0.3,0.3v1.2h0.1c0.8-1,1.8-1.7,3.1-1.7s2.2,0.6,2.6,1.9h0.1c0.8-1.2,1.8-1.9,3.2-1.9
				C187.6,362.1,188.7,363.5,188.7,365.9z"/>
			<path id="XMLID_5569_" class="st6" d="M199.2,365.6l0.1,6.6c0,0.2-0.1,0.3-0.3,0.3h-1.1c-0.2,0-0.3-0.1-0.3-0.3V371h-0.1
				c-0.7,1-1.9,1.8-3.5,1.8c-1.8,0-3.1-1-3.1-2.8c0-2.1,1.6-3,5.3-3.4c0.9-0.1,1.4-0.4,1.4-1.1c0-1-0.8-1.8-2.3-1.8
				c-1.2,0-2,0.5-2.3,1.4c-0.1,0.2-0.2,0.2-0.3,0.2h-1c-0.2,0-0.3-0.1-0.3-0.3c0.4-1.7,1.8-2.8,4-2.8
				C197.8,362.1,199.2,363.5,199.2,365.6z M197.5,367.5c-0.3,0.2-0.8,0.3-1.5,0.3c-2.3,0.3-3.5,0.8-3.5,2c0,1,0.7,1.5,1.8,1.5
				c1.9,0,3.2-1.3,3.3-2.4L197.5,367.5L197.5,367.5z"/>
			<path id="XMLID_5572_" class="st6" d="M203.8,368.8v3.5c0,0.2-0.1,0.3-0.3,0.3h-1.1c-0.2,0-0.3-0.1-0.3-0.3l0.1-13.6
				c0-0.2,0.1-0.3,0.3-0.3h1c0.2,0,0.3,0.1,0.3,0.3v8.3l4.6-4.4c0.1-0.1,0.2-0.2,0.4-0.2h1.2c0.3,0,0.4,0.2,0.2,0.4l-3.9,3.7
				l4.2,5.6c0.2,0.2,0.1,0.4-0.2,0.4H209c-0.2,0-0.3-0.1-0.4-0.2l-3.4-4.8L203.8,368.8z"/>
			<path id="XMLID_5574_" class="st6" d="M221.4,367.4c0,0.2-0.1,0.3-0.3,0.3H214c0,2.2,1.2,3.6,3.1,3.6c1.1,0,1.9-0.4,2.4-1.3
				c0.1-0.2,0.2-0.2,0.4-0.2h1c0.2,0,0.3,0.2,0.2,0.4c-0.8,1.7-2.3,2.7-4.1,2.7c-2.8,0-4.7-2.1-4.7-5.2c0-3.2,2-5.3,4.8-5.3
				C220,362.1,221.5,364.5,221.4,367.4z M214,366.4h5.6c-0.1-1.5-1-2.7-2.8-2.7C215.2,363.6,214.3,364.9,214,366.4z"/>
			<path id="XMLID_5577_" class="st6" d="M232.4,363.5c0,0.2-0.1,0.3-0.3,0.3h-1.9v8.4c0,0.2-0.1,0.3-0.3,0.3h-1.1
				c-0.2,0-0.3-0.1-0.3-0.3v-8.4H227c-0.2,0-0.3-0.1-0.3-0.3v-0.8c0-0.2,0.1-0.3,0.3-0.3h1.5v-3.6c0-0.2,0.1-0.3,0.3-0.3h1
				c0.2,0,0.3,0.1,0.3,0.3v3.6h1.9c0.2,0,0.3,0.1,0.3,0.3v0.8L232.4,363.5L232.4,363.5z"/>
			<path id="XMLID_5579_" class="st6" d="M236.1,364c0.7-1,1.8-1.7,3.1-1.7c1.9,0,3.1,1.3,3.2,3.6v6.3c0,0.2-0.1,0.3-0.3,0.3H241
				c-0.2,0-0.3-0.1-0.3-0.3v-5.9c0-1.6-0.8-2.4-2-2.4c-1.4,0-2.5,1-2.7,3v5.4c0,0.2-0.1,0.3-0.3,0.3h-1.1c-0.2,0-0.3-0.1-0.3-0.3
				l0.1-13.6c0-0.2,0.1-0.3,0.3-0.3h1c0.2,0,0.3,0.1,0.3,0.3v5.3L236.1,364L236.1,364z"/>
			<path id="XMLID_5581_" class="st6" d="M253.7,367.4c0,0.2-0.1,0.3-0.3,0.3h-7.1c0,2.2,1.2,3.6,3.1,3.6c1.1,0,1.9-0.4,2.4-1.3
				c0.1-0.2,0.2-0.2,0.4-0.2h1c0.2,0,0.3,0.2,0.2,0.4c-0.8,1.7-2.3,2.7-4.1,2.7c-2.8,0-4.7-2.1-4.7-5.2c0-3.2,2-5.3,4.8-5.3
				C252.3,362.1,253.8,364.5,253.7,367.4z M246.4,366.4h5.6c-0.1-1.5-1-2.7-2.8-2.7C247.6,363.6,246.7,364.9,246.4,366.4z"/>
			<path id="XMLID_5584_" class="st6" d="M269.7,365.9v6.3c0,0.2-0.1,0.3-0.3,0.3h-1.1c-0.2,0-0.3-0.1-0.3-0.3v-5.9
				c0-1.7-0.7-2.5-1.8-2.5c-1.3,0-2.4,1-2.5,3.1v5.3c0,0.2-0.1,0.3-0.3,0.3h-1.2c-0.2,0-0.3-0.1-0.3-0.3v-5.9c0-1.7-0.7-2.5-1.8-2.5
				c-1.3,0-2.4,0.9-2.6,3.1v5.4c0,0.2-0.1,0.3-0.3,0.3h-1.1c-0.2,0-0.3-0.1-0.3-0.3l0.1-9.5c0-0.2,0.1-0.3,0.3-0.3h1
				c0.2,0,0.3,0.1,0.3,0.3v1.2h0.1c0.8-1,1.8-1.7,3.1-1.7s2.2,0.6,2.6,1.9h0.1c0.8-1.2,1.8-1.9,3.2-1.9
				C268.5,362.1,269.7,363.5,269.7,365.9z"/>
			<path id="XMLID_5586_" class="st6" d="M284.1,365.6l0.1,6.6c0,0.2-0.1,0.3-0.3,0.3h-1.1c-0.2,0-0.3-0.1-0.3-0.3V371h-0.1
				c-0.7,1-1.9,1.8-3.5,1.8c-1.8,0-3.1-1-3.1-2.8c0-2.1,1.6-3,5.3-3.4c0.9-0.1,1.4-0.4,1.4-1.1c0-1-0.8-1.8-2.3-1.8
				c-1.2,0-2,0.5-2.3,1.4c-0.1,0.2-0.2,0.2-0.3,0.2h-1c-0.2,0-0.3-0.1-0.3-0.3c0.4-1.7,1.8-2.8,4-2.8
				C282.7,362.1,284.1,363.5,284.1,365.6z M282.4,367.5c-0.3,0.2-0.8,0.3-1.5,0.3c-2.3,0.3-3.5,0.8-3.5,2c0,1,0.7,1.5,1.8,1.5
				c1.9,0,3.2-1.3,3.3-2.4L282.4,367.5L282.4,367.5z"/>
			<path id="XMLID_5589_" class="st6" d="M293.9,363.9L293.9,363.9l0.1-1.2c0-0.2,0.1-0.3,0.3-0.3h1c0.2,0,0.3,0.1,0.3,0.3l0.1,8.5
				c0,3.8-1.8,5.7-4.6,5.7c-2,0-3.3-0.9-4-2.5c-0.1-0.2,0-0.4,0.2-0.4h1c0.2,0,0.3,0.1,0.4,0.2c0.5,0.7,1.3,1.2,2.4,1.2
				c1.8,0,2.9-1,2.8-3.7v-0.4h-0.1c-0.7,0.9-1.6,1.3-2.8,1.3c-2.8,0-4.7-2-4.7-5.2c0-2.9,1.7-5.1,4.2-5.1
				C292,362.1,293.2,362.8,293.9,363.9z M288.1,367.5c0,2.2,1.1,3.5,3,3.5c1.6,0,2.8-0.9,3-2.8v-1.3c-0.2-2.1-1.5-3.3-3-3.3
				C289.3,363.6,288.1,365.1,288.1,367.5z"/>
			<path id="XMLID_5592_" class="st6" d="M306.3,365.6l0.1,6.6c0,0.2-0.1,0.3-0.3,0.3H305c-0.2,0-0.3-0.1-0.3-0.3V371h-0.1
				c-0.7,1-1.9,1.8-3.5,1.8c-1.8,0-3.1-1-3.1-2.8c0-2.1,1.6-3,5.3-3.4c0.9-0.1,1.4-0.4,1.4-1.1c0-1-0.8-1.8-2.3-1.8
				c-1.2,0-2,0.5-2.3,1.4c-0.1,0.2-0.2,0.2-0.3,0.2h-1c-0.2,0-0.3-0.1-0.3-0.3c0.4-1.7,1.8-2.8,4-2.8
				C304.9,362.1,306.3,363.5,306.3,365.6z M304.6,367.5c-0.3,0.2-0.8,0.3-1.5,0.3c-2.3,0.3-3.5,0.8-3.5,2c0,1,0.7,1.5,1.8,1.5
				c1.9,0,3.2-1.3,3.3-2.4L304.6,367.5L304.6,367.5z"/>
			<path id="XMLID_5595_" class="st6" d="M311.2,372.1c0,0.2-0.1,0.3-0.3,0.3h-1.1c-0.2,0-0.3-0.1-0.3-0.3l0.1-9.5
				c0-0.2,0.1-0.3,0.3-0.3h1c0.2,0,0.3,0.1,0.3,0.3V372.1z M311.1,360c0,0.2-0.1,0.3-0.3,0.3h-1c-0.2,0-0.3-0.1-0.3-0.3v-1.3
				c0-0.2,0.1-0.3,0.3-0.3h1c0.2,0,0.3,0.1,0.3,0.3V360z"/>
			<path id="XMLID_5598_" class="st6" d="M322.4,365.9v6.3c0,0.2-0.1,0.3-0.3,0.3H321c-0.2,0-0.3-0.1-0.3-0.3v-5.9
				c0-1.7-0.8-2.5-2.1-2.5c-1.4,0-2.5,1-2.7,3.1v5.4c0,0.2-0.1,0.3-0.3,0.3h-1.1c-0.2,0-0.3-0.1-0.3-0.3l0.1-9.5
				c0-0.2,0.1-0.3,0.3-0.3h1c0.2,0,0.3,0.1,0.3,0.3v1.2h0.1c0.8-1.1,1.8-1.7,3.2-1.7C321.1,362.1,322.4,363.5,322.4,365.9z"/>
			<path id="XMLID_5600_" class="st6" d="M327.6,372.1c0,0.2-0.1,0.3-0.3,0.3H326c-0.2,0-0.3-0.1-0.3-0.3v-1.4
				c0-0.2,0.1-0.3,0.3-0.3h1.3c0.2,0,0.3,0.1,0.3,0.3V372.1z"/>
		</g>
	</g>
	<g id="owlBold">
		<g id="XMLID_5085_">
			<g id="XMLID_6846_">
				<path id="XMLID_6968_" class="st7" d="M492.1,434.5h6.7c0.3,0,0.4,0.2,0.4,0.4v1.5c0,0.3-0.2,0.4-0.4,0.4h-6.7v4.9h7.6
					c0.3,0,0.4,0.2,0.4,0.4v1.5c0,0.3-0.2,0.4-0.4,0.4h-9.9c-0.3,0-0.4-0.2-0.4-0.4l0.1-15.2c0-0.3,0.2-0.4,0.4-0.4h9.9
					c0.3,0,0.4,0.2,0.4,0.4v1.5c0,0.3-0.2,0.4-0.4,0.4h-7.7V434.5z"/>
				<path id="XMLID_6966_" class="st7" d="M509,443.8c-0.1,0.2-0.2,0.4-0.5,0.4h-2.6c-0.2,0-0.4-0.1-0.5-0.4l-3.7-11
					c-0.1-0.3,0-0.5,0.4-0.5h1.6c0.2,0,0.4,0.1,0.5,0.4l2.9,8.7h0.3l2.9-8.7c0.1-0.2,0.2-0.4,0.5-0.4h1.6c0.3,0,0.5,0.2,0.4,0.5
					L509,443.8z"/>
				<path id="XMLID_6963_" class="st7" d="M525,438.4c0,0.3-0.2,0.4-0.5,0.4h-7.9c0.1,2.4,1.5,3.4,3.3,3.4c1,0,1.7-0.4,2.3-1.3
					c0.1-0.2,0.3-0.3,0.5-0.3h1.6c0.3,0,0.5,0.2,0.4,0.5c-0.9,2.2-2.8,3.3-5,3.3c-3.3,0-5.6-2.4-5.6-6.2c0-3.7,2.3-6.4,5.8-6.4
					C523.5,431.9,525.2,434.8,525,438.4z M516.8,436.8h5.6c0-1.3-0.9-2.6-2.7-2.6C517.8,434.1,517.1,435.5,516.8,436.8z"/>
				<path id="XMLID_6961_" class="st7" d="M537.5,436.5v7.2c0,0.3-0.2,0.4-0.4,0.4h-1.9c-0.3,0-0.4-0.2-0.4-0.4v-6.5
					c0-1.8-0.8-2.8-2.1-2.8c-1.6,0-2.8,1.3-2.7,4.1v5.2c0,0.3-0.2,0.4-0.4,0.4h-1.8c-0.3,0-0.4-0.2-0.4-0.4l0.1-10.9
					c0-0.3,0.2-0.4,0.4-0.4h1.7c0.3,0,0.4,0.2,0.4,0.4v1.2h0.2c0.9-1.3,2-2,3.4-2C535.9,432,537.5,433.5,537.5,436.5z"/>
				<path id="XMLID_6959_" class="st7" d="M550.9,434c0,0.3-0.2,0.4-0.4,0.4h-1.9v9.2c0,0.3-0.2,0.4-0.4,0.4h-1.8
					c-0.3,0-0.4-0.2-0.4-0.4v-9.2h-1.6c-0.3,0-0.4-0.2-0.4-0.4v-1.3c0-0.3,0.2-0.4,0.4-0.4h1.6v-4c0-0.3,0.2-0.4,0.4-0.4h1.7
					c0.3,0,0.4,0.2,0.4,0.4v4h1.9c0.3,0,0.4,0.2,0.4,0.4L550.9,434L550.9,434z"/>
				<path id="XMLID_6957_" class="st7" d="M555.8,433.9c0.8-1.3,2-1.8,3.3-1.8c2.3,0,3.8,1.6,3.8,4.4v7.2c0,0.3-0.2,0.4-0.4,0.4
					h-1.8c-0.3,0-0.4-0.2-0.4-0.4l0.1-6.5c0-1.8-0.8-2.6-2.1-2.6c-1.6,0-2.8,1.2-2.7,3.9v5.2c0,0.3-0.2,0.4-0.4,0.4h-1.8
					c-0.3,0-0.4-0.2-0.4-0.4l0.1-15.7c0-0.3,0.2-0.4,0.4-0.4h1.7c0.3,0,0.4,0.2,0.4,0.4v5.9H555.8L555.8,433.9z"/>
				<path id="XMLID_6954_" class="st7" d="M576.2,438.4c0,0.3-0.2,0.4-0.5,0.4h-7.9c0.1,2.4,1.5,3.4,3.3,3.4c1,0,1.7-0.4,2.3-1.3
					c0.1-0.2,0.3-0.3,0.5-0.3h1.6c0.3,0,0.5,0.2,0.4,0.5c-0.9,2.2-2.8,3.3-5,3.3c-3.3,0-5.6-2.4-5.6-6.2c0-3.7,2.3-6.4,5.8-6.4
					C574.7,431.9,576.4,434.8,576.2,438.4z M568,436.8h5.6c0-1.3-0.9-2.6-2.7-2.6C569,434.1,568.3,435.5,568,436.8z"/>
				<path id="XMLID_6952_" class="st7" d="M588.7,436.5v7.2c0,0.3-0.2,0.4-0.4,0.4h-1.8c-0.3,0-0.4-0.2-0.4-0.4v-6.5
					c0-1.8-0.8-2.8-2.1-2.8c-1.6,0-2.8,1.3-2.7,4.1v5.2c0,0.3-0.2,0.4-0.4,0.4h-1.8c-0.3,0-0.4-0.2-0.4-0.4l0.1-10.9
					c0-0.3,0.2-0.4,0.4-0.4h1.7c0.3,0,0.4,0.2,0.4,0.4v1.2h0.2c0.9-1.3,2-2,3.4-2C587.1,432,588.7,433.5,588.7,436.5z"/>
				<path id="XMLID_6949_" class="st7" d="M595.9,443.4c0,2.3-0.5,3.6-1.8,4.8c-0.2,0.2-0.4,0.2-0.6,0.1l-0.2-0.1
					c-0.3-0.1-0.3-0.4-0.1-0.6c0.9-1.3,1.1-2.6,0-3.3c-0.2-0.1-0.3-0.3-0.3-0.5v-1.9c0-0.3,0.2-0.4,0.4-0.4h2.2
					c0.3,0,0.4,0.2,0.4,0.4L595.9,443.4L595.9,443.4z"/>
				<path id="XMLID_6946_" class="st7" d="M607.3,443.6c0,0.3-0.2,0.4-0.4,0.4h-1.8c-0.3,0-0.4-0.2-0.4-0.4l0.1-10.9
					c0-0.3,0.2-0.4,0.4-0.4h1.7c0.3,0,0.4,0.2,0.4,0.4L607.3,443.6L607.3,443.6z M607.3,429.6c0,0.3-0.2,0.4-0.4,0.4h-1.7
					c-0.3,0-0.4-0.2-0.4-0.4v-1.7c0-0.3,0.2-0.4,0.4-0.4h1.7c0.3,0,0.4,0.2,0.4,0.4V429.6L607.3,429.6z"/>
				<path id="XMLID_6944_" class="st7" d="M616.6,434c0,0.3-0.2,0.4-0.4,0.4h-1.9v9.2c0,0.3-0.2,0.4-0.4,0.4h-1.8
					c-0.3,0-0.4-0.2-0.4-0.4v-9.2h-1.6c-0.3,0-0.4-0.2-0.4-0.4v-1.3c0-0.3,0.2-0.4,0.4-0.4h1.6v-4c0-0.3,0.2-0.4,0.4-0.4h1.7
					c0.3,0,0.4,0.2,0.4,0.4v4h1.9c0.3,0,0.4,0.2,0.4,0.4L616.6,434L616.6,434z"/>
				<path id="XMLID_6942_" class="st7" d="M629,434c0,0.3-0.2,0.4-0.4,0.4h-1.9v9.2c0,0.3-0.2,0.4-0.4,0.4h-1.8
					c-0.3,0-0.4-0.2-0.4-0.4v-9.2h-1.6c-0.3,0-0.4-0.2-0.4-0.4v-1.3c0-0.3,0.2-0.4,0.4-0.4h1.6v-4c0-0.3,0.2-0.4,0.4-0.4h1.7
					c0.3,0,0.4,0.2,0.4,0.4v4h1.9c0.3,0,0.4,0.2,0.4,0.4L629,434L629,434z"/>
				<path id="XMLID_6939_" class="st7" d="M641.9,438c0,3.7-2.5,6.4-5.9,6.4c-3.2,0-5.7-2.6-5.7-6.2c0-3.7,2.5-6.3,5.9-6.3
					C639.4,432,641.9,434.4,641.9,438z M632.9,438c0,2.5,1.5,4.1,3.3,4.1c1.7,0,3-1.5,3-3.8c0-2.6-1.5-4.1-3.3-4.1
					C634.2,434.1,632.9,435.6,632.9,438z"/>
				<path id="XMLID_6936_" class="st7" d="M655,438c0,3.7-2.5,6.4-5.9,6.4c-3.2,0-5.7-2.6-5.7-6.2c0-3.7,2.5-6.3,5.9-6.3
					C652.6,432,655,434.4,655,438z M646.1,438c0,2.5,1.5,4.1,3.3,4.1c1.7,0,3-1.5,3-3.8c0-2.6-1.5-4.1-3.3-4.1
					C647.4,434.1,646.1,435.6,646.1,438z"/>
				<path id="XMLID_6934_" class="st7" d="M660.1,439.8v3.9c0,0.3-0.2,0.4-0.4,0.4h-1.8c-0.3,0-0.4-0.2-0.4-0.4l0.1-15.7
					c0-0.3,0.2-0.4,0.4-0.4h1.7c0.3,0,0.4,0.2,0.4,0.4v9l4.7-4.5c0.2-0.2,0.3-0.2,0.5-0.2h1.9c0.4,0,0.5,0.3,0.2,0.5l-4.6,4.4
					l4.8,6.3c0.2,0.3,0.1,0.5-0.3,0.5h-2c-0.2,0-0.4-0.1-0.5-0.3l-3.6-5.1L660.1,439.8z"/>
				<path id="XMLID_6932_" class="st7" d="M680.6,434c0,0.3-0.2,0.4-0.4,0.4h-1.9v9.2c0,0.3-0.2,0.4-0.4,0.4h-1.8
					c-0.3,0-0.4-0.2-0.4-0.4v-9.2h-1.6c-0.3,0-0.4-0.2-0.4-0.4v-1.3c0-0.3,0.2-0.4,0.4-0.4h1.6v-4c0-0.3,0.2-0.4,0.4-0.4h1.7
					c0.3,0,0.4,0.2,0.4,0.4v4h1.9c0.3,0,0.4,0.2,0.4,0.4L680.6,434L680.6,434z"/>
				<path id="XMLID_6930_" class="st7" d="M685.5,433.9c0.8-1.3,2-1.8,3.3-1.8c2.3,0,3.8,1.6,3.8,4.4v7.2c0,0.3-0.2,0.4-0.4,0.4
					h-1.8c-0.3,0-0.4-0.2-0.4-0.4l0.1-6.5c0-1.8-0.8-2.6-2.1-2.6c-1.6,0-2.8,1.2-2.7,3.9v5.2c0,0.3-0.2,0.4-0.4,0.4h-1.8
					c-0.3,0-0.4-0.2-0.4-0.4l0.1-15.7c0-0.3,0.2-0.4,0.4-0.4h1.7c0.3,0,0.4,0.2,0.4,0.4v5.9H685.5L685.5,433.9z"/>
				<path id="XMLID_6927_" class="st7" d="M706,438.4c0,0.3-0.2,0.4-0.5,0.4h-7.9c0.1,2.4,1.5,3.4,3.3,3.4c1,0,1.7-0.4,2.3-1.3
					c0.1-0.2,0.3-0.3,0.5-0.3h1.6c0.3,0,0.5,0.2,0.4,0.5c-0.9,2.2-2.8,3.3-5,3.3c-3.3,0-5.6-2.4-5.6-6.2c0-3.7,2.3-6.4,5.8-6.4
					C704.5,431.9,706.2,434.8,706,438.4z M697.7,436.8h5.6c0-1.3-0.9-2.6-2.7-2.6S698,435.5,697.7,436.8z"/>
				<path id="XMLID_6924_" class="st7" d="M482.2,464.5c0,3.7-2.5,6.4-5.9,6.4c-3.2,0-5.7-2.6-5.7-6.2c0-3.7,2.5-6.3,5.9-6.3
					C479.8,458.4,482.2,460.8,482.2,464.5z M473.3,464.4c0,2.5,1.5,4.1,3.3,4.1c1.7,0,3-1.5,3-3.8c0-2.6-1.5-4.1-3.3-4.1
					C474.6,460.5,473.3,462,473.3,464.4z"/>
				<path id="XMLID_6922_" class="st7" d="M499.5,458.6c0.3,0,0.5,0.2,0.4,0.5l-2.9,11c-0.1,0.2-0.2,0.4-0.5,0.4H494
					c-0.3,0-0.4-0.1-0.5-0.4l-1.7-6.5h-0.2l-1.7,6.5c-0.1,0.2-0.2,0.4-0.5,0.4h-2.5c-0.3,0-0.4-0.1-0.5-0.4l-2.9-11
					c-0.1-0.3,0.1-0.5,0.4-0.5h1.6c0.3,0,0.4,0.1,0.5,0.4l2.1,8.7h0.3l2.1-8.7c0.1-0.2,0.2-0.4,0.5-0.4h1.4c0.3,0,0.4,0.1,0.5,0.4
					l2.1,8.7h0.3l2.1-8.7c0.1-0.2,0.2-0.4,0.5-0.4H499.5z"/>
				<path id="XMLID_6920_" class="st7" d="M505,470c0,0.3-0.2,0.4-0.4,0.4h-1.8c-0.3,0-0.4-0.2-0.4-0.4l0.1-15.7
					c0-0.3,0.2-0.4,0.4-0.4h1.7c0.3,0,0.4,0.2,0.4,0.4V470z"/>
				<path id="XMLID_6918_" class="st7" d="M517.7,461.5c0.1,0.3-0.1,0.5-0.4,0.5h-1.6c-0.2,0-0.4-0.1-0.5-0.3
					c-0.5-0.7-1.3-1.1-2.4-1.1c-1.2,0-1.9,0.6-1.9,1.3c0,0.6,0.7,0.9,2.4,1.4l0.9,0.3c2.8,0.8,3.9,1.9,3.9,3.5
					c0,2.3-1.9,3.8-4.8,3.8c-3,0-4.6-1.6-5.2-3.4c-0.1-0.3,0.1-0.5,0.4-0.5h1.8c0.2,0,0.4,0.1,0.5,0.3c0.6,1,1.5,1.3,2.7,1.3
					c1.3,0,2-0.4,2-1.3c0-0.7-0.6-1.1-2.4-1.7l-0.9-0.2c-2.2-0.6-3.8-1.5-3.8-3.4c0-2.2,2-3.7,4.6-3.7
					C515.7,458.4,517.3,460,517.7,461.5z"/>
				<path id="XMLID_6916_" class="st7" d="M533.9,461.5c0.1,0.3-0.1,0.5-0.4,0.5h-1.6c-0.2,0-0.4-0.1-0.5-0.3
					c-0.5-0.7-1.3-1.1-2.4-1.1c-1.2,0-1.9,0.6-1.9,1.3c0,0.6,0.7,0.9,2.4,1.4l0.9,0.3c2.8,0.8,3.9,1.9,3.9,3.5
					c0,2.3-1.9,3.8-4.8,3.8c-3,0-4.6-1.6-5.2-3.4c-0.1-0.3,0.1-0.5,0.4-0.5h1.8c0.2,0,0.4,0.1,0.5,0.3c0.6,1,1.5,1.3,2.7,1.3
					c1.3,0,2-0.4,2-1.3c0-0.7-0.6-1.1-2.4-1.7l-0.9-0.2c-2.2-0.6-3.8-1.5-3.8-3.4c0-2.2,2-3.7,4.6-3.7
					C531.9,458.4,533.5,460,533.9,461.5z"/>
				<path id="XMLID_6913_" class="st7" d="M539.4,470c0,0.3-0.2,0.4-0.4,0.4h-1.8c-0.3,0-0.4-0.2-0.4-0.4l0.1-10.9
					c0-0.3,0.2-0.4,0.4-0.4h1.7c0.3,0,0.4,0.2,0.4,0.4V470z M539.4,456c0,0.3-0.2,0.4-0.4,0.4h-1.7c-0.3,0-0.4-0.2-0.4-0.4v-1.7
					c0-0.3,0.2-0.4,0.4-0.4h1.7c0.3,0,0.4,0.2,0.4,0.4V456z"/>
				<path id="XMLID_6911_" class="st7" d="M552.7,470c0.2,0.3,0.1,0.5-0.3,0.5h-2c-0.2,0-0.4-0.1-0.5-0.3l-2.6-3.9l-2.6,3.9
					c-0.1,0.2-0.3,0.3-0.5,0.3h-1.9c-0.4,0-0.5-0.2-0.3-0.5l4-5.6l-3.4-5.1c-0.2-0.3-0.1-0.5,0.3-0.5h1.8c0.2,0,0.4,0.1,0.5,0.3
					l2.6,3.8l2.6-3.8c0.1-0.2,0.3-0.3,0.5-0.3h1.7c0.4,0,0.5,0.2,0.3,0.5l-3.8,5.5L552.7,470z"/>
				<path id="XMLID_6909_" class="st7" d="M576.3,462.9l0.1,7.2c0,0.3-0.2,0.4-0.4,0.4h-1.8c-0.3,0-0.4-0.2-0.4-0.4v-6.5
					c0-1.9-0.6-2.8-1.9-2.8c-1.5,0-2.7,1.3-2.5,4.1v5.2c0,0.3-0.2,0.4-0.4,0.4h-1.8c-0.3,0-0.4-0.2-0.4-0.4v-6.5
					c0-1.9-0.7-2.8-1.9-2.8c-1.3,0-2.7,1.1-2.5,4.1v5.2c0,0.3-0.2,0.4-0.4,0.4h-1.8c-0.3,0-0.4-0.2-0.4-0.4l0.1-10.9
					c0-0.3,0.2-0.4,0.4-0.4h1.7c0.3,0,0.4,0.2,0.4,0.4v1.2h0.1c0.9-1.2,2-2,3.3-2c1.4,0,2.5,0.7,3.1,2.2h0.2c1-1.4,2.1-2.2,3.6-2.2
					C574.8,458.4,576.3,460,576.3,462.9z"/>
				<path id="XMLID_6906_" class="st7" d="M590.1,464.5c0,3.7-2.5,6.4-5.9,6.4c-3.2,0-5.7-2.6-5.7-6.2c0-3.7,2.5-6.3,5.9-6.3
					C587.7,458.4,590.1,460.8,590.1,464.5z M581.2,464.4c0,2.5,1.5,4.1,3.3,4.1c1.7,0,3-1.5,3-3.8c0-2.6-1.5-4.1-3.3-4.1
					S581.2,462,581.2,464.4z"/>
				<path id="XMLID_6904_" class="st7" d="M602.6,462.9v7.2c0,0.3-0.2,0.4-0.4,0.4h-1.8c-0.3,0-0.4-0.2-0.4-0.4v-6.5
					c0-1.8-0.8-2.8-2.1-2.8c-1.6,0-2.8,1.3-2.7,4.1v5.2c0,0.3-0.2,0.4-0.4,0.4H593c-0.3,0-0.4-0.2-0.4-0.4l0.1-10.9
					c0-0.3,0.2-0.4,0.4-0.4h1.7c0.3,0,0.4,0.2,0.4,0.4v1.2h0.2c0.9-1.3,2-2,3.4-2C601,458.4,602.6,460,602.6,462.9z"/>
				<path id="XMLID_6902_" class="st7" d="M611.7,460.4c0,0.3-0.2,0.4-0.4,0.4h-1.9v9.2c0,0.3-0.2,0.4-0.4,0.4h-1.8
					c-0.3,0-0.4-0.2-0.4-0.4v-9.2h-1.6c-0.3,0-0.4-0.2-0.4-0.4v-1.3c0-0.3,0.2-0.4,0.4-0.4h1.6v-4c0-0.3,0.2-0.4,0.4-0.4h1.7
					c0.3,0,0.4,0.2,0.4,0.4v4h1.9c0.3,0,0.4,0.2,0.4,0.4L611.7,460.4L611.7,460.4z"/>
				<path id="XMLID_6900_" class="st7" d="M616.5,460.3c0.8-1.3,2-1.8,3.3-1.8c2.3,0,3.8,1.6,3.8,4.4v7.2c0,0.3-0.2,0.4-0.4,0.4
					h-1.8c-0.3,0-0.4-0.2-0.4-0.4l0.1-6.5c0-1.8-0.8-2.6-2.1-2.6c-1.6,0-2.8,1.2-2.7,3.9v5.2c0,0.3-0.2,0.4-0.4,0.4h-1.8
					c-0.3,0-0.4-0.2-0.4-0.4l0.1-15.7c0-0.3,0.2-0.4,0.4-0.4h1.7c0.3,0,0.4,0.2,0.4,0.4v5.9H616.5L616.5,460.3z"/>
				<path id="XMLID_6898_" class="st7" d="M636,461.5c0.1,0.3-0.1,0.5-0.4,0.5H634c-0.2,0-0.4-0.1-0.5-0.3c-0.5-0.7-1.3-1.1-2.4-1.1
					c-1.2,0-1.9,0.6-1.9,1.3c0,0.6,0.7,0.9,2.4,1.4l0.9,0.3c2.8,0.8,3.9,1.9,3.9,3.5c0,2.3-1.9,3.8-4.8,3.8c-3,0-4.6-1.6-5.2-3.4
					c-0.1-0.3,0.1-0.5,0.4-0.5h1.8c0.2,0,0.4,0.1,0.5,0.3c0.6,1,1.5,1.3,2.7,1.3c1.3,0,2-0.4,2-1.3c0-0.7-0.6-1.1-2.4-1.7l-0.9-0.2
					c-2.2-0.6-3.8-1.5-3.8-3.4c0-2.2,2-3.7,4.6-3.7C634,458.4,635.6,460,636,461.5z"/>
				<path id="XMLID_6896_" class="st7" d="M649,460.4c0,0.3-0.2,0.4-0.4,0.4h-1.9v9.2c0,0.3-0.2,0.4-0.4,0.4h-1.8
					c-0.3,0-0.4-0.2-0.4-0.4v-9.2h-1.6c-0.3,0-0.4-0.2-0.4-0.4v-1.3c0-0.3,0.2-0.4,0.4-0.4h1.6v-4c0-0.3,0.2-0.4,0.4-0.4h1.7
					c0.3,0,0.4,0.2,0.4,0.4v4h1.9c0.3,0,0.4,0.2,0.4,0.4L649,460.4L649,460.4z"/>
				<path id="XMLID_6893_" class="st7" d="M661.8,464.5c0,3.7-2.5,6.4-5.9,6.4c-3.2,0-5.7-2.6-5.7-6.2c0-3.7,2.5-6.3,5.9-6.3
					C659.4,458.4,661.8,460.8,661.8,464.5z M652.9,464.4c0,2.5,1.5,4.1,3.3,4.1c1.7,0,3-1.5,3-3.8c0-2.6-1.5-4.1-3.3-4.1
					C654.2,460.5,652.9,462,652.9,464.4z"/>
				<path id="XMLID_6891_" class="st7" d="M671.6,470c0,0.3-0.2,0.4-0.4,0.4h-1.8c-0.3,0-0.4-0.2-0.4-0.4l0.1-15.7
					c0-0.3,0.2-0.4,0.4-0.4h1.7c0.3,0,0.4,0.2,0.4,0.4V470z"/>
				<path id="XMLID_6888_" class="st7" d="M685.3,464.8c0,0.3-0.2,0.4-0.5,0.4h-7.9c0.1,2.4,1.5,3.4,3.3,3.4c1,0,1.7-0.4,2.3-1.3
					c0.1-0.2,0.3-0.3,0.5-0.3h1.6c0.3,0,0.5,0.2,0.4,0.5c-0.9,2.2-2.8,3.3-5,3.3c-3.3,0-5.6-2.4-5.6-6.2c0-3.7,2.3-6.4,5.8-6.4
					C683.8,458.3,685.5,461.1,685.3,464.8z M677.1,463.1h5.6c0-1.3-0.9-2.6-2.7-2.6C678.1,460.5,677.4,461.9,677.1,463.1z"/>
				<path id="XMLID_6885_" class="st7" d="M697.3,462.5l0.1,7.5c0,0.3-0.2,0.4-0.4,0.4h-1.8c-0.3,0-0.4-0.2-0.4-0.4v-1.3h-0.2
					c-0.8,1.2-2.2,2-4,2c-2.1,0-3.6-1.2-3.6-3.3c0-2.5,1.9-3.6,6.3-4.1c1-0.1,1.5-0.5,1.5-1.2c0-0.9-0.9-1.6-2.3-1.6
					c-1.2,0-1.9,0.5-2.3,1.3c-0.1,0.2-0.3,0.4-0.5,0.4h-1.6c-0.3,0-0.5-0.2-0.4-0.4c0.5-2.1,2.2-3.5,5-3.5
					C695.4,458.4,697.3,459.9,697.3,462.5z M694.6,464.9c-0.4,0.1-1,0.3-1.5,0.4c-2.2,0.4-3.5,0.8-3.5,2c0,0.8,0.5,1.3,1.7,1.3
					c2.2,0,3.6-1.7,3.5-2.9V465L694.6,464.9z"/>
				<path id="XMLID_6883_" class="st7" d="M706.8,460.6c0,0.3-0.2,0.4-0.4,0.4c-2,0.1-3.5,0.7-3.3,3.7v5.3c0,0.3-0.2,0.4-0.4,0.4
					h-1.8c-0.3,0-0.4-0.2-0.4-0.4l0.1-10.9c0-0.3,0.2-0.4,0.4-0.4h1.7c0.3,0,0.4,0.2,0.4,0.4v1.1h0.2c0.8-1.1,2-1.8,3.2-1.9
					c0.3,0,0.5,0.1,0.5,0.4v1.9H706.8z"/>
				<path id="XMLID_6881_" class="st7" d="M718.9,462.9v7.2c0,0.3-0.2,0.4-0.4,0.4h-1.8c-0.3,0-0.4-0.2-0.4-0.4v-6.5
					c0-1.8-0.8-2.8-2.1-2.8c-1.6,0-2.8,1.3-2.7,4.1v5.2c0,0.3-0.2,0.4-0.4,0.4h-1.9c-0.3,0-0.4-0.2-0.4-0.4l0.1-10.9
					c0-0.3,0.2-0.4,0.4-0.4h1.7c0.3,0,0.4,0.2,0.4,0.4v1.2h0.2c0.9-1.3,2-2,3.4-2C717.3,458.4,718.9,460,718.9,462.9z"/>
				<path id="XMLID_6879_" class="st7" d="M503.4,486.6c0.8-1.3,2-1.8,3.3-1.8c2.3,0,3.8,1.6,3.8,4.4v7.2c0,0.3-0.2,0.4-0.4,0.4
					h-1.8c-0.3,0-0.4-0.2-0.4-0.4l0.1-6.5c0-1.8-0.8-2.6-2.1-2.6c-1.6,0-2.8,1.2-2.7,3.9v5.2c0,0.3-0.2,0.4-0.4,0.4H501
					c-0.3,0-0.4-0.2-0.4-0.4l0.1-15.7c0-0.3,0.2-0.4,0.4-0.4h1.7c0.3,0,0.4,0.2,0.4,0.4v5.9H503.4L503.4,486.6z"/>
				<path id="XMLID_6876_" class="st7" d="M524.4,490.9c0,3.7-2.5,6.4-5.9,6.4c-3.2,0-5.7-2.6-5.7-6.2c0-3.7,2.5-6.3,5.9-6.3
					C522,484.8,524.4,487.1,524.4,490.9z M515.5,490.8c0,2.5,1.5,4.1,3.3,4.1c1.7,0,3-1.5,3-3.8c0-2.6-1.5-4.1-3.3-4.1
					S515.5,488.5,515.5,490.8z"/>
				<path id="XMLID_6874_" class="st7" d="M541.6,485c0.3,0,0.5,0.2,0.4,0.5l-2.9,11c-0.1,0.2-0.2,0.4-0.5,0.4h-2.5
					c-0.3,0-0.4-0.1-0.5-0.4l-1.7-6.5h-0.2l-1.7,6.5c-0.1,0.2-0.2,0.4-0.5,0.4h-2.3c-0.3,0-0.4-0.1-0.5-0.4l-2.9-11
					c-0.1-0.3,0.1-0.5,0.4-0.5h1.6c0.3,0,0.4,0.1,0.5,0.4l2.1,8.7h0.3l2.1-8.7c0.1-0.2,0.2-0.4,0.5-0.4h1.4c0.3,0,0.4,0.1,0.5,0.4
					l2.1,8.7h0.3l2.1-8.7c0.1-0.2,0.2-0.4,0.5-0.4H541.6z"/>
				<path id="XMLID_6872_" class="st7" d="M554.5,486.8c0,0.3-0.2,0.4-0.4,0.4h-1.9v9.2c0,0.3-0.2,0.4-0.4,0.4H550
					c-0.3,0-0.4-0.2-0.4-0.4v-9.2H548c-0.3,0-0.4-0.2-0.4-0.4v-1.3c0-0.3,0.2-0.4,0.4-0.4h1.6v-4c0-0.3,0.2-0.4,0.4-0.4h1.7
					c0.3,0,0.4,0.2,0.4,0.4v4h1.9c0.3,0,0.4,0.2,0.4,0.4L554.5,486.8L554.5,486.8z"/>
				<path id="XMLID_6869_" class="st7" d="M567.3,490.9c0,3.7-2.5,6.4-5.9,6.4c-3.2,0-5.7-2.6-5.7-6.2c0-3.7,2.5-6.3,5.9-6.3
					C564.9,484.8,567.3,487.1,567.3,490.9z M558.4,490.8c0,2.5,1.5,4.1,3.3,4.1c1.7,0,3-1.5,3-3.8c0-2.6-1.5-4.1-3.3-4.1
					S558.4,488.5,558.4,490.8z"/>
				<path id="XMLID_6867_" class="st7" d="M584,488.4c0.1,0.3-0.1,0.5-0.4,0.5H582c-0.2,0-0.4-0.1-0.5-0.3c-0.6-1-1.3-1.5-2.6-1.5
					c-1.8,0-3,1-3,4.1c0,2.9,1.2,3.9,3.1,3.9c1.3,0,1.9-0.6,2.3-1.3c0.1-0.2,0.3-0.3,0.5-0.3h1.6c0.3,0,0.5,0.2,0.4,0.5
					c-0.6,1.7-2.3,3.5-5,3.5c-3.3,0-5.5-2.4-5.5-6.1c0-4,2.3-6.4,5.6-6.4C581.7,484.6,583.5,486.5,584,488.4z"/>
				<path id="XMLID_6864_" class="st7" d="M595.5,489l0.1,7.5c0,0.3-0.2,0.4-0.4,0.4h-1.7c-0.3,0-0.4-0.2-0.4-0.4v-1.3h-0.2
					c-0.8,1.2-2.2,2-4,2c-2.1,0-3.6-1.2-3.6-3.3c0-2.5,1.9-3.6,6.3-4.1c1-0.1,1.5-0.5,1.5-1.2c0-0.9-0.9-1.6-2.3-1.6
					c-1.2,0-1.9,0.5-2.3,1.3c-0.1,0.2-0.3,0.4-0.5,0.4h-1.6c-0.3,0-0.5-0.2-0.4-0.4c0.5-2.1,2.2-3.5,5-3.5
					C593.7,484.8,595.5,486.3,595.5,489z M592.9,491.3c-0.4,0.1-1,0.3-1.5,0.4c-2.2,0.4-3.5,0.8-3.5,2c0,0.8,0.5,1.3,1.7,1.3
					c2.2,0,3.6-1.7,3.5-2.9v-0.6L592.9,491.3z"/>
				<path id="XMLID_6862_" class="st7" d="M605.1,487c0,0.3-0.2,0.4-0.4,0.4c-2,0.1-3.5,0.7-3.3,3.7v5.3c0,0.3-0.2,0.4-0.4,0.4h-1.8
					c-0.3,0-0.4-0.2-0.4-0.4l0.1-10.9c0-0.3,0.2-0.4,0.4-0.4h1.7c0.3,0,0.4,0.2,0.4,0.4v1.1h0.2c0.8-1.1,2-1.8,3.2-1.9
					c0.3,0,0.5,0.1,0.5,0.4v1.9H605.1z"/>
				<path id="XMLID_6860_" class="st7" d="M613.5,487c0,0.3-0.2,0.4-0.4,0.4c-2,0.1-3.5,0.7-3.3,3.7v5.3c0,0.3-0.2,0.4-0.4,0.4h-1.8
					c-0.3,0-0.4-0.2-0.4-0.4l0.1-10.9c0-0.3,0.2-0.4,0.4-0.4h1.7c0.3,0,0.4,0.2,0.4,0.4v1.1h0.2c0.8-1.1,2-1.8,3.2-1.9
					c0.3,0,0.5,0.1,0.5,0.4v1.9H613.5z"/>
				<path id="XMLID_6858_" class="st7" d="M625.3,485c0.3,0,0.5,0.2,0.4,0.5l-5.4,15.8c-0.1,0.2-0.2,0.4-0.5,0.4h-1.9
					c-0.3,0-0.5-0.2-0.4-0.5l1.3-3.7l-4.2-12c-0.1-0.3,0-0.5,0.4-0.5h1.6c0.2,0,0.4,0.1,0.5,0.4l2.9,8.6h0.2l3.1-8.6
					c0.1-0.2,0.2-0.4,0.5-0.4L625.3,485L625.3,485z"/>
				<path id="XMLID_6856_" class="st7" d="M638.1,486.8c0,0.3-0.2,0.4-0.4,0.4h-1.9v9.2c0,0.3-0.2,0.4-0.4,0.4h-1.8
					c-0.3,0-0.4-0.2-0.4-0.4v-9.2h-1.6c-0.3,0-0.4-0.2-0.4-0.4v-1.3c0-0.3,0.2-0.4,0.4-0.4h1.6v-4c0-0.3,0.2-0.4,0.4-0.4h1.7
					c0.3,0,0.4,0.2,0.4,0.4v4h1.9c0.3,0,0.4,0.2,0.4,0.4L638.1,486.8L638.1,486.8z"/>
				<path id="XMLID_6854_" class="st7" d="M643,486.6c0.8-1.3,2-1.8,3.3-1.8c2.3,0,3.8,1.6,3.8,4.4v7.2c0,0.3-0.2,0.4-0.4,0.4h-1.8
					c-0.3,0-0.4-0.2-0.4-0.4l0.1-6.5c0-1.8-0.8-2.6-2.1-2.6c-1.6,0-2.8,1.2-2.7,3.9v5.2c0,0.3-0.2,0.4-0.4,0.4h-1.8
					c-0.3,0-0.4-0.2-0.4-0.4l0.1-15.7c0-0.3,0.2-0.4,0.4-0.4h1.7c0.3,0,0.4,0.2,0.4,0.4v5.9H643L643,486.6z"/>
				<path id="XMLID_6851_" class="st7" d="M663.5,491.1c0,0.3-0.2,0.4-0.5,0.4h-7.9c0.1,2.4,1.5,3.4,3.3,3.4c1,0,1.7-0.4,2.3-1.3
					c0.1-0.2,0.3-0.3,0.5-0.3h1.6c0.3,0,0.5,0.2,0.4,0.5c-0.9,2.2-2.8,3.3-5,3.3c-3.3,0-5.6-2.4-5.6-6.2c0-3.7,2.3-6.4,5.8-6.4
					C662,484.6,663.7,487.5,663.5,491.1z M655.2,489.5h5.6c0-1.3-0.9-2.6-2.7-2.6S655.5,488.3,655.2,489.5z"/>
				<path id="XMLID_6849_" class="st7" d="M682.5,489.3l0.1,7.2c0,0.3-0.2,0.4-0.4,0.4h-1.8c-0.3,0-0.4-0.2-0.4-0.4V490
					c0-1.9-0.6-2.8-1.9-2.8c-1.5,0-2.7,1.3-2.5,4.1v5.2c0,0.3-0.2,0.4-0.4,0.4h-1.8c-0.3,0-0.4-0.2-0.4-0.4V490
					c0-1.9-0.7-2.8-1.9-2.8c-1.3,0-2.7,1.1-2.5,4.1v5.2c0,0.3-0.2,0.4-0.4,0.4h-2c-0.3,0-0.4-0.2-0.4-0.4l0.1-10.9
					c0-0.3,0.2-0.4,0.4-0.4h1.7c0.3,0,0.4,0.2,0.4,0.4v1.2h0.1c0.9-1.2,2-2,3.3-2c1.4,0,2.5,0.7,3.1,2.2h0.2c1-1.4,2.1-2.2,3.6-2.2
					C681.1,484.8,682.5,486.4,682.5,489.3z"/>
				<path id="XMLID_6847_" class="st7" d="M689.1,496.5c0,0.3-0.2,0.4-0.4,0.4h-2c-0.3,0-0.4-0.2-0.4-0.4v-1.8
					c0-0.3,0.2-0.4,0.4-0.4h2c0.3,0,0.4,0.2,0.4,0.4V496.5z"/>
			</g>
		</g>
	</g>
	<g id="owlLine_1_">
		<line id="XMLID_1_" class="st0" x1="423.2" y1="521.7" x2="819.2" y2="521.7"/>
	</g>
</g>
</svg>
