<?xml version="1.0" encoding="utf-8"?>
<!-- Generator: Adobe Illustrator 19.0.0, SVG Export Plug-In . SVG Version: 6.00 Build 0)  -->
<svg version="1.1" id="box3" xmlns="http://www.w3.org/2000/svg" xmlns:xlink="http://www.w3.org/1999/xlink" x="0px" y="0px"
	 viewBox="69 33.6 750 296" style="enable-background:new 69 33.6 750 296;" xml:space="preserve">
<style type="text/css">
	.st0{fill:#92A625;}
	.st1{opacity:0.5;enable-background:new    ;}
	.st2{opacity:0.5;clip-path:url(#SVGID_2_);}
	.st3{opacity:0.3;fill:#FFFFFF;enable-background:new    ;}
	.st4{fill:#FFFFFF;}
	.st5{fill:#232323;}
</style>
<g id="numberBG">
	<rect id="XMLID_387_" x="69.7" y="34" class="st0" width="749.3" height="297"/>
	<g id="XMLID_1405_" class="st1">
		<g>
			<defs>
				<rect id="SVGID_1_" x="69" y="32.5" width="749.6" height="298.6"/>
			</defs>
			<clipPath id="SVGID_2_">
				<use xlink:href="#SVGID_1_"  style="overflow:visible;"/>
			</clipPath>
			<g id="XMLID_1403_" class="st2">
				<path id="XMLID_600_" class="st3" d="M86,48.1l-23.4,40h46.9L86,48.1z M86.7,63.2c6.2,0.4,11.1,5.4,11.1,11.6S92.9,86,86.7,86.4
					V63.2z M86.7,61.7v-9.2l6.6,11.3C91.4,62.6,89.2,61.8,86.7,61.7z M85.2,61.7c-2.5,0.2-4.8,1-6.7,2.3l6.7-11.4V61.7z M85.2,63.3
					v23.2c-6.1-0.4-11-5.5-11-11.6S79.1,63.7,85.2,63.3z M99.4,74.8c0-0.3,0-0.5,0-0.8l7.4,12.6H92C96.3,84.5,99.4,80,99.4,74.8z
					 M72.7,73.8c0,0.3,0,0.7,0,1c0,5.2,3,9.6,7.4,11.8H65.2L72.7,73.8z"/>
				<path id="XMLID_744_" class="st3" d="M178.7,48.1l-23.4,40h46.9L178.7,48.1z M179.4,63.2c6.2,0.4,11.1,5.4,11.1,11.6
					s-4.9,11.2-11.1,11.6V63.2z M179.4,61.7v-9.2l6.6,11.3C184.1,62.6,181.9,61.8,179.4,61.7z M177.9,61.7c-2.5,0.2-4.8,1-6.7,2.3
					l6.7-11.4V61.7z M177.9,63.3v23.2c-6.1-0.4-11-5.5-11-11.6S171.8,63.7,177.9,63.3z M192.1,74.8c0-0.3,0-0.5,0-0.8l7.4,12.6
					h-14.8C189,84.5,192.1,80,192.1,74.8z M165.4,73.8c0,0.3,0,0.7,0,1c0,5.2,3,9.6,7.4,11.8h-14.9L165.4,73.8z"/>
				<path id="XMLID_69_" class="st3" d="M131.7,84.3l-23.4,40h46.9L131.7,84.3z M132.5,99.4c6.2,0.4,11.1,5.4,11.1,11.6
					s-4.9,11.2-11.1,11.6C132.5,122.6,132.5,99.4,132.5,99.4z M132.5,97.9v-9.2l6.6,11.3C137.2,98.8,134.9,98,132.5,97.9z
					 M130.9,97.9c-2.5,0.2-4.8,1-6.7,2.3l6.7-11.4V97.9z M130.9,99.4v23.2c-6.1-0.4-11-5.5-11-11.6S124.8,99.9,130.9,99.4z
					 M145.1,111c0-0.3,0-0.5,0-0.8l7.4,12.6h-14.8C142.1,120.7,145.1,116.2,145.1,111z M118.5,110c0,0.3,0,0.7,0,1
					c0,5.2,3,9.6,7.4,11.8h-14.9L118.5,110z"/>
				<path id="XMLID_472_" class="st3" d="M131.7,72.6l23.4-40h-46.8L131.7,72.6z M130.9,57.5c-6.2-0.4-11.1-5.4-11.1-11.6
					s4.9-11.2,11.1-11.6C130.9,34.3,130.9,57.5,130.9,57.5z M130.9,59.1v9.2L124.3,57C126.2,58.1,128.5,58.9,130.9,59.1z M132.5,59
					c2.5-0.2,4.8-1,6.7-2.3l-6.7,11.4V59z M132.5,57.5V34.3c6.1,0.4,11,5.5,11,11.6S138.6,57.1,132.5,57.5z M118.3,45.9
					c0,0.3,0,0.5,0,0.8L111,34.1h14.8C121.3,36.3,118.3,40.8,118.3,45.9z M145,46.9c0-0.3,0-0.7,0-1c0-5.2-3-9.6-7.4-11.8h14.8
					L145,46.9z"/>
				<path id="XMLID_785_" class="st3" d="M221.8,84.3l-23.4,40h46.9L221.8,84.3z M222.6,99.4c6.2,0.4,11.1,5.4,11.1,11.6
					s-4.9,11.2-11.1,11.6V99.4z M222.6,97.9v-9.2l6.6,11.3C227.3,98.8,225,98,222.6,97.9z M221,97.9c-2.5,0.2-4.8,1-6.7,2.3
					l6.7-11.4V97.9z M221,99.4v23.2c-6.1-0.4-11-5.5-11-11.6S214.9,99.9,221,99.4z M235.2,111c0-0.3,0-0.5,0-0.8l7.4,12.6h-14.7
					C232.2,120.7,235.2,116.2,235.2,111z M208.6,110c0,0.3,0,0.7,0,1c0,5.2,3,9.6,7.4,11.8h-14.8L208.6,110z"/>
				<path id="XMLID_753_" class="st3" d="M221.8,72.6l23.4-40h-46.9L221.8,72.6z M221,57.5c-6.2-0.4-11.1-5.4-11.1-11.6
					s4.9-11.2,11.1-11.6V57.5z M221,59.1v9.2L214.4,57C216.3,58.1,218.6,58.9,221,59.1z M222.6,59c2.5-0.2,4.8-1,6.7-2.3l-6.7,11.4
					V59z M222.6,57.5V34.3c6.1,0.4,11,5.5,11,11.6S228.7,57.1,222.6,57.5z M208.5,45.9c0,0.3,0,0.5,0,0.8l-7.4-12.6h14.7
					C211.4,36.3,208.5,40.8,208.5,45.9z M235,46.9c0-0.3,0-0.7,0-1c0-5.2-3-9.6-7.4-11.8h14.8L235,46.9z"/>
				<path id="XMLID_844_" class="st3" d="M266.3,48.1l-23.4,40h46.9L266.3,48.1z M267.1,63.2c6.2,0.4,11.1,5.4,11.1,11.6
					s-4.9,11.2-11.1,11.6V63.2z M267.1,61.7v-9.2l6.6,11.3C271.8,62.6,269.6,61.8,267.1,61.7z M265.6,61.7c-2.5,0.2-4.8,1-6.7,2.3
					l6.7-11.4V61.7z M265.6,63.3v23.2c-6.1-0.4-11-5.5-11-11.6S259.4,63.7,265.6,63.3z M279.7,74.8c0-0.3,0-0.5,0-0.8l7.4,12.6
					h-14.7C276.7,84.5,279.7,80,279.7,74.8z M253.1,73.8c0,0.3,0,0.7,0,1c0,5.2,3,9.6,7.4,11.8h-14.9L253.1,73.8z"/>
				<path id="XMLID_836_" class="st3" d="M359,48.1l-23.4,40h46.9L359,48.1z M359.8,63.2c6.2,0.4,11.1,5.4,11.1,11.6
					S366,86,359.8,86.4V63.2z M359.8,61.7v-9.2l6.6,11.3C364.5,62.6,362.3,61.8,359.8,61.7z M358.3,61.7c-2.5,0.2-4.8,1-6.7,2.3
					l6.7-11.4V61.7z M358.3,63.3v23.2c-6.1-0.4-11-5.5-11-11.6S352.1,63.7,358.3,63.3z M372.4,74.8c0-0.3,0-0.5,0-0.8l7.4,12.6
					h-14.7C369.4,84.5,372.4,80,372.4,74.8z M345.8,73.8c0,0.3,0,0.7,0,1c0,5.2,3,9.6,7.4,11.8h-14.8L345.8,73.8z"/>
				<path id="XMLID_828_" class="st3" d="M312.1,84.3l-23.4,40h46.8L312.1,84.3z M312.9,99.4c6.2,0.4,11.1,5.4,11.1,11.6
					s-4.9,11.2-11.1,11.6V99.4z M312.9,97.9v-9.2l6.6,11.3C317.6,98.8,315.3,98,312.9,97.9z M311.3,97.9c-2.5,0.2-4.8,1-6.7,2.3
					l6.7-11.4V97.9z M311.3,99.4v23.2c-6.1-0.4-11-5.5-11-11.6S305.2,99.9,311.3,99.4z M325.5,111c0-0.3,0-0.5,0-0.8l7.4,12.6h-14.7
					C322.5,120.7,325.5,116.2,325.5,111z M298.9,110c0,0.3,0,0.7,0,1c0,5.2,3,9.6,7.4,11.8h-14.8L298.9,110z"/>
				<path id="XMLID_820_" class="st3" d="M312.1,72.6l23.4-40h-46.9L312.1,72.6z M311.3,57.5c-6.2-0.4-11.1-5.4-11.1-11.6
					s4.9-11.2,11.1-11.6V57.5z M311.3,59.1v9.2L304.7,57C306.6,58.1,308.9,58.9,311.3,59.1z M312.9,59c2.5-0.2,4.8-1,6.7-2.3
					l-6.7,11.4V59z M312.9,57.5V34.3c6.1,0.4,11,5.5,11,11.6S319,57.1,312.9,57.5z M298.8,45.9c0,0.3,0,0.5,0,0.8l-7.4-12.6H306
					C301.8,36.3,298.8,40.8,298.8,45.9z M325.4,46.9c0-0.3,0-0.7,0-1c0-5.2-3-9.6-7.4-11.8h14.8L325.4,46.9z"/>
				<path id="XMLID_812_" class="st3" d="M402.2,84.3l-23.4,40h46.9L402.2,84.3z M402.9,99.4c6.2,0.4,11.1,5.4,11.1,11.6
					s-4.9,11.2-11.1,11.6V99.4z M402.9,97.9v-9.2l6.6,11.3C407.6,98.8,405.4,98,402.9,97.9z M401.4,97.9c-2.5,0.2-4.8,1-6.7,2.3
					l6.7-11.4V97.9z M401.4,99.4v23.2c-6.1-0.4-11-5.5-11-11.6S395.4,99.9,401.4,99.4z M415.6,111c0-0.3,0-0.5,0-0.8l7.4,12.6h-14.7
					C412.5,120.7,415.6,116.2,415.6,111z M389,110c0,0.3,0,0.7,0,1c0,5.2,3,9.6,7.4,11.8h-14.9L389,110z"/>
				<path id="XMLID_796_" class="st3" d="M402.2,72.6l23.4-40h-46.9L402.2,72.6z M401.4,57.5c-6.2-0.4-11.1-5.4-11.1-11.6
					s4.9-11.2,11.1-11.6V57.5z M401.4,59.1v9.2L394.9,57C396.8,58.1,398.9,58.9,401.4,59.1z M402.9,59c2.5-0.2,4.8-1,6.7-2.3
					l-6.7,11.4V59z M402.9,57.5V34.3c6.1,0.4,11,5.5,11,11.6S409,57.1,402.9,57.5z M388.8,45.9c0,0.3,0,0.5,0,0.8l-7.4-12.6h14.7
					C391.9,36.3,388.8,40.8,388.8,45.9z M415.4,46.9c0-0.3,0-0.7,0-1c0-5.2-3-9.6-7.4-11.8h14.8L415.4,46.9z"/>
				<path id="XMLID_940_" class="st3" d="M448.9,48.1l-23.4,40h46.9L448.9,48.1z M449.6,63.2c6.2,0.4,11.1,5.4,11.1,11.6
					s-4.9,11.2-11.1,11.6V63.2z M449.6,61.7v-9.2l6.6,11.3C454.4,62.6,452.1,61.8,449.6,61.7z M448.1,61.7c-2.5,0.2-4.8,1-6.7,2.3
					l6.7-11.4V61.7z M448.1,63.3v23.2c-6.1-0.4-11-5.5-11-11.6S442,63.7,448.1,63.3z M462.3,74.8c0-0.3,0-0.5,0-0.8l7.4,12.6H455
					C459.3,84.5,462.3,80,462.3,74.8z M435.6,73.8c0,0.3,0,0.7,0,1c0,5.2,3,9.6,7.4,11.8h-14.8L435.6,73.8z"/>
				<path id="XMLID_932_" class="st3" d="M541.6,48.1l-23.4,40h46.9L541.6,48.1z M542.3,63.2c6.2,0.4,11.1,5.4,11.1,11.6
					s-4.9,11.2-11.1,11.6V63.2z M542.3,61.7v-9.2l6.6,11.3C547.1,62.6,544.8,61.8,542.3,61.7z M540.8,61.7c-2.5,0.2-4.8,1-6.7,2.3
					l6.7-11.4V61.7z M540.8,63.3v23.2c-6.1-0.4-11-5.5-11-11.6S534.7,63.7,540.8,63.3z M555,74.8c0-0.3,0-0.5,0-0.8l7.4,12.6h-14.7
					C552,84.5,555,80,555,74.8z M528.3,73.8c0,0.3,0,0.7,0,1c0,5.2,3,9.6,7.4,11.8h-14.8L528.3,73.8z"/>
				<path id="XMLID_924_" class="st3" d="M494.6,84.3l-23.4,40h46.9L494.6,84.3z M495.4,99.4c6.2,0.4,11.1,5.4,11.1,11.6
					s-4.9,11.2-11.1,11.6V99.4z M495.4,97.9v-9.2L502,100C500.1,98.8,497.9,98,495.4,97.9z M493.8,97.9c-2.5,0.2-4.8,1-6.7,2.3
					l6.7-11.4V97.9z M493.8,99.4v23.2c-6.1-0.4-11-5.5-11-11.6S487.8,99.9,493.8,99.4z M508,111c0-0.3,0-0.5,0-0.8l7.4,12.6h-14.7
					C505,120.7,508,116.2,508,111z M481.5,110c0,0.3,0,0.7,0,1c0,5.2,3,9.6,7.4,11.8h-14.8L481.5,110z"/>
				<path id="XMLID_916_" class="st3" d="M494.6,72.6l23.4-40h-46.8L494.6,72.6z M493.8,57.5c-6.2-0.4-11.1-5.4-11.1-11.6
					s4.9-11.2,11.1-11.6V57.5z M493.8,59.1v9.2L487.3,57C489.2,58.1,491.4,58.9,493.8,59.1z M495.4,59c2.5-0.2,4.8-1,6.7-2.3
					l-6.7,11.4V59z M495.4,57.5V34.3c6.1,0.4,11,5.5,11,11.6S501.5,57.1,495.4,57.5z M481.3,45.9c0,0.3,0,0.5,0,0.8l-7.4-12.6h14.7
					C484.3,36.3,481.3,40.8,481.3,45.9z M507.9,46.9c0-0.3,0-0.7,0-1c0-5.2-3-9.6-7.4-11.8h14.8L507.9,46.9z"/>
				<path id="XMLID_908_" class="st3" d="M584.7,84.3l-23.4,40h46.9L584.7,84.3z M585.5,99.4c6.2,0.4,11.1,5.4,11.1,11.6
					s-4.9,11.2-11.1,11.6V99.4z M585.5,97.9v-9.2l6.6,11.3C590.2,98.8,587.9,98,585.5,97.9z M584,97.9c-2.5,0.2-4.8,1-6.7,2.3
					l6.7-11.4V97.9z M584,99.4v23.2c-6.1-0.4-11-5.5-11-11.6S577.9,99.9,584,99.4z M598.1,111c0-0.3,0-0.5,0-0.8l7.4,12.6h-14.7
					C595.1,120.7,598.1,116.2,598.1,111z M571.5,110c0,0.3,0,0.7,0,1c0,5.2,3,9.6,7.4,11.8h-14.8L571.5,110z"/>
				<path id="XMLID_900_" class="st3" d="M584.7,72.6l23.4-40h-46.9L584.7,72.6z M584,57.5c-6.2-0.4-11.1-5.4-11.1-11.6
					s4.9-11.2,11.1-11.6V57.5z M584,59.1v9.2L577.4,57C579.3,58.1,581.6,58.9,584,59.1z M585.5,59c2.5-0.2,4.8-1,6.7-2.3l-6.7,11.4
					V59z M585.5,57.5V34.3c6.1,0.4,11,5.5,11,11.6S591.6,57.1,585.5,57.5z M571.4,45.9c0,0.3,0,0.5,0,0.8L564,34.1h14.7
					C574.4,36.3,571.4,40.8,571.4,45.9z M597.9,46.9c0-0.3,0-0.7,0-1c0-5.2-3-9.6-7.4-11.8h14.8L597.9,46.9z"/>
				<path id="XMLID_892_" class="st3" d="M629.2,48.1l-23.4,40h46.9L629.2,48.1z M630,63.2c6.2,0.4,11.1,5.4,11.1,11.6
					S636.2,86,630,86.4V63.2z M630,61.7v-9.2l6.6,11.3C634.7,62.6,632.5,61.8,630,61.7z M628.5,61.7c-2.5,0.2-4.8,1-6.7,2.3
					l6.7-11.4V61.7z M628.5,63.3v23.2c-6.1-0.4-11-5.5-11-11.6S622.4,63.7,628.5,63.3z M642.7,74.8c0-0.3,0-0.5,0-0.8l7.4,12.6
					h-14.7C639.6,84.5,642.7,80,642.7,74.8z M616,73.8c0,0.3,0,0.7,0,1c0,5.2,3,9.6,7.4,11.8h-14.8L616,73.8z"/>
				<path id="XMLID_884_" class="st3" d="M721.9,48.1l-23.4,40h46.9L721.9,48.1z M722.7,63.2c6.2,0.4,11.1,5.4,11.1,11.6
					s-4.9,11.2-11.1,11.6V63.2z M722.7,61.7v-9.2l6.6,11.3C727.4,62.6,725.2,61.8,722.7,61.7z M721.2,61.7c-2.5,0.2-4.8,1-6.7,2.3
					l6.7-11.4V61.7z M721.2,63.3v23.2c-6.1-0.4-11-5.5-11-11.6S715.1,63.7,721.2,63.3z M735.4,74.8c0-0.3,0-0.5,0-0.8l7.4,12.6
					h-14.7C732.3,84.5,735.4,80,735.4,74.8z M708.7,73.8c0,0.3,0,0.7,0,1c0,5.2,3,9.6,7.4,11.8h-14.8L708.7,73.8z"/>
				<path id="XMLID_876_" class="st3" d="M675.1,84.3l-23.4,40h46.9L675.1,84.3z M675.9,99.4c6.2,0.4,11.1,5.4,11.1,11.6
					s-4.9,11.2-11.1,11.6V99.4z M675.9,97.9v-9.2l6.6,11.3C680.5,98.8,678.3,98,675.9,97.9z M674.3,97.9c-2.5,0.2-4.8,1-6.7,2.3
					l6.7-11.4V97.9z M674.3,99.4v23.2c-6.1-0.4-11-5.5-11-11.6S668.2,99.9,674.3,99.4z M688.4,111c0-0.3,0-0.5,0-0.8l7.4,12.6h-14.7
					C685.4,120.7,688.4,116.2,688.4,111z M661.9,110c0,0.3,0,0.7,0,1c0,5.2,3,9.6,7.4,11.8h-14.8L661.9,110z"/>
				<path id="XMLID_868_" class="st3" d="M675.1,72.6l23.4-40h-46.9L675.1,72.6z M674.3,57.5c-6.2-0.4-11.1-5.4-11.1-11.6
					s4.9-11.2,11.1-11.6V57.5z M674.3,59.1v9.2L667.7,57C669.6,58.1,671.9,58.9,674.3,59.1z M675.9,59c2.5-0.2,4.8-1,6.7-2.3
					l-6.7,11.4V59z M675.9,57.5V34.3c6.1,0.4,11,5.5,11,11.6S681.9,57.1,675.9,57.5z M661.7,45.9c0,0.3,0,0.5,0,0.8l-7.4-12.6H669
					C664.7,36.3,661.7,40.8,661.7,45.9z M688.3,46.9c0-0.3,0-0.7,0-1c0-5.2-3-9.6-7.4-11.8h14.8L688.3,46.9z"/>
				<path id="XMLID_860_" class="st3" d="M765.2,84.3l-23.4,40h46.9L765.2,84.3z M765.9,99.4c6.2,0.4,11.1,5.4,11.1,11.6
					s-4.9,11.2-11.1,11.6V99.4z M765.9,97.9v-9.2l6.6,11.3C770.7,98.8,768.4,98,765.9,97.9z M764.4,97.9c-2.5,0.2-4.8,1-6.7,2.3
					l6.7-11.4V97.9z M764.4,99.4v23.2c-6.1-0.4-11-5.5-11-11.6S758.3,99.9,764.4,99.4z M778.5,111c0-0.3,0-0.5,0-0.8l7.4,12.6h-14.7
					C775.5,120.7,778.5,116.2,778.5,111z M751.9,110c0,0.3,0,0.7,0,1c0,5.2,3,9.6,7.4,11.8h-14.8L751.9,110z"/>
				<path id="XMLID_852_" class="st3" d="M765.2,72.6l23.4-40h-46.9L765.2,72.6z M764.4,57.5c-6.2-0.4-11.1-5.4-11.1-11.6
					s4.9-11.2,11.1-11.6V57.5z M764.4,59.1v9.2L757.8,57C759.7,58.1,761.9,58.9,764.4,59.1z M765.9,59c2.5-0.2,4.8-1,6.7-2.3
					l-6.7,11.4V59z M765.9,57.5V34.3c6.1,0.4,11,5.5,11,11.6S772.1,57.1,765.9,57.5z M751.8,45.9c0,0.3,0,0.5,0,0.8l-7.4-12.6h14.7
					C754.8,36.3,751.8,40.8,751.8,45.9z M778.3,46.9c0-0.3,0-0.7,0-1c0-5.2-3-9.6-7.4-11.8h14.8L778.3,46.9z"/>
				<path id="XMLID_964_" class="st3" d="M814.3,48.1l-23.4,40h46.9L814.3,48.1z M815.1,63.2c6.2,0.4,11.1,5.4,11.1,11.6
					s-4.9,11.2-11.1,11.6V63.2z M815.1,61.7v-9.2l6.6,11.3C819.8,62.6,817.5,61.8,815.1,61.7z M813.5,61.7c-2.5,0.2-4.8,1-6.7,2.3
					l6.7-11.4V61.7z M813.5,63.3v23.2c-6.1-0.4-11-5.5-11-11.6S807.4,63.7,813.5,63.3z M827.7,74.8c0-0.3,0-0.5,0-0.8l7.4,12.6
					h-14.7C824.7,84.5,827.7,80,827.7,74.8z M801,73.8c0,0.3,0,0.7,0,1c0,5.2,3,9.6,7.4,11.8h-14.8L801,73.8z"/>
				<path id="XMLID_956_" class="st3" d="M857.5,84.3l-23.4,40h46.9L857.5,84.3z M858.3,99.4c6.2,0.4,11.1,5.4,11.1,11.6
					s-4.9,11.2-11.1,11.6V99.4z M858.3,97.9v-9.2l6.6,11.3C863,98.8,860.7,98,858.3,97.9z M856.7,97.9c-2.5,0.2-4.8,1-6.7,2.3
					l6.7-11.4V97.9z M856.7,99.4v23.2c-6.1-0.4-11-5.5-11-11.6S850.6,99.9,856.7,99.4z M870.8,111c0-0.3,0-0.5,0-0.8l7.4,12.6h-14.7
					C867.8,120.7,870.8,116.2,870.8,111z M844.2,110c0,0.3,0,0.7,0,1c0,5.2,3,9.6,7.4,11.8h-14.8L844.2,110z"/>
				<path id="XMLID_948_" class="st3" d="M857.5,72.6l23.4-40H834L857.5,72.6z M856.7,57.5c-6.2-0.4-11.1-5.4-11.1-11.6
					s4.9-11.2,11.1-11.6V57.5z M856.7,59.1v9.2L850.1,57C852,58.1,854.3,58.9,856.7,59.1z M858.3,59c2.5-0.2,4.8-1,6.7-2.3
					l-6.7,11.4V59z M858.3,57.5V34.3c6.1,0.4,11,5.5,11,11.6S864.4,57.1,858.3,57.5z M844.1,45.9c0,0.3,0,0.5,0,0.8l-7.4-12.6h14.7
					C847.1,36.3,844.1,40.8,844.1,45.9z M870.7,46.9c0-0.3,0-0.7,0-1c0-5.2-3-9.6-7.4-11.8h14.8L870.7,46.9z"/>
				<path id="XMLID_1011_" class="st3" d="M134.6,154.1l-23.4,40h46.9L134.6,154.1z M135.4,169.2c6.2,0.4,11.1,5.4,11.1,11.6
					s-4.9,11.2-11.1,11.6V169.2z M135.4,167.7v-9.2l6.6,11.3C140.1,168.6,137.8,167.8,135.4,167.7z M133.8,167.7
					c-2.5,0.2-4.8,1-6.7,2.3l6.7-11.4V167.7z M133.8,169.2v23.2c-6.1-0.4-11-5.5-11-11.6S127.7,169.7,133.8,169.2z M148,180.8
					c0-0.3,0-0.5,0-0.8l7.4,12.6h-14.8C145,190.4,148,186,148,180.8z M121.3,179.8c0,0.3,0,0.7,0,1c0,5.2,3,9.6,7.4,11.8h-14.9
					L121.3,179.8z"/>
				<path id="XMLID_1003_" class="st3" d="M87.7,190.3l-23.4,40h46.9L87.7,190.3z M88.5,205.4c6.2,0.4,11.1,5.4,11.1,11.6
					s-4.9,11.2-11.1,11.6V205.4z M88.5,203.9v-9.2l6.6,11.3C93.2,204.8,91,204,88.5,203.9z M87,203.9c-2.5,0.2-4.8,1-6.7,2.3
					l6.7-11.4V203.9z M87,205.4v23.2c-6.1-0.4-11-5.5-11-11.6S80.9,205.8,87,205.4z M101.2,217c0-0.3,0-0.5,0-0.8l7.4,12.6H93.8
					C98.1,226.6,101.2,222.2,101.2,217z M74.5,216c0,0.3,0,0.7,0,1c0,5.2,3,9.6,7.4,11.8H67L74.5,216z"/>
				<path id="XMLID_995_" class="st3" d="M87.7,178.6l23.4-40H64.3L87.7,178.6z M87,163.5c-6.2-0.4-11.1-5.4-11.1-11.6
					s4.9-11.2,11.1-11.6V163.5z M87,165v9.2l-6.6-11.3C82.3,164.1,84.5,164.9,87,165z M88.5,165c2.5-0.2,4.8-1,6.7-2.3l-6.7,11.4
					V165z M88.5,163.5v-23.2c6.1,0.4,11,5.5,11,11.6S94.6,163,88.5,163.5z M74.3,151.9c0,0.3,0,0.5,0,0.8l-7.4-12.6h14.7
					C77.4,142.3,74.3,146.7,74.3,151.9z M101,152.9c0-0.3,0-0.7,0-1c0-5.2-3-9.6-7.4-11.8h14.8L101,152.9z"/>
				<path id="XMLID_987_" class="st3" d="M177.8,190.3l-23.4,40h46.9L177.8,190.3z M178.6,205.4c6.2,0.4,11.1,5.4,11.1,11.6
					s-4.9,11.2-11.1,11.6V205.4z M178.6,203.9v-9.2l6.6,11.3C183.3,204.8,181,204,178.6,203.9z M177,203.9c-2.5,0.2-4.8,1-6.7,2.3
					l6.7-11.4V203.9z M177,205.4v23.2c-6.1-0.4-11-5.5-11-11.6S170.9,205.8,177,205.4z M191.2,217c0-0.3,0-0.5,0-0.8l7.4,12.6h-14.7
					C188.2,226.6,191.2,222.2,191.2,217z M164.5,216c0,0.3,0,0.7,0,1c0,5.2,3,9.6,7.4,11.8h-14.8L164.5,216z"/>
				<path id="XMLID_979_" class="st3" d="M177.8,178.6l23.4-40h-46.8L177.8,178.6z M177,163.5c-6.2-0.4-11.1-5.4-11.1-11.6
					s4.9-11.2,11.1-11.6V163.5z M177,165v9.2l-6.6-11.3C172.3,164.1,174.6,164.9,177,165z M178.6,165c2.5-0.2,4.8-1,6.7-2.3
					l-6.7,11.4V165z M178.6,163.5v-23.2c6.1,0.4,11,5.5,11,11.6C189.5,158,184.7,163,178.6,163.5z M164.4,151.9c0,0.3,0,0.5,0,0.8
					l-7.4-12.6h14.7C167.4,142.3,164.4,146.7,164.4,151.9z M191.1,152.9c0-0.3,0-0.7,0-1c0-5.2-3-9.6-7.4-11.8h14.8L191.1,152.9z"/>
				<path id="XMLID_68_" class="st3" d="M222.3,154.1l-23.4,40h46.9L222.3,154.1z M223,169.2c6.2,0.4,11.1,5.4,11.1,11.6
					s-4.9,11.2-11.1,11.6V169.2z M223,167.7v-9.2l6.6,11.3C227.8,168.6,225.5,167.8,223,167.7z M221.5,167.7c-2.5,0.2-4.8,1-6.7,2.3
					l6.7-11.4V167.7z M221.5,169.2v23.2c-6.1-0.4-11-5.5-11-11.6S215.4,169.7,221.5,169.2z M235.7,180.8c0-0.3,0-0.5,0-0.8l7.4,12.6
					h-14.7C232.7,190.4,235.7,186,235.7,180.8z M209.1,179.8c0,0.3,0,0.7,0,1c0,5.2,3,9.6,7.4,11.8h-14.8L209.1,179.8z"/>
				<path id="XMLID_1060_" class="st3" d="M316,154.1l-23.4,40h46.9L316,154.1z M316.8,169.2c6.2,0.4,11.1,5.4,11.1,11.6
					s-4.9,11.2-11.1,11.6V169.2L316.8,169.2z M316.8,167.7v-9.2l6.6,11.3C321.5,168.6,319.3,167.8,316.8,167.7z M315.3,167.7
					c-2.5,0.2-4.8,1-6.7,2.3l6.7-11.4V167.7z M315.3,169.2v23.2c-6.1-0.4-11-5.5-11-11.6S309.1,169.7,315.3,169.2z M329.4,180.8
					c0-0.3,0-0.5,0-0.8l7.4,12.6h-14.7C326.4,190.4,329.4,186,329.4,180.8z M302.9,179.8c0,0.3,0,0.7,0,1c0,5.2,3,9.6,7.4,11.8
					h-14.8L302.9,179.8z"/>
				<path id="XMLID_1052_" class="st3" d="M269.2,190.3l-23.4,40h46.9L269.2,190.3z M270,205.4c6.2,0.4,11.1,5.4,11.1,11.6
					s-4.9,11.2-11.1,11.6V205.4z M270,203.9v-9.2l6.6,11.3C274.7,204.8,272.4,204,270,203.9z M268.4,203.9c-2.5,0.2-4.8,1-6.7,2.3
					l6.7-11.4V203.9z M268.4,205.4v23.2c-6.1-0.4-11-5.5-11-11.6S262.3,205.8,268.4,205.4z M282.6,217c0-0.3,0-0.5,0-0.8l7.4,12.6
					h-14.7C279.6,226.6,282.6,222.2,282.6,217z M255.9,216c0,0.3,0,0.7,0,1c0,5.2,3,9.6,7.4,11.8h-14.8L255.9,216z"/>
				<path id="XMLID_1044_" class="st3" d="M269.2,178.6l23.4-40h-46.9L269.2,178.6z M268.4,163.5c-6.2-0.4-11.1-5.4-11.1-11.6
					s4.9-11.2,11.1-11.6V163.5z M268.4,165v9.2l-6.6-11.3C263.7,164.1,266,164.9,268.4,165z M270,165c2.5-0.2,4.8-1,6.7-2.3
					l-6.7,11.4V165z M270,163.5v-23.2c6.1,0.4,11,5.5,11,11.6C280.9,158,276.1,163,270,163.5z M255.8,151.9c0,0.3,0,0.5,0,0.8
					l-7.4-12.6h14.7C258.8,142.3,255.8,146.7,255.8,151.9z M282.5,152.9c0-0.3,0-0.7,0-1c0-5.2-3-9.6-7.4-11.8h14.8L282.5,152.9z"/>
				<path id="XMLID_1036_" class="st3" d="M359.3,190.3l-23.4,40h46.9L359.3,190.3z M360,205.4c6.2,0.4,11.1,5.4,11.1,11.6
					s-4.9,11.2-11.1,11.6V205.4z M360,203.9v-9.2l6.6,11.3C364.7,204.8,362.5,204,360,203.9z M358.5,203.9c-2.5,0.2-4.8,1-6.7,2.3
					l6.7-11.4V203.9z M358.5,205.4v23.2c-6.1-0.4-11-5.5-11-11.6S352.4,205.8,358.5,205.4z M372.7,217c0-0.3,0-0.5,0-0.8l7.4,12.6
					h-14.7C369.7,226.6,372.7,222.2,372.7,217z M346,216c0,0.3,0,0.7,0,1c0,5.2,3,9.6,7.4,11.8h-14.9L346,216z"/>
				<path id="XMLID_1028_" class="st3" d="M359.3,178.6l23.4-40h-46.9L359.3,178.6z M358.5,163.5c-6.2-0.4-11.1-5.4-11.1-11.6
					s4.9-11.2,11.1-11.6V163.5z M358.5,165v9.2l-6.6-11.3C353.8,164.1,356,164.9,358.5,165z M360,165c2.5-0.2,4.8-1,6.7-2.3
					l-6.7,11.4V165z M360,163.5v-23.2c6.1,0.4,11,5.5,11,11.6S366.2,163,360,163.5z M345.8,151.9c0,0.3,0,0.5,0,0.8l-7.4-12.6h14.7
					C348.9,142.3,345.8,146.7,345.8,151.9z M372.5,152.9c0-0.3,0-0.7,0-1c0-5.2-3-9.6-7.4-11.8h14.8L372.5,152.9z"/>
				<path id="XMLID_1020_" class="st3" d="M403.7,154.1l-23.4,40h46.9L403.7,154.1z M404.5,169.2c6.2,0.4,11.1,5.4,11.1,11.6
					s-4.9,11.2-11.1,11.6V169.2z M404.5,167.7v-9.2l6.6,11.3C409.2,168.6,406.9,167.8,404.5,167.7z M402.9,167.7
					c-2.5,0.2-4.8,1-6.7,2.3l6.7-11.4V167.7z M402.9,169.2v23.2c-6.1-0.4-11-5.5-11-11.6C392.1,174.7,396.9,169.7,402.9,169.2z
					 M417.1,180.8c0-0.3,0-0.5,0-0.8l7.4,12.6h-14.7C414.1,190.4,417.1,186,417.1,180.8z M390.6,179.8c0,0.3,0,0.7,0,1
					c0,5.2,3,9.6,7.4,11.8h-14.8L390.6,179.8z"/>
				<path id="XMLID_1155_" class="st3" d="M498.6,154.1l-23.4,40h46.9L498.6,154.1z M499.4,169.2c6.2,0.4,11.1,5.4,11.1,11.6
					s-4.9,11.2-11.1,11.6V169.2z M499.4,167.7v-9.2l6.6,11.3C504.1,168.6,501.8,167.8,499.4,167.7z M497.8,167.7
					c-2.5,0.2-4.8,1-6.7,2.3l6.7-11.4V167.7z M497.8,169.2v23.2c-6.1-0.4-11-5.5-11-11.6S491.7,169.7,497.8,169.2z M512,180.8
					c0-0.3,0-0.5,0-0.8l7.4,12.6h-14.7C509,190.4,512,186,512,180.8z M485.4,179.8c0,0.3,0,0.7,0,1c0,5.2,3,9.6,7.4,11.8H478
					L485.4,179.8z"/>
				<path id="XMLID_1147_" class="st3" d="M451.7,190.3l-23.4,40h46.9L451.7,190.3z M452.5,205.4c6.2,0.4,11.1,5.4,11.1,11.6
					s-4.9,11.2-11.1,11.6V205.4z M452.5,203.9v-9.2l6.6,11.3C457.2,204.8,455,204,452.5,203.9z M451,203.9c-2.5,0.2-4.8,1-6.7,2.3
					l6.7-11.4V203.9z M451,205.4v23.2c-6.1-0.4-11-5.5-11-11.6S444.8,205.8,451,205.4z M465.1,217c0-0.3,0-0.5,0-0.8l7.4,12.6h-14.7
					C462.1,226.6,465.1,222.2,465.1,217z M438.5,216c0,0.3,0,0.7,0,1c0,5.2,3,9.6,7.4,11.8h-14.8L438.5,216z"/>
				<path id="XMLID_1139_" class="st3" d="M451.7,178.6l23.4-40h-46.9L451.7,178.6z M451,163.5c-6.2-0.4-11.1-5.4-11.1-11.6
					s4.9-11.2,11.1-11.6V163.5z M451,165v9.2l-6.6-11.3C446.2,164.1,448.5,164.9,451,165z M452.5,165c2.5-0.2,4.8-1,6.7-2.3
					l-6.7,11.4V165z M452.5,163.5v-23.2c6.1,0.4,11,5.5,11,11.6S458.6,163,452.5,163.5z M438.3,151.9c0,0.3,0,0.5,0,0.8l-7.4-12.6
					h14.7C441.3,142.3,438.3,146.7,438.3,151.9z M465,152.9c0-0.3,0-0.7,0-1c0-5.2-3-9.6-7.4-11.8h14.8L465,152.9z"/>
				<path id="XMLID_1131_" class="st3" d="M541.8,190.3l-23.4,40h46.8L541.8,190.3z M542.6,205.4c6.2,0.4,11.1,5.4,11.1,11.6
					s-4.9,11.2-11.1,11.6V205.4z M542.6,203.9v-9.2l6.6,11.3C547.3,204.8,545,204,542.6,203.9z M541,203.9c-2.5,0.2-4.8,1-6.7,2.3
					l6.7-11.4V203.9z M541,205.4v23.2c-6.1-0.4-11-5.5-11-11.6S534.9,205.8,541,205.4z M555.2,217c0-0.3,0-0.5,0-0.8l7.4,12.6h-14.7
					C552.2,226.6,555.2,222.2,555.2,217z M528.5,216c0,0.3,0,0.7,0,1c0,5.2,3,9.6,7.4,11.8h-14.8L528.5,216z"/>
				<path id="XMLID_1123_" class="st3" d="M541.8,178.6l23.4-40h-46.8L541.8,178.6z M541,163.5c-6.2-0.4-11.1-5.4-11.1-11.6
					s4.9-11.2,11.1-11.6V163.5z M541,165v9.2l-6.6-11.3C536.3,164.1,538.6,164.9,541,165z M542.6,165c2.5-0.2,4.8-1,6.7-2.3
					l-6.7,11.4V165z M542.6,163.5v-23.2c6.1,0.4,11,5.5,11,11.6C553.5,158,548.7,163,542.6,163.5z M528.4,151.9c0,0.3,0,0.5,0,0.8
					l-7.4-12.6h14.7C531.4,142.3,528.4,146.7,528.4,151.9z M555,152.9c0-0.3,0-0.7,0-1c0-5.2-3-9.6-7.4-11.8h14.8L555,152.9z"/>
				<path id="XMLID_1115_" class="st3" d="M586.3,154.1l-23.4,40h46.9L586.3,154.1z M587,169.2c6.2,0.4,11.1,5.4,11.1,11.6
					s-4.9,11.2-11.1,11.6V169.2z M587,167.7v-9.2l6.6,11.3C591.7,168.6,589.5,167.8,587,167.7z M585.5,167.7c-2.5,0.2-4.8,1-6.7,2.3
					l6.7-11.4V167.7z M585.5,169.2v23.2c-6.1-0.4-11-5.5-11-11.6S579.5,169.7,585.5,169.2z M599.7,180.8c0-0.3,0-0.5,0-0.8l7.4,12.6
					h-14.7C596.6,190.4,599.7,186,599.7,180.8z M573.1,179.8c0,0.3,0,0.7,0,1c0,5.2,3,9.6,7.4,11.8h-14.8L573.1,179.8z"/>
				<path id="XMLID_1107_" class="st3" d="M680,154.1l-23.4,40h46.9L680,154.1z M680.8,169.2c6.2,0.4,11.1,5.4,11.1,11.6
					s-4.9,11.2-11.1,11.6V169.2z M680.8,167.7v-9.2l6.6,11.3C685.5,168.6,683.2,167.8,680.8,167.7z M679.2,167.7
					c-2.5,0.2-4.8,1-6.7,2.3l6.7-11.4V167.7z M679.2,169.2v23.2c-6.1-0.4-11-5.5-11-11.6C668.4,174.7,673.2,169.7,679.2,169.2z
					 M693.4,180.8c0-0.3,0-0.5,0-0.8l7.4,12.6h-14.7C690.4,190.4,693.4,186,693.4,180.8z M666.9,179.8c0,0.3,0,0.7,0,1
					c0,5.2,3,9.6,7.4,11.8h-14.8L666.9,179.8z"/>
				<path id="XMLID_1099_" class="st3" d="M633.2,190.3l-23.4,40h46.9L633.2,190.3z M634,205.4c6.2,0.4,11.1,5.4,11.1,11.6
					s-4.9,11.2-11.1,11.6V205.4z M634,203.9v-9.2l6.6,11.3C638.7,204.8,636.4,204,634,203.9z M632.4,203.9c-2.5,0.2-4.8,1-6.7,2.3
					l6.7-11.4V203.9z M632.4,205.4v23.2c-6.1-0.4-11-5.5-11-11.6S626.3,205.8,632.4,205.4z M646.6,217c0-0.3,0-0.5,0-0.8l7.4,12.6
					h-14.8C643.6,226.6,646.6,222.2,646.6,217z M619.9,216c0,0.3,0,0.7,0,1c0,5.2,3,9.6,7.4,11.8h-14.8L619.9,216z"/>
				<path id="XMLID_1091_" class="st3" d="M633.2,178.6l23.4-40h-46.9L633.2,178.6z M632.4,163.5c-6.2-0.4-11.1-5.4-11.1-11.6
					s4.9-11.2,11.1-11.6V163.5z M632.4,165v9.2l-6.6-11.3C627.7,164.1,630,164.9,632.4,165z M634,165c2.5-0.2,4.8-1,6.7-2.3
					l-6.7,11.4V165z M634,163.5v-23.2c6.1,0.4,11,5.5,11,11.6C644.9,158,640.1,163,634,163.5z M619.8,151.9c0,0.3,0,0.5,0,0.8
					l-7.4-12.6h14.8C622.8,142.3,619.8,146.7,619.8,151.9z M646.4,152.9c0-0.3,0-0.7,0-1c0-5.2-3-9.6-7.4-11.8h14.8L646.4,152.9z"/>
				<path id="XMLID_1083_" class="st3" d="M723.2,190.3l-23.4,40h46.9L723.2,190.3z M724,205.4c6.2,0.4,11.1,5.4,11.1,11.6
					s-4.9,11.2-11.1,11.6V205.4z M724,203.9v-9.2l6.6,11.3C728.7,204.8,726.5,204,724,203.9z M722.5,203.9c-2.5,0.2-4.8,1-6.7,2.3
					l6.7-11.4V203.9z M722.5,205.4v23.2c-6.1-0.4-11-5.5-11-11.6S716.3,205.8,722.5,205.4z M736.7,217c0-0.3,0-0.5,0-0.8l7.4,12.6
					h-14.7C733.6,226.6,736.7,222.2,736.7,217z M710,216c0,0.3,0,0.7,0,1c0,5.2,3,9.6,7.4,11.8h-14.8L710,216z"/>
				<path id="XMLID_1075_" class="st3" d="M723.2,178.6l23.4-40h-46.9L723.2,178.6z M722.5,163.5c-6.2-0.4-11.1-5.4-11.1-11.6
					s4.9-11.2,11.1-11.6V163.5z M722.5,165v9.2l-6.6-11.3C717.8,164.1,720,164.9,722.5,165z M724,165c2.5-0.2,4.8-1,6.7-2.3
					l-6.7,11.4V165z M724,163.5v-23.2c6.1,0.4,11,5.5,11,11.6S730.1,163,724,163.5z M709.8,151.9c0,0.3,0,0.5,0,0.8l-7.4-12.6h14.7
					C712.9,142.3,709.8,146.7,709.8,151.9z M736.5,152.9c0-0.3,0-0.7,0-1c0-5.2-3-9.6-7.4-11.8h14.8L736.5,152.9z"/>
				<path id="XMLID_1019_" class="st3" d="M767.8,154.1l-23.4,40h46.9L767.8,154.1z M768.6,169.2c6.2,0.4,11.1,5.4,11.1,11.6
					s-4.9,11.2-11.1,11.6V169.2z M768.6,167.7v-9.2l6.6,11.3C773.2,168.6,771,167.8,768.6,167.7z M767,167.7c-2.5,0.2-4.8,1-6.7,2.3
					l6.7-11.4V167.7z M767,169.2v23.2c-6.1-0.4-11-5.5-11-11.6C756.1,174.7,760.9,169.7,767,169.2z M781.1,180.8c0-0.3,0-0.5,0-0.8
					l7.4,12.6h-14.7C778.1,190.4,781.1,186,781.1,180.8z M754.5,179.8c0,0.3,0,0.7,0,1c0,5.2,3,9.6,7.4,11.8h-14.8L754.5,179.8z"/>
				<path id="XMLID_1180_" class="st3" d="M813.4,190.3l-23.4,40h46.9L813.4,190.3z M814.2,205.4c6.2,0.4,11.1,5.4,11.1,11.6
					s-4.9,11.2-11.1,11.6V205.4z M814.2,203.9v-9.2l6.6,11.3C818.9,204.8,816.7,204,814.2,203.9z M812.7,203.9
					c-2.5,0.2-4.8,1-6.7,2.3l6.7-11.4V203.9z M812.7,205.4v23.2c-6.1-0.4-11-5.5-11-11.6S806.5,205.8,812.7,205.4z M826.8,217
					c0-0.3,0-0.5,0-0.8l7.4,12.6h-14.7C823.8,226.6,826.8,222.2,826.8,217z M800.2,216c0,0.3,0,0.7,0,1c0,5.2,3,9.6,7.4,11.8h-14.8
					L800.2,216z"/>
				<path id="XMLID_1172_" class="st3" d="M813.4,178.6l23.4-40H790L813.4,178.6z M812.7,163.5c-6.2-0.4-11.1-5.4-11.1-11.6
					s4.9-11.2,11.1-11.6V163.5z M812.7,165v9.2l-6.6-11.3C807.9,164.1,810.2,164.9,812.7,165z M814.2,165c2.5-0.2,4.8-1,6.7-2.3
					l-6.7,11.4V165z M814.2,163.5v-23.2c6.1,0.4,11,5.5,11,11.6S820.3,163,814.2,163.5z M800,151.9c0,0.3,0,0.5,0,0.8l-7.4-12.6
					h14.7C803,142.3,800,146.7,800,151.9z M826.7,152.9c0-0.3,0-0.7,0-1c0-5.2-3-9.6-7.4-11.8h14.8L826.7,152.9z"/>
				<path id="XMLID_1164_" class="st3" d="M858,154.1l-23.4,40h46.9L858,154.1z M858.8,169.2c6.2,0.4,11.1,5.4,11.1,11.6
					s-4.9,11.2-11.1,11.6V169.2z M858.8,167.7v-9.2l6.6,11.3C863.5,168.6,861.2,167.8,858.8,167.7z M857.2,167.7
					c-2.5,0.2-4.8,1-6.7,2.3l6.7-11.4V167.7z M857.2,169.2v23.2c-6.1-0.4-11-5.5-11-11.6C846.3,174.7,851.1,169.7,857.2,169.2z
					 M871.3,180.8c0-0.3,0-0.5,0-0.8l7.4,12.6H864C868.3,190.4,871.3,186,871.3,180.8z M844.7,179.8c0,0.3,0,0.7,0,1
					c0,5.2,3,9.6,7.4,11.8h-14.8L844.7,179.8z"/>
				<path id="XMLID_1395_" class="st3" d="M90.6,258l-23.4,40h46.9L90.6,258z M91.4,273.1c6.2,0.4,11.1,5.4,11.1,11.6
					s-4.9,11.2-11.1,11.6V273.1z M91.4,271.5v-9.2l6.6,11.3C96.1,272.4,93.8,271.7,91.4,271.5z M89.8,271.5c-2.5,0.2-4.8,1-6.7,2.3
					l6.7-11.4V271.5z M89.8,273.1v23.2c-6.1-0.4-11-5.5-11-11.6S83.7,273.5,89.8,273.1z M104,284.7c0-0.3,0-0.5,0-0.8l7.4,12.6H96.6
					C101,294.3,104,289.8,104,284.7z M77.4,283.7c0,0.3,0,0.7,0,1c0,5.2,3,9.6,7.4,11.8H69.9L77.4,283.7z"/>
				<path id="XMLID_1387_" class="st3" d="M858.7,294.1l-23.4,40h46.9L858.7,294.1z M859.5,309.3c6.2,0.4,11.1,5.4,11.1,11.6
					s-4.9,11.2-11.1,11.6V309.3z M859.5,307.7v-9.2l6.6,11.3C864.2,308.6,861.9,307.8,859.5,307.7z M857.9,307.7
					c-2.5,0.2-4.8,1-6.7,2.3l6.7-11.4V307.7z M857.9,309.3v23.2c-6.1-0.4-11-5.5-11-11.6C847,314.7,851.8,309.7,857.9,309.3z
					 M872,320.9c0-0.3,0-0.5,0-0.8l7.4,12.6h-14.7C869,330.5,872,326,872,320.9z M845.5,319.9c0,0.3,0,0.7,0,1c0,5.2,3,9.6,7.4,11.8
					H838L845.5,319.9z"/>
				<path id="XMLID_1379_" class="st3" d="M858.7,282.5l23.4-40h-46.9L858.7,282.5z M857.9,267.3c-6.2-0.4-11.1-5.4-11.1-11.6
					s4.9-11.2,11.1-11.6V267.3z M857.9,268.9v9.2l-6.6-11.3C853.2,268,855.5,268.8,857.9,268.9z M859.5,268.9c2.5-0.2,4.8-1,6.7-2.3
					l-6.7,11.4V268.9z M859.5,267.3v-23.2c6.1,0.4,11,5.5,11,11.6S865.6,266.9,859.5,267.3z M845.3,255.7c0,0.3,0,0.5,0,0.8
					l-7.4-12.6h14.7C848.3,246.1,845.3,250.6,845.3,255.7z M871.9,256.7c0-0.3,0-0.7,0-1c0-5.2-3-9.6-7.4-11.8h14.8L871.9,256.7z"/>
				<path id="XMLID_1371_" class="st3" d="M133.7,294.1l-23.4,40h46.9L133.7,294.1z M134.5,309.3c6.2,0.4,11.1,5.4,11.1,11.6
					s-4.9,11.2-11.1,11.6V309.3z M134.5,307.7v-9.2l6.6,11.3C139.2,308.6,137,307.8,134.5,307.7z M133,307.7c-2.5,0.2-4.8,1-6.7,2.3
					l6.7-11.4V307.7z M133,309.3v23.2c-6.1-0.4-11-5.5-11-11.6C122,314.7,126.8,309.7,133,309.3z M147.1,320.9c0-0.3,0-0.5,0-0.8
					l7.4,12.6h-14.8C144.1,330.5,147.1,326,147.1,320.9z M120.5,319.9c0,0.3,0,0.7,0,1c0,5.2,3,9.6,7.4,11.8h-14.9L120.5,319.9z"/>
				<path id="XMLID_1363_" class="st3" d="M133.7,282.5l23.4-40h-46.8L133.7,282.5z M133,267.3c-6.2-0.4-11.1-5.4-11.1-11.6
					s4.9-11.2,11.1-11.6C133,244.1,133,267.3,133,267.3z M133,268.9v9.2l-6.6-11.3C128.2,268,130.5,268.8,133,268.9z M134.5,268.9
					c2.5-0.2,4.8-1,6.7-2.3l-6.7,11.4V268.9z M134.5,267.3v-23.2c6.1,0.4,11,5.5,11,11.6S140.6,266.9,134.5,267.3z M120.3,255.7
					c0,0.3,0,0.5,0,0.8l-7.4-12.6h14.8C123.3,246.1,120.3,250.6,120.3,255.7z M147,256.7c0-0.3,0-0.7,0-1c0-5.2-3-9.6-7.4-11.8h14.8
					L147,256.7z"/>
				<path id="XMLID_1355_" class="st3" d="M178.3,258l-23.4,40h46.8L178.3,258z M179.1,273.1c6.2,0.4,11.1,5.4,11.1,11.6
					s-4.9,11.2-11.1,11.6V273.1z M179.1,271.5v-9.2l6.6,11.3C183.8,272.4,181.5,271.7,179.1,271.5z M177.5,271.5
					c-2.5,0.2-4.8,1-6.7,2.3l6.7-11.4V271.5z M177.5,273.1v23.2c-6.1-0.4-11-5.5-11-11.6S171.4,273.5,177.5,273.1z M191.7,284.7
					c0-0.3,0-0.5,0-0.8l7.4,12.6h-14.7C188.7,294.3,191.7,289.8,191.7,284.7z M165,283.7c0,0.3,0,0.7,0,1c0,5.2,3,9.6,7.4,11.8
					h-14.8L165,283.7z"/>
				<path id="XMLID_1347_" class="st3" d="M272.1,258l-23.4,40h46.9L272.1,258z M272.9,273.1c6.2,0.4,11.1,5.4,11.1,11.6
					s-4.9,11.2-11.1,11.6V273.1z M272.9,271.5v-9.2l6.6,11.3C277.6,272.4,275.3,271.7,272.9,271.5z M271.3,271.5
					c-2.5,0.2-4.8,1-6.7,2.3l6.7-11.4V271.5z M271.3,273.1v23.2c-6.1-0.4-11-5.5-11-11.6S265.2,273.5,271.3,273.1z M285.5,284.7
					c0-0.3,0-0.5,0-0.8l7.4,12.6h-14.7C282.5,294.3,285.5,289.8,285.5,284.7z M258.8,283.7c0,0.3,0,0.7,0,1c0,5.2,3,9.6,7.4,11.8
					h-14.8L258.8,283.7z"/>
				<path id="XMLID_1339_" class="st3" d="M225.1,294.1l-23.4,40h46.9L225.1,294.1z M225.9,309.3c6.2,0.4,11.1,5.4,11.1,11.6
					s-4.9,11.2-11.1,11.6V309.3z M225.9,307.7v-9.2l6.6,11.3C230.6,308.6,228.4,307.8,225.9,307.7z M224.4,307.7
					c-2.5,0.2-4.8,1-6.7,2.3l6.7-11.4V307.7z M224.4,309.3v23.2c-6.1-0.4-11-5.5-11-11.6C213.4,314.7,218.2,309.7,224.4,309.3z
					 M238.5,320.9c0-0.3,0-0.5,0-0.8l7.4,12.6h-14.7C235.5,330.5,238.5,326,238.5,320.9z M211.9,319.9c0,0.3,0,0.7,0,1
					c0,5.2,3,9.6,7.4,11.8h-14.8L211.9,319.9z"/>
				<path id="XMLID_1331_" class="st3" d="M225.1,282.5l23.4-40h-46.9L225.1,282.5z M224.4,267.3c-6.2-0.4-11.1-5.4-11.1-11.6
					s4.9-11.2,11.1-11.6V267.3z M224.4,268.9v9.2l-6.6-11.3C219.6,268,221.9,268.8,224.4,268.9z M225.9,268.9c2.5-0.2,4.8-1,6.7-2.3
					l-6.7,11.4V268.9z M225.9,267.3v-23.2c6.1,0.4,11,5.5,11,11.6S232,266.9,225.9,267.3z M211.7,255.7c0,0.3,0,0.5,0,0.8l-7.4-12.6
					H219C214.7,246.1,211.7,250.6,211.7,255.7z M238.4,256.7c0-0.3,0-0.7,0-1c0-5.2-3-9.6-7.4-11.8h14.8L238.4,256.7z"/>
				<path id="XMLID_1323_" class="st3" d="M315.2,294.1l-23.4,40h46.9L315.2,294.1z M316,309.3c6.2,0.4,11.1,5.4,11.1,11.6
					s-4.9,11.2-11.1,11.6V309.3z M316,307.7v-9.2l6.6,11.3C320.7,308.6,318.4,307.8,316,307.7z M314.4,307.7c-2.5,0.2-4.8,1-6.7,2.3
					l6.7-11.4V307.7z M314.4,309.3v23.2c-6.1-0.4-11-5.5-11-11.6C303.4,314.7,308.3,309.7,314.4,309.3z M328.6,320.9
					c0-0.3,0-0.5,0-0.8l7.4,12.6h-14.7C325.6,330.5,328.6,326,328.6,320.9z M302,319.9c0,0.3,0,0.7,0,1c0,5.2,3,9.6,7.4,11.8h-14.8
					L302,319.9z"/>
				<path id="XMLID_1315_" class="st3" d="M315.2,282.5l23.4-40h-46.9L315.2,282.5z M314.4,267.3c-6.2-0.4-11.1-5.4-11.1-11.6
					s4.9-11.2,11.1-11.6V267.3z M314.4,268.9v9.2l-6.6-11.3C309.7,268,312,268.8,314.4,268.9z M316,268.9c2.5-0.2,4.8-1,6.7-2.3
					L316,278V268.9z M316,267.3v-23.2c6.1,0.4,11,5.5,11,11.6S322.1,266.9,316,267.3z M301.9,255.7c0,0.3,0,0.5,0,0.8l-7.4-12.6
					h14.7C304.8,246.1,301.9,250.6,301.9,255.7z M328.4,256.7c0-0.3,0-0.7,0-1c0-5.2-3-9.6-7.4-11.8h14.8L328.4,256.7z"/>
				<path id="XMLID_1307_" class="st3" d="M359.8,258l-23.4,40h46.9L359.8,258z M360.5,273.1c6.2,0.4,11.1,5.4,11.1,11.6
					s-4.9,11.2-11.1,11.6V273.1z M360.5,271.5v-9.2l6.6,11.3C365.2,272.4,363,271.7,360.5,271.5z M359,271.5c-2.5,0.2-4.8,1-6.7,2.3
					l6.7-11.4V271.5z M359,273.1v23.2c-6.1-0.4-11-5.5-11-11.6S352.9,273.5,359,273.1z M373.2,284.7c0-0.3,0-0.5,0-0.8l7.4,12.6
					h-14.7C370.1,294.3,373.2,289.8,373.2,284.7z M346.5,283.7c0,0.3,0,0.7,0,1c0,5.2,3,9.6,7.4,11.8h-14.8L346.5,283.7z"/>
				<path id="XMLID_1299_" class="st3" d="M454.6,258l-23.4,40h46.9L454.6,258z M455.4,273.1c6.2,0.4,11.1,5.4,11.1,11.6
					s-4.9,11.2-11.1,11.6V273.1z M455.4,271.5v-9.2l6.6,11.3C460.1,272.4,457.8,271.7,455.4,271.5z M453.8,271.5
					c-2.5,0.2-4.8,1-6.7,2.3l6.7-11.4V271.5z M453.8,273.1v23.2c-6.1-0.4-11-5.5-11-11.6S447.7,273.5,453.8,273.1z M468,284.7
					c0-0.3,0-0.5,0-0.8l7.4,12.6h-14.7C465,294.3,468,289.8,468,284.7z M441.3,283.7c0,0.3,0,0.7,0,1c0,5.2,3,9.6,7.4,11.8h-14.8
					L441.3,283.7z"/>
				<path id="XMLID_1291_" class="st3" d="M407.7,294.1l-23.4,40h46.9L407.7,294.1z M408.4,309.3c6.2,0.4,11.1,5.4,11.1,11.6
					s-4.9,11.2-11.1,11.6V309.3z M408.4,307.7v-9.2l6.6,11.3C413.2,308.6,410.9,307.8,408.4,307.7z M406.9,307.7
					c-2.5,0.2-4.8,1-6.7,2.3l6.7-11.4V307.7z M406.9,309.3v23.2c-6.1-0.4-11-5.5-11-11.6C396,314.7,400.8,309.7,406.9,309.3z
					 M421.1,320.9c0-0.3,0-0.5,0-0.8l7.4,12.6h-14.7C418.1,330.5,421.1,326,421.1,320.9z M394.5,319.9c0,0.3,0,0.7,0,1
					c0,5.2,3,9.6,7.4,11.8h-14.8L394.5,319.9z"/>
				<path id="XMLID_1283_" class="st3" d="M407.7,282.5l23.4-40h-46.9L407.7,282.5z M406.9,267.3c-6.2-0.4-11.1-5.4-11.1-11.6
					s4.9-11.2,11.1-11.6V267.3z M406.9,268.9v9.2l-6.6-11.3C402.2,268,404.4,268.8,406.9,268.9z M408.4,268.9c2.5-0.2,4.8-1,6.7-2.3
					l-6.7,11.4V268.9z M408.4,267.3v-23.2c6.1,0.4,11,5.5,11,11.6S414.6,266.9,408.4,267.3z M394.4,255.7c0,0.3,0,0.5,0,0.8
					l-7.4-12.6h14.7C397.3,246.1,394.4,250.6,394.4,255.7z M420.9,256.7c0-0.3,0-0.7,0-1c0-5.2-3-9.6-7.4-11.8h14.9L420.9,256.7z"/>
				<path id="XMLID_1275_" class="st3" d="M497.7,294.1l-23.4,40h46.9L497.7,294.1z M498.5,309.3c6.2,0.4,11.1,5.4,11.1,11.6
					s-4.9,11.2-11.1,11.6V309.3z M498.5,307.7v-9.2l6.6,11.3C503.2,308.6,500.9,307.8,498.5,307.7z M496.9,307.7
					c-2.5,0.2-4.8,1-6.7,2.3l6.7-11.4V307.7z M496.9,309.3v23.2c-6.1-0.4-11-5.5-11-11.6C486.1,314.7,490.9,309.7,496.9,309.3z
					 M511.1,320.9c0-0.3,0-0.5,0-0.8l7.4,12.6h-14.7C508.1,330.5,511.1,326,511.1,320.9z M484.6,319.9c0,0.3,0,0.7,0,1
					c0,5.2,3,9.6,7.4,11.8h-14.8L484.6,319.9z"/>
				<path id="XMLID_1267_" class="st3" d="M497.7,282.5l23.4-40h-46.8L497.7,282.5z M496.9,267.3c-6.2-0.4-11.1-5.4-11.1-11.6
					s4.9-11.2,11.1-11.6V267.3z M496.9,268.9v9.2l-6.6-11.3C492.2,268,494.5,268.8,496.9,268.9z M498.5,268.9c2.5-0.2,4.8-1,6.7-2.3
					l-6.7,11.4V268.9z M498.5,267.3v-23.2c6.1,0.4,11,5.5,11,11.6S504.6,266.9,498.5,267.3z M484.4,255.7c0,0.3,0,0.5,0,0.8
					l-7.4-12.6h14.7C487.4,246.1,484.4,250.6,484.4,255.7z M511,256.7c0-0.3,0-0.7,0-1c0-5.2-3-9.6-7.4-11.8h14.8L511,256.7z"/>
				<path id="XMLID_1259_" class="st3" d="M542.3,258l-23.4,40h46.9L542.3,258z M543.1,273.1c6.2,0.4,11.1,5.4,11.1,11.6
					s-4.9,11.2-11.1,11.6V273.1z M543.1,271.5v-9.2l6.6,11.3C547.8,272.4,545.5,271.7,543.1,271.5z M541.5,271.5
					c-2.5,0.2-4.8,1-6.7,2.3l6.7-11.4V271.5z M541.5,273.1v23.2c-6.1-0.4-11-5.5-11-11.6S535.4,273.5,541.5,273.1z M555.7,284.7
					c0-0.3,0-0.5,0-0.8l7.4,12.6h-14.8C552.7,294.3,555.7,289.8,555.7,284.7z M529,283.7c0,0.3,0,0.7,0,1c0,5.2,3,9.6,7.4,11.8
					h-14.8L529,283.7z"/>
				<path id="XMLID_1251_" class="st3" d="M636.1,258l-23.4,40h46.9L636.1,258z M636.8,273.1c6.2,0.4,11.1,5.4,11.1,11.6
					s-4.9,11.2-11.1,11.6V273.1z M636.8,271.5v-9.2l6.6,11.3C641.5,272.4,639.3,271.7,636.8,271.5z M635.3,271.5
					c-2.5,0.2-4.8,1-6.7,2.3l6.7-11.4V271.5z M635.3,273.1v23.2c-6.1-0.4-11-5.5-11-11.6S629.2,273.5,635.3,273.1z M649.5,284.7
					c0-0.3,0-0.5,0-0.8l7.4,12.6h-14.7C646.4,294.3,649.5,289.8,649.5,284.7z M622.8,283.7c0,0.3,0,0.7,0,1c0,5.2,3,9.6,7.4,11.8
					h-14.8L622.8,283.7z"/>
				<path id="XMLID_1243_" class="st3" d="M589.1,294.1l-23.4,40h46.9L589.1,294.1z M589.9,309.3c6.2,0.4,11.1,5.4,11.1,11.6
					s-4.9,11.2-11.1,11.6V309.3z M589.9,307.7v-9.2l6.6,11.3C594.6,308.6,592.3,307.8,589.9,307.7z M588.3,307.7
					c-2.5,0.2-4.8,1-6.7,2.3l6.7-11.4V307.7z M588.3,309.3v23.2c-6.1-0.4-11-5.5-11-11.6C577.5,314.7,582.3,309.7,588.3,309.3z
					 M602.5,320.9c0-0.3,0-0.5,0-0.8l7.4,12.6h-14.7C599.5,330.5,602.5,326,602.5,320.9z M576,319.9c0,0.3,0,0.7,0,1
					c0,5.2,3,9.6,7.4,11.8h-14.8L576,319.9z"/>
				<path id="XMLID_1235_" class="st3" d="M589.1,282.5l23.4-40h-46.8L589.1,282.5z M588.3,267.3c-6.2-0.4-11.1-5.4-11.1-11.6
					s4.9-11.2,11.1-11.6V267.3z M588.3,268.9v9.2l-6.6-11.3C583.7,268,585.9,268.8,588.3,268.9z M589.9,268.9c2.5-0.2,4.8-1,6.7-2.3
					l-6.7,11.4V268.9z M589.9,267.3v-23.2c6.1,0.4,11,5.5,11,11.6S596,266.9,589.9,267.3z M575.8,255.7c0,0.3,0,0.5,0,0.8l-7.4-12.6
					h14.7C578.8,246.1,575.8,250.6,575.8,255.7z M602.4,256.7c0-0.3,0-0.7,0-1c0-5.2-3-9.6-7.4-11.8h14.8L602.4,256.7z"/>
				<path id="XMLID_1227_" class="st3" d="M679.2,294.1l-23.4,40h46.9L679.2,294.1z M680,309.3c6.2,0.4,11.1,5.4,11.1,11.6
					s-4.9,11.2-11.1,11.6V309.3z M680,307.7v-9.2l6.6,11.3C684.7,308.6,682.4,307.8,680,307.7z M678.4,307.7c-2.5,0.2-4.8,1-6.7,2.3
					l6.7-11.4V307.7z M678.4,309.3v23.2c-6.1-0.4-11-5.5-11-11.6C667.5,314.7,672.4,309.7,678.4,309.3z M692.6,320.9
					c0-0.3,0-0.5,0-0.8l7.4,12.6h-14.7C689.6,330.5,692.6,326,692.6,320.9z M666,319.9c0,0.3,0,0.7,0,1c0,5.2,3,9.6,7.4,11.8h-14.8
					L666,319.9z"/>
				<path id="XMLID_1219_" class="st3" d="M679.2,282.5l23.4-40h-46.9L679.2,282.5z M678.4,267.3c-6.2-0.4-11.1-5.4-11.1-11.6
					s4.9-11.2,11.1-11.6V267.3z M678.4,268.9v9.2l-6.6-11.3C673.8,268,676.1,268.8,678.4,268.9z M680,268.9c2.5-0.2,4.8-1,6.7-2.3
					L680,278V268.9z M680,267.3v-23.2c6.1,0.4,11,5.5,11,11.6S686.1,266.9,680,267.3z M665.9,255.7c0,0.3,0,0.5,0,0.8l-7.4-12.6
					h14.7C668.9,246.1,665.9,250.6,665.9,255.7z M692.4,256.7c0-0.3,0-0.7,0-1c0-5.2-3-9.6-7.4-11.8h14.8L692.4,256.7z"/>
				<path id="XMLID_1211_" class="st3" d="M723.7,258l-23.4,40h46.9L723.7,258z M724.5,273.1c6.2,0.4,11.1,5.4,11.1,11.6
					s-4.9,11.2-11.1,11.6V273.1z M724.5,271.5v-9.2l6.6,11.3C729.2,272.4,727,271.7,724.5,271.5z M723,271.5c-2.5,0.2-4.8,1-6.7,2.3
					l6.7-11.4V271.5z M723,273.1v23.2c-6.1-0.4-11-5.5-11-11.6S716.8,273.5,723,273.1z M737.1,284.7c0-0.3,0-0.5,0-0.8l7.4,12.6
					h-14.7C734.1,294.3,737.1,289.8,737.1,284.7z M710.5,283.7c0,0.3,0,0.7,0,1c0,5.2,3,9.6,7.4,11.8h-14.8L710.5,283.7z"/>
				<path id="XMLID_1203_" class="st3" d="M769.5,294.1l-23.4,40h46.9L769.5,294.1z M770.2,309.3c6.2,0.4,11.1,5.4,11.1,11.6
					s-4.9,11.2-11.1,11.6V309.3z M770.2,307.7v-9.2l6.6,11.3C774.9,308.6,772.6,307.8,770.2,307.7z M768.7,307.7
					c-2.5,0.2-4.8,1-6.7,2.3l6.7-11.4V307.7z M768.7,309.3v23.2c-6.1-0.4-11-5.5-11-11.6C757.7,314.7,762.6,309.7,768.7,309.3z
					 M782.8,320.9c0-0.3,0-0.5,0-0.8l7.4,12.6h-14.7C779.8,330.5,782.8,326,782.8,320.9z M756.2,319.9c0,0.3,0,0.7,0,1
					c0,5.2,3,9.6,7.4,11.8h-14.8L756.2,319.9z"/>
				<path id="XMLID_1195_" class="st3" d="M769.5,282.5l23.4-40H746L769.5,282.5z M768.7,267.3c-6.2-0.4-11.1-5.4-11.1-11.6
					s4.9-11.2,11.1-11.6V267.3z M768.7,268.9v9.2l-6.6-11.3C764,268,766.2,268.8,768.7,268.9z M770.2,268.9c2.5-0.2,4.8-1,6.7-2.3
					l-6.7,11.4V268.9z M770.2,267.3v-23.2c6.1,0.4,11,5.5,11,11.6S776.3,266.9,770.2,267.3z M756.1,255.7c0,0.3,0,0.5,0,0.8
					l-7.4-12.6h14.7C759.1,246.1,756.1,250.6,756.1,255.7z M782.6,256.7c0-0.3,0-0.7,0-1c0-5.2-3-9.6-7.4-11.8H790L782.6,256.7z"/>
				<path id="XMLID_1163_" class="st3" d="M813.9,258l-23.4,40h46.9L813.9,258z M814.7,273.1c6.2,0.4,11.1,5.4,11.1,11.6
					s-4.9,11.2-11.1,11.6V273.1z M814.7,271.5v-9.2l6.6,11.3C819.4,272.4,817.2,271.7,814.7,271.5z M813.1,271.5
					c-2.5,0.2-4.8,1-6.7,2.3l6.7-11.4V271.5z M813.1,273.1v23.2c-6.1-0.4-11-5.5-11-11.6S807,273.5,813.1,273.1z M827.3,284.7
					c0-0.3,0-0.5,0-0.8l7.4,12.6H820C824.3,294.3,827.3,289.8,827.3,284.7z M800.7,283.7c0,0.3,0,0.7,0,1c0,5.2,3,9.6,7.4,11.8
					h-14.8L800.7,283.7z"/>
			</g>
		</g>
	</g>
</g>
<g id="numbersMagic">
	<path id="number6_1_" class="st4" d="M138.6,126l-5.8,10.1c3,0.3,5.6,1.5,7.7,3.7c2.1,2.3,3.2,4.9,3.2,8c0,3.3-1.2,6-3.5,8.3
		s-5.1,3.4-8.3,3.4c-3.3,0-6-1.1-8.3-3.4s-3.4-5-3.4-8.3c0-2,0.5-3.9,1.4-5.6c0.2-0.3,0.5-0.9,0.6-1.1l8.7-15L138.6,126z M137,147.7
		c0-2.7-2.3-5-5-5l0,0c-2.8,0-5,2.3-5,5s2.3,5,5,5C134.8,152.8,137,150.4,137,147.7z"/>
	<path id="dash1_1_" class="st4" d="M158.6,142.2h16.3v5.9h-16.3V142.2z"/>
	<path id="number2_2_" class="st4" d="M196.6,137.6h-6.7c0-3.3,1.2-6.1,3.5-8.4c2.3-2.3,5.1-3.5,8.4-3.5s6.1,1.2,8.4,3.5
		c2.3,2.3,3.5,5.1,3.5,8.4c0,2-0.5,3.9-1.6,5.9c-1.1,1.9-2.4,3.7-4,5.5c-1.2,1.3-2.3,2.5-3.8,3.7h9.3v6.7h-23.8l1.1-3.8
		c3.7-2.6,7.9-6.2,10.9-9.5c1.5-1.7,2.8-3.2,3.7-4.7c1-1.5,1.4-2.7,1.4-3.6c0-2.9-2.4-5.2-5.2-5.2
		C199,132.5,196.6,134.8,196.6,137.6z"/>
	<path id="dash2_1_" class="st4" d="M228.6,142.2h16.3v5.9h-16.3V142.2z"/>
	<path id="number4_1_" class="st4" d="M277,125.9l-7.1,19.6h7.1v-13h6.7v13h3.3v6.7h-3.3v7.2H277v-7.2h-17.2l9.9-26.3L277,125.9z"/>
	<path id="dash3_1_" class="st4" d="M301.9,142.2h16.3v5.9h-16.3V142.2z"/>
	<path id="number42_1_" class="st4" d="M350.3,125.9l-7.1,19.6h7.1v-13h6.7v13h3.3v6.7H357v7.2h-6.7v-7.2h-17.2l9.9-26.3
		L350.3,125.9z"/>
	<path id="dash4_1_" class="st4" d="M375.2,142.2h16.3v5.9h-16.3V142.2z"/>
	<path id="number22_1_" class="st4" d="M413.2,137.6h-6.7c0-3.3,1.2-6.1,3.5-8.4s5.1-3.5,8.4-3.5s6.1,1.2,8.4,3.5s3.5,5.1,3.5,8.4
		c0,2-0.5,3.9-1.6,5.9c-1.1,1.9-2.4,3.7-4,5.5c-1.2,1.3-2.3,2.5-3.8,3.7h9.3v6.7h-23.8l1.1-3.8c3.7-2.6,7.9-6.2,10.9-9.5
		c1.5-1.7,2.8-3.2,3.7-4.7c1-1.5,1.4-2.7,1.4-3.6c0-2.9-2.4-5.2-5.2-5.2C415.6,132.5,413.2,134.8,413.2,137.6z"/>
	<g id="letterM_1_">
		<g id="XMLID_299_">
			<path id="XMLID_300_" class="st5" d="M133.8,233.1l16.3-22.4v34.1h-6.7V231l-9.6,13.3l-9.6-13.3v13.8h-6.7v-34.1L133.8,233.1z"/>
		</g>
	</g>
	<g id="letterA_1_">
		<g id="XMLID_283_">
			<path id="XMLID_284_" class="st5" d="M204.9,210.8l15.2,34h-7.3l-2.3-5.1h-11.4l-2.3,5.1h-7.2L204.9,210.8z M208,233.8l-3-7
				l-3.1,7H208z"/>
		</g>
	</g>
	<g id="letterG_1_">
		<g id="XMLID_269_">
			<path id="XMLID_270_" class="st5" d="M276.3,211.2c5.1,0,9.2,2.3,12,4.9l-4.8,4.8c-2-2-4.4-3-7.2-3c-2.8,0-5.2,1-7.2,3
				s-3,4.4-3,7.2s1,5.2,3,7.2s4.3,3,7.2,3c4.3,0,7.7-2.7,9.1-5.8h-9.5v-6.4H293c0.5,6.2-1.6,10.7-4.9,14c-3.3,3.3-7.3,4.9-11.9,4.9
				c-4.7,0-8.7-1.6-11.9-4.9c-3.3-3.3-5-7.3-5-11.9s1.7-8.6,5-12C267.6,212.8,271.6,211.2,276.3,211.2L276.3,211.2z"/>
		</g>
	</g>
	<g id="letterI_1_">
		<g id="XMLID_180_">
			<path id="XMLID_251_" class="st5" d="M345.5,211.4h6.7v33.3h-6.7V211.4z"/>
		</g>
	</g>
	<g id="letterC_1_">
		<g id="XMLID_138_">
			<path id="XMLID_168_" class="st5" d="M422,245c-4.7,0-8.6-1.7-11.9-4.9c-3.3-3.3-5-7.3-5-11.9s1.7-8.6,5-12c3.3-3.3,7.3-5,11.9-5
				v0.1c5.1,0,9.2,2.3,12,4.9l-4.8,4.8c-2-2-4.4-3-7.2-3c-2.8,0-5.2,1-7.2,3s-3,4.4-3,7.2c0,2.8,1,5.2,3,7.2s4.4,3,7.2,3
				c2.8,0,5.2-1,7.2-3l4.8,4.8C431.3,242.8,427.2,245,422,245z"/>
		</g>
	</g>
</g>
</svg>
