<?xml version="1.0" encoding="utf-8"?>
<!-- Generator: Adobe Illustrator 19.0.0, SVG Export Plug-In . SVG Version: 6.00 Build 0)  -->
<svg version="1.1" id="box4" xmlns="http://www.w3.org/2000/svg" xmlns:xlink="http://www.w3.org/1999/xlink" x="0px" y="0px"
	 viewBox="69 330.2 750 471" style="enable-background:new 69 330.2 750 471;" xml:space="preserve">
<style type="text/css">
	.st0{fill:#FFFFFF;}
	.st1{fill:none;stroke:#232323;stroke-width:2;stroke-miterlimit:10;}
	.st2{opacity:0.2;enable-background:new    ;}
	.st3{fill:#784830;}
	.st4{fill:#F9ED32;}
	.st5{fill:#FE6538;}
	.st6{fill:#482816;}
	.st7{fill:#2F1C11;}
	.st8{fill:#3B2314;}
	.st9{fill:#D4912A;}
	.st10{fill:#B4752A;}
</style>
<g id="harryBg">
	<rect id="XMLID_1_" x="69" y="331" class="st0" width="374.3" height="470.9"/>
</g>
<g id="harryLine">
	<line id="XMLID_317_" class="st1" x1="68.6" y1="537.5" x2="405" y2="537.5"/>
</g>
<g id="harryGlass">
	<g id="XMLID_295_">
		<path id="XMLID_481_" class="st2" d="M326.2,674.5c-13.3-0.8-24.8,9.4-25.6,22.7c-0.1,1.9,0,3.7,0.3,5.5l44-17.5
			C340.7,679.2,334,675,326.2,674.5z"/>
		<path id="XMLID_479_" class="st3" d="M346.1,687.3l-44.7,17.8c0.4,1.5,1,2.9,1.6,4.2l45.4-15.5C348,691.6,347.2,689.4,346.1,687.3
			z"/>
		<path id="XMLID_476_" class="st2" d="M323.2,722.9c13.3,0.8,24.8-9.4,25.6-22.7c0.1-1.3,0.1-2.5-0.1-3.7l-44.6,15.2
			C308.3,718,315.2,722.4,323.2,722.9z"/>
		<path id="XMLID_475_" class="st3" d="M355.9,691.1c0-1.2-0.7-5-1.1-6.3c-0.4,0-1.2,0.2-2,0.4c1,2,1.7,4.1,2.2,6.3
			C355.4,691.4,355.8,691.2,355.9,691.1z"/>
		<path id="XMLID_474_" class="st3" d="M355.7,701.9c4.6,4.9,10.2,10.4,11.3,10.8c0.7,0.2,3.2-0.8,4.6-2.3c0.6-0.6,0.7-1,0.7-1.2
			c-0.7-1.2-8.6-6.3-16.4-10.9c0,0.7,0,1.5,0,2.3C355.8,701,355.8,701.5,355.7,701.9z"/>
		<path id="XMLID_465_" class="st3" d="M323,727.4c15.8,1,29.4-11.1,30.4-26.9s-11.1-29.4-26.9-30.4s-29.4,11.1-30.4,26.9
			C295.1,712.8,307.2,726.4,323,727.4z M298.7,704.6c-0.6-2.4-0.8-4.9-0.6-7.5c0.9-14.7,13.6-25.9,28.2-25c9.1,0.6,16.9,5.7,21.3,13
			c0.1,0.1,0.1,0.2,0.2,0.3l0,0c1.6,2.8,2.8,5.9,3.3,9.2l0,0c0.3,1.8,0.4,3.7,0.3,5.7c-0.9,14.7-13.6,25.9-28.2,25
			C311,724.6,301.3,715.9,298.7,704.6L298.7,704.6z"/>
		<path id="XMLID_462_" class="st3" d="M229.4,736.9c0,0,0.1,0,0.1-0.1l44.3-16.5c-0.3-1.6-0.7-3.2-1.2-4.6l-45.8,15.6
			C227.5,733.3,228.4,735.2,229.4,736.9z"/>
		<path id="XMLID_460_" class="st2" d="M251.5,700c-13.3-0.8-24.8,9.4-25.6,22.7c-0.1,2.1,0,4.2,0.4,6.2l45.4-15.4
			C268,706,260.4,700.6,251.5,700z"/>
		<path id="XMLID_432_" class="st3" d="M218.3,735c-0.1,1.1,2.8,5.7,4,6.2c0.4,0,0.9-0.2,1.3-0.4c-1.3-2.1-2.4-4.3-3.2-6.7
			C219.3,734.3,218.4,734.7,218.3,735z"/>
		<path id="XMLID_418_" class="st2" d="M248.6,748.4c13.3,0.8,24.8-9.4,25.6-22.7c0.1-0.9,0.1-1.8,0-2.7l-43.3,16.1
			C235,744.3,241.3,747.9,248.6,748.4z"/>
		<path id="XMLID_389_" class="st3" d="M251.7,695.5c-15.8-1-29.4,11.1-30.4,26.9s11.1,29.4,26.9,30.4s29.4-11.1,30.4-26.9
			S267.6,696.5,251.7,695.5z M276.5,721c0.2,1.6,0.2,3.1,0.1,4.8c-0.9,14.7-13.6,25.9-28.2,25c-14.7-0.9-25.9-13.6-25-28.2
			c0.9-14.7,13.6-25.9,28.2-25C264.7,698.4,275,708.5,276.5,721L276.5,721z"/>
		<path id="XMLID_386_" class="st3" d="M222.2,765.6c0.2,0.2,0.7,0.3,0.8,0.3c1.5,0.2,3.6-0.5,4.3-1.5c0.8-1.1,1.7-9.4,2.2-16.6
			c-0.9-0.8-1.8-1.7-2.6-2.6C225.2,751.3,222.2,762.3,222.2,765.6z"/>
		<path id="XMLID_383_" class="st3" d="M294.7,707.1c-9.2,0.5-14.2,4-15.7,5.4c0.7,1.8,1.3,3.7,1.7,5.7c2.8-1.8,9-5.3,15.8-6.3
			C295.7,710.4,295.1,708.8,294.7,707.1z"/>
	</g>
</g>
<g id="harryThunder">
	<g id="XMLID_287_">
		<g id="XMLID_289_">
			<path id="XMLID_290_" class="st4" d="M156.7,738.4c-0.2,0-0.5,0-0.7-0.1c-1-0.4-1.6-1.4-1.3-2.5l5.1-21.6l-4.2-0.9
				c-0.6-0.1-1.2-0.6-1.5-1.2c-0.3-0.6-0.3-1.3,0-1.9l12.7-25.2c0.4-0.7,1.1-1.2,1.9-1.2c0.2,0,0.5,0,0.7,0.1c1,0.3,1.6,1.4,1.4,2.4
				l-3.2,18.3l4.7,0.5c0.7,0.1,1.3,0.5,1.7,1.1c0.3,0.6,0.3,1.4,0,2l-15.3,29C158.2,738,157.4,738.4,156.7,738.4z"/>
		</g>
	</g>
</g>
<g id="ronBg">
	<rect id="XMLID_131_" x="443.3" y="331" class="st5" width="375.7" height="470.9"/>
</g>
<g id="broom">
	<g id="XMLID_133_">
		<path id="XMLID_244_" class="st6" d="M514.2,572.1c0,0,18.8,10.3,41.1,11.9c7.4,0.5,14.7-1.3,21.1-5c7.8-4.6,22.9-10.7,47.4-9.9
			l0.4-6.5c0,0-24.4-3-46.6,8.4c-7.2,3.7-15.3,4.8-23.3,3.4c-6.9-1.2-14.7-3.5-19.7-7.5C523.8,558,513.5,568.2,514.2,572.1z"/>
		<path id="XMLID_240_" class="st7" d="M566.8,578.3c-17.4,3.9-39.8-5.6-50.4-10.9c-1.5,1.7-2.4,3.5-2.1,4.7
			c0,0,18.8,10.3,41.1,11.9c7.4,0.5,14.7-1.3,21.1-5c7.8-4.6,22.9-10.7,47.4-9.9l0.3-4.1C594.8,563.3,566.8,578.3,566.8,578.3z"/>
		<polygon id="XMLID_183_" class="st8" points="637.8,558.6 629.4,558.4 625.5,561.9 625.1,568.9 628.3,572.6 637,572.9 		"/>
		<path id="XMLID_176_" class="st9" d="M658.7,574.5l52.1,2.1l0.2-4.6l-40.7-3.3l40.8,0.4l0.1-1.9l-54.5-1.9c0,0,46.1-0.2,54.6-0.6
			l0.2-5.2l-55.4,0.1l55.6-3.2l0.2-4l-66.1,1.5l-6.6,4.9l-0.4,14.2l4.6,5.3l67.2,6.4l0.2-4.4C702.3,578.9,658.7,574.5,658.7,574.5z"
			/>
		<path id="XMLID_152_" class="st10" d="M710.9,574.5c-10.6,0-33.3-0.6-51.6-5.4c-12.9-3.3-17.1-8.1-18.2-11.9l-2,1.5l-0.4,14.2
			l4.6,5.3l67.2,6.4l0.2-4.4c-8.3-1.2-52-5.6-52-5.6l52.1,2.1L710.9,574.5z"/>
	</g>
</g>
<g id="wand">
	<g id="XMLID_8_">
		<path id="salmon" class="st5" d="M442.4,400.9v346h-11.5v-24.3h3.5v-10.5c0,0-8-3.5-8-12s8-12.5,8-12.5v-29.4c0,0-8-6.5-8-16
			s8-16,8-16l5-225.4h3V400.9z"/>
		<path id="white_1_" class="st0" d="M442.4,400.9v346h11.5v-24.3h-3.5v-10.5c0,0,8-3.5,8-12s-8-12.5-8-12.5v-29.4c0,0,8-6.5,8-16
			s-8-16-8-16l-5-225.4h-3V400.9z"/>
	</g>
</g>
</svg>
