<?xml version="1.0" encoding="utf-8"?>
<!-- Generator: Adobe Illustrator 19.0.0, SVG Export Plug-In . SVG Version: 6.00 Build 0)  -->
<svg version="1.1" id="box5" xmlns="http://www.w3.org/2000/svg" xmlns:xlink="http://www.w3.org/1999/xlink" x="0px" y="0px"
	 viewBox="69 803.3 750 366.9" style="enable-background:new 69 803.3 750 366.9;" xml:space="preserve">
<style type="text/css">
	.st0{fill:#244EB2;}
	.st1{opacity:0.5;enable-background:new    ;}
	.st2{opacity:0.5;clip-path:url(#SVGID_2_);}
	.st3{opacity:0.3;fill:#FFFFFF;enable-background:new    ;}
	.st4{fill:none;stroke:#FFFFFF;stroke-width:2;stroke-miterlimit:10;}
	.st5{fill:#3B2314;}
	.st6{fill:#2C180F;}
	.st7{fill:#F6D6AD;}
	.st8{fill:#E9BD8D;}
	.st9{fill:#D4912A;}
	.st10{fill:#E09600;}
	.st11{fill:#CF8300;}
</style>
<g id="hermioneBg">
	<rect id="XMLID_137_" x="69.8" y="802" class="st0" width="749.2" height="368.9"/>
	<g id="XMLID_1406_" class="st1">
		<g>
			<defs>
				<rect id="SVGID_1_" x="69" y="801.7" width="750" height="369.3"/>
			</defs>
			<clipPath id="SVGID_2_">
				<use xlink:href="#SVGID_1_"  style="overflow:visible;"/>
			</clipPath>
			<g id="XMLID_1408_" class="st2">
				<path id="XMLID_2049_" class="st3" d="M49.7,884.1l-23.2,40.2h46.4L49.7,884.1z M50.5,899.3c6.1,0.4,10.9,5.4,10.9,11.6
					s-4.8,11.3-10.9,11.6V899.3z M50.5,897.7v-9.2l6.6,11.4C55.1,898.6,52.9,897.8,50.5,897.7z M48.9,897.7c-2.4,0.2-4.7,1-6.6,2.3
					l6.6-11.5V897.7z M48.9,899.3v23.3c-6-0.4-10.8-5.5-10.8-11.6C38.1,904.7,42.9,899.7,48.9,899.3z M63,910.9c0-0.3,0-0.5,0-0.8
					l7.3,12.6H55.7C60,920.5,63,916.1,63,910.9z M36.6,909.9c0,0.3,0,0.7,0,1c0,5.2,3,9.6,7.3,11.8H29.2L36.6,909.9z"/>
				<path id="XMLID_2041_" class="st3" d="M141.5,884.1l-23.2,40.2h46.4L141.5,884.1z M142.2,899.3c6.1,0.4,10.9,5.4,10.9,11.6
					s-4.8,11.3-10.9,11.6V899.3z M142.2,897.7v-9.2l6.6,11.4C146.9,898.6,144.6,897.8,142.2,897.7z M140.7,897.7
					c-2.4,0.2-4.7,1-6.6,2.3l6.6-11.5V897.7z M140.7,899.3v23.3c-6-0.4-10.8-5.5-10.8-11.6C129.8,904.7,134.6,899.7,140.7,899.3z
					 M154.7,910.9c0-0.3,0-0.5,0-0.8l7.3,12.6h-14.6C151.7,920.5,154.7,916.1,154.7,910.9z M128.3,909.9c0,0.3,0,0.7,0,1
					c0,5.2,3,9.6,7.3,11.8h-14.7L128.3,909.9z"/>
				<path id="XMLID_2033_" class="st3" d="M95,920.4l-23.2,40.2h46.4L95,920.4z M95.8,935.5c6.1,0.4,10.9,5.4,10.9,11.6
					s-4.8,11.3-10.9,11.6C95.8,958.7,95.8,935.5,95.8,935.5z M95.8,934v-9.2l6.6,11.4C100.5,934.9,98.2,934.1,95.8,934z M94.3,934
					c-2.4,0.2-4.7,1-6.6,2.3l6.6-11.5V934z M94.3,935.6v23.3c-6-0.4-10.8-5.5-10.8-11.6S88.2,936,94.3,935.6z M108.3,947.2
					c0-0.3,0-0.5,0-0.8l7.3,12.6H101C105.3,956.8,108.3,952.4,108.3,947.2z M81.9,946.2c0,0.3,0,0.7,0,1c0,5.2,3,9.6,7.3,11.8H74.5
					L81.9,946.2z"/>
				<path id="XMLID_2025_" class="st3" d="M95,908.7l23.2-40.2H71.9L95,908.7z M94.3,893.5c-6.1-0.4-10.9-5.4-10.9-11.6
					s4.8-11.3,10.9-11.6V893.5z M94.3,895.1v9.2l-6.6-11.4C89.6,894.1,91.9,894.9,94.3,895.1z M95.8,895c2.4-0.2,4.7-1,6.6-2.3
					l-6.6,11.5C95.8,904.2,95.8,895,95.8,895z M95.8,893.5v-23.3c6,0.4,10.8,5.5,10.8,11.6S101.9,893.1,95.8,893.5z M81.8,881.9
					c0,0.3,0,0.5,0,0.8l-7.3-12.6h14.6C84.8,872.2,81.8,876.7,81.8,881.9z M108.2,882.9c0-0.3,0-0.7,0-1c0-5.2-3-9.6-7.3-11.8h14.7
					L108.2,882.9z"/>
				<path id="XMLID_2017_" class="st3" d="M184.1,920.4L161,960.6h46.4L184.1,920.4z M184.9,935.5c6.1,0.4,10.9,5.4,10.9,11.6
					s-4.8,11.3-10.9,11.6V935.5z M184.9,934v-9.2l6.6,11.4C189.5,934.9,187.3,934.1,184.9,934z M183.3,934c-2.4,0.2-4.7,1-6.6,2.3
					l6.6-11.5V934z M183.3,935.6v23.3c-6-0.4-10.8-5.5-10.8-11.6S177.3,936,183.3,935.6z M197.4,947.2c0-0.3,0-0.5,0-0.8l7.3,12.6
					h-14.6C194.4,956.8,197.4,952.4,197.4,947.2z M171,946.2c0,0.3,0,0.7,0,1c0,5.2,3,9.6,7.3,11.8h-14.7L171,946.2z"/>
				<path id="XMLID_2009_" class="st3" d="M184.1,908.7l23.2-40.2H161L184.1,908.7z M183.3,893.5c-6.1-0.4-10.9-5.4-10.9-11.6
					s4.8-11.3,10.9-11.6V893.5z M183.3,895.1v9.2l-6.6-11.4C178.7,894.1,180.9,894.9,183.3,895.1z M184.9,895c2.4-0.2,4.7-1,6.6-2.3
					l-6.6,11.5V895z M184.9,893.5v-23.3c6,0.4,10.8,5.5,10.8,11.6S190.9,893.1,184.9,893.5z M170.8,881.9c0,0.3,0,0.5,0,0.8
					l-7.3-12.6h14.6C173.8,872.2,170.8,876.7,170.8,881.9z M197.2,882.9c0-0.3,0-0.7,0-1c0-5.2-3-9.6-7.3-11.8h14.7L197.2,882.9z"/>
				<path id="XMLID_2001_" class="st3" d="M228.2,884.1L205,924.3h46.4L228.2,884.1z M228.9,899.3c6.1,0.4,10.9,5.4,10.9,11.6
					s-4.8,11.3-10.9,11.6V899.3z M228.9,897.7v-9.2l6.6,11.4C233.6,898.6,231.3,897.8,228.9,897.7z M227.4,897.7
					c-2.4,0.2-4.7,1-6.6,2.3l6.6-11.5V897.7z M227.4,899.3v23.3c-6-0.4-10.8-5.5-10.8-11.6C216.5,904.7,221.3,899.7,227.4,899.3z
					 M241.4,910.9c0-0.3,0-0.5,0-0.8l7.3,12.6h-14.6C238.4,920.5,241.4,916.1,241.4,910.9z M215,909.9c0,0.3,0,0.7,0,1
					c0,5.2,3,9.6,7.3,11.8h-14.7L215,909.9z"/>
				<path id="XMLID_1993_" class="st3" d="M319.9,884.1l-23.2,40.2h46.4L319.9,884.1z M320.7,899.3c6.1,0.4,10.9,5.4,10.9,11.6
					s-4.8,11.3-10.9,11.6V899.3z M320.7,897.7v-9.2l6.6,11.4C325.3,898.6,323.1,897.8,320.7,897.7z M319.1,897.7
					c-2.4,0.2-4.7,1-6.6,2.3l6.6-11.5V897.7z M319.1,899.3v23.3c-6-0.4-10.8-5.5-10.8-11.6C308.3,904.7,313.1,899.7,319.1,899.3z
					 M333.2,910.9c0-0.3,0-0.5,0-0.8l7.3,12.6h-14.6C330.2,920.5,333.2,916.1,333.2,910.9z M306.8,909.9c0,0.3,0,0.7,0,1
					c0,5.2,3,9.6,7.3,11.8h-14.7L306.8,909.9z"/>
				<path id="XMLID_1985_" class="st3" d="M273.5,920.4l-23.2,40.2h46.4L273.5,920.4z M274.3,935.5c6.1,0.4,10.9,5.4,10.9,11.6
					s-4.8,11.3-10.9,11.6V935.5z M274.3,934v-9.2l6.6,11.4C278.9,934.9,276.7,934.1,274.3,934z M272.7,934c-2.4,0.2-4.7,1-6.6,2.3
					l6.6-11.5V934z M272.7,935.6v23.3c-6-0.4-10.8-5.5-10.8-11.6S266.7,936,272.7,935.6z M286.8,947.2c0-0.3,0-0.5,0-0.8l7.3,12.6
					h-14.6C283.8,956.8,286.8,952.4,286.8,947.2z M260.4,946.2c0,0.3,0,0.7,0,1c0,5.2,3,9.6,7.3,11.8H253L260.4,946.2z"/>
				<path id="XMLID_1977_" class="st3" d="M273.5,908.7l23.2-40.2h-46.4L273.5,908.7z M272.7,893.5c-6.1-0.4-10.9-5.4-10.9-11.6
					s4.8-11.3,10.9-11.6V893.5z M272.7,895.1v9.2l-6.6-11.4C268.1,894.1,270.3,894.9,272.7,895.1z M274.3,895c2.4-0.2,4.7-1,6.6-2.3
					l-6.6,11.5V895z M274.3,893.5v-23.3c6,0.4,10.8,5.5,10.8,11.6S280.3,893.1,274.3,893.5z M260.2,881.9c0,0.3,0,0.5,0,0.8
					l-7.3-12.6h14.6C263.2,872.2,260.2,876.7,260.2,881.9z M286.6,882.9c0-0.3,0-0.7,0-1c0-5.2-3-9.6-7.3-11.8H294L286.6,882.9z"/>
				<path id="XMLID_1969_" class="st3" d="M362.6,920.4l-23.2,40.2h46.4L362.6,920.4z M363.3,935.5c6.1,0.4,10.9,5.4,10.9,11.6
					s-4.8,11.3-10.9,11.6V935.5z M363.3,934v-9.2l6.6,11.4C368,934.9,365.7,934.1,363.3,934z M361.8,934c-2.4,0.2-4.7,1-6.6,2.3
					l6.6-11.5V934z M361.8,935.6v23.3c-6-0.4-10.8-5.5-10.8-11.6S355.7,936,361.8,935.6z M375.8,947.2c0-0.3,0-0.5,0-0.8l7.3,12.6
					h-14.6C372.8,956.8,375.8,952.4,375.8,947.2z M349.5,946.2c0,0.3,0,0.7,0,1c0,5.2,3,9.6,7.3,11.8h-14.7L349.5,946.2z"/>
				<path id="XMLID_1961_" class="st3" d="M362.6,908.7l23.2-40.2h-46.4L362.6,908.7z M361.8,893.5c-6.1-0.4-10.9-5.4-10.9-11.6
					s4.8-11.3,10.9-11.6V893.5z M361.8,895.1v9.2l-6.6-11.4C357.1,894.1,359.4,894.9,361.8,895.1z M363.3,895c2.4-0.2,4.7-1,6.6-2.3
					l-6.6,11.5V895z M363.3,893.5v-23.3c6,0.4,10.8,5.5,10.8,11.6S369.4,893.1,363.3,893.5z M349.4,881.9c0,0.3,0,0.5,0,0.8
					l-7.3-12.6h14.6C352.3,872.2,349.4,876.7,349.4,881.9z M375.7,882.9c0-0.3,0-0.7,0-1c0-5.2-3-9.6-7.3-11.8h14.7L375.7,882.9z"/>
				<path id="XMLID_1953_" class="st3" d="M408.7,884.1l-23.2,40.2h46.4L408.7,884.1z M409.5,899.3c6.1,0.4,10.9,5.4,10.9,11.6
					s-4.8,11.3-10.9,11.6V899.3z M409.5,897.7v-9.2l6.6,11.4C414.2,898.6,411.9,897.8,409.5,897.7z M408,897.7
					c-2.4,0.2-4.7,1-6.6,2.3l6.6-11.5V897.7z M408,899.3v23.3c-6-0.4-10.8-5.5-10.8-11.6C397.1,904.7,401.9,899.7,408,899.3z
					 M422,910.9c0-0.3,0-0.5,0-0.8l7.3,12.6h-14.6C419,920.5,422,916.1,422,910.9z M395.6,909.9c0,0.3,0,0.7,0,1
					c0,5.2,3,9.6,7.3,11.8h-14.7L395.6,909.9z"/>
				<path id="XMLID_1945_" class="st3" d="M500.5,884.1l-23.2,40.2h46.4L500.5,884.1z M501.3,899.3c6.1,0.4,10.9,5.4,10.9,11.6
					s-4.8,11.3-10.9,11.6V899.3z M501.3,897.7v-9.2l6.6,11.4C505.9,898.6,503.7,897.8,501.3,897.7z M499.7,897.7
					c-2.4,0.2-4.7,1-6.6,2.3l6.6-11.5V897.7z M499.7,899.3v23.3c-6-0.4-10.8-5.5-10.8-11.6C488.9,904.7,493.7,899.7,499.7,899.3z
					 M513.8,910.9c0-0.3,0-0.5,0-0.8l7.3,12.6h-14.6C510.8,920.5,513.8,916.1,513.8,910.9z M487.4,909.9c0,0.3,0,0.7,0,1
					c0,5.2,3,9.6,7.3,11.8H480L487.4,909.9z"/>
				<path id="XMLID_1937_" class="st3" d="M454.1,920.4l-23.2,40.2h46.4L454.1,920.4z M454.9,935.5c6.1,0.4,10.9,5.4,10.9,11.6
					s-4.8,11.3-10.9,11.6V935.5z M454.9,934v-9.2l6.6,11.4C459.5,934.9,457.3,934.1,454.9,934z M453.3,934c-2.4,0.2-4.7,1-6.6,2.3
					l6.6-11.5V934z M453.3,935.6v23.3c-6-0.4-10.8-5.5-10.8-11.6S447.3,936,453.3,935.6z M467.4,947.2c0-0.3,0-0.5,0-0.8l7.3,12.6
					h-14.6C464.4,956.8,467.4,952.4,467.4,947.2z M441,946.2c0,0.3,0,0.7,0,1c0,5.2,3,9.6,7.3,11.8h-14.7L441,946.2z"/>
				<path id="XMLID_1929_" class="st3" d="M454.1,908.7l23.2-40.2h-46.4L454.1,908.7z M453.3,893.5c-6.1-0.4-10.9-5.4-10.9-11.6
					s4.8-11.3,10.9-11.6V893.5z M453.3,895.1v9.2l-6.6-11.4C448.7,894.1,450.9,894.9,453.3,895.1z M454.9,895c2.4-0.2,4.7-1,6.6-2.3
					l-6.6,11.5V895z M454.9,893.5v-23.3c6,0.4,10.8,5.5,10.8,11.6S460.9,893.1,454.9,893.5z M440.8,881.9c0,0.3,0,0.5,0,0.8
					l-7.3-12.6h14.6C443.8,872.2,440.8,876.7,440.8,881.9z M467.2,882.9c0-0.3,0-0.7,0-1c0-5.2-3-9.6-7.3-11.8h14.7L467.2,882.9z"/>
				<path id="XMLID_1921_" class="st3" d="M543.1,920.4L520,960.6h46.4L543.1,920.4z M543.9,935.5c6.1,0.4,10.9,5.4,10.9,11.6
					s-4.8,11.3-10.9,11.6V935.5z M543.9,934v-9.2l6.6,11.4C548.6,934.9,546.3,934.1,543.9,934z M542.4,934c-2.4,0.2-4.7,1-6.6,2.3
					l6.6-11.5V934z M542.4,935.6v23.3c-6-0.4-10.8-5.5-10.8-11.6S536.4,936,542.4,935.6z M556.4,947.2c0-0.3,0-0.5,0-0.8l7.3,12.6
					h-14.6C553.4,956.8,556.4,952.4,556.4,947.2z M530.1,946.2c0,0.3,0,0.7,0,1c0,5.2,3,9.6,7.3,11.8h-14.7L530.1,946.2z"/>
				<path id="XMLID_1913_" class="st3" d="M543.1,908.7l23.2-40.2H520L543.1,908.7z M542.4,893.5c-6.1-0.4-10.9-5.4-10.9-11.6
					s4.8-11.3,10.9-11.6V893.5z M542.4,895.1v9.2l-6.6-11.4C537.8,894.1,540,894.9,542.4,895.1z M543.9,895c2.4-0.2,4.7-1,6.6-2.3
					l-6.6,11.5V895z M543.9,893.5v-23.3c6,0.4,10.8,5.5,10.8,11.6S550,893.1,543.9,893.5z M530,881.9c0,0.3,0,0.5,0,0.8l-7.3-12.6
					h14.6C533,872.2,530,876.7,530,881.9z M556.2,882.9c0-0.3,0-0.7,0-1c0-5.2-3-9.6-7.3-11.8h14.7L556.2,882.9z"/>
				<path id="XMLID_1905_" class="st3" d="M587.2,884.1L564,924.3h46.4L587.2,884.1z M588,899.3c6.1,0.4,10.9,5.4,10.9,11.6
					s-4.8,11.3-10.9,11.6V899.3z M588,897.7v-9.2l6.6,11.4C592.6,898.6,590.4,897.8,588,897.7z M586.4,897.7c-2.4,0.2-4.7,1-6.6,2.3
					l6.6-11.5V897.7z M586.4,899.3v23.3c-6-0.4-10.8-5.5-10.8-11.6C575.6,904.7,580.4,899.7,586.4,899.3z M600.5,910.9
					c0-0.3,0-0.5,0-0.8l7.3,12.6h-14.6C597.5,920.5,600.5,916.1,600.5,910.9z M574.1,909.9c0,0.3,0,0.7,0,1c0,5.2,3,9.6,7.3,11.8
					h-14.7L574.1,909.9z"/>
				<path id="XMLID_1897_" class="st3" d="M679,884.1l-23.2,40.2h46.4L679,884.1z M679.7,899.3c6.1,0.4,10.9,5.4,10.9,11.6
					s-4.8,11.3-10.9,11.6V899.3z M679.7,897.7v-9.2l6.6,11.4C684.4,898.6,682.2,897.8,679.7,897.7z M678.2,897.7
					c-2.4,0.2-4.7,1-6.6,2.3l6.6-11.5V897.7z M678.2,899.3v23.3c-6-0.4-10.8-5.5-10.8-11.6C667.4,904.7,672.1,899.7,678.2,899.3z
					 M692.2,910.9c0-0.3,0-0.5,0-0.8l7.3,12.6h-14.6C689.2,920.5,692.2,916.1,692.2,910.9z M665.9,909.9c0,0.3,0,0.7,0,1
					c0,5.2,3,9.6,7.3,11.8h-14.7L665.9,909.9z"/>
				<path id="XMLID_1889_" class="st3" d="M632.6,920.4l-23.2,40.2h46.4L632.6,920.4z M633.3,935.5c6.1,0.4,10.9,5.4,10.9,11.6
					s-4.8,11.3-10.9,11.6V935.5z M633.3,934v-9.2l6.6,11.4C638,934.9,635.7,934.1,633.3,934z M631.8,934c-2.4,0.2-4.7,1-6.6,2.3
					l6.6-11.5V934z M631.8,935.6v23.3c-6-0.4-10.8-5.5-10.8-11.6S625.7,936,631.8,935.6z M645.8,947.2c0-0.3,0-0.5,0-0.8l7.3,12.6
					h-14.6C642.8,956.8,645.8,952.4,645.8,947.2z M619.4,946.2c0,0.3,0,0.7,0,1c0,5.2,3,9.6,7.3,11.8H612L619.4,946.2z"/>
				<path id="XMLID_1881_" class="st3" d="M632.6,908.7l23.2-40.2h-46.4L632.6,908.7z M631.8,893.5c-6.1-0.4-10.9-5.4-10.9-11.6
					s4.8-11.3,10.9-11.6V893.5z M631.8,895.1v9.2l-6.6-11.4C627.1,894.1,629.4,894.9,631.8,895.1z M633.3,895c2.4-0.2,4.7-1,6.6-2.3
					l-6.6,11.5V895z M633.3,893.5v-23.3c6,0.4,10.8,5.5,10.8,11.6S639.4,893.1,633.3,893.5z M619.3,881.9c0,0.3,0,0.5,0,0.8
					l-7.3-12.6h14.6C622.3,872.2,619.3,876.7,619.3,881.9z M645.7,882.9c0-0.3,0-0.7,0-1c0-5.2-3-9.6-7.3-11.8h14.7L645.7,882.9z"/>
				<path id="XMLID_1873_" class="st3" d="M721.7,920.4l-23.2,40.2h46.4L721.7,920.4z M722.5,935.5c6.1,0.4,10.9,5.4,10.9,11.6
					s-4.8,11.3-10.9,11.6V935.5z M722.5,934v-9.2l6.6,11.4C727,934.9,724.9,934.1,722.5,934z M720.9,934c-2.4,0.2-4.7,1-6.6,2.3
					l6.6-11.5V934z M720.9,935.6v23.3c-6-0.4-10.8-5.5-10.8-11.6S714.9,936,720.9,935.6z M734.9,947.2c0-0.3,0-0.5,0-0.8l7.3,12.6
					h-14.6C731.9,956.8,734.9,952.4,734.9,947.2z M708.6,946.2c0,0.3,0,0.7,0,1c0,5.2,3,9.6,7.3,11.8h-14.7L708.6,946.2z"/>
				<path id="XMLID_1865_" class="st3" d="M721.7,908.7l23.2-40.2h-46.4L721.7,908.7z M720.9,893.5c-6.1-0.4-10.9-5.4-10.9-11.6
					s4.8-11.3,10.9-11.6V893.5z M720.9,895.1v9.2l-6.6-11.4C716.3,894.1,718.5,894.9,720.9,895.1z M722.5,895c2.4-0.2,4.7-1,6.6-2.3
					l-6.6,11.5V895z M722.5,893.5v-23.3c6,0.4,10.8,5.5,10.8,11.6S728.4,893.1,722.5,893.5z M708.4,881.9c0,0.3,0,0.5,0,0.8
					l-7.3-12.6h14.6C711.4,872.2,708.4,876.7,708.4,881.9z M734.7,882.9c0-0.3,0-0.7,0-1c0-5.2-3-9.6-7.3-11.8h14.7L734.7,882.9z"/>
				<path id="XMLID_1857_" class="st3" d="M770.3,884.1l-23.2,40.2h46.4L770.3,884.1z M771,899.3c6.1,0.4,10.9,5.4,10.9,11.6
					s-4.8,11.3-10.9,11.6V899.3z M771,897.7v-9.2l6.6,11.4C775.7,898.6,773.5,897.8,771,897.7z M769.5,897.7c-2.4,0.2-4.7,1-6.6,2.3
					l6.6-11.5V897.7z M769.5,899.3v23.3c-6-0.4-10.8-5.5-10.8-11.6C758.7,904.7,763.5,899.7,769.5,899.3z M783.5,910.9
					c0-0.3,0-0.5,0-0.8l7.3,12.6h-14.6C780.5,920.5,783.5,916.1,783.5,910.9z M757.2,909.9c0,0.3,0,0.7,0,1c0,5.2,3,9.6,7.3,11.8
					h-14.7L757.2,909.9z"/>
				<path id="XMLID_1849_" class="st3" d="M813,920.4l-23.2,40.2h46.4L813,920.4z M813.8,935.5c6.1,0.4,10.9,5.4,10.9,11.6
					s-4.8,11.3-10.9,11.6V935.5z M813.8,934v-9.2l6.6,11.4C818.4,934.9,816.2,934.1,813.8,934z M812.2,934c-2.4,0.2-4.7,1-6.6,2.3
					l6.6-11.5V934z M812.2,935.6v23.3c-6-0.4-10.8-5.5-10.8-11.6S806.2,936,812.2,935.6z M826.3,947.2c0-0.3,0-0.5,0-0.8l7.3,12.6
					H819C823.3,956.8,826.3,952.4,826.3,947.2z M799.9,946.2c0,0.3,0,0.7,0,1c0,5.2,3,9.6,7.3,11.8h-14.7L799.9,946.2z"/>
				<path id="XMLID_1841_" class="st3" d="M813,908.7l23.2-40.2h-46.4L813,908.7z M812.2,893.5c-6.1-0.4-10.9-5.4-10.9-11.6
					s4.8-11.3,10.9-11.6V893.5z M812.2,895.1v9.2l-6.6-11.4C807.6,894.1,809.8,894.9,812.2,895.1z M813.8,895c2.4-0.2,4.7-1,6.6-2.3
					l-6.6,11.5V895z M813.8,893.5v-23.3c6,0.4,10.8,5.5,10.8,11.6S819.8,893.1,813.8,893.5z M799.7,881.9c0,0.3,0,0.5,0,0.8
					l-7.3-12.6H807C802.7,872.2,799.7,876.7,799.7,881.9z M826.1,882.9c0-0.3,0-0.7,0-1c0-5.2-3-9.6-7.3-11.8h14.7L826.1,882.9z"/>
				<path id="XMLID_2193_" class="st3" d="M49.7,817.1l-23.2,40.2h46.4L49.7,817.1z M50.5,832.3c6.1,0.4,10.9,5.4,10.9,11.6
					s-4.8,11.3-10.9,11.6V832.3z M50.5,830.7v-9.2l6.6,11.4C55.1,831.7,52.9,830.9,50.5,830.7z M48.9,830.8c-2.4,0.2-4.7,1-6.6,2.3
					l6.6-11.5V830.8z M48.9,832.3v23.3c-6-0.4-10.8-5.5-10.8-11.6S42.9,832.7,48.9,832.3z M63,843.9c0-0.3,0-0.5,0-0.8l7.3,12.6
					H55.7C60,853.6,63,849.1,63,843.9z M36.6,842.9c0,0.3,0,0.7,0,1c0,5.2,3,9.6,7.3,11.8H29.2L36.6,842.9z"/>
				<path id="XMLID_2185_" class="st3" d="M141.5,817.1l-23.2,40.2h46.4L141.5,817.1z M142.2,832.3c6.1,0.4,10.9,5.4,10.9,11.6
					s-4.8,11.3-10.9,11.6V832.3z M142.2,830.7v-9.2l6.6,11.4C146.9,831.7,144.6,830.9,142.2,830.7z M140.7,830.8
					c-2.4,0.2-4.7,1-6.6,2.3l6.6-11.5V830.8z M140.7,832.3v23.3c-6-0.4-10.8-5.5-10.8-11.6S134.6,832.7,140.7,832.3z M154.7,843.9
					c0-0.3,0-0.5,0-0.8l7.3,12.6h-14.6C151.7,853.6,154.7,849.1,154.7,843.9z M128.3,842.9c0,0.3,0,0.7,0,1c0,5.2,3,9.6,7.3,11.8
					h-14.7L128.3,842.9z"/>
				<path id="XMLID_2177_" class="st3" d="M95,841.7l23.2-40.2H71.9L95,841.7z M94.3,826.5c-6.1-0.4-10.9-5.4-10.9-11.6
					s4.8-11.3,10.9-11.6V826.5z M94.3,828.1v9.2l-6.6-11.4C89.6,827.2,91.9,828,94.3,828.1z M95.8,828.1c2.4-0.2,4.7-1,6.6-2.3
					l-6.6,11.5C95.8,837.3,95.8,828.1,95.8,828.1z M95.8,826.5v-23.3c6,0.4,10.8,5.5,10.8,11.6C106.7,821.1,101.9,826.1,95.8,826.5z
					 M81.8,814.9c0,0.3,0,0.5,0,0.8l-7.3-12.6h14.6C84.8,805.3,81.8,809.7,81.8,814.9z M108.2,815.9c0-0.3,0-0.7,0-1
					c0-5.2-3-9.6-7.3-11.8h14.7L108.2,815.9z"/>
				<path id="XMLID_2169_" class="st3" d="M184.1,841.7l23.2-40.2H161L184.1,841.7z M183.3,826.5c-6.1-0.4-10.9-5.4-10.9-11.6
					s4.8-11.3,10.9-11.6V826.5z M183.3,828.1v9.2l-6.6-11.4C178.7,827.2,180.9,828,183.3,828.1z M184.9,828.1c2.4-0.2,4.7-1,6.6-2.3
					l-6.6,11.5V828.1z M184.9,826.5v-23.3c6,0.4,10.8,5.5,10.8,11.6C195.7,821.1,190.9,826.1,184.9,826.5z M170.8,814.9
					c0,0.3,0,0.5,0,0.8l-7.3-12.6h14.6C173.8,805.3,170.8,809.7,170.8,814.9z M197.2,815.9c0-0.3,0-0.7,0-1c0-5.2-3-9.6-7.3-11.8
					h14.7L197.2,815.9z"/>
				<path id="XMLID_2161_" class="st3" d="M228.2,817.1L205,857.3h46.4L228.2,817.1z M228.9,832.3c6.1,0.4,10.9,5.4,10.9,11.6
					s-4.8,11.3-10.9,11.6V832.3z M228.9,830.7v-9.2l6.6,11.4C233.6,831.7,231.3,830.9,228.9,830.7z M227.4,830.8
					c-2.4,0.2-4.7,1-6.6,2.3l6.6-11.5V830.8z M227.4,832.3v23.3c-6-0.4-10.8-5.5-10.8-11.6S221.3,832.7,227.4,832.3z M241.4,843.9
					c0-0.3,0-0.5,0-0.8l7.3,12.6h-14.6C238.4,853.6,241.4,849.1,241.4,843.9z M215,842.9c0,0.3,0,0.7,0,1c0,5.2,3,9.6,7.3,11.8
					h-14.7L215,842.9z"/>
				<path id="XMLID_2153_" class="st3" d="M319.9,817.1l-23.2,40.2h46.4L319.9,817.1z M320.7,832.3c6.1,0.4,10.9,5.4,10.9,11.6
					s-4.8,11.3-10.9,11.6V832.3z M320.7,830.7v-9.2l6.6,11.4C325.3,831.7,323.1,830.9,320.7,830.7z M319.1,830.8
					c-2.4,0.2-4.7,1-6.6,2.3l6.6-11.5V830.8z M319.1,832.3v23.3c-6-0.4-10.8-5.5-10.8-11.6S313.1,832.7,319.1,832.3z M333.2,843.9
					c0-0.3,0-0.5,0-0.8l7.3,12.6h-14.6C330.2,853.6,333.2,849.1,333.2,843.9z M306.8,842.9c0,0.3,0,0.7,0,1c0,5.2,3,9.6,7.3,11.8
					h-14.7L306.8,842.9z"/>
				<path id="XMLID_2145_" class="st3" d="M273.5,841.7l23.2-40.2h-46.4L273.5,841.7z M272.7,826.5c-6.1-0.4-10.9-5.4-10.9-11.6
					s4.8-11.3,10.9-11.6V826.5z M272.7,828.1v9.2l-6.6-11.4C268.1,827.2,270.3,828,272.7,828.1z M274.3,828.1c2.4-0.2,4.7-1,6.6-2.3
					l-6.6,11.5V828.1z M274.3,826.5v-23.3c6,0.4,10.8,5.5,10.8,11.6C285.1,821.1,280.3,826.1,274.3,826.5z M260.2,814.9
					c0,0.3,0,0.5,0,0.8l-7.3-12.6h14.6C263.2,805.3,260.2,809.7,260.2,814.9z M286.6,815.9c0-0.3,0-0.7,0-1c0-5.2-3-9.6-7.3-11.8
					H294L286.6,815.9z"/>
				<path id="XMLID_2137_" class="st3" d="M362.6,841.7l23.2-40.2h-46.4L362.6,841.7z M361.8,826.5c-6.1-0.4-10.9-5.4-10.9-11.6
					s4.8-11.3,10.9-11.6V826.5z M361.8,828.1v9.2l-6.6-11.4C357.1,827.2,359.4,828,361.8,828.1z M363.3,828.1c2.4-0.2,4.7-1,6.6-2.3
					l-6.6,11.5V828.1z M363.3,826.5v-23.3c6,0.4,10.8,5.5,10.8,11.6C374.2,821.1,369.4,826.1,363.3,826.5z M349.4,814.9
					c0,0.3,0,0.5,0,0.8l-7.3-12.6h14.6C352.3,805.3,349.4,809.7,349.4,814.9z M375.7,815.9c0-0.3,0-0.7,0-1c0-5.2-3-9.6-7.3-11.8
					h14.7L375.7,815.9z"/>
				<path id="XMLID_2129_" class="st3" d="M408.7,817.1l-23.2,40.2h46.4L408.7,817.1z M409.5,832.3c6.1,0.4,10.9,5.4,10.9,11.6
					s-4.8,11.3-10.9,11.6V832.3z M409.5,830.7v-9.2l6.6,11.4C414.2,831.7,411.9,830.9,409.5,830.7z M408,830.8
					c-2.4,0.2-4.7,1-6.6,2.3l6.6-11.5V830.8z M408,832.3v23.3c-6-0.4-10.8-5.5-10.8-11.6S401.9,832.7,408,832.3z M422,843.9
					c0-0.3,0-0.5,0-0.8l7.3,12.6h-14.6C419,853.6,422,849.1,422,843.9z M395.6,842.9c0,0.3,0,0.7,0,1c0,5.2,3,9.6,7.3,11.8h-14.7
					L395.6,842.9z"/>
				<path id="XMLID_2121_" class="st3" d="M500.5,817.1l-23.2,40.2h46.4L500.5,817.1z M501.3,832.3c6.1,0.4,10.9,5.4,10.9,11.6
					s-4.8,11.3-10.9,11.6V832.3z M501.3,830.7v-9.2l6.6,11.4C505.9,831.7,503.7,830.9,501.3,830.7z M499.7,830.8
					c-2.4,0.2-4.7,1-6.6,2.3l6.6-11.5V830.8z M499.7,832.3v23.3c-6-0.4-10.8-5.5-10.8-11.6S493.7,832.7,499.7,832.3z M513.8,843.9
					c0-0.3,0-0.5,0-0.8l7.3,12.6h-14.6C510.8,853.6,513.8,849.1,513.8,843.9z M487.4,842.9c0,0.3,0,0.7,0,1c0,5.2,3,9.6,7.3,11.8
					H480L487.4,842.9z"/>
				<path id="XMLID_2113_" class="st3" d="M454.1,841.7l23.2-40.2h-46.4L454.1,841.7z M453.3,826.5c-6.1-0.4-10.9-5.4-10.9-11.6
					s4.8-11.3,10.9-11.6V826.5z M453.3,828.1v9.2l-6.6-11.4C448.7,827.2,450.9,828,453.3,828.1z M454.9,828.1c2.4-0.2,4.7-1,6.6-2.3
					l-6.6,11.5V828.1z M454.9,826.5v-23.3c6,0.4,10.8,5.5,10.8,11.6C465.7,821.1,460.9,826.1,454.9,826.5z M440.8,814.9
					c0,0.3,0,0.5,0,0.8l-7.3-12.6h14.6C443.8,805.3,440.8,809.7,440.8,814.9z M467.2,815.9c0-0.3,0-0.7,0-1c0-5.2-3-9.6-7.3-11.8
					h14.7L467.2,815.9z"/>
				<path id="XMLID_2105_" class="st3" d="M543.1,841.7l23.2-40.2H520L543.1,841.7z M542.4,826.5c-6.1-0.4-10.9-5.4-10.9-11.6
					s4.8-11.3,10.9-11.6V826.5z M542.4,828.1v9.2l-6.6-11.4C537.8,827.2,540,828,542.4,828.1z M543.9,828.1c2.4-0.2,4.7-1,6.6-2.3
					l-6.6,11.5V828.1z M543.9,826.5v-23.3c6,0.4,10.8,5.5,10.8,11.6C554.7,821.1,550,826.1,543.9,826.5z M530,814.9
					c0,0.3,0,0.5,0,0.8l-7.3-12.6h14.6C533,805.3,530,809.7,530,814.9z M556.2,815.9c0-0.3,0-0.7,0-1c0-5.2-3-9.6-7.3-11.8h14.7
					L556.2,815.9z"/>
				<path id="XMLID_2097_" class="st3" d="M587.2,817.1L564,857.3h46.4L587.2,817.1z M588,832.3c6.1,0.4,10.9,5.4,10.9,11.6
					s-4.8,11.3-10.9,11.6V832.3z M588,830.7v-9.2l6.6,11.4C592.6,831.7,590.4,830.9,588,830.7z M586.4,830.8c-2.4,0.2-4.7,1-6.6,2.3
					l6.6-11.5V830.8z M586.4,832.3v23.3c-6-0.4-10.8-5.5-10.8-11.6S580.4,832.7,586.4,832.3z M600.5,843.9c0-0.3,0-0.5,0-0.8
					l7.3,12.6h-14.6C597.5,853.6,600.5,849.1,600.5,843.9z M574.1,842.9c0,0.3,0,0.7,0,1c0,5.2,3,9.6,7.3,11.8h-14.7L574.1,842.9z"
					/>
				<path id="XMLID_2089_" class="st3" d="M679,817.1l-23.2,40.2h46.4L679,817.1z M679.7,832.3c6.1,0.4,10.9,5.4,10.9,11.6
					s-4.8,11.3-10.9,11.6V832.3z M679.7,830.7v-9.2l6.6,11.4C684.4,831.7,682.2,830.9,679.7,830.7z M678.2,830.8
					c-2.4,0.2-4.7,1-6.6,2.3l6.6-11.5V830.8z M678.2,832.3v23.3c-6-0.4-10.8-5.5-10.8-11.6S672.1,832.7,678.2,832.3z M692.2,843.9
					c0-0.3,0-0.5,0-0.8l7.3,12.6h-14.6C689.2,853.6,692.2,849.1,692.2,843.9z M665.9,842.9c0,0.3,0,0.7,0,1c0,5.2,3,9.6,7.3,11.8
					h-14.7L665.9,842.9z"/>
				<path id="XMLID_2081_" class="st3" d="M632.6,841.7l23.2-40.2h-46.4L632.6,841.7z M631.8,826.5c-6.1-0.4-10.9-5.4-10.9-11.6
					s4.8-11.3,10.9-11.6V826.5z M631.8,828.1v9.2l-6.6-11.4C627.1,827.2,629.4,828,631.8,828.1z M633.3,828.1c2.4-0.2,4.7-1,6.6-2.3
					l-6.6,11.5V828.1z M633.3,826.5v-23.3c6,0.4,10.8,5.5,10.8,11.6C644.2,821.1,639.4,826.1,633.3,826.5z M619.3,814.9
					c0,0.3,0,0.5,0,0.8l-7.3-12.6h14.6C622.3,805.3,619.3,809.7,619.3,814.9z M645.7,815.9c0-0.3,0-0.7,0-1c0-5.2-3-9.6-7.3-11.8
					h14.7L645.7,815.9z"/>
				<path id="XMLID_2073_" class="st3" d="M721.7,841.7l23.2-40.2h-46.4L721.7,841.7z M720.9,826.5c-6.1-0.4-10.9-5.4-10.9-11.6
					s4.8-11.3,10.9-11.6V826.5z M720.9,828.1v9.2l-6.6-11.4C716.3,827.2,718.5,828,720.9,828.1z M722.5,828.1c2.4-0.2,4.7-1,6.6-2.3
					l-6.6,11.5V828.1z M722.5,826.5v-23.3c6,0.4,10.8,5.5,10.8,11.6C733.2,821.1,728.4,826.1,722.5,826.5z M708.4,814.9
					c0,0.3,0,0.5,0,0.8l-7.3-12.6h14.6C711.4,805.3,708.4,809.7,708.4,814.9z M734.7,815.9c0-0.3,0-0.7,0-1c0-5.2-3-9.6-7.3-11.8
					h14.7L734.7,815.9z"/>
				<path id="XMLID_2065_" class="st3" d="M770.3,817.1l-23.2,40.2h46.4L770.3,817.1z M771,832.3c6.1,0.4,10.9,5.4,10.9,11.6
					s-4.8,11.3-10.9,11.6V832.3z M771,830.7v-9.2l6.6,11.4C775.7,831.7,773.5,830.9,771,830.7z M769.5,830.8c-2.4,0.2-4.7,1-6.6,2.3
					l6.6-11.5V830.8z M769.5,832.3v23.3c-6-0.4-10.8-5.5-10.8-11.6S763.5,832.7,769.5,832.3z M783.5,843.9c0-0.3,0-0.5,0-0.8
					l7.3,12.6h-14.6C780.5,853.6,783.5,849.1,783.5,843.9z M757.2,842.9c0,0.3,0,0.7,0,1c0,5.2,3,9.6,7.3,11.8h-14.7L757.2,842.9z"
					/>
				<path id="XMLID_2057_" class="st3" d="M813,841.7l23.2-40.2h-46.4L813,841.7z M812.2,826.5c-6.1-0.4-10.9-5.4-10.9-11.6
					s4.8-11.3,10.9-11.6V826.5z M812.2,828.1v9.2l-6.6-11.4C807.6,827.2,809.8,828,812.2,828.1z M813.8,828.1c2.4-0.2,4.7-1,6.6-2.3
					l-6.6,11.5V828.1z M813.8,826.5v-23.3c6,0.4,10.8,5.5,10.8,11.6C824.6,821.1,819.8,826.1,813.8,826.5z M799.7,814.9
					c0,0.3,0,0.5,0,0.8l-7.3-12.6H807C802.7,805.3,799.7,809.7,799.7,814.9z M826.1,815.9c0-0.3,0-0.7,0-1c0-5.2-3-9.6-7.3-11.8
					h14.7L826.1,815.9z"/>
				<path id="XMLID_1833_" class="st3" d="M97.9,990.4l-23.2,40.2h46.4L97.9,990.4z M98.7,1005.5c6.1,0.4,10.9,5.4,10.9,11.6
					s-4.8,11.3-10.9,11.6V1005.5z M98.7,1004v-9.2l6.6,11.4C103.3,1004.9,101.1,1004.1,98.7,1004z M97.1,1004
					c-2.4,0.2-4.7,1-6.6,2.3l6.6-11.5V1004z M97.1,1005.5v23.3c-6-0.4-10.8-5.5-10.8-11.6S91.1,1006,97.1,1005.5z M111.1,1017.2
					c0-0.3,0-0.5,0-0.8l7.3,12.6h-14.6C108.2,1026.8,111.1,1022.3,111.1,1017.2z M84.8,1016.2c0,0.3,0,0.7,0,1c0,5.2,3,9.6,7.3,11.8
					H77.4L84.8,1016.2z"/>
				<path id="XMLID_1825_" class="st3" d="M51.5,1026.7l-23.2,40.2h46.4L51.5,1026.7z M52.2,1041.8c6.1,0.4,10.9,5.4,10.9,11.6
					c0,6.2-4.8,11.3-10.9,11.6V1041.8z M52.2,1040.3v-9.2l6.6,11.4C56.9,1041.2,54.7,1040.4,52.2,1040.3z M50.7,1040.3
					c-2.4,0.2-4.7,1-6.6,2.3l6.6-11.5V1040.3z M50.7,1041.8v23.3c-6-0.4-10.8-5.5-10.8-11.6S44.6,1042.3,50.7,1041.8z M64.7,1053.5
					c0-0.3,0-0.5,0-0.8l7.3,12.6H57.4C61.7,1063.1,64.7,1058.6,64.7,1053.5z M38.4,1052.5c0,0.3,0,0.7,0,1c0,5.2,3,9.6,7.3,11.8H31
					L38.4,1052.5z"/>
				<path id="XMLID_1817_" class="st3" d="M51.5,1015l23.2-40.2H28.3L51.5,1015z M50.7,999.8c-6.1-0.4-10.9-5.4-10.9-11.6
					s4.8-11.3,10.9-11.6V999.8z M50.7,1001.3v9.2l-6.6-11.4C46,1000.4,48.3,1001.2,50.7,1001.3z M52.2,1001.3c2.4-0.2,4.7-1,6.6-2.3
					l-6.6,11.5V1001.3z M52.2,999.8v-23.3c6,0.4,10.8,5.5,10.8,11.6S58.3,999.4,52.2,999.8z M38.2,988.2c0,0.3,0,0.5,0,0.8
					l-7.3-12.6h14.6C41.2,978.5,38.2,983,38.2,988.2z M64.6,989.2c0-0.3,0-0.7,0-1c0-5.2-3-9.6-7.3-11.8H72L64.6,989.2z"/>
				<path id="XMLID_1809_" class="st3" d="M140.6,1026.7l-23.2,40.2h46.4L140.6,1026.7z M141.4,1041.8c6.1,0.4,10.9,5.4,10.9,11.6
					c0,6.2-4.8,11.3-10.9,11.6V1041.8z M141.4,1040.3v-9.2l6.6,11.4C146,1041.2,143.8,1040.4,141.4,1040.3z M139.8,1040.3
					c-2.4,0.2-4.7,1-6.6,2.3l6.6-11.5V1040.3z M139.8,1041.8v23.3c-6-0.4-10.8-5.5-10.8-11.6S133.8,1042.3,139.8,1041.8z
					 M153.9,1053.5c0-0.3,0-0.5,0-0.8l7.3,12.6h-14.6C150.9,1063.1,153.9,1058.6,153.9,1053.5z M127.5,1052.5c0,0.3,0,0.7,0,1
					c0,5.2,3,9.6,7.3,11.8h-14.7L127.5,1052.5z"/>
				<path id="XMLID_1801_" class="st3" d="M140.6,1015l23.2-40.2h-46.4L140.6,1015z M139.8,999.8c-6.1-0.4-10.9-5.4-10.9-11.6
					s4.8-11.3,10.9-11.6V999.8z M139.8,1001.3v9.2l-6.6-11.4C135.2,1000.4,137.4,1001.2,139.8,1001.3z M141.4,1001.3
					c2.4-0.2,4.7-1,6.6-2.3l-6.6,11.5V1001.3z M141.4,999.8v-23.3c6,0.4,10.8,5.5,10.8,11.6S147.4,999.4,141.4,999.8z M127.4,988.2
					c0,0.3,0,0.5,0,0.8l-7.3-12.6h14.6C130.3,978.5,127.4,983,127.4,988.2z M153.7,989.2c0-0.3,0-0.7,0-1c0-5.2-3-9.6-7.3-11.8h14.7
					L153.7,989.2z"/>
				<path id="XMLID_1793_" class="st3" d="M184.6,990.4l-23.2,40.2h46.4L184.6,990.4z M185.4,1005.5c6.1,0.4,10.9,5.4,10.9,11.6
					s-4.8,11.3-10.9,11.6V1005.5z M185.4,1004v-9.2l6.6,11.4C190,1004.9,187.8,1004.1,185.4,1004z M183.8,1004
					c-2.4,0.2-4.7,1-6.6,2.3l6.6-11.5V1004z M183.8,1005.5v23.3c-6-0.4-10.8-5.5-10.8-11.6S177.8,1006,183.8,1005.5z M197.8,1017.2
					c0-0.3,0-0.5,0-0.8l7.3,12.6h-14.6C194.9,1026.8,197.8,1022.3,197.8,1017.2z M171.5,1016.2c0,0.3,0,0.7,0,1
					c0,5.2,3,9.6,7.3,11.8h-14.7L171.5,1016.2z"/>
				<path id="XMLID_1785_" class="st3" d="M277.4,990.4l-23.2,40.2h46.4L277.4,990.4z M278.2,1005.5c6.1,0.4,10.9,5.4,10.9,11.6
					s-4.8,11.3-10.9,11.6V1005.5z M278.2,1004v-9.2l6.6,11.4C282.8,1004.9,280.6,1004.1,278.2,1004z M276.6,1004
					c-2.4,0.2-4.7,1-6.6,2.3l6.6-11.5V1004z M276.6,1005.5v23.3c-6-0.4-10.8-5.5-10.8-11.6S270.6,1006,276.6,1005.5z M290.7,1017.2
					c0-0.3,0-0.5,0-0.8l7.3,12.6h-14.6C287.7,1026.8,290.7,1022.3,290.7,1017.2z M264.3,1016.2c0,0.3,0,0.7,0,1
					c0,5.2,3,9.6,7.3,11.8h-14.7L264.3,1016.2z"/>
				<path id="XMLID_1777_" class="st3" d="M231,1026.7l-23.2,40.2h46.4L231,1026.7z M231.8,1041.8c6.1,0.4,10.9,5.4,10.9,11.6
					c0,6.2-4.8,11.3-10.9,11.6V1041.8z M231.8,1040.3v-9.2l6.6,11.4C236.4,1041.2,234.2,1040.4,231.8,1040.3z M230.2,1040.3
					c-2.4,0.2-4.7,1-6.6,2.3l6.6-11.5V1040.3z M230.2,1041.8v23.3c-6-0.4-10.8-5.5-10.8-11.6S224.2,1042.3,230.2,1041.8z
					 M244.3,1053.5c0-0.3,0-0.5,0-0.8l7.3,12.6H237C241.3,1063.1,244.3,1058.6,244.3,1053.5z M217.9,1052.5c0,0.3,0,0.7,0,1
					c0,5.2,3,9.6,7.3,11.8h-14.7L217.9,1052.5z"/>
				<path id="XMLID_1769_" class="st3" d="M231,1015l23.2-40.2h-46.4L231,1015z M230.2,999.8c-6.1-0.4-10.9-5.4-10.9-11.6
					s4.8-11.3,10.9-11.6V999.8z M230.2,1001.3v9.2l-6.6-11.4C225.6,1000.4,227.8,1001.2,230.2,1001.3z M231.8,1001.3
					c2.4-0.2,4.7-1,6.6-2.3l-6.6,11.5V1001.3z M231.8,999.8v-23.3c6,0.4,10.8,5.5,10.8,11.6S237.8,999.4,231.8,999.8z M217.7,988.2
					c0,0.3,0,0.5,0,0.8l-7.3-12.6H225C220.7,978.5,217.7,983,217.7,988.2z M244.1,989.2c0-0.3,0-0.7,0-1c0-5.2-3-9.6-7.3-11.8h14.7
					L244.1,989.2z"/>
				<path id="XMLID_1761_" class="st3" d="M320.1,1026.7l-23.2,40.2h46.4L320.1,1026.7z M320.9,1041.8c6.1,0.4,10.9,5.4,10.9,11.6
					c0,6.2-4.8,11.3-10.9,11.6V1041.8L320.9,1041.8z M320.9,1040.3v-9.2l6.6,11.4C325.6,1041.2,323.3,1040.4,320.9,1040.3z
					 M319.4,1040.3c-2.4,0.2-4.7,1-6.6,2.3l6.6-11.5V1040.3z M319.4,1041.8v23.3c-6-0.4-10.8-5.5-10.8-11.6
					S313.3,1042.3,319.4,1041.8z M333.4,1053.5c0-0.3,0-0.5,0-0.8l7.3,12.6h-14.6C330.4,1063.1,333.4,1058.6,333.4,1053.5z
					 M307,1052.5c0,0.3,0,0.7,0,1c0,5.2,3,9.6,7.3,11.8h-14.7L307,1052.5z"/>
				<path id="XMLID_1753_" class="st3" d="M320.1,1015l23.2-40.2h-46.4L320.1,1015z M319.4,999.8c-6.1-0.4-10.9-5.4-10.9-11.6
					s4.8-11.3,10.9-11.6V999.8z M319.4,1001.3v9.2l-6.6-11.4C314.7,1000.4,317,1001.2,319.4,1001.3z M320.9,1001.3
					c2.4-0.2,4.7-1,6.6-2.3l-6.6,11.5L320.9,1001.3L320.9,1001.3z M320.9,999.8v-23.3c6,0.4,10.8,5.5,10.8,11.6
					S327,999.4,320.9,999.8z M306.9,988.2c0,0.3,0,0.5,0,0.8l-7.3-12.6h14.6C309.9,978.5,306.9,983,306.9,988.2z M333.2,989.2
					c0-0.3,0-0.7,0-1c0-5.2-3-9.6-7.3-11.8h14.7L333.2,989.2z"/>
				<path id="XMLID_1745_" class="st3" d="M364.1,990.4l-23.2,40.2h46.4L364.1,990.4z M364.9,1005.5c6.1,0.4,10.9,5.4,10.9,11.6
					s-4.8,11.3-10.9,11.6V1005.5z M364.9,1004v-9.2l6.6,11.4C369.5,1004.9,367.3,1004.1,364.9,1004z M363.3,1004
					c-2.4,0.2-4.7,1-6.6,2.3l6.6-11.5V1004z M363.3,1005.5v23.3c-6-0.4-10.8-5.5-10.8-11.6S357.3,1006,363.3,1005.5z M377.4,1017.2
					c0-0.3,0-0.5,0-0.8l7.3,12.6h-14.6C374.4,1026.8,377.4,1022.3,377.4,1017.2z M351,1016.2c0,0.3,0,0.7,0,1c0,5.2,3,9.6,7.3,11.8
					h-14.7L351,1016.2z"/>
				<path id="XMLID_1737_" class="st3" d="M458,990.4l-23.2,40.2h46.4L458,990.4z M458.8,1005.5c6.1,0.4,10.9,5.4,10.9,11.6
					s-4.8,11.3-10.9,11.6V1005.5z M458.8,1004v-9.2l6.6,11.4C463.4,1004.9,461.2,1004.1,458.8,1004z M457.2,1004
					c-2.4,0.2-4.7,1-6.6,2.3l6.6-11.5V1004z M457.2,1005.5v23.3c-6-0.4-10.8-5.5-10.8-11.6S451.2,1006,457.2,1005.5z M471.2,1017.2
					c0-0.3,0-0.5,0-0.8l7.3,12.6h-14.6C468.3,1026.8,471.2,1022.3,471.2,1017.2z M444.9,1016.2c0,0.3,0,0.7,0,1
					c0,5.2,3,9.6,7.3,11.8h-14.7L444.9,1016.2z"/>
				<path id="XMLID_1729_" class="st3" d="M411.6,1026.7l-23.2,40.2h46.4L411.6,1026.7z M412.3,1041.8c6.1,0.4,10.9,5.4,10.9,11.6
					c0,6.2-4.8,11.3-10.9,11.6V1041.8z M412.3,1040.3v-9.2l6.6,11.4C417,1041.2,414.8,1040.4,412.3,1040.3z M410.8,1040.3
					c-2.4,0.2-4.7,1-6.6,2.3l6.6-11.5V1040.3z M410.8,1041.8v23.3c-6-0.4-10.8-5.5-10.8-11.6S404.8,1042.3,410.8,1041.8z
					 M424.8,1053.5c0-0.3,0-0.5,0-0.8l7.3,12.6h-14.6C421.9,1063.1,424.8,1058.6,424.8,1053.5z M398.5,1052.5c0,0.3,0,0.7,0,1
					c0,5.2,3,9.6,7.3,11.8h-14.7L398.5,1052.5z"/>
				<path id="XMLID_1721_" class="st3" d="M411.6,1015l23.2-40.2h-46.4L411.6,1015z M410.8,999.8c-6.1-0.4-10.9-5.4-10.9-11.6
					s4.8-11.3,10.9-11.6V999.8z M410.8,1001.3v9.2l-6.6-11.4C406.1,1000.4,408.4,1001.2,410.8,1001.3z M412.3,1001.3
					c2.4-0.2,4.7-1,6.6-2.3l-6.6,11.5V1001.3z M412.3,999.8v-23.3c6,0.4,10.8,5.5,10.8,11.6S418.4,999.4,412.3,999.8z M398.3,988.2
					c0,0.3,0,0.5,0,0.8l-7.3-12.6h14.6C401.3,978.5,398.3,983,398.3,988.2z M424.7,989.2c0-0.3,0-0.7,0-1c0-5.2-3-9.6-7.3-11.8h14.7
					L424.7,989.2z"/>
				<path id="XMLID_1713_" class="st3" d="M500.7,1026.7l-23.2,40.2h46.4L500.7,1026.7z M501.5,1041.8c6.1,0.4,10.9,5.4,10.9,11.6
					c0,6.2-4.8,11.3-10.9,11.6V1041.8z M501.5,1040.3v-9.2l6.6,11.4C506.2,1041.2,503.9,1040.4,501.5,1040.3z M500,1040.3
					c-2.4,0.2-4.7,1-6.6,2.3l6.6-11.5V1040.3z M500,1041.8v23.3c-6-0.4-10.8-5.5-10.8-11.6S493.9,1042.3,500,1041.8z M514,1053.5
					c0-0.3,0-0.5,0-0.8l7.3,12.6h-14.6C511,1063.1,514,1058.6,514,1053.5z M487.6,1052.5c0,0.3,0,0.7,0,1c0,5.2,3,9.6,7.3,11.8
					h-14.7L487.6,1052.5z"/>
				<path id="XMLID_1705_" class="st3" d="M500.7,1015l23.2-40.2h-46.4L500.7,1015z M500,999.8c-6.1-0.4-10.9-5.4-10.9-11.6
					s4.8-11.3,10.9-11.6V999.8z M500,1001.3v9.2l-6.6-11.4C495.3,1000.4,497.5,1001.2,500,1001.3z M501.5,1001.3
					c2.4-0.2,4.7-1,6.6-2.3l-6.6,11.5V1001.3z M501.5,999.8v-23.3c6,0.4,10.8,5.5,10.8,11.6S507.5,999.4,501.5,999.8z M487.5,988.2
					c0,0.3,0,0.5,0,0.8l-7.3-12.6h14.6C490.4,978.5,487.5,983,487.5,988.2z M513.8,989.2c0-0.3,0-0.7,0-1c0-5.2-3-9.6-7.3-11.8h14.7
					L513.8,989.2z"/>
				<path id="XMLID_1697_" class="st3" d="M544.7,990.4l-23.2,40.2h46.4L544.7,990.4z M545.5,1005.5c6.1,0.4,10.9,5.4,10.9,11.6
					s-4.8,11.3-10.9,11.6V1005.5z M545.5,1004v-9.2l6.6,11.4C550.1,1004.9,547.9,1004.1,545.5,1004z M543.9,1004
					c-2.4,0.2-4.7,1-6.6,2.3l6.6-11.5V1004z M543.9,1005.5v23.3c-6-0.4-10.8-5.5-10.8-11.6S537.9,1006,543.9,1005.5z M557.9,1017.2
					c0-0.3,0-0.5,0-0.8l7.3,12.6h-14.6C555,1026.8,557.9,1022.3,557.9,1017.2z M531.7,1016.2c0,0.3,0,0.7,0,1c0,5.2,3,9.6,7.3,11.8
					h-14.7L531.7,1016.2z"/>
				<path id="XMLID_1689_" class="st3" d="M637.5,990.4l-23.2,40.2h46.4L637.5,990.4z M638.3,1005.5c6.1,0.4,10.9,5.4,10.9,11.6
					s-4.8,11.3-10.9,11.6V1005.5z M638.3,1004v-9.2l6.6,11.4C642.9,1004.9,640.7,1004.1,638.3,1004z M636.7,1004
					c-2.4,0.2-4.7,1-6.6,2.3l6.6-11.5V1004z M636.7,1005.5v23.3c-6-0.4-10.8-5.5-10.8-11.6S630.7,1006,636.7,1005.5z M650.8,1017.2
					c0-0.3,0-0.5,0-0.8l7.3,12.6h-14.6C647.8,1026.8,650.8,1022.3,650.8,1017.2z M624.4,1016.2c0,0.3,0,0.7,0,1
					c0,5.2,3,9.6,7.3,11.8H617L624.4,1016.2z"/>
				<path id="XMLID_1681_" class="st3" d="M591.1,1026.7l-23.2,40.2h46.4L591.1,1026.7z M591.9,1041.8c6.1,0.4,10.9,5.4,10.9,11.6
					c0,6.2-4.8,11.3-10.9,11.6V1041.8z M591.9,1040.3v-9.2l6.6,11.4C596.5,1041.2,594.3,1040.4,591.9,1040.3z M590.3,1040.3
					c-2.4,0.2-4.7,1-6.6,2.3l6.6-11.5V1040.3z M590.3,1041.8v23.3c-6-0.4-10.8-5.5-10.8-11.6S584.3,1042.3,590.3,1041.8z
					 M604.4,1053.5c0-0.3,0-0.5,0-0.8l7.3,12.6h-14.6C601.4,1063.1,604.4,1058.6,604.4,1053.5z M578,1052.5c0,0.3,0,0.7,0,1
					c0,5.2,3,9.6,7.3,11.8h-14.7L578,1052.5z"/>
				<path id="XMLID_1673_" class="st3" d="M591.1,1015l23.2-40.2h-46.4L591.1,1015z M590.3,999.8c-6.1-0.4-10.9-5.4-10.9-11.6
					s4.8-11.3,10.9-11.6V999.8z M590.3,1001.3v9.2l-6.6-11.4C585.7,1000.4,587.9,1001.2,590.3,1001.3z M591.9,1001.3
					c2.4-0.2,4.7-1,6.6-2.3l-6.6,11.5V1001.3z M591.9,999.8v-23.3c6,0.4,10.8,5.5,10.8,11.6S597.9,999.4,591.9,999.8z M577.8,988.2
					c0,0.3,0,0.5,0,0.8l-7.3-12.6h14.6C580.8,978.5,577.8,983,577.8,988.2z M604.2,989.2c0-0.3,0-0.7,0-1c0-5.2-3-9.6-7.3-11.8h14.7
					L604.2,989.2z"/>
				<path id="XMLID_1665_" class="st3" d="M680.2,1026.7l-23.2,40.2h46.4L680.2,1026.7z M681,1041.8c6.1,0.4,10.9,5.4,10.9,11.6
					c0,6.2-4.8,11.3-10.9,11.6V1041.8z M681,1040.3v-9.2l6.6,11.4C685.7,1041.2,683.4,1040.4,681,1040.3z M679.5,1040.3
					c-2.4,0.2-4.7,1-6.6,2.3l6.6-11.5V1040.3z M679.5,1041.8v23.3c-6-0.4-10.8-5.5-10.8-11.6S673.4,1042.3,679.5,1041.8z
					 M693.5,1053.5c0-0.3,0-0.5,0-0.8l7.3,12.6h-14.6C690.5,1063.1,693.5,1058.6,693.5,1053.5z M667.1,1052.5c0,0.3,0,0.7,0,1
					c0,5.2,3,9.6,7.3,11.8h-14.7L667.1,1052.5z"/>
				<path id="XMLID_1657_" class="st3" d="M680.2,1015l23.2-40.2H657L680.2,1015z M679.5,999.8c-6.1-0.4-10.9-5.4-10.9-11.6
					s4.8-11.3,10.9-11.6V999.8z M679.5,1001.3v9.2l-6.6-11.4C674.8,1000.4,677.1,1001.2,679.5,1001.3z M681,1001.3
					c2.4-0.2,4.7-1,6.6-2.3l-6.6,11.5V1001.3z M681,999.8v-23.3c6,0.4,10.8,5.5,10.8,11.6S687.1,999.4,681,999.8z M667,988.2
					c0,0.3,0,0.5,0,0.8l-7.3-12.6h14.6C670,978.5,667,983,667,988.2z M693.4,989.2c0-0.3,0-0.7,0-1c0-5.2-3-9.6-7.3-11.8h14.7
					L693.4,989.2z"/>
				<path id="XMLID_1649_" class="st3" d="M724.3,990.4l-23.2,40.2h46.4L724.3,990.4z M725.1,1005.5c6.1,0.4,10.9,5.4,10.9,11.6
					s-4.8,11.3-10.9,11.6V1005.5z M725.1,1004v-9.2l6.6,11.4C729.6,1004.9,727.4,1004.1,725.1,1004z M723.5,1004
					c-2.4,0.2-4.7,1-6.6,2.3l6.6-11.5V1004z M723.5,1005.5v23.3c-6-0.4-10.8-5.5-10.8-11.6S717.5,1006,723.5,1005.5z M737.5,1017.2
					c0-0.3,0-0.5,0-0.8l7.3,12.6h-14.6C734.5,1026.8,737.5,1022.3,737.5,1017.2z M711.2,1016.2c0,0.3,0,0.7,0,1
					c0,5.2,3,9.6,7.3,11.8h-14.7L711.2,1016.2z"/>
				<path id="XMLID_1641_" class="st3" d="M769.4,1026.7l-23.2,40.2h46.4L769.4,1026.7z M770.2,1041.8c6.1,0.4,10.9,5.4,10.9,11.6
					c0,6.2-4.8,11.3-10.9,11.6V1041.8z M770.2,1040.3v-9.2l6.6,11.4C774.9,1041.2,772.6,1040.4,770.2,1040.3z M768.7,1040.3
					c-2.4,0.2-4.7,1-6.6,2.3l6.6-11.5V1040.3z M768.7,1041.8v23.3c-6-0.4-10.8-5.5-10.8-11.6S762.6,1042.3,768.7,1041.8z
					 M782.7,1053.5c0-0.3,0-0.5,0-0.8l7.3,12.6h-14.6C779.7,1063.1,782.7,1058.6,782.7,1053.5z M756.3,1052.5c0,0.3,0,0.7,0,1
					c0,5.2,3,9.6,7.3,11.8h-14.7L756.3,1052.5z"/>
				<path id="XMLID_1633_" class="st3" d="M769.4,1015l23.2-40.2h-46.4L769.4,1015z M768.7,999.8c-6.1-0.4-10.9-5.4-10.9-11.6
					s4.8-11.3,10.9-11.6V999.8z M768.7,1001.3v9.2l-6.6-11.4C764,1000.4,766.2,1001.2,768.7,1001.3z M770.2,1001.3
					c2.4-0.2,4.7-1,6.6-2.3l-6.6,11.5V1001.3z M770.2,999.8v-23.3c6,0.4,10.8,5.5,10.8,11.6S776.2,999.4,770.2,999.8z M756.2,988.2
					c0,0.3,0,0.5,0,0.8l-7.3-12.6h14.6C759.2,978.5,756.2,983,756.2,988.2z M782.5,989.2c0-0.3,0-0.7,0-1c0-5.2-3-9.6-7.3-11.8h14.7
					L782.5,989.2z"/>
				<path id="XMLID_1625_" class="st3" d="M813.5,990.4l-23.2,40.2h46.4L813.5,990.4z M814.3,1005.5c6.1,0.4,10.9,5.4,10.9,11.6
					s-4.8,11.3-10.9,11.6V1005.5z M814.3,1004v-9.2l6.6,11.4C818.9,1004.9,816.7,1004.1,814.3,1004z M812.7,1004
					c-2.4,0.2-4.7,1-6.6,2.3l6.6-11.5V1004z M812.7,1005.5v23.3c-6-0.4-10.8-5.5-10.8-11.6S806.7,1006,812.7,1005.5z M826.8,1017.2
					c0-0.3,0-0.5,0-0.8l7.3,12.6h-14.7C823.8,1026.8,826.8,1022.3,826.8,1017.2z M800.4,1016.2c0,0.3,0,0.7,0,1
					c0,5.2,3,9.6,7.3,11.8H793L800.4,1016.2z"/>
				<path id="XMLID_1617_" class="st3" d="M54.3,1094.5l-23.2,40.2h46.4L54.3,1094.5z M55.1,1109.7c6.1,0.4,10.9,5.4,10.9,11.6
					c0,6.2-4.8,11.3-10.9,11.6V1109.7z M55.1,1108.2v-9.2l6.6,11.4C59.7,1109.1,57.5,1108.3,55.1,1108.2z M53.5,1108.2
					c-2.4,0.2-4.7,1-6.6,2.3l6.6-11.5V1108.2z M53.5,1109.7v23.3c-6-0.4-10.8-5.5-10.8-11.6C42.7,1115.2,47.5,1110.1,53.5,1109.7z
					 M67.6,1121.3c0-0.3,0-0.5,0-0.8l7.3,12.6H60.2C64.6,1131,67.6,1126.5,67.6,1121.3z M41.2,1120.3c0,0.3,0,0.7,0,1
					c0,5.2,3,9.6,7.3,11.8H33.8L41.2,1120.3z"/>
				<path id="XMLID_1609_" class="st3" d="M814.2,1130.8L791,1171h46.4L814.2,1130.8z M815,1146c6.1,0.4,10.9,5.4,10.9,11.6
					c0,6.2-4.8,11.3-10.9,11.6V1146z M815,1144.4v-9.2l6.6,11.4C819.6,1145.4,817.4,1144.6,815,1144.4z M813.4,1144.5
					c-2.4,0.2-4.7,1-6.6,2.3l6.6-11.5V1144.5z M813.4,1146v23.3c-6-0.4-10.8-5.5-10.8-11.6C802.6,1151.5,807.4,1146.4,813.4,1146z
					 M827.5,1157.6c0-0.3,0-0.5,0-0.8l7.3,12.6h-14.6C824.5,1167.3,827.5,1162.8,827.5,1157.6z M801.1,1156.6c0,0.3,0,0.7,0,1
					c0,5.2,3,9.6,7.3,11.8h-14.7L801.1,1156.6z"/>
				<path id="XMLID_1601_" class="st3" d="M814.2,1119.1l23.2-40.2H791L814.2,1119.1z M813.4,1104c-6.1-0.4-10.9-5.4-10.9-11.6
					s4.8-11.3,10.9-11.6V1104z M813.4,1105.5v9.2l-6.6-11.4C808.8,1104.6,811,1105.4,813.4,1105.5z M815,1105.5
					c2.4-0.2,4.7-1,6.6-2.3l-6.6,11.5V1105.5z M815,1103.9v-23.3c6,0.4,10.8,5.5,10.8,11.6C825.8,1098.5,821,1103.5,815,1103.9z
					 M800.9,1092.3c0,0.3,0,0.5,0,0.8l-7.3-12.6h14.6C803.9,1082.7,800.9,1087.1,800.9,1092.3z M827.3,1093.3c0-0.3,0-0.7,0-1
					c0-5.2-3-9.6-7.3-11.8h14.7L827.3,1093.3z"/>
				<path id="XMLID_1593_" class="st3" d="M97,1130.8L73.8,1171h46.4L97,1130.8z M97.8,1146c6.1,0.4,10.9,5.4,10.9,11.6
					c0,6.2-4.8,11.3-10.9,11.6C97.8,1169.2,97.8,1146,97.8,1146z M97.8,1144.4v-9.2l6.6,11.4C102.5,1145.4,100.2,1144.6,97.8,1144.4
					z M96.3,1144.5c-2.4,0.2-4.7,1-6.6,2.3l6.6-11.5V1144.5z M96.3,1146v23.3c-6-0.4-10.8-5.5-10.8-11.6
					C85.4,1151.5,90.2,1146.4,96.3,1146z M110.3,1157.6c0-0.3,0-0.5,0-0.8l7.3,12.6H103C107.3,1167.3,110.3,1162.8,110.3,1157.6z
					 M83.9,1156.6c0,0.3,0,0.7,0,1c0,5.2,3,9.6,7.3,11.8H76.5L83.9,1156.6z"/>
				<path id="XMLID_1585_" class="st3" d="M97,1119.1l23.2-40.2H73.9L97,1119.1z M96.3,1104c-6.1-0.4-10.9-5.4-10.9-11.6
					s4.8-11.3,10.9-11.6V1104z M96.3,1105.5v9.2l-6.6-11.4C91.6,1104.6,93.8,1105.4,96.3,1105.5z M97.8,1105.5
					c2.4-0.2,4.7-1,6.6-2.3l-6.6,11.5C97.8,1114.7,97.8,1105.5,97.8,1105.5z M97.8,1103.9v-23.3c6,0.4,10.8,5.5,10.8,11.6
					C108.6,1098.5,103.9,1103.5,97.8,1103.9z M83.8,1092.3c0,0.3,0,0.5,0,0.8l-7.3-12.6h14.6C86.8,1082.7,83.8,1087.1,83.8,1092.3z
					 M110.1,1093.3c0-0.3,0-0.7,0-1c0-5.2-3-9.6-7.3-11.8h14.7L110.1,1093.3z"/>
				<path id="XMLID_1577_" class="st3" d="M141.1,1094.5l-23.2,40.2h46.4L141.1,1094.5z M141.9,1109.7c6.1,0.4,10.9,5.4,10.9,11.6
					c0,6.2-4.8,11.3-10.9,11.6V1109.7z M141.9,1108.2v-9.2l6.6,11.4C146.5,1109.1,144.3,1108.3,141.9,1108.2z M140.3,1108.2
					c-2.4,0.2-4.7,1-6.6,2.3l6.6-11.5V1108.2z M140.3,1109.7v23.3c-6-0.4-10.8-5.5-10.8-11.6
					C129.5,1115.2,134.3,1110.1,140.3,1109.7z M154.4,1121.3c0-0.3,0-0.5,0-0.8l7.3,12.6H147C151.4,1131,154.4,1126.5,154.4,1121.3z
					 M128,1120.3c0,0.3,0,0.7,0,1c0,5.2,3,9.6,7.3,11.8h-14.7L128,1120.3z"/>
				<path id="XMLID_1569_" class="st3" d="M233.8,1094.5l-23.2,40.2H257L233.8,1094.5z M234.6,1109.7c6.1,0.4,10.9,5.4,10.9,11.6
					c0,6.2-4.8,11.3-10.9,11.6V1109.7z M234.6,1108.2v-9.2l6.6,11.4C239.3,1109.1,237,1108.3,234.6,1108.2z M233.1,1108.2
					c-2.4,0.2-4.7,1-6.6,2.3l6.6-11.5V1108.2z M233.1,1109.7v23.3c-6-0.4-10.8-5.5-10.8-11.6C222.2,1115.2,227,1110.1,233.1,1109.7z
					 M247.1,1121.3c0-0.3,0-0.5,0-0.8l7.3,12.6h-14.6C244.1,1131,247.1,1126.5,247.1,1121.3z M220.7,1120.3c0,0.3,0,0.7,0,1
					c0,5.2,3,9.6,7.3,11.8h-14.7L220.7,1120.3z"/>
				<path id="XMLID_1561_" class="st3" d="M187.4,1130.8l-23.2,40.2h46.4L187.4,1130.8z M188.2,1146c6.1,0.4,10.9,5.4,10.9,11.6
					c0,6.2-4.8,11.3-10.9,11.6C188.2,1169.2,188.2,1146,188.2,1146z M188.2,1144.4v-9.2l6.6,11.4
					C192.8,1145.4,190.6,1144.6,188.2,1144.4z M186.6,1144.5c-2.4,0.2-4.7,1-6.6,2.3l6.6-11.5V1144.5z M186.6,1146v23.3
					c-6-0.4-10.8-5.5-10.8-11.6C175.8,1151.5,180.6,1146.4,186.6,1146z M200.7,1157.6c0-0.3,0-0.5,0-0.8l7.3,12.6h-14.6
					C197.7,1167.3,200.7,1162.8,200.7,1157.6z M174.3,1156.6c0,0.3,0,0.7,0,1c0,5.2,3,9.6,7.3,11.8h-14.7L174.3,1156.6z"/>
				<path id="XMLID_1553_" class="st3" d="M187.4,1119.1l23.2-40.2h-46.4L187.4,1119.1z M186.6,1104c-6.1-0.4-10.9-5.4-10.9-11.6
					s4.8-11.3,10.9-11.6V1104z M186.6,1105.5v9.2l-6.6-11.4C182,1104.6,184.2,1105.4,186.6,1105.5z M188.2,1105.5
					c2.4-0.2,4.7-1,6.6-2.3l-6.6,11.5V1105.5z M188.2,1103.9v-23.3c6,0.4,10.8,5.5,10.8,11.6C199,1098.5,194.2,1103.5,188.2,1103.9z
					 M174.2,1092.3c0,0.3,0,0.5,0,0.8l-7.3-12.6h14.6C177.1,1082.7,174.2,1087.1,174.2,1092.3z M200.5,1093.3c0-0.3,0-0.7,0-1
					c0-5.2-3-9.6-7.3-11.8h14.7L200.5,1093.3z"/>
				<path id="XMLID_1545_" class="st3" d="M276.6,1130.8l-23.2,40.2h46.3L276.6,1130.8z M277.3,1146c6.1,0.4,10.9,5.4,10.9,11.6
					c0,6.2-4.8,11.3-10.9,11.6V1146z M277.3,1144.4v-9.2l6.6,11.4C282,1145.4,279.7,1144.6,277.3,1144.4z M275.8,1144.5
					c-2.4,0.2-4.7,1-6.6,2.3l6.6-11.5V1144.5z M275.8,1146v23.3c-6-0.4-10.8-5.5-10.8-11.6C265,1151.5,269.7,1146.4,275.8,1146z
					 M289.8,1157.6c0-0.3,0-0.5,0-0.8l7.3,12.6h-14.6C286.8,1167.3,289.8,1162.8,289.8,1157.6z M263.5,1156.6c0,0.3,0,0.7,0,1
					c0,5.2,3,9.6,7.3,11.8h-14.7L263.5,1156.6z"/>
				<path id="XMLID_1537_" class="st3" d="M276.6,1119.1l23.2-40.2h-46.4L276.6,1119.1z M275.8,1104c-6.1-0.4-10.9-5.4-10.9-11.6
					s4.8-11.3,10.9-11.6V1104z M275.8,1105.5v9.2l-6.6-11.4C271.1,1104.6,273.4,1105.4,275.8,1105.5z M277.3,1105.5
					c2.4-0.2,4.7-1,6.6-2.3l-6.6,11.5V1105.5z M277.3,1103.9v-23.3c6,0.4,10.8,5.5,10.8,11.6
					C288.2,1098.5,283.4,1103.5,277.3,1103.9z M263.3,1092.3c0,0.3,0,0.5,0,0.8l-7.3-12.6h14.6
					C266.3,1082.7,263.3,1087.1,263.3,1092.3z M289.7,1093.3c0-0.3,0-0.7,0-1c0-5.2-3-9.6-7.3-11.8h14.7L289.7,1093.3z"/>
				<path id="XMLID_1529_" class="st3" d="M320.6,1094.5l-23.2,40.2h46.4L320.6,1094.5z M321.4,1109.7c6.1,0.4,10.9,5.4,10.9,11.6
					c0,6.2-4.8,11.3-10.9,11.6L321.4,1109.7L321.4,1109.7z M321.4,1108.2v-9.2l6.6,11.4C326.1,1109.1,323.8,1108.3,321.4,1108.2z
					 M319.9,1108.2c-2.4,0.2-4.7,1-6.6,2.3l6.6-11.5V1108.2z M319.9,1109.7v23.3c-6-0.4-10.8-5.5-10.8-11.6
					C309,1115.2,313.8,1110.1,319.9,1109.7z M333.9,1121.3c0-0.3,0-0.5,0-0.8l7.3,12.6h-14.6C330.9,1131,333.9,1126.5,333.9,1121.3z
					 M307.5,1120.3c0,0.3,0,0.7,0,1c0,5.2,3,9.6,7.3,11.8h-14.7L307.5,1120.3z"/>
				<path id="XMLID_1521_" class="st3" d="M414.4,1094.5l-23.2,40.2h46.4L414.4,1094.5z M415.2,1109.7c6.1,0.4,10.9,5.4,10.9,11.6
					c0,6.2-4.8,11.3-10.9,11.6V1109.7z M415.2,1108.2v-9.2l6.6,11.4C419.8,1109.1,417.6,1108.3,415.2,1108.2z M413.6,1108.2
					c-2.4,0.2-4.7,1-6.6,2.3l6.6-11.5V1108.2z M413.6,1109.7v23.3c-6-0.4-10.8-5.5-10.8-11.6
					C402.8,1115.2,407.6,1110.1,413.6,1109.7z M427.7,1121.3c0-0.3,0-0.5,0-0.8l7.3,12.6h-14.6
					C424.7,1131,427.7,1126.5,427.7,1121.3z M401.3,1120.3c0,0.3,0,0.7,0,1c0,5.2,3,9.6,7.3,11.8h-14.7L401.3,1120.3z"/>
				<path id="XMLID_1513_" class="st3" d="M368,1130.8l-23.2,40.2h46.4L368,1130.8z M368.8,1146c6.1,0.4,10.9,5.4,10.9,11.6
					c0,6.2-4.8,11.3-10.9,11.6V1146z M368.8,1144.4v-9.2l6.6,11.4C373.4,1145.4,371.2,1144.6,368.8,1144.4z M367.2,1144.5
					c-2.4,0.2-4.7,1-6.6,2.3l6.6-11.5V1144.5z M367.2,1146v23.3c-6-0.4-10.8-5.5-10.8-11.6C356.4,1151.5,361.2,1146.4,367.2,1146z
					 M381.3,1157.6c0-0.3,0-0.5,0-0.8l7.3,12.6H374C378.3,1167.3,381.3,1162.8,381.3,1157.6z M354.9,1156.6c0,0.3,0,0.7,0,1
					c0,5.2,3,9.6,7.3,11.8h-14.7L354.9,1156.6z"/>
				<path id="XMLID_1505_" class="st3" d="M368,1119.1l23.2-40.2h-46.4L368,1119.1z M367.2,1104c-6.1-0.4-10.9-5.4-10.9-11.6
					s4.8-11.3,10.9-11.6V1104z M367.2,1105.5v9.2l-6.6-11.4C362.6,1104.6,364.8,1105.4,367.2,1105.5z M368.8,1105.5
					c2.4-0.2,4.7-1,6.6-2.3l-6.6,11.5V1105.5z M368.8,1103.9v-23.3c6,0.4,10.8,5.5,10.8,11.6
					C379.6,1098.5,374.8,1103.5,368.8,1103.9z M354.7,1092.3c0,0.3,0,0.5,0,0.8l-7.3-12.6H362
					C357.7,1082.7,354.7,1087.1,354.7,1092.3z M381.1,1093.3c0-0.3,0-0.7,0-1c0-5.2-3-9.6-7.3-11.8h14.7L381.1,1093.3z"/>
				<path id="XMLID_1497_" class="st3" d="M457.1,1130.8l-23.2,40.2h46.4L457.1,1130.8z M457.9,1146c6.1,0.4,10.9,5.4,10.9,11.6
					c0,6.2-4.8,11.3-10.9,11.6V1146z M457.9,1144.4v-9.2l6.6,11.4C462.6,1145.4,460.3,1144.6,457.9,1144.4z M456.4,1144.5
					c-2.4,0.2-4.7,1-6.6,2.3l6.6-11.5V1144.5z M456.4,1146v23.3c-6-0.4-10.8-5.5-10.8-11.6C445.5,1151.5,450.3,1146.4,456.4,1146z
					 M470.4,1157.6c0-0.3,0-0.5,0-0.8l7.3,12.6h-14.6C467.4,1167.3,470.4,1162.8,470.4,1157.6z M444,1156.6c0,0.3,0,0.7,0,1
					c0,5.2,3,9.6,7.3,11.8h-14.7L444,1156.6z"/>
				<path id="XMLID_1489_" class="st3" d="M457.1,1119.1l23.2-40.2h-46.4L457.1,1119.1z M456.4,1104c-6.1-0.4-10.9-5.4-10.9-11.6
					s4.8-11.3,10.9-11.6V1104z M456.4,1105.5v9.2l-6.6-11.4C451.7,1104.6,454,1105.4,456.4,1105.5z M457.9,1105.5
					c2.4-0.2,4.7-1,6.6-2.3l-6.6,11.5V1105.5z M457.9,1103.9v-23.3c6,0.4,10.8,5.5,10.8,11.6C468.8,1098.5,464,1103.5,457.9,1103.9z
					 M443.9,1092.3c0,0.3,0,0.5,0,0.8l-7.3-12.6h14.6C446.9,1082.7,443.9,1087.1,443.9,1092.3z M470.3,1093.3c0-0.3,0-0.7,0-1
					c0-5.2-3-9.6-7.3-11.8h14.7L470.3,1093.3z"/>
				<path id="XMLID_1481_" class="st3" d="M501.2,1094.5l-23.2,40.2h46.4L501.2,1094.5z M502,1109.7c6.1,0.4,10.9,5.4,10.9,11.6
					c0,6.2-4.8,11.3-10.9,11.6V1109.7z M502,1108.2v-9.2l6.6,11.4C506.6,1109.1,504.4,1108.3,502,1108.2z M500.4,1108.2
					c-2.4,0.2-4.7,1-6.6,2.3l6.6-11.5V1108.2z M500.4,1109.7v23.3c-6-0.4-10.8-5.5-10.8-11.6
					C489.6,1115.2,494.4,1110.1,500.4,1109.7z M514.5,1121.3c0-0.3,0-0.5,0-0.8l7.3,12.6h-14.6
					C511.5,1131,514.5,1126.5,514.5,1121.3z M488.1,1120.3c0,0.3,0,0.7,0,1c0,5.2,3,9.6,7.3,11.8h-14.7L488.1,1120.3z"/>
				<path id="XMLID_1473_" class="st3" d="M593.9,1094.5l-23.2,40.2h46.4L593.9,1094.5z M594.7,1109.7c6.1,0.4,10.9,5.4,10.9,11.6
					c0,6.2-4.8,11.3-10.9,11.6V1109.7z M594.7,1108.2v-9.2l6.6,11.4C599.4,1109.1,597.1,1108.3,594.7,1108.2z M593.2,1108.2
					c-2.4,0.2-4.7,1-6.6,2.3l6.6-11.5V1108.2z M593.2,1109.7v23.3c-6-0.4-10.8-5.5-10.8-11.6
					C582.3,1115.2,587.1,1110.1,593.2,1109.7z M607.2,1121.3c0-0.3,0-0.5,0-0.8l7.3,12.6h-14.6
					C604.2,1131,607.2,1126.5,607.2,1121.3z M580.8,1120.3c0,0.3,0,0.7,0,1c0,5.2,3,9.6,7.3,11.8h-14.7L580.8,1120.3z"/>
				<path id="XMLID_1465_" class="st3" d="M547.5,1130.8l-23.2,40.2h46.4L547.5,1130.8z M548.3,1146c6.1,0.4,10.9,5.4,10.9,11.6
					c0,6.2-4.8,11.3-10.9,11.6V1146z M548.3,1144.4v-9.2l6.6,11.4C553,1145.4,550.7,1144.6,548.3,1144.4z M546.8,1144.5
					c-2.4,0.2-4.7,1-6.6,2.3l6.6-11.5V1144.5z M546.8,1146v23.3c-6-0.4-10.8-5.5-10.8-11.6C536,1151.5,540.7,1146.4,546.8,1146z
					 M560.8,1157.6c0-0.3,0-0.5,0-0.8l7.3,12.6h-14.6C557.8,1167.3,560.8,1162.8,560.8,1157.6z M534.5,1156.6c0,0.3,0,0.7,0,1
					c0,5.2,3,9.6,7.3,11.8h-14.7L534.5,1156.6z"/>
				<path id="XMLID_1457_" class="st3" d="M547.5,1119.1l23.2-40.2h-46.4L547.5,1119.1z M546.8,1104c-6.1-0.4-10.9-5.4-10.9-11.6
					s4.8-11.3,10.9-11.6V1104z M546.8,1105.5v9.2l-6.6-11.4C542.1,1104.6,544.3,1105.4,546.8,1105.5z M548.3,1105.5
					c2.4-0.2,4.7-1,6.6-2.3l-6.6,11.5V1105.5z M548.3,1103.9v-23.3c6,0.4,10.8,5.5,10.8,11.6
					C559.1,1098.5,554.3,1103.5,548.3,1103.9z M534.4,1092.3c0,0.3,0,0.5,0,0.8l-7.3-12.6h14.6
					C537.3,1082.7,534.4,1087.1,534.4,1092.3z M560.6,1093.3c0-0.3,0-0.7,0-1c0-5.2-3-9.6-7.3-11.8H568L560.6,1093.3z"/>
				<path id="XMLID_1449_" class="st3" d="M636.7,1130.8l-23.2,40.2h46.4L636.7,1130.8z M637.4,1146c6.1,0.4,10.9,5.4,10.9,11.6
					c0,6.2-4.8,11.3-10.9,11.6V1146z M637.4,1144.4v-9.2l6.6,11.4C642.1,1145.4,639.9,1144.6,637.4,1144.4z M635.9,1144.5
					c-2.4,0.2-4.7,1-6.6,2.3l6.6-11.5V1144.5z M635.9,1146v23.3c-6-0.4-10.8-5.5-10.8-11.6C625.1,1151.5,629.9,1146.4,635.9,1146z
					 M649.9,1157.6c0-0.3,0-0.5,0-0.8l7.3,12.6h-14.6C646.9,1167.3,649.9,1162.8,649.9,1157.6z M623.6,1156.6c0,0.3,0,0.7,0,1
					c0,5.2,3,9.6,7.3,11.8h-14.7L623.6,1156.6z"/>
				<path id="XMLID_1441_" class="st3" d="M636.7,1119.1l23.2-40.2h-46.4L636.7,1119.1z M635.9,1104c-6.1-0.4-10.9-5.4-10.9-11.6
					s4.8-11.3,10.9-11.6V1104z M635.9,1105.5v9.2l-6.6-11.4C631.2,1104.6,633.5,1105.4,635.9,1105.5z M637.4,1105.5
					c2.4-0.2,4.7-1,6.6-2.3l-6.6,11.5V1105.5z M637.4,1103.9v-23.3c6,0.4,10.8,5.5,10.8,11.6
					C648.3,1098.5,643.5,1103.5,637.4,1103.9z M623.4,1092.3c0,0.3,0,0.5,0,0.8l-7.3-12.6h14.6
					C626.4,1082.7,623.4,1087.1,623.4,1092.3z M649.8,1093.3c0-0.3,0-0.7,0-1c0-5.2-3-9.6-7.3-11.8h14.7L649.8,1093.3z"/>
				<path id="XMLID_1433_" class="st3" d="M680.7,1094.5l-23.2,40.2h46.4L680.7,1094.5z M681.5,1109.7c6.1,0.4,10.9,5.4,10.9,11.6
					c0,6.2-4.8,11.3-10.9,11.6V1109.7z M681.5,1108.2v-9.2l6.6,11.4C686.2,1109.1,683.9,1108.3,681.5,1108.2z M680,1108.2
					c-2.4,0.2-4.7,1-6.6,2.3l6.6-11.5V1108.2z M680,1109.7v23.3c-6-0.4-10.8-5.5-10.8-11.6C669.1,1115.2,673.9,1110.1,680,1109.7z
					 M694,1121.3c0-0.3,0-0.5,0-0.8l7.3,12.6h-14.6C691,1131,694,1126.5,694,1121.3z M667.6,1120.3c0,0.3,0,0.7,0,1
					c0,5.2,3,9.6,7.3,11.8h-14.7L667.6,1120.3z"/>
				<path id="XMLID_1425_" class="st3" d="M725.9,1130.8l-23.2,40.2h46.4L725.9,1130.8z M726.6,1146c6.1,0.4,10.9,5.4,10.9,11.6
					c0,6.2-4.8,11.3-10.9,11.6V1146z M726.6,1144.4v-9.2l6.6,11.4C731.3,1145.4,729,1144.6,726.6,1144.4z M725.2,1144.5
					c-2.4,0.2-4.7,1-6.6,2.3l6.6-11.5V1144.5z M725.2,1146v23.3c-6-0.4-10.8-5.5-10.8-11.6C714.3,1151.5,719.1,1146.4,725.2,1146z
					 M739.1,1157.6c0-0.3,0-0.5,0-0.8l7.3,12.6h-14.6C736.1,1167.3,739.1,1162.8,739.1,1157.6z M712.8,1156.6c0,0.3,0,0.7,0,1
					c0,5.2,3,9.6,7.3,11.8h-14.7L712.8,1156.6z"/>
				<path id="XMLID_1417_" class="st3" d="M725.9,1119.1l23.2-40.2h-46.4L725.9,1119.1z M725.2,1104c-6.1-0.4-10.9-5.4-10.9-11.6
					s4.8-11.3,10.9-11.6V1104z M725.2,1105.5v9.2l-6.6-11.4C720.5,1104.6,722.8,1105.4,725.2,1105.5z M726.6,1105.5
					c2.4-0.2,4.7-1,6.6-2.3l-6.6,11.5V1105.5z M726.6,1103.9v-23.3c6,0.4,10.8,5.5,10.8,11.6
					C737.5,1098.5,732.7,1103.5,726.6,1103.9z M712.7,1092.3c0,0.3,0,0.5,0,0.8l-7.3-12.6H720
					C715.7,1082.7,712.7,1087.1,712.7,1092.3z M739,1093.3c0-0.3,0-0.7,0-1c0-5.2-3-9.6-7.3-11.8h14.7L739,1093.3z"/>
				<path id="XMLID_1409_" class="st3" d="M769.9,1094.5l-23.2,40.2h46.4L769.9,1094.5z M770.7,1109.7c6.1,0.4,10.9,5.4,10.9,11.6
					c0,6.2-4.8,11.3-10.9,11.6V1109.7z M770.7,1108.2v-9.2l6.6,11.4C775.3,1109.1,773.1,1108.3,770.7,1108.2z M769.1,1108.2
					c-2.4,0.2-4.7,1-6.6,2.3l6.6-11.5V1108.2z M769.1,1109.7v23.3c-6-0.4-10.8-5.5-10.8-11.6
					C758.3,1115.2,763.1,1110.1,769.1,1109.7z M783.2,1121.3c0-0.3,0-0.5,0-0.8l7.3,12.6h-14.6
					C780.2,1131,783.2,1126.5,783.2,1121.3z M756.8,1120.3c0,0.3,0,0.7,0,1c0,5.2,3,9.6,7.3,11.8h-14.7L756.8,1120.3z"/>
			</g>
		</g>
	</g>
</g>
<g id="hermioneLine">
	<line id="XMLID_288_" class="st4" x1="73.5" y1="1004.8" x2="590.5" y2="1004.8"/>
</g>
<g id="hermioneBook">
	<g id="XMLID_495_">
		<g id="XMLID_593_">
			<path id="XMLID_598_" class="st5" d="M781.6,1047.9V938.7h-94.1c-8.8,0-15.9,7.1-15.9,15.9v107h84.2L781.6,1047.9z"/>
			<path id="XMLID_597_" class="st6" d="M781.6,1047.9V938.7h-63.1c-8.5,21.6-21.2,70,8.1,121c0.4,0.6,0.7,1.2,1.1,1.9h28.1
				L781.6,1047.9z"/>
			<path id="XMLID_594_" class="st6" d="M755.8,1063.4h-84.2c-1,0-1.9-0.8-1.9-1.9v-107c0-9.8,8-17.7,17.7-17.7h94.1
				c1,0,1.9,0.8,1.9,1.9v109.2c0,0.7-0.4,1.3-1,1.6l-25.8,13.6C756.4,1063.4,756.1,1063.4,755.8,1063.4z M673.5,1059.7h81.9
				l24.4-12.9V940.6h-92.2c-7.7,0-14,6.3-14,14v105.1H673.5z"/>
		</g>
		<g id="XMLID_586_">
			<path id="XMLID_592_" class="st7" d="M685.3,1047.9c-7.5,0-13.6,6.1-13.6,13.6c0,7.5,6.1,13.6,13.6,13.6h96.3
				c-9.4-9.7-10.9-18.9,0-27.3L685.3,1047.9L685.3,1047.9z"/>
			<path id="XMLID_591_" class="st8" d="M671.6,1061.6c0,7.5,6.1,13.6,13.6,13.6h15.4c3.3-10.5,17.9-24.4,73.9-18.3
				c1-3.1,3.3-6.1,7-8.9h-96.3C677.8,1047.9,671.6,1054,671.6,1061.6z"/>
			<path id="XMLID_587_" class="st6" d="M781.6,1077.1h-96.3c-8.5,0-15.5-7-15.5-15.5s7-15.5,15.5-15.5h96.3c0.8,0,1.5,0.5,1.8,1.3
				s0,1.6-0.6,2.1c-4.3,3.3-6.6,6.8-6.9,10.4c-0.3,4.2,2.1,9,7.1,14.1c0.5,0.5,0.7,1.3,0.4,2C783,1076.6,782.3,1077.1,781.6,1077.1z
				 M685.3,1049.8c-6.5,0-11.8,5.3-11.8,11.8s5.3,11.8,11.8,11.8h92.2c-3.9-4.9-5.7-9.4-5.3-13.9c0.3-3.4,1.8-6.7,4.6-9.7
				L685.3,1049.8L685.3,1049.8z"/>
		</g>
		<g id="XMLID_578_">
			<path id="XMLID_583_" class="st9" d="M749.7,938.8v9.4h12.7c0,0.4,0,0.8,0,1.1c0.4,4.5,4.1,8.1,8.5,8.5c0.4,0,0.8,0.1,1.1,0v12.7
				h9.4v-31.9h-31.7V938.8z"/>
			<path id="XMLID_579_" class="st6" d="M781.6,972.5h-9.4c-1,0-1.9-0.8-1.9-1.9v-11c-4.9-0.7-8.9-4.6-9.6-9.6h-11
				c-1,0-1.9-0.8-1.9-1.9v-9.4c0-1,0.8-1.9,1.9-1.9h31.9c1,0,1.9,0.8,1.9,1.9v31.9C783.5,971.6,782.6,972.5,781.6,972.5z
				 M774.1,968.8h5.7v-28.2h-28.1v5.7h10.9c0.5,0,1,0.2,1.3,0.6s0.5,0.8,0.5,1.3c0,0.3,0,0.6,0,0.9c0.4,3.6,3.3,6.5,6.9,6.9
				c0.3,0,0.5,0,0.8,0h0.1c0.5,0,1,0.2,1.3,0.5c0.4,0.3,0.6,0.8,0.6,1.3V968.8z"/>
		</g>
		<g id="XMLID_539_">
			<path id="XMLID_577_" class="st9" d="M781.6,1016.1h-9.4v12.7c-0.4,0-0.8,0-1.1,0c-4.5,0.4-8.1,4.1-8.5,8.5c0,0.4-0.1,0.8,0,1.1
				h-12.7v9.4h31.9v-31.7H781.6z"/>
			<path id="XMLID_540_" class="st6" d="M781.6,1049.8h-31.9c-1,0-1.9-0.8-1.9-1.9v-9.4c0-1,0.8-1.9,1.9-1.9h11
				c0.7-4.9,4.6-8.9,9.6-9.6v-11c0-1,0.8-1.9,1.9-1.9h9.4c1,0,1.9,0.8,1.9,1.9v31.9C783.5,1049,782.6,1049.8,781.6,1049.8z
				 M751.6,1046.1h28.1V1018H774v10.9c0,0.5-0.2,1-0.6,1.3c-0.4,0.3-0.8,0.6-1.3,0.5H772c-0.3,0-0.5,0-0.8,0
				c-3.6,0.4-6.5,3.3-6.9,6.9c0,0.3,0,0.6,0,0.9c0,0.5-0.2,1-0.5,1.3c-0.3,0.4-0.8,0.6-1.3,0.6h-10.9V1046.1z"/>
		</g>
		<g id="XMLID_535_">
			<path id="XMLID_538_" class="st6" d="M687.5,1049.8c-1,0-1.9-0.8-1.9-1.9V938.7c0-1,0.8-1.9,1.9-1.9c1,0,1.9,0.8,1.9,1.9v109.2
				C689.4,1049,688.5,1049.8,687.5,1049.8z"/>
		</g>
	</g>
</g>
<g id="hermioneFeather">
	<g id="XMLID_117_">
		<path id="XMLID_227_" class="st10" d="M741.2,870.7c-9.3-6.1-23.9,0.1-38.8,10.7l-7.6,20.5l5-18.6c-9.8,7.4-19.6,16.5-27.8,25
			l-5.1,18.8l2.2-15.8c-4.6,5-8.6,9.6-11.7,13.5c-17.2,21.8-12.7,43.4-12.7,43.4c-20.6,32.4-29.5,54.9-29.5,54.9l20.3-24.9
			c5.5-13.5,12.2-25.3,12.2-25.3s28.6-64.9,83.1-97.2c0,0-52.6,33.5-80.9,97.9c9,2.8,20.2,1.6,34.9-20.7l-19.4-0.3l20.8-1.8
			c1-1.5,2.4-3.3,4-5.3l-21.2,1.1l25.8-6.5c7.5-9.2,17.5-21.1,26.5-32.5l-22.8,1.4l25.1-4.5C736.3,888.4,745.9,873.8,741.2,870.7z"
			/>
		<path id="XMLID_224_" class="st11" d="M658.4,953.1c1.3-2.1,2.6-4.4,4.1-6.7l1.4-29.1c-2.4,2.7-4.5,5.3-6.3,7.6
			c-0.6,0.8-1.2,1.6-1.8,2.4L658.4,953.1z"/>
		<path id="XMLID_214_" class="st11" d="M734.8,889.4l-29,6.6c-2.2,2.1-4.5,4.3-6.8,6.6l29.8-4.8C731,895,733,892.1,734.8,889.4z"/>
		<g id="XMLID_193_">
			<g id="XMLID_211_">
				<path id="XMLID_212_" class="st11" d="M711.2,920.3l-29.9,2.3c-2.6,3.2-5.2,6.6-7.7,10.1l27.1,0.3
					C704,929,707.6,924.7,711.2,920.3z"/>
			</g>
		</g>
	</g>
</g>
</svg>
