<?xml version="1.0" encoding="utf-8"?>
<!-- Generator: Adobe Illustrator 19.0.0, SVG Export Plug-In . SVG Version: 6.00 Build 0)  -->
<svg version="1.1" id="box6" xmlns="http://www.w3.org/2000/svg" xmlns:xlink="http://www.w3.org/1999/xlink" x="0px" y="0px"
	 viewBox="69 1170.2 750 321" style="enable-background:new 69 1170.2 750 321;" xml:space="preserve">
<style type="text/css">
	.st0{fill:#92A625;}
	.st1{fill:none;stroke:#FFFFFF;stroke-width:2;stroke-miterlimit:10;}
	.st2{fill:#6A2D6B;}
	.st3{fill:#90691E;}
	.st4{fill:#BBA027;}
	.st5{fill:#92703E;}
</style>
<g id="frogBg">
	<rect id="XMLID_609_" x="69" y="1171" class="st0" width="750" height="320.5"/>
</g>
<g id="frogLine">
	<line id="XMLID_53_" class="st1" x1="461" y1="1359.5" x2="818" y2="1359.5"/>
</g>
<g id="frogFig">
	<polygon id="figOutPol" class="st2" points="574.4,1467.8 557.7,1416.4 601.4,1384.7 645.1,1416.4 628.4,1467.8 	"/>
	<polygon id="figInPol" class="st3" points="578.1,1462.9 563.6,1418.5 601.4,1391 639.2,1418.5 624.7,1462.9 	"/>
	<circle id="figCircle" class="st4" cx="601.5" cy="1430.6" r="30.7"/>
	<path id="figIn_1_" class="st5" d="M613.2,1442.3c0.9,0.6,1.9,0.9,3,0.9c3.3,0,6.1-3,6.1-6.8c1,0.8,2.2,1.3,3.5,1.3
		c3.4,0,6.1-3.1,6.1-7s-2.7-7-6.1-7c-1.3,0-2.5,0.5-3.5,1.3c0-0.1,0-0.1,0-0.2c0-3.8-2.7-7-6.1-7c-1.1,0-2.1,0.4-3,0.9
		c0.6-0.9,0.9-1.9,0.9-3c0-3.4-3-6.1-6.8-6.2c0.8-1,1.3-2.2,1.3-3.6c0-3.4-3.1-6.2-6.9-6.2c-3.8,0-6.9,2.8-6.9,6.2
		c0,1.3,0.5,2.6,1.3,3.6c-0.1,0-0.1,0-0.2,0c-3.8,0-6.9,2.8-6.9,6.2c0,1.1,0.3,2.2,0.9,3.1c-0.9-0.6-1.9-0.8-3-0.8
		c-3.3,0-6.1,3-6.1,6.8c-1-0.8-2.2-1.3-3.5-1.3c-3.4,0-6.1,3.1-6.1,7s2.7,7,6.1,7c1.3,0,2.5-0.5,3.5-1.3c0,0.1,0,0.1,0,0.2
		c0,3.8,2.7,7,6.1,7c1.1,0,2.1-0.4,3-0.9c-0.6,0.9-0.9,1.9-0.9,3c0,3.4,3,6.1,6.8,6.2c-0.8,1-1.3,2.2-1.3,3.6c0,3.4,3.1,6.2,6.9,6.2
		c3.8,0,6.9-2.8,6.9-6.2c0-1.3-0.5-2.6-1.3-3.6c0.1,0,0.1,0,0.2,0c3.8,0,6.9-2.8,6.9-6.2C614.1,1444.3,613.8,1443.3,613.2,1442.3z"
		/>
</g>
</svg>
