<?xml version="1.0" encoding="utf-8"?>
<!-- Generator: Adobe Illustrator 19.0.0, SVG Export Plug-In . SVG Version: 6.00 Build 0)  -->
<svg version="1.1" id="box6" xmlns="http://www.w3.org/2000/svg" xmlns:xlink="http://www.w3.org/1999/xlink" x="0px" y="0px"
	 viewBox="69 236 750 321" style="enable-background:new 69 236 750 321;" xml:space="preserve">
<style type="text/css">
	.st0{fill:#92A625;}
	.st1{fill:#FFFFFF;}
	.st2{fill:none;stroke:#FFFFFF;stroke-width:2;stroke-miterlimit:10;}
</style>
<g>
	<g id="frogBg">
		<rect id="XMLID_609_" x="69" y="236.3" class="st0" width="750.1" height="320.5"/>
	</g>
	<g id="frogText">
		<g id="XMLID_2390_">
			<g id="XMLID_8141_">
				<path id="XMLID_8447_" class="st1" d="M489,304.8c-0.2,0-0.3-0.1-0.3-0.3v-6.2h-7.5v6.2c0,0.2-0.1,0.3-0.3,0.3h-1.2
					c-0.2,0-0.3-0.1-0.3-0.3l0.1-13.2c0-0.2,0.1-0.3,0.3-0.3h1c0.2,0,0.3,0.1,0.3,0.3v5.5h7.6v-5.5c0-0.2,0.1-0.3,0.3-0.3h1.1
					c0.2,0,0.3,0.1,0.3,0.3l0.1,13.2c0,0.2-0.1,0.3-0.3,0.3H489z"/>
				<path id="XMLID_8444_" class="st1" d="M501.1,297.9l0.1,6.6c0,0.2-0.1,0.3-0.3,0.3h-1.1c-0.2,0-0.3-0.1-0.3-0.3v-1.3h-0.1
					c-0.7,1-1.9,1.8-3.5,1.8c-1.8,0-3.1-1-3.1-2.8c0-2.1,1.6-3,5.3-3.4c0.9-0.1,1.4-0.4,1.4-1.1c0-1-0.8-1.8-2.3-1.8
					c-1.2,0-2,0.5-2.3,1.4c-0.1,0.2-0.2,0.2-0.3,0.2h-1c-0.2,0-0.3-0.1-0.3-0.3c0.4-1.7,1.8-2.8,4-2.8
					C499.6,294.4,501.1,295.8,501.1,297.9z M499.3,299.8c-0.3,0.2-0.8,0.3-1.5,0.3c-2.3,0.3-3.5,0.8-3.5,2c0,0.9,0.7,1.5,1.8,1.5
					c1.9,0,3.2-1.3,3.3-2.4L499.3,299.8L499.3,299.8z"/>
				<path id="XMLID_8442_" class="st1" d="M509.1,295.9c0,0.2-0.1,0.3-0.3,0.3c-1.7,0.1-2.9,0.7-3.1,3v5.2c0,0.2-0.1,0.3-0.3,0.3
					h-1.1c-0.2,0-0.3-0.1-0.3-0.3l0.1-9.5c0-0.2,0.1-0.3,0.3-0.3h1c0.2,0,0.3,0.1,0.3,0.3v1.3h0.1c0.7-1,1.7-1.7,3-1.8
					c0.2,0,0.3,0.1,0.3,0.3V295.9z"/>
				<path id="XMLID_8440_" class="st1" d="M516,295.9c0,0.2-0.1,0.3-0.3,0.3c-1.7,0.1-2.9,0.7-3.1,3v5.2c0,0.2-0.1,0.3-0.3,0.3h-1.1
					c-0.2,0-0.3-0.1-0.3-0.3l0.1-9.5c0-0.2,0.1-0.3,0.3-0.3h1c0.2,0,0.3,0.1,0.3,0.3v1.3h0.1c0.7-1,1.7-1.7,3-1.8
					c0.2,0,0.3,0.1,0.3,0.3V295.9z"/>
				<path id="XMLID_8438_" class="st1" d="M525.5,294.8c0.2,0,0.3,0.1,0.2,0.3l-4.8,13.7c-0.1,0.2-0.2,0.2-0.4,0.2h-1.1
					c-0.2,0-0.3-0.1-0.2-0.3l1.2-3.4l-3.6-10.2c-0.1-0.2,0-0.3,0.2-0.3h1c0.2,0,0.3,0.1,0.3,0.2l2.8,8h0.1l2.9-8
					c0.1-0.2,0.2-0.2,0.4-0.2L525.5,294.8L525.5,294.8z"/>
				<path id="XMLID_8436_" class="st1" d="M530.5,304.3c0,1.7-0.4,2.6-1.2,3.5c-0.1,0.1-0.3,0.2-0.4,0.1l-0.1-0.1
					c-0.2-0.1-0.2-0.2-0.1-0.4c0.6-0.9,0.8-1.9,0.1-2.4c-0.1-0.1-0.2-0.2-0.2-0.4V303c0-0.2,0.1-0.3,0.3-0.3h1.3
					c0.2,0,0.3,0.1,0.3,0.3L530.5,304.3L530.5,304.3z"/>
				<path id="XMLID_8433_" class="st1" d="M539.9,298.8v5.8c0,0.2-0.1,0.3-0.3,0.3h-1.2c-0.2,0-0.3-0.1-0.3-0.3l0.1-13.2
					c0-0.2,0.1-0.3,0.3-0.3h5.3c2.7,0,4.4,1.6,4.4,3.8c0,2-1.3,3.5-3.6,3.9l4.1,5.8c0.2,0.2,0.1,0.4-0.2,0.4H547
					c-0.2,0-0.3-0.1-0.4-0.2l-4-5.9h-2.8L539.9,298.8L539.9,298.8z M543.5,297.3c2,0,2.9-0.9,2.9-2.3c0-1.5-1.1-2.4-2.9-2.4h-3.7
					v4.7L543.5,297.3L543.5,297.3z"/>
				<path id="XMLID_8430_" class="st1" d="M559.5,299.7c0,3.1-2.1,5.4-4.8,5.4s-4.7-2.2-4.7-5.2c0-3.2,2.1-5.3,4.8-5.3
					C557.5,294.4,559.5,296.6,559.5,299.7z M551.7,299.7c0,2.4,1.4,3.9,3.2,3.9s3-1.5,3-3.7c0-2.4-1.4-3.9-3.2-3.9
					C553,295.9,551.7,297.3,551.7,299.7z"/>
				<path id="XMLID_8428_" class="st1" d="M570,298.2v6.3c0,0.2-0.1,0.3-0.3,0.3h-1.1c-0.2,0-0.3-0.1-0.3-0.3v-5.9
					c0-1.7-0.8-2.5-2.1-2.5c-1.4,0-2.5,1-2.7,3.1v5.4c0,0.2-0.1,0.3-0.3,0.3h-1.1c-0.2,0-0.3-0.1-0.3-0.3l0.1-9.5
					c0-0.2,0.1-0.3,0.3-0.3h1c0.2,0,0.3,0.1,0.3,0.3v1.2h0.1c0.8-1.1,1.8-1.7,3.2-1.7C568.8,294.4,570,295.8,570,298.2z"/>
				<path id="XMLID_8426_" class="st1" d="M575.7,304.3c0,1.7-0.4,2.6-1.2,3.5c-0.1,0.1-0.3,0.2-0.4,0.1l-0.1-0.1
					c-0.2-0.1-0.2-0.2-0.1-0.4c0.6-0.9,0.8-1.9,0.1-2.4c-0.1-0.1-0.2-0.2-0.2-0.4V303c0-0.2,0.1-0.3,0.3-0.3h1.3
					c0.2,0,0.3,0.1,0.3,0.3L575.7,304.3L575.7,304.3z"/>
				<path id="XMLID_8423_" class="st1" d="M591,297.9l0.1,6.6c0,0.2-0.1,0.3-0.3,0.3h-1.1c-0.2,0-0.3-0.1-0.3-0.3v-1.3h-0.1
					c-0.7,1-1.9,1.8-3.5,1.8c-1.8,0-3.1-1-3.1-2.8c0-2.1,1.6-3,5.3-3.4c0.9-0.1,1.4-0.4,1.4-1.1c0-1-0.8-1.8-2.3-1.8
					c-1.2,0-2,0.5-2.3,1.4c-0.1,0.2-0.2,0.2-0.3,0.2h-1c-0.2,0-0.3-0.1-0.3-0.3c0.4-1.7,1.8-2.8,4-2.8
					C589.5,294.4,591,295.8,591,297.9z M589.3,299.8c-0.3,0.2-0.8,0.3-1.5,0.3c-2.3,0.3-3.5,0.8-3.5,2c0,0.9,0.7,1.5,1.8,1.5
					c1.9,0,3.2-1.3,3.3-2.4L589.3,299.8L589.3,299.8z"/>
				<path id="XMLID_8421_" class="st1" d="M602.2,298.2v6.3c0,0.2-0.1,0.3-0.3,0.3h-1.1c-0.2,0-0.3-0.1-0.3-0.3v-5.9
					c0-1.7-0.8-2.5-2.1-2.5c-1.4,0-2.5,1-2.7,3.1v5.4c0,0.2-0.1,0.3-0.3,0.3h-1.1c-0.2,0-0.3-0.1-0.3-0.3l0.1-9.5
					c0-0.2,0.1-0.3,0.3-0.3h1c0.2,0,0.3,0.1,0.3,0.3v1.2h0.1c0.8-1.1,1.8-1.7,3.2-1.7C600.9,294.4,602.2,295.8,602.2,298.2z"/>
				<path id="XMLID_8418_" class="st1" d="M613.7,304.6c0,0.2-0.1,0.3-0.3,0.3h-1.1c-0.2,0-0.3-0.1-0.3-0.3v-1.1h-0.1
					c-0.7,1.1-1.9,1.7-3.2,1.7c-2.5,0-4.2-2.2-4.2-5.2c0-3.2,1.9-5.4,4.7-5.4c1.2,0,2.1,0.4,2.8,1.2h0.1v-4.8c0-0.2,0.1-0.3,0.3-0.3
					h1c0.2,0,0.3,0.1,0.3,0.3V304.6z M606,299.8c0,2.4,1.2,3.8,3,3.8c1.5,0,2.8-1.1,3-3.2v-1.3c-0.2-2.1-1.5-3.1-3-3.1
					C607.2,295.9,606,297.4,606,299.8z"/>
				<path id="XMLID_8416_" class="st1" d="M630,304.8c-0.2,0-0.3-0.1-0.3-0.3v-6.2h-7.5v6.2c0,0.2-0.1,0.3-0.3,0.3h-1.2
					c-0.2,0-0.3-0.1-0.3-0.3l0.1-13.2c0-0.2,0.1-0.3,0.3-0.3h1c0.2,0,0.3,0.1,0.3,0.3v5.5h7.6v-5.5c0-0.2,0.1-0.3,0.3-0.3h1.1
					c0.2,0,0.3,0.1,0.3,0.3l0.1,13.2c0,0.2-0.1,0.3-0.3,0.3H630z"/>
				<path id="XMLID_8413_" class="st1" d="M642.8,299.7c0,0.2-0.1,0.3-0.3,0.3h-7.1c0,2.2,1.2,3.6,3.1,3.6c1.1,0,1.9-0.4,2.4-1.3
					c0.1-0.2,0.2-0.2,0.4-0.2h1c0.2,0,0.3,0.2,0.2,0.4c-0.8,1.7-2.3,2.7-4.1,2.7c-2.8,0-4.7-2.1-4.7-5.2c0-3.2,2-5.3,4.8-5.3
					C641.4,294.6,642.9,296.8,642.8,299.7z M635.4,298.7h5.6c-0.1-1.5-1-2.7-2.8-2.7C636.5,295.9,635.7,297.2,635.4,298.7z"/>
				<path id="XMLID_8411_" class="st1" d="M650,295.9c0,0.2-0.1,0.3-0.3,0.3c-1.7,0.1-2.9,0.7-3.1,3v5.2c0,0.2-0.1,0.3-0.3,0.3h-1.1
					c-0.2,0-0.3-0.1-0.3-0.3l0.1-9.5c0-0.2,0.1-0.3,0.3-0.3h1c0.2,0,0.3,0.1,0.3,0.3v1.3h0.1c0.7-1,1.7-1.7,3-1.8
					c0.2,0,0.3,0.1,0.3,0.3V295.9z"/>
				<path id="XMLID_8409_" class="st1" d="M665.7,298.2v6.3c0,0.2-0.1,0.3-0.3,0.3h-1.1c-0.2,0-0.3-0.1-0.3-0.3v-5.9
					c0-1.7-0.7-2.5-1.8-2.5c-1.3,0-2.4,1-2.5,3.1v5.3c0,0.2-0.1,0.3-0.3,0.3h-1.1c-0.2,0-0.3-0.1-0.3-0.3v-5.9
					c0-1.7-0.7-2.5-1.8-2.5c-1.3,0-2.4,0.9-2.6,3.1v5.4c0,0.2-0.1,0.3-0.3,0.3h-1.1c-0.2,0-0.3-0.1-0.3-0.3l0.1-9.5
					c0-0.2,0.1-0.3,0.3-0.3h1c0.2,0,0.3,0.1,0.3,0.3v1.2h0.1c0.8-1,1.8-1.7,3.1-1.7s2.2,0.6,2.6,1.9h0.1c0.8-1.2,1.8-1.9,3.2-1.9
					C664.5,294.4,665.7,295.8,665.7,298.2z"/>
				<path id="XMLID_8406_" class="st1" d="M670.3,304.6c0,0.2-0.1,0.3-0.3,0.3h-1.1c-0.2,0-0.3-0.1-0.3-0.3l0.1-9.5
					c0-0.2,0.1-0.3,0.3-0.3h1c0.2,0,0.3,0.1,0.3,0.3V304.6z M670.3,292.3c0,0.2-0.1,0.3-0.3,0.3h-1c-0.2,0-0.3-0.1-0.3-0.3v-1.3
					c0-0.2,0.1-0.3,0.3-0.3h1c0.2,0,0.3,0.1,0.3,0.3V292.3z"/>
				<path id="XMLID_8403_" class="st1" d="M682.3,299.7c0,3.1-2.1,5.4-4.8,5.4s-4.7-2.2-4.7-5.2c0-3.2,2.1-5.3,4.8-5.3
					C680.3,294.4,682.3,296.6,682.3,299.7z M674.4,299.7c0,2.4,1.4,3.9,3.2,3.9s3-1.5,3-3.7c0-2.4-1.4-3.9-3.2-3.9
					C675.7,295.9,674.4,297.3,674.4,299.7z"/>
				<path id="XMLID_8401_" class="st1" d="M692.8,298.2v6.3c0,0.2-0.1,0.3-0.3,0.3h-1.1c-0.2,0-0.3-0.1-0.3-0.3v-5.9
					c0-1.7-0.8-2.5-2.1-2.5c-1.4,0-2.5,1-2.7,3.1v5.4c0,0.2-0.1,0.3-0.3,0.3h-1.1c-0.2,0-0.3-0.1-0.3-0.3l0.1-9.5
					c0-0.2,0.1-0.3,0.3-0.3h1c0.2,0,0.3,0.1,0.3,0.3v1.2h0.1c0.8-1.1,1.8-1.7,3.2-1.7C691.5,294.4,692.8,295.8,692.8,298.2z"/>
				<path id="XMLID_8398_" class="st1" d="M704,299.7c0,0.2-0.1,0.3-0.3,0.3h-7.1c0,2.2,1.2,3.6,3.1,3.6c1.1,0,1.9-0.4,2.4-1.3
					c0.1-0.2,0.2-0.2,0.4-0.2h1c0.2,0,0.3,0.2,0.2,0.4c-0.8,1.7-2.3,2.7-4.1,2.7c-2.8,0-4.7-2.1-4.7-5.2c0-3.2,2-5.3,4.8-5.3
					C702.8,294.6,704.2,296.8,704,299.7z M696.8,298.7h5.6c-0.1-1.5-1-2.7-2.8-2.7C698,295.9,697,297.2,696.8,298.7z"/>
				<path id="XMLID_8395_" class="st1" d="M718,297.9l0.1,6.6c0,0.2-0.1,0.3-0.3,0.3h-1.1c-0.2,0-0.3-0.1-0.3-0.3v-1.3h-0.1
					c-0.7,1-1.9,1.8-3.5,1.8c-1.8,0-3.1-1-3.1-2.8c0-2.1,1.6-3,5.3-3.4c0.9-0.1,1.4-0.4,1.4-1.1c0-1-0.8-1.8-2.3-1.8
					c-1.2,0-2,0.5-2.3,1.4c-0.1,0.2-0.2,0.2-0.3,0.2h-1c-0.2,0-0.3-0.1-0.3-0.3c0.4-1.7,1.8-2.8,4-2.8
					C716.7,294.4,718,295.8,718,297.9z M716.4,299.8c-0.3,0.2-0.8,0.3-1.5,0.3c-2.3,0.3-3.5,0.8-3.5,2c0,0.9,0.7,1.5,1.8,1.5
					c1.9,0,3.2-1.3,3.3-2.4L716.4,299.8L716.4,299.8z"/>
				<path id="XMLID_8393_" class="st1" d="M723.2,304.6c0,0.2-0.1,0.3-0.3,0.3h-1.1c-0.2,0-0.3-0.1-0.3-0.3l0.1-13.6
					c0-0.2,0.1-0.3,0.3-0.3h1c0.2,0,0.3,0.1,0.3,0.3V304.6z"/>
				<path id="XMLID_8391_" class="st1" d="M728.5,304.6c0,0.2-0.1,0.3-0.3,0.3h-1.1c-0.2,0-0.3-0.1-0.3-0.3L727,291
					c0-0.2,0.1-0.3,0.3-0.3h1c0.2,0,0.3,0.1,0.3,0.3V304.6z"/>
				<path id="XMLID_8389_" class="st1" d="M737.5,296.3c0.7-1,1.8-1.7,3.1-1.7c1.9,0,3.1,1.3,3.2,3.6v6.3c0,0.2-0.1,0.3-0.3,0.3
					h-1.1c-0.2,0-0.3-0.1-0.3-0.3v-5.9c0-1.6-0.8-2.4-2-2.4c-1.4,0-2.5,1-2.7,3v5.4c0,0.2-0.1,0.3-0.3,0.3h-1.1
					c-0.2,0-0.3-0.1-0.3-0.3l0.1-13.6c0-0.2,0.1-0.3,0.3-0.3h1c0.2,0,0.3,0.1,0.3,0.3L737.5,296.3L737.5,296.3z"/>
				<path id="XMLID_8386_" class="st1" d="M754.5,297.9l0.1,6.6c0,0.2-0.1,0.3-0.3,0.3h-1.1c-0.2,0-0.3-0.1-0.3-0.3v-1.3h-0.1
					c-0.7,1-1.9,1.8-3.5,1.8c-1.8,0-3.1-1-3.1-2.8c0-2.1,1.6-3,5.3-3.4c0.9-0.1,1.4-0.4,1.4-1.1c0-1-0.8-1.8-2.3-1.8
					c-1.2,0-2,0.5-2.3,1.4c-0.1,0.2-0.2,0.2-0.3,0.2h-1c-0.2,0-0.3-0.1-0.3-0.3c0.4-1.7,1.8-2.8,4-2.8
					C753,294.4,754.5,295.8,754.5,297.9z M752.8,299.8c-0.3,0.2-0.8,0.3-1.5,0.3c-2.3,0.3-3.5,0.8-3.5,2c0,0.9,0.7,1.5,1.8,1.5
					c1.9,0,3.2-1.3,3.3-2.4L752.8,299.8L752.8,299.8z"/>
				<path id="XMLID_8383_" class="st1" d="M766,304.6c0,0.2-0.1,0.3-0.3,0.3h-1.1c-0.2,0-0.3-0.1-0.3-0.3v-1.1h-0.1
					c-0.7,1.1-1.9,1.7-3.2,1.7c-2.5,0-4.2-2.2-4.2-5.2c0-3.2,1.9-5.4,4.7-5.4c1.2,0,2.1,0.4,2.8,1.2h0.1v-4.8c0-0.2,0.1-0.3,0.3-0.3
					h1c0.2,0,0.3,0.1,0.3,0.3V304.6z M758.5,299.8c0,2.4,1.2,3.8,3,3.8c1.5,0,2.8-1.1,3-3.2v-1.3c-0.2-2.1-1.5-3.1-3-3.1
					C759.5,295.9,758.5,297.4,758.5,299.8z"/>
				<path id="XMLID_8381_" class="st1" d="M490.1,317.3c0.1,0.2,0,0.3-0.2,0.3h-1c-0.2,0-0.3-0.1-0.4-0.2c-0.9-1.6-2.3-2.5-4.1-2.5
					c-2.7,0-4.7,2-4.7,5.5s2,5.8,4.9,5.8c2,0,3.3-1,4-2.7c0.1-0.2,0.2-0.2,0.3-0.2h1c0.2,0,0.3,0.1,0.2,0.3
					c-0.7,2.1-2.7,4.1-5.8,4.1c-3.8,0-6.4-3-6.4-7.1c0-4.3,2.8-7.2,6.5-7.2C487.1,313.6,489.2,314.9,490.1,317.3z"/>
				<path id="XMLID_8379_" class="st1" d="M494.5,319.1c0.7-1,1.8-1.7,3.1-1.7c1.9,0,3.1,1.3,3.2,3.6v6.3c0,0.2-0.1,0.3-0.3,0.3
					h-1.1c-0.2,0-0.3-0.1-0.3-0.3v-5.9c0-1.6-0.8-2.4-2-2.4c-1.4,0-2.5,1-2.7,3v5.4c0,0.2-0.1,0.3-0.3,0.3H493
					c-0.2,0-0.3-0.1-0.3-0.3l0.1-13.6c0-0.2,0.1-0.3,0.3-0.3h1c0.2,0,0.3,0.1,0.3,0.3L494.5,319.1L494.5,319.1z"/>
				<path id="XMLID_8376_" class="st1" d="M512.5,322.4c0,3.1-2.1,5.4-4.8,5.4c-2.7,0-4.7-2.2-4.7-5.2c0-3.2,2.1-5.3,4.8-5.3
					C510.6,317.3,512.5,319.3,512.5,322.4z M504.7,322.4c0,2.4,1.4,3.9,3.2,3.9c1.8,0,3-1.5,3-3.7c0-2.4-1.4-3.9-3.2-3.9
					S504.7,320.2,504.7,322.4z"/>
				<path id="XMLID_8374_" class="st1" d="M523,320.2c0.1,0.2-0.1,0.3-0.3,0.3h-1c-0.2,0-0.3-0.1-0.4-0.2c-0.5-1-1.3-1.5-2.5-1.5
					c-1.9,0-3,1.3-3,3.9c0,2.5,1.1,3.7,3.1,3.7c1.3,0,2-0.6,2.4-1.4c0.1-0.2,0.2-0.2,0.4-0.2h1c0.2,0,0.3,0.1,0.2,0.3
					c-0.5,1.4-1.9,2.8-4.1,2.8c-2.8,0-4.6-2.1-4.6-5.2c0-3.3,1.9-5.4,4.6-5.4C521,317.3,522.5,318.7,523,320.2z"/>
				<path id="XMLID_8371_" class="st1" d="M533.9,322.4c0,3.1-2.1,5.4-4.8,5.4s-4.7-2.2-4.7-5.2c0-3.2,2.1-5.3,4.8-5.3
					C531.9,317.3,533.9,319.3,533.9,322.4z M526,322.4c0,2.4,1.4,3.9,3.2,3.9s3-1.5,3-3.7c0-2.4-1.4-3.9-3.2-3.9
					C527.3,318.8,526,320.2,526,322.4z"/>
				<path id="XMLID_8369_" class="st1" d="M538.3,327.3c0,0.2-0.1,0.3-0.3,0.3h-1.1c-0.2,0-0.3-0.1-0.3-0.3l0.1-13.6
					c0-0.2,0.1-0.3,0.3-0.3h1c0.2,0,0.3,0.1,0.3,0.3V327.3z"/>
				<path id="XMLID_8366_" class="st1" d="M549.3,320.8l0.1,6.6c0,0.2-0.1,0.3-0.3,0.3H548c-0.2,0-0.3-0.1-0.3-0.3V326h-0.1
					c-0.7,1-1.9,1.8-3.5,1.8c-1.8,0-3.1-1-3.1-2.8c0-2.1,1.6-3,5.3-3.4c0.9-0.1,1.4-0.4,1.4-1.1c0-1-0.8-1.8-2.3-1.8
					c-1.2,0-2,0.5-2.3,1.4c-0.1,0.2-0.2,0.2-0.3,0.2h-1c-0.2,0-0.3-0.1-0.3-0.3c0.4-1.7,1.8-2.8,4-2.8
					C547.9,317.3,549.3,318.6,549.3,320.8z M547.5,322.6c-0.3,0.2-0.8,0.3-1.5,0.3c-2.3,0.3-3.5,0.8-3.5,2c0,0.9,0.7,1.5,1.8,1.5
					c1.9,0,3.2-1.3,3.3-2.4L547.5,322.6L547.5,322.6z"/>
				<path id="XMLID_8364_" class="st1" d="M557,318.7c0,0.2-0.1,0.3-0.3,0.3h-1.8v8.4c0,0.2-0.1,0.3-0.3,0.3h-1.1
					c-0.2,0-0.3-0.1-0.3-0.3V319h-1.5c-0.2,0-0.3-0.1-0.3-0.3v-0.8c0-0.2,0.1-0.3,0.3-0.3h1.5v-3.6c0-0.2,0.1-0.3,0.3-0.3h1
					c0.2,0,0.3,0.1,0.3,0.3v3.6h1.9c0.2,0,0.3,0.1,0.3,0.3L557,318.7L557,318.7z"/>
				<path id="XMLID_8361_" class="st1" d="M567.4,322.4c0,0.2-0.1,0.3-0.3,0.3H560c0,2.2,1.2,3.6,3.1,3.6c1.1,0,1.9-0.4,2.4-1.3
					c0.1-0.2,0.2-0.2,0.4-0.2h1c0.2,0,0.3,0.2,0.2,0.4c-0.8,1.7-2.3,2.7-4.1,2.7c-2.8,0-4.7-2.1-4.7-5.2c0-3.2,2-5.3,4.8-5.3
					C566,317.3,567.5,319.7,567.4,322.4z M560,321.4h5.6c-0.1-1.5-1-2.7-2.8-2.7C561.2,318.8,560.3,319.9,560,321.4z"/>
				<path id="XMLID_8359_" class="st1" d="M575.3,319.6h5.9c0.2,0,0.3,0.1,0.3,0.3v0.9c0,0.2-0.1,0.3-0.3,0.3h-5.9v6.2
					c0,0.2-0.1,0.3-0.3,0.3h-1.2c-0.2,0-0.3-0.1-0.3-0.3l0.1-13.2c0-0.2,0.1-0.3,0.3-0.3h8.2c0.2,0,0.3,0.1,0.3,0.3v0.9
					c0,0.2-0.1,0.3-0.3,0.3h-6.9L575.3,319.6z"/>
				<path id="XMLID_8357_" class="st1" d="M589.9,318.8c0,0.2-0.1,0.3-0.3,0.3c-1.7,0.1-2.9,0.7-3.1,3v5.2c0,0.2-0.1,0.3-0.3,0.3
					h-1.1c-0.2,0-0.3-0.1-0.3-0.3l0.1-9.5c0-0.2,0.1-0.3,0.3-0.3h1c0.2,0,0.3,0.1,0.3,0.3v1.3h0.1c0.7-1,1.7-1.7,3-1.8
					c0.2,0,0.3,0.1,0.3,0.3V318.8z"/>
				<path id="XMLID_8354_" class="st1" d="M600.5,322.4c0,3.1-2.1,5.4-4.8,5.4s-4.7-2.2-4.7-5.2c0-3.2,2.1-5.3,4.8-5.3
					C598.7,317.3,600.5,319.3,600.5,322.4z M592.8,322.4c0,2.4,1.4,3.9,3.2,3.9s3-1.5,3-3.7c0-2.4-1.4-3.9-3.2-3.9
					S592.8,320.2,592.8,322.4z"/>
				<path id="XMLID_8351_" class="st1" d="M609.8,318.9L609.8,318.9l0.1-1.2c0-0.2,0.1-0.3,0.3-0.3h1c0.2,0,0.3,0.1,0.3,0.3l0.1,8.5
					c0,3.8-1.8,5.7-4.6,5.7c-2,0-3.3-0.9-4-2.5c-0.1-0.2,0-0.4,0.2-0.4h1c0.2,0,0.3,0.1,0.4,0.2c0.5,0.7,1.3,1.2,2.4,1.2
					c1.8,0,2.9-1,2.8-3.7v-0.5h-0.1c-0.7,0.9-1.6,1.3-2.8,1.3c-2.8,0-4.7-2-4.7-5.2c0-2.9,1.7-5.1,4.2-5.1
					C607.9,317.3,609,317.8,609.8,318.9z M604,322.6c0,2.2,1.1,3.5,3,3.5c1.6,0,2.8-0.9,3-2.8v-1.3c-0.2-2.1-1.5-3.3-3-3.3
					C605.2,318.8,604,320.3,604,322.6z"/>
				<path id="XMLID_8349_" class="st1" d="M621.9,319.8c0.1,0.2,0,0.3-0.2,0.3h-1c-0.2,0-0.3-0.1-0.4-0.2c-0.5-0.7-1.2-1.2-2.4-1.2
					s-2,0.6-2,1.4s0.8,1.1,2.2,1.5l0.8,0.2c2.3,0.7,3.2,1.6,3.2,2.9c0,1.9-1.5,3-3.9,3c-2.3,0-3.7-1.2-4.3-2.8
					c-0.1-0.2,0-0.3,0.2-0.3h1.1c0.2,0,0.3,0.1,0.4,0.2c0.5,1,1.4,1.4,2.6,1.4c1.2,0,2.1-0.4,2.1-1.4c0-0.8-0.7-1.3-2.3-1.7
					l-0.8-0.2c-1.8-0.5-3.1-1.2-3.1-2.8c0-1.7,1.6-2.9,3.7-2.9C620.3,317.3,621.5,318.7,621.9,319.8z"/>
				<path id="XMLID_8347_" class="st1" d="M636.5,320.2c0.1,0.2-0.1,0.3-0.3,0.3h-1c-0.2,0-0.3-0.1-0.4-0.2c-0.5-1-1.3-1.5-2.5-1.5
					c-1.9,0-3,1.3-3,3.9c0,2.5,1.1,3.7,3.1,3.7c1.3,0,2-0.6,2.4-1.4c0.1-0.2,0.2-0.2,0.4-0.2h1c0.2,0,0.3,0.1,0.2,0.3
					c-0.5,1.4-1.9,2.8-4.1,2.8c-2.8,0-4.6-2.1-4.6-5.2c0-3.3,1.9-5.4,4.6-5.4C634.5,317.3,636,318.7,636.5,320.2z"/>
				<path id="XMLID_8344_" class="st1" d="M646.2,320.8l0.1,6.6c0,0.2-0.1,0.3-0.3,0.3h-1.1c-0.2,0-0.3-0.1-0.3-0.3V326h-0.1
					c-0.7,1-1.9,1.8-3.5,1.8c-1.8,0-3.1-1-3.1-2.8c0-2.1,1.6-3,5.3-3.4c0.9-0.1,1.4-0.4,1.4-1.1c0-1-0.8-1.8-2.3-1.8
					c-1.2,0-2,0.5-2.3,1.4c-0.1,0.2-0.2,0.2-0.3,0.2h-1c-0.2,0-0.3-0.1-0.3-0.3c0.4-1.7,1.8-2.8,4-2.8
					C644.7,317.3,646.2,318.6,646.2,320.8z M644.4,322.6c-0.3,0.2-0.8,0.3-1.5,0.3c-2.3,0.3-3.5,0.8-3.5,2c0,0.9,0.7,1.5,1.8,1.5
					c1.9,0,3.2-1.3,3.3-2.4L644.4,322.6L644.4,322.6z"/>
				<path id="XMLID_8342_" class="st1" d="M654.2,318.8c0,0.2-0.1,0.3-0.3,0.3c-1.7,0.1-2.9,0.7-3.1,3v5.2c0,0.2-0.1,0.3-0.3,0.3
					h-1.1c-0.2,0-0.3-0.1-0.3-0.3l0.1-9.5c0-0.2,0.1-0.3,0.3-0.3h1c0.2,0,0.3,0.1,0.3,0.3v1.3h0.1c0.7-1,1.7-1.7,3-1.8
					c0.2,0,0.3,0.1,0.3,0.3V318.8z"/>
				<path id="XMLID_8339_" class="st1" d="M664.7,327.3c0,0.2-0.1,0.3-0.3,0.3h-1.1c-0.2,0-0.3-0.1-0.3-0.3v-1.1h-0.1
					c-0.7,1.1-1.9,1.7-3.2,1.7c-2.5,0-4.2-2.2-4.2-5.2c0-3.2,1.9-5.4,4.7-5.4c1.2,0,2.1,0.4,2.8,1.2h0.1v-4.8c0-0.2,0.1-0.3,0.3-0.3
					h1c0.2,0,0.3,0.1,0.3,0.3V327.3z M657,322.6c0,2.4,1.2,3.8,3,3.8c1.5,0,2.8-1.1,3-3.2v-1.3c-0.2-2.1-1.5-3.1-3-3.1
					C658.2,318.8,657,320.3,657,322.6z"/>
				<path id="XMLID_8337_" class="st1" d="M674.9,319.8c0.1,0.2,0,0.3-0.2,0.3h-1c-0.2,0-0.3-0.1-0.4-0.2c-0.5-0.7-1.2-1.2-2.4-1.2
					s-2,0.6-2,1.4s0.8,1.1,2.2,1.5l0.8,0.2c2.3,0.7,3.2,1.6,3.2,2.9c0,1.9-1.5,3-3.9,3c-2.3,0-3.7-1.2-4.3-2.8
					c-0.1-0.2,0-0.3,0.2-0.3h1.1c0.2,0,0.3,0.1,0.4,0.2c0.5,1,1.4,1.4,2.6,1.4c1.2,0,2.1-0.4,2.1-1.4c0-0.8-0.7-1.3-2.3-1.7
					l-0.8-0.2c-1.8-0.5-3.1-1.2-3.1-2.8c0-1.7,1.6-2.9,3.7-2.9C673.3,317.3,674.5,318.7,674.9,319.8z"/>
				<path id="XMLID_8334_" class="st1" d="M690,327.3c0,0.2-0.1,0.3-0.3,0.3h-1.1c-0.2,0-0.3-0.1-0.3-0.3v-1.1h-0.1
					c-0.7,1.1-1.9,1.7-3.2,1.7c-2.5,0-4.2-2.2-4.2-5.2c0-3.2,1.9-5.4,4.7-5.4c1.2,0,2.1,0.4,2.8,1.2h0.1v-4.8c0-0.2,0.1-0.3,0.3-0.3
					h1c0.2,0,0.3,0.1,0.3,0.3V327.3z M682.4,322.6c0,2.4,1.2,3.8,3,3.8c1.5,0,2.8-1.1,3-3.2v-1.3c-0.2-2.1-1.5-3.1-3-3.1
					C683.5,318.8,682.4,320.3,682.4,322.6z"/>
				<path id="XMLID_8331_" class="st1" d="M701.4,322.4c0,0.2-0.1,0.3-0.3,0.3H694c0,2.2,1.2,3.6,3.1,3.6c1.1,0,1.9-0.4,2.4-1.3
					c0.1-0.2,0.2-0.2,0.4-0.2h1c0.2,0,0.3,0.2,0.2,0.4c-0.8,1.7-2.3,2.7-4.1,2.7c-2.8,0-4.7-2.1-4.7-5.2c0-3.2,2-5.3,4.8-5.3
					C700,317.3,701.5,319.7,701.4,322.4z M694,321.4h5.6c-0.1-1.5-1-2.7-2.8-2.7C695.3,318.8,694.3,319.9,694,321.4z"/>
				<path id="XMLID_8328_" class="st1" d="M712.4,327.3c0,0.2-0.1,0.3-0.3,0.3H711c-0.2,0-0.3-0.1-0.3-0.3v-1.1h-0.1
					c-0.7,1.1-1.9,1.7-3.2,1.7c-2.5,0-4.2-2.2-4.2-5.2c0-3.2,1.9-5.4,4.7-5.4c1.2,0,2.1,0.4,2.8,1.2h0.1v-4.8c0-0.2,0.1-0.3,0.3-0.3
					h1c0.2,0,0.3,0.1,0.3,0.3L712.4,327.3L712.4,327.3z M704.7,322.6c0,2.4,1.2,3.8,3,3.8c1.5,0,2.8-1.1,3-3.2v-1.3
					c-0.2-2.1-1.5-3.1-3-3.1C705.9,318.8,704.7,320.3,704.7,322.6z"/>
				<path id="XMLID_8325_" class="st1" d="M717,327.3c0,0.2-0.1,0.3-0.3,0.3h-1.1c-0.2,0-0.3-0.1-0.3-0.3l0.1-9.5
					c0-0.2,0.1-0.3,0.3-0.3h1c0.2,0,0.3,0.1,0.3,0.3V327.3z M717,315.1c0,0.2-0.1,0.3-0.3,0.3h-1c-0.2,0-0.3-0.1-0.3-0.3v-1.3
					c0-0.2,0.1-0.3,0.3-0.3h1c0.2,0,0.3,0.1,0.3,0.3V315.1z"/>
				<path id="XMLID_8323_" class="st1" d="M728.3,320.2c0.1,0.2-0.1,0.3-0.3,0.3h-1c-0.2,0-0.3-0.1-0.4-0.2c-0.5-1-1.3-1.5-2.5-1.5
					c-1.9,0-3,1.3-3,3.9c0,2.5,1.1,3.7,3.1,3.7c1.3,0,2-0.6,2.4-1.4c0.1-0.2,0.2-0.2,0.4-0.2h1c0.2,0,0.3,0.1,0.2,0.3
					c-0.5,1.4-1.9,2.8-4.1,2.8c-2.8,0-4.6-2.1-4.6-5.2c0-3.3,1.9-5.4,4.6-5.4C726.4,317.3,727.9,318.7,728.3,320.2z"/>
				<path id="XMLID_8320_" class="st1" d="M738,320.8l0.1,6.6c0,0.2-0.1,0.3-0.3,0.3h-1.1c-0.2,0-0.3-0.1-0.3-0.3V326h-0.1
					c-0.7,1-1.9,1.8-3.5,1.8c-1.8,0-3.1-1-3.1-2.8c0-2.1,1.6-3,5.3-3.4c0.9-0.1,1.4-0.4,1.4-1.1c0-1-0.8-1.8-2.3-1.8
					c-1.2,0-2,0.5-2.3,1.4c-0.1,0.2-0.2,0.2-0.3,0.2h-1c-0.2,0-0.3-0.1-0.3-0.3c0.4-1.7,1.8-2.8,4-2.8
					C736.5,317.3,738,318.6,738,320.8z M736.3,322.6c-0.3,0.2-0.8,0.3-1.5,0.3c-2.3,0.3-3.5,0.8-3.5,2c0,0.9,0.7,1.5,1.8,1.5
					c1.9,0,3.2-1.3,3.3-2.4L736.3,322.6L736.3,322.6z"/>
				<path id="XMLID_8318_" class="st1" d="M745.7,318.7c0,0.2-0.1,0.3-0.3,0.3h-1.8v8.4c0,0.2-0.1,0.3-0.3,0.3h-1.1
					c-0.2,0-0.3-0.1-0.3-0.3V319h-1.5c-0.2,0-0.3-0.1-0.3-0.3v-0.8c0-0.2,0.1-0.3,0.3-0.3h1.5v-3.6c0-0.2,0.1-0.3,0.3-0.3h1
					c0.2,0,0.3,0.1,0.3,0.3v3.6h1.9c0.2,0,0.3,0.1,0.3,0.3L745.7,318.7L745.7,318.7z"/>
				<path id="XMLID_8315_" class="st1" d="M756,322.4c0,0.2-0.1,0.3-0.3,0.3h-7.1c0,2.2,1.2,3.6,3.1,3.6c1.1,0,1.9-0.4,2.4-1.3
					c0.1-0.2,0.2-0.2,0.4-0.2h1c0.2,0,0.3,0.2,0.2,0.4c-0.8,1.7-2.3,2.7-4.1,2.7c-2.8,0-4.7-2.1-4.7-5.2c0-3.2,2-5.3,4.8-5.3
					C754.7,317.3,756.2,319.7,756,322.4z M748.8,321.4h5.6c-0.1-1.5-1-2.7-2.8-2.7C750,318.8,749,319.9,748.8,321.4z"/>
				<path id="XMLID_8312_" class="st1" d="M767,327.3c0,0.2-0.1,0.3-0.3,0.3h-1.1c-0.2,0-0.3-0.1-0.3-0.3v-1.1h-0.1
					c-0.7,1.1-1.9,1.7-3.2,1.7c-2.5,0-4.2-2.2-4.2-5.2c0-3.2,1.9-5.4,4.7-5.4c1.2,0,2.1,0.4,2.8,1.2h0.1v-4.8c0-0.2,0.1-0.3,0.3-0.3
					h1c0.2,0,0.3,0.1,0.3,0.3V327.3z M759.4,322.6c0,2.4,1.2,3.8,3,3.8c1.5,0,2.8-1.1,3-3.2v-1.3c-0.2-2.1-1.5-3.1-3-3.1
					C760.5,318.8,759.4,320.3,759.4,322.6z"/>
				<path id="XMLID_8310_" class="st1" d="M492.9,341.4c0,0.2-0.1,0.3-0.3,0.3h-1.8v8.4c0,0.2-0.1,0.3-0.3,0.3h-1.1
					c-0.2,0-0.3-0.1-0.3-0.3v-8.4h-1.5c-0.2,0-0.3-0.1-0.3-0.3v-0.8c0-0.2,0.1-0.3,0.3-0.3h1.5v-3.6c0-0.2,0.1-0.3,0.3-0.3h1
					c0.2,0,0.3,0.1,0.3,0.3v3.6h1.9c0.2,0,0.3,0.1,0.3,0.3V341.4z"/>
				<path id="XMLID_8307_" class="st1" d="M503.7,345.3c0,3.1-2.1,5.4-4.8,5.4c-2.7,0-4.7-2.2-4.7-5.2c0-3.2,2.1-5.3,4.8-5.3
					C501.8,340.1,503.7,342.2,503.7,345.3z M495.9,345.3c0,2.4,1.4,3.9,3.2,3.9c1.8,0,3-1.5,3-3.7c0-2.4-1.4-3.9-3.2-3.9
					C497.1,341.6,495.9,342.9,495.9,345.3z"/>
				<path id="XMLID_8305_" class="st1" d="M514.7,341.4c0,0.2-0.1,0.3-0.3,0.3h-1.8v8.4c0,0.2-0.1,0.3-0.3,0.3h-1.1
					c-0.2,0-0.3-0.1-0.3-0.3v-8.4h-1.5c-0.2,0-0.3-0.1-0.3-0.3v-0.8c0-0.2,0.1-0.3,0.3-0.3h1.5v-3.6c0-0.2,0.1-0.3,0.3-0.3h1
					c0.2,0,0.3,0.1,0.3,0.3v3.6h1.9c0.2,0,0.3,0.1,0.3,0.3L514.7,341.4L514.7,341.4z"/>
				<path id="XMLID_8303_" class="st1" d="M518.4,341.8c0.7-1,1.8-1.7,3.1-1.7c1.9,0,3.1,1.3,3.2,3.6v6.3c0,0.2-0.1,0.3-0.3,0.3
					h-1.1c-0.2,0-0.3-0.1-0.3-0.3v-5.9c0-1.6-0.8-2.4-2-2.4c-1.4,0-2.5,1-2.7,3v5.4c0,0.2-0.1,0.3-0.3,0.3h-1.1
					c-0.2,0-0.3-0.1-0.3-0.3l0.1-13.6c0-0.2,0.1-0.3,0.3-0.3h1c0.2,0,0.3,0.1,0.3,0.3L518.4,341.8L518.4,341.8z"/>
				<path id="XMLID_8300_" class="st1" d="M536,345.3c0,0.2-0.1,0.3-0.3,0.3h-7.1c0,2.2,1.2,3.6,3.1,3.6c1.1,0,1.9-0.4,2.4-1.3
					c0.1-0.2,0.2-0.2,0.4-0.2h1c0.2,0,0.3,0.2,0.2,0.4c-0.8,1.7-2.3,2.7-4.1,2.7c-2.8,0-4.7-2.1-4.7-5.2c0-3.2,2-5.3,4.8-5.3
					C534.7,340.2,536.2,342.4,536,345.3z M528.8,344.3h5.6c-0.1-1.5-1-2.7-2.8-2.7C530,341.6,529,342.8,528.8,344.3z"/>
				<path id="XMLID_8298_" class="st1" d="M552,343.8v6.3c0,0.2-0.1,0.3-0.3,0.3h-1.1c-0.2,0-0.3-0.1-0.3-0.3v-5.9
					c0-1.7-0.7-2.5-1.8-2.5c-1.3,0-2.4,1-2.5,3.1v5.3c0,0.2-0.1,0.3-0.3,0.3h-1.1c-0.2,0-0.3-0.1-0.3-0.3v-5.9
					c0-1.7-0.7-2.5-1.8-2.5c-1.3,0-2.4,0.9-2.6,3.1v5.4c0,0.2-0.1,0.3-0.3,0.3h-1.1c-0.2,0-0.3-0.1-0.3-0.3l0.1-9.5
					c0-0.2,0.1-0.3,0.3-0.3h1c0.2,0,0.3,0.1,0.3,0.3v1.2h0.1c0.8-1,1.8-1.7,3.1-1.7s2.2,0.6,2.6,1.9h0.1c0.8-1.2,1.8-1.9,3.2-1.9
					C550.9,340.1,552,341.3,552,343.8z"/>
				<path id="XMLID_8296_" class="st1" d="M557,350.1c0,0.2-0.1,0.3-0.3,0.3h-1.3c-0.2,0-0.3-0.1-0.3-0.3v-1.4
					c0-0.2,0.1-0.3,0.3-0.3h1.3c0.2,0,0.3,0.1,0.3,0.3V350.1z"/>
				<path id="XMLID_8294_" class="st1" d="M573,348.8c0.2,0,0.3,0.1,0.3,0.3v0.9c0,0.2-0.1,0.3-0.3,0.3h-8.5c-0.2,0-0.3-0.1-0.3-0.3
					l0.1-13.2c0-0.2,0.1-0.3,0.3-0.3h1c0.2,0,0.3,0.1,0.3,0.3l0.1,12L573,348.8L573,348.8z"/>
				<path id="XMLID_8291_" class="st1" d="M577.3,350.2c0,0.2-0.1,0.3-0.3,0.3h-1.1c-0.2,0-0.3-0.1-0.3-0.3l0.1-9.5
					c0-0.2,0.1-0.3,0.3-0.3h1c0.2,0,0.3,0.1,0.3,0.3V350.2z M577.3,337.8c0,0.2-0.1,0.3-0.3,0.3h-1c-0.2,0-0.3-0.1-0.3-0.3v-1.3
					c0-0.2,0.1-0.3,0.3-0.3h1c0.2,0,0.3,0.1,0.3,0.3V337.8z"/>
				<path id="XMLID_8289_" class="st1" d="M582,346.7v3.5c0,0.2-0.1,0.3-0.3,0.3h-1.1c-0.2,0-0.3-0.1-0.3-0.3l0.1-13.6
					c0-0.2,0.1-0.3,0.3-0.3h1c0.2,0,0.3,0.1,0.3,0.3v8.3l4.6-4.4c0.1-0.1,0.2-0.2,0.4-0.2h1.2c0.3,0,0.4,0.2,0.2,0.4l-3.9,3.7
					l4.2,5.6c0.2,0.2,0.1,0.4-0.2,0.4h-1.3c-0.2,0-0.3-0.1-0.4-0.2l-3.4-4.8L582,346.7z"/>
				<path id="XMLID_8286_" class="st1" d="M599.5,345.3c0,0.2-0.1,0.3-0.3,0.3h-7.1c0,2.2,1.2,3.6,3.1,3.6c1.1,0,1.9-0.4,2.4-1.3
					c0.1-0.2,0.2-0.2,0.4-0.2h1c0.2,0,0.3,0.2,0.2,0.4c-0.8,1.7-2.3,2.7-4.1,2.7c-2.8,0-4.7-2.1-4.7-5.2c0-3.2,2-5.3,4.8-5.3
					C598.2,340.2,599.7,342.4,599.5,345.3z M592.3,344.3h5.6c-0.1-1.5-1-2.7-2.8-2.7C593.5,341.6,592.5,342.8,592.3,344.3z"/>
				<path id="XMLID_8283_" class="st1" d="M610.7,336.6c4.3,0,6.6,2.7,6.6,6.7c0,4.1-2.3,7.1-6.6,7.1h-4.6c-0.2,0-0.3-0.1-0.3-0.3
					l0.1-13.2c0-0.2,0.1-0.3,0.3-0.3L610.7,336.6L610.7,336.6z M610.5,348.9c3.1,0,5-2.1,5-5.4c0-3.4-1.9-5.4-5-5.4h-3.1l0.1,10.8
					H610.5L610.5,348.9z"/>
				<path id="XMLID_8281_" class="st1" d="M627.7,350.2c0,0.2-0.1,0.3-0.3,0.3h-1.1c-0.2,0-0.3-0.1-0.3-0.3V349h-0.1
					c-0.7,1.1-1.8,1.7-3.1,1.7c-1.9,0-3.2-1.3-3.2-3.8v-6.2c0-0.2,0.1-0.3,0.3-0.3h1c0.2,0,0.3,0.1,0.3,0.3v5.8c0,1.8,0.8,2.6,2,2.6
					c1.4,0,2.5-1,2.7-3.1v-5.4c0-0.2,0.1-0.3,0.3-0.3h1c0.2,0,0.3,0.1,0.3,0.3L627.7,350.2z"/>
				<path id="XMLID_8279_" class="st1" d="M644.2,343.8v6.3c0,0.2-0.1,0.3-0.3,0.3h-1.1c-0.2,0-0.3-0.1-0.3-0.3v-5.9
					c0-1.7-0.7-2.5-1.8-2.5c-1.3,0-2.4,1-2.5,3.1v5.3c0,0.2-0.1,0.3-0.3,0.3h-1.1c-0.2,0-0.3-0.1-0.3-0.3v-5.9
					c0-1.7-0.7-2.5-1.8-2.5c-1.3,0-2.4,0.9-2.6,3.1v5.4c0,0.2-0.1,0.3-0.3,0.3h-1.1c-0.2,0-0.3-0.1-0.3-0.3l0.1-9.5
					c0-0.2,0.1-0.3,0.3-0.3h1c0.2,0,0.3,0.1,0.3,0.3v1.2h0.1c0.8-1,1.8-1.7,3.1-1.7s2.2,0.6,2.6,1.9h0.1c0.8-1.2,1.8-1.9,3.2-1.9
					C643,340.1,644.2,341.3,644.2,343.8z"/>
				<path id="XMLID_8276_" class="st1" d="M648.7,341.3c0.7-0.8,1.7-1.2,2.8-1.2c2.8,0,4.7,2.1,4.7,5.4c0,3-1.7,5.2-4.2,5.2
					c-1.3,0-2.5-0.6-3.2-1.7h-0.1v1.1c0,0.2-0.1,0.3-0.3,0.3h-1.1c-0.2,0-0.3-0.1-0.3-0.3l0.1-13.6c0-0.2,0.1-0.3,0.3-0.3h1
					c0.2,0,0.3,0.1,0.3,0.3V341.3L648.7,341.3z M648.5,344.8v1.3c0.2,2.1,1.5,3.2,3,3.2c1.9,0,3-1.5,3-3.7c0-2.5-1.2-3.9-3-3.9
					C650,341.6,648.7,342.7,648.5,344.8z"/>
				<path id="XMLID_8274_" class="st1" d="M660.7,350.2c0,0.2-0.1,0.3-0.3,0.3h-1.1c-0.2,0-0.3-0.1-0.3-0.3l0.1-13.6
					c0-0.2,0.1-0.3,0.3-0.3h1c0.2,0,0.3,0.1,0.3,0.3V350.2z"/>
				<path id="XMLID_8271_" class="st1" d="M672.4,345.3c0,0.2-0.1,0.3-0.3,0.3H665c0,2.2,1.2,3.6,3.1,3.6c1.1,0,1.9-0.4,2.4-1.3
					c0.1-0.2,0.2-0.2,0.4-0.2h1c0.2,0,0.3,0.2,0.2,0.4c-0.8,1.7-2.3,2.7-4.1,2.7c-2.8,0-4.7-2.1-4.7-5.2c0-3.2,2-5.3,4.8-5.3
					C671,340.2,672.5,342.4,672.4,345.3z M665,344.3h5.6c-0.1-1.5-1-2.7-2.8-2.7C666.3,341.6,665.4,342.8,665,344.3z"/>
				<path id="XMLID_8268_" class="st1" d="M683.4,350.2c0,0.2-0.1,0.3-0.3,0.3H682c-0.2,0-0.3-0.1-0.3-0.3v-1.1h-0.1
					c-0.7,1.1-1.9,1.7-3.2,1.7c-2.5,0-4.2-2.2-4.2-5.2c0-3.2,1.9-5.4,4.7-5.4c1.2,0,2.1,0.4,2.8,1.2h0.1v-4.8c0-0.2,0.1-0.3,0.3-0.3
					h1c0.2,0,0.3,0.1,0.3,0.3L683.4,350.2z M675.8,345.3c0,2.4,1.2,3.8,3,3.8c1.5,0,2.8-1.1,3-3.2v-1.3c-0.2-2.1-1.5-3.1-3-3.1
					C676.9,341.6,675.8,343.1,675.8,345.3z"/>
				<path id="XMLID_8265_" class="st1" d="M695.2,345.3c0,3.1-2.1,5.4-4.8,5.4s-4.7-2.2-4.7-5.2c0-3.2,2.1-5.3,4.8-5.3
					C693.2,340.1,695.2,342.2,695.2,345.3z M687.3,345.3c0,2.4,1.4,3.9,3.2,3.9s3-1.5,3-3.7c0-2.4-1.4-3.9-3.2-3.9
					C688.5,341.6,687.3,342.9,687.3,345.3z"/>
				<path id="XMLID_8263_" class="st1" d="M702.5,341.6c0,0.2-0.1,0.3-0.3,0.3c-1.7,0.1-2.9,0.7-3.1,3v5.2c0,0.2-0.1,0.3-0.3,0.3
					h-1.1c-0.2,0-0.3-0.1-0.3-0.3l0.1-9.5c0-0.2,0.1-0.3,0.3-0.3h1c0.2,0,0.3,0.1,0.3,0.3v1.3h0.1c0.7-1,1.7-1.7,3-1.8
					c0.2,0,0.3,0.1,0.3,0.3V341.6z"/>
				<path id="XMLID_8260_" class="st1" d="M712.9,345.3c0,0.2-0.1,0.3-0.3,0.3h-7.1c0,2.2,1.2,3.6,3.1,3.6c1.1,0,1.9-0.4,2.4-1.3
					c0.1-0.2,0.2-0.2,0.4-0.2h1c0.2,0,0.3,0.2,0.2,0.4c-0.8,1.7-2.3,2.7-4.1,2.7c-2.8,0-4.7-2.1-4.7-5.2c0-3.2,2-5.3,4.8-5.3
					C711.5,340.2,713,342.4,712.9,345.3z M705.5,344.3h5.6c-0.1-1.5-1-2.7-2.8-2.7C706.8,341.6,705.8,342.8,705.5,344.3z"/>
				<path id="XMLID_8258_" class="st1" d="M718,349.8c0,1.7-0.4,2.6-1.2,3.5c-0.1,0.1-0.3,0.2-0.4,0.1l-0.1-0.1
					c-0.2-0.1-0.2-0.2-0.1-0.4c0.6-1,0.8-1.9,0.1-2.4c-0.1-0.1-0.2-0.2-0.2-0.4v-1.5c0-0.2,0.1-0.3,0.3-0.3h1.3
					c0.2,0,0.3,0.1,0.3,0.3L718,349.8L718,349.8z"/>
				<path id="XMLID_8255_" class="st1" d="M727.3,344.3v5.8c0,0.2-0.1,0.3-0.3,0.3h-1.2c-0.2,0-0.3-0.1-0.3-0.3l0.1-13.2
					c0-0.2,0.1-0.3,0.3-0.3h5.3c2.7,0,4.4,1.6,4.4,3.8c0,2-1.3,3.5-3.6,3.9l4.1,5.8c0.2,0.2,0.1,0.4-0.2,0.4h-1.4
					c-0.2,0-0.3-0.1-0.4-0.2l-4-5.9h-2.8L727.3,344.3L727.3,344.3z M730.9,342.8c2,0,2.9-0.9,2.9-2.3c0-1.5-1.1-2.4-2.9-2.4h-3.7
					v4.7L730.9,342.8L730.9,342.8z"/>
				<path id="XMLID_8252_" class="st1" d="M747,345.3c0,3.1-2.1,5.4-4.8,5.4s-4.7-2.2-4.7-5.2c0-3.2,2.1-5.3,4.8-5.3
					C745,340.1,747,342.2,747,345.3z M739,345.3c0,2.4,1.4,3.9,3.2,3.9s3-1.5,3-3.7c0-2.4-1.4-3.9-3.2-3.9S739,342.9,739,345.3z"/>
				<path id="XMLID_8250_" class="st1" d="M757.4,343.8v6.3c0,0.2-0.1,0.3-0.3,0.3H756c-0.2,0-0.3-0.1-0.3-0.3v-5.9
					c0-1.7-0.8-2.5-2.1-2.5c-1.4,0-2.5,1-2.7,3.1v5.4c0,0.2-0.1,0.3-0.3,0.3h-1.1c-0.2,0-0.3-0.1-0.3-0.3l0.1-9.5
					c0-0.2,0.1-0.3,0.3-0.3h1c0.2,0,0.3,0.1,0.3,0.3v1.2h0.1c0.8-1.1,1.8-1.7,3.2-1.7C756.2,340.1,757.4,341.4,757.4,343.8z"/>
				<path id="XMLID_8248_" class="st1" d="M491.9,365.8c0.1,0.2-0.1,0.3-0.3,0.3h-1c-0.2,0-0.3-0.1-0.4-0.2c-0.5-1-1.3-1.5-2.5-1.5
					c-1.9,0-3,1.3-3,3.9c0,2.5,1.1,3.7,3.1,3.7c1.3,0,2-0.6,2.4-1.4c0.1-0.2,0.2-0.2,0.4-0.2h1c0.2,0,0.3,0.1,0.2,0.3
					c-0.5,1.4-1.9,2.8-4.1,2.8c-2.8,0-4.6-2.1-4.6-5.2c0-3.3,1.9-5.4,4.6-5.4C490,362.8,491.5,364.3,491.9,365.8z"/>
				<path id="XMLID_8245_" class="st1" d="M502.8,368.1c0,3.1-2.1,5.4-4.8,5.4c-2.7,0-4.7-2.2-4.7-5.2c0-3.2,2.1-5.3,4.8-5.3
					C500.8,362.8,502.8,364.9,502.8,368.1z M494.9,368.1c0,2.4,1.4,3.9,3.2,3.9c1.8,0,3-1.5,3-3.7c0-2.4-1.4-3.9-3.2-3.9
					C496.2,364.3,494.9,365.8,494.9,368.1z"/>
				<path id="XMLID_8243_" class="st1" d="M513.3,366.6v6.3c0,0.2-0.1,0.3-0.3,0.3h-1.1c-0.2,0-0.3-0.1-0.3-0.3V367
					c0-1.7-0.8-2.5-2.1-2.5c-1.4,0-2.5,1-2.7,3.1v5.4c0,0.2-0.1,0.3-0.3,0.3h-1.1c-0.2,0-0.3-0.1-0.3-0.3l0.1-9.5
					c0-0.2,0.1-0.3,0.3-0.3h1c0.2,0,0.3,0.1,0.3,0.3v1.2h0.1c0.8-1.1,1.8-1.7,3.2-1.7C512,362.8,513.3,364.3,513.3,366.6z"/>
				<path id="XMLID_8241_" class="st1" d="M523.5,365.3c0.1,0.2,0,0.3-0.2,0.3h-1c-0.2,0-0.3-0.1-0.4-0.2c-0.5-0.7-1.2-1.2-2.4-1.2
					s-2,0.6-2,1.4s0.8,1.1,2.2,1.5l0.8,0.2c2.3,0.7,3.2,1.6,3.2,2.9c0,1.9-1.5,3-3.9,3c-2.3,0-3.7-1.2-4.3-2.8
					c-0.1-0.2,0-0.3,0.2-0.3h1.1c0.2,0,0.3,0.1,0.4,0.2c0.5,1,1.4,1.4,2.6,1.4s2.1-0.4,2.1-1.4c0-0.8-0.7-1.3-2.3-1.7l-0.8-0.2
					c-1.8-0.5-3.1-1.2-3.1-2.8c0-1.7,1.6-2.9,3.7-2.9C521.9,362.8,523,364.3,523.5,365.3z"/>
				<path id="XMLID_8238_" class="st1" d="M527.9,372.9c0,0.2-0.1,0.3-0.3,0.3h-1.1c-0.2,0-0.3-0.1-0.3-0.3l0.1-9.5
					c0-0.2,0.1-0.3,0.3-0.3h1c0.2,0,0.3,0.1,0.3,0.3V372.9z M527.8,360.7c0,0.2-0.1,0.3-0.3,0.3h-1c-0.2,0-0.3-0.1-0.3-0.3v-1.3
					c0-0.2,0.1-0.3,0.3-0.3h1c0.2,0,0.3,0.1,0.3,0.3V360.7z"/>
				<path id="XMLID_8235_" class="st1" d="M539.5,372.9c0,0.2-0.1,0.3-0.3,0.3h-1.1c-0.2,0-0.3-0.1-0.3-0.3v-1.1h-0.1
					c-0.7,1.1-1.9,1.7-3.2,1.7c-2.5,0-4.2-2.2-4.2-5.2c0-3.2,1.9-5.4,4.7-5.4c1.2,0,2.1,0.4,2.8,1.2h0.1v-4.8c0-0.2,0.1-0.3,0.3-0.3
					h1c0.2,0,0.3,0.1,0.3,0.3V372.9z M532,368.2c0,2.4,1.2,3.8,3,3.8c1.5,0,2.8-1.1,3-3.2v-1.3c-0.2-2.1-1.5-3.1-3-3.1
					C533,364.3,532,365.8,532,368.2z"/>
				<path id="XMLID_8232_" class="st1" d="M550.9,368.1c0,0.2-0.1,0.3-0.3,0.3h-7.1c0,2.2,1.2,3.6,3.1,3.6c1.1,0,1.9-0.4,2.4-1.3
					c0.1-0.2,0.2-0.2,0.4-0.2h1c0.2,0,0.3,0.2,0.2,0.4c-0.8,1.7-2.3,2.7-4.1,2.7c-2.8,0-4.7-2.1-4.7-5.2c0-3.2,2-5.3,4.8-5.3
					C549.5,362.9,551,365.3,550.9,368.1z M543.5,367.1h5.6c-0.1-1.5-1-2.7-2.8-2.7C544.8,364.3,543.9,365.6,543.5,367.1z"/>
				<path id="XMLID_8230_" class="st1" d="M558.3,364.3c0,0.2-0.1,0.3-0.3,0.3c-1.7,0.1-2.9,0.7-3.1,3v5.2c0,0.2-0.1,0.3-0.3,0.3
					h-1.1c-0.2,0-0.3-0.1-0.3-0.3l0.1-9.5c0-0.2,0.1-0.3,0.3-0.3h1c0.2,0,0.3,0.1,0.3,0.3v1.3h0.1c0.7-1,1.7-1.7,3-1.8
					c0.2,0,0.3,0.1,0.3,0.3V364.3z"/>
				<path id="XMLID_8228_" class="st1" d="M567.5,365.3c0.1,0.2,0,0.3-0.2,0.3h-1c-0.2,0-0.3-0.1-0.4-0.2c-0.5-0.7-1.2-1.2-2.4-1.2
					s-2,0.6-2,1.4s0.8,1.1,2.2,1.5l0.8,0.2c2.3,0.7,3.2,1.6,3.2,2.9c0,1.9-1.5,3-3.9,3c-2.3,0-3.7-1.2-4.3-2.8
					c-0.1-0.2,0-0.3,0.2-0.3h1.1c0.2,0,0.3,0.1,0.4,0.2c0.5,1,1.4,1.4,2.6,1.4c1.2,0,2.1-0.4,2.1-1.4c0-0.8-0.7-1.3-2.3-1.7
					l-0.8-0.2c-1.8-0.5-3.1-1.2-3.1-2.8c0-1.7,1.6-2.9,3.7-2.9C566,362.8,567.2,364.3,567.5,365.3z"/>
				<path id="XMLID_8226_" class="st1" d="M578.8,364.3c0,0.2-0.1,0.3-0.3,0.3h-1.8v8.4c0,0.2-0.1,0.3-0.3,0.3h-1.1
					c-0.2,0-0.3-0.1-0.3-0.3v-8.4h-1.5c-0.2,0-0.3-0.1-0.3-0.3v-0.8c0-0.2,0.1-0.3,0.3-0.3h1.5v-3.6c0-0.2,0.1-0.3,0.3-0.3h1
					c0.2,0,0.3,0.1,0.3,0.3v3.6h1.9c0.2,0,0.3,0.1,0.3,0.3L578.8,364.3L578.8,364.3z"/>
				<path id="XMLID_8224_" class="st1" d="M582.5,364.7c0.7-1,1.8-1.7,3.1-1.7c1.9,0,3.1,1.3,3.2,3.6v6.3c0,0.2-0.1,0.3-0.3,0.3
					h-1.1c-0.2,0-0.3-0.1-0.3-0.3V367c0-1.6-0.8-2.4-2-2.4c-1.4,0-2.5,1-2.7,3v5.4c0,0.2-0.1,0.3-0.3,0.3H581
					c-0.2,0-0.3-0.1-0.3-0.3l0.1-13.6c0-0.2,0.1-0.3,0.3-0.3h1c0.2,0,0.3,0.1,0.3,0.3L582.5,364.7L582.5,364.7z"/>
				<path id="XMLID_8221_" class="st1" d="M593.5,372.9c0,0.2-0.1,0.3-0.3,0.3h-1.1c-0.2,0-0.3-0.1-0.3-0.3l0.1-9.5
					c0-0.2,0.1-0.3,0.3-0.3h1c0.2,0,0.3,0.1,0.3,0.3V372.9z M593.5,360.7c0,0.2-0.1,0.3-0.3,0.3h-1c-0.2,0-0.3-0.1-0.3-0.3v-1.3
					c0-0.2,0.1-0.3,0.3-0.3h1c0.2,0,0.3,0.1,0.3,0.3V360.7z"/>
				<path id="XMLID_8219_" class="st1" d="M604,365.3c0.1,0.2,0,0.3-0.2,0.3h-1c-0.2,0-0.3-0.1-0.4-0.2c-0.5-0.7-1.2-1.2-2.4-1.2
					s-2,0.6-2,1.4s0.8,1.1,2.2,1.5l0.8,0.2c2.3,0.7,3.2,1.6,3.2,2.9c0,1.9-1.5,3-3.9,3c-2.3,0-3.7-1.2-4.3-2.8
					c-0.1-0.2,0-0.3,0.2-0.3h1.1c0.2,0,0.3,0.1,0.4,0.2c0.5,1,1.4,1.4,2.6,1.4c1.2,0,2.1-0.4,2.1-1.4c0-0.8-0.7-1.3-2.3-1.7
					l-0.8-0.2c-1.8-0.5-3.1-1.2-3.1-2.8c0-1.7,1.6-2.9,3.7-2.9C602.4,362.8,603.5,364.3,604,365.3z"/>
				<path id="XMLID_8217_" class="st1" d="M615,364.3c0,0.2-0.1,0.3-0.3,0.3H613v8.4c0,0.2-0.1,0.3-0.3,0.3h-1.1
					c-0.2,0-0.3-0.1-0.3-0.3v-8.4h-1.5c-0.2,0-0.3-0.1-0.3-0.3v-0.8c0-0.2,0.1-0.3,0.3-0.3h1.5v-3.6c0-0.2,0.1-0.3,0.3-0.3h1
					c0.2,0,0.3,0.1,0.3,0.3v3.6h1.9c0.2,0,0.3,0.1,0.3,0.3L615,364.3L615,364.3z"/>
				<path id="XMLID_8214_" class="st1" d="M625.9,368.1c0,3.1-2.1,5.4-4.8,5.4s-4.7-2.2-4.7-5.2c0-3.2,2.1-5.3,4.8-5.3
					C624,362.8,625.9,364.9,625.9,368.1z M618,368.1c0,2.4,1.4,3.9,3.2,3.9s3-1.5,3-3.7c0-2.4-1.4-3.9-3.2-3.9S618,365.8,618,368.1z
					"/>
				<path id="XMLID_8211_" class="st1" d="M633.9,364.2c0.7-0.8,1.7-1.2,2.8-1.2c2.8,0,4.7,2.1,4.7,5.4c0,3-1.7,5.2-4.2,5.2
					c-1.3,0-2.5-0.6-3.2-1.7h-0.1v1.1c0,0.2-0.1,0.3-0.3,0.3h-1.1c-0.2,0-0.3-0.1-0.3-0.3l0.1-13.6c0-0.2,0.1-0.3,0.3-0.3h1
					c0.2,0,0.3,0.1,0.3,0.3V364.2L633.9,364.2z M633.7,367.6v1.3c0.2,2.1,1.5,3.2,3,3.2c1.9,0,3-1.5,3-3.7c0-2.5-1.2-3.9-3-3.9
					C635.2,364.3,633.9,365.4,633.7,367.6z"/>
				<path id="XMLID_8208_" class="st1" d="M652.2,368.1c0,0.2-0.1,0.3-0.3,0.3h-7.1c0,2.2,1.2,3.6,3.1,3.6c1.1,0,1.9-0.4,2.4-1.3
					c0.1-0.2,0.2-0.2,0.4-0.2h1c0.2,0,0.3,0.2,0.2,0.4c-0.8,1.7-2.3,2.7-4.1,2.7c-2.8,0-4.7-2.1-4.7-5.2c0-3.2,2-5.3,4.8-5.3
					C650.8,362.9,652.3,365.3,652.2,368.1z M644.9,367.1h5.6c-0.1-1.5-1-2.7-2.8-2.7C646,364.3,645,365.6,644.9,367.1z"/>
				<path id="XMLID_8206_" class="st1" d="M663.2,364.3c0,0.2-0.1,0.3-0.3,0.3h-1.8v8.4c0,0.2-0.1,0.3-0.3,0.3h-1.1
					c-0.2,0-0.3-0.1-0.3-0.3v-8.4h-1.5c-0.2,0-0.3-0.1-0.3-0.3v-0.8c0-0.2,0.1-0.3,0.3-0.3h1.5v-3.6c0-0.2,0.1-0.3,0.3-0.3h1
					c0.2,0,0.3,0.1,0.3,0.3v3.6h1.9c0.2,0,0.3,0.1,0.3,0.3L663.2,364.3L663.2,364.3z"/>
				<path id="XMLID_8204_" class="st1" d="M666.9,364.7c0.7-1,1.8-1.7,3.1-1.7c1.9,0,3.1,1.3,3.2,3.6v6.3c0,0.2-0.1,0.3-0.3,0.3
					h-1.1c-0.2,0-0.3-0.1-0.3-0.3V367c0-1.6-0.8-2.4-2-2.4c-1.4,0-2.5,1-2.7,3v5.4c0,0.2-0.1,0.3-0.3,0.3h-1.1
					c-0.2,0-0.3-0.1-0.3-0.3l0.1-13.6c0-0.2,0.1-0.3,0.3-0.3h1c0.2,0,0.3,0.1,0.3,0.3L666.9,364.7L666.9,364.7z"/>
				<path id="XMLID_8201_" class="st1" d="M684.5,368.1c0,0.2-0.1,0.3-0.3,0.3h-7.1c0,2.2,1.2,3.6,3.1,3.6c1.1,0,1.9-0.4,2.4-1.3
					c0.1-0.2,0.2-0.2,0.4-0.2h1c0.2,0,0.3,0.2,0.2,0.4c-0.8,1.7-2.3,2.7-4.1,2.7c-2.8,0-4.7-2.1-4.7-5.2c0-3.2,2-5.3,4.8-5.3
					C683.2,362.9,684.7,365.3,684.5,368.1z M677.2,367.1h5.6c-0.1-1.5-1-2.7-2.8-2.7C678.4,364.3,677.5,365.6,677.2,367.1z"/>
				<path id="XMLID_8198_" class="st1" d="M697.7,364.6L697.7,364.6l0.1-1.2c0-0.2,0.1-0.3,0.3-0.3h1c0.2,0,0.3,0.1,0.3,0.3l0.1,8.5
					c0,3.8-1.8,5.7-4.6,5.7c-2,0-3.3-0.9-4-2.5c-0.1-0.2,0-0.4,0.2-0.4h1c0.2,0,0.3,0.1,0.4,0.2c0.5,0.7,1.3,1.2,2.4,1.2
					c1.8,0,2.9-1,2.8-3.7v-0.5h-0.1c-0.7,0.9-1.6,1.3-2.8,1.3c-2.8,0-4.7-2-4.7-5.2c0-2.9,1.7-5.1,4.2-5.1
					C695.7,362.8,696.9,363.4,697.7,364.6z M691.8,368.2c0,2.2,1.1,3.5,3,3.5c1.6,0,2.8-0.9,3-2.8v-1.3c-0.2-2.1-1.5-3.3-3-3.3
					C693,364.3,691.8,365.8,691.8,368.2z"/>
				<path id="XMLID_8196_" class="st1" d="M707.4,364.3c0,0.2-0.1,0.3-0.3,0.3c-1.7,0.1-2.9,0.7-3.1,3v5.2c0,0.2-0.1,0.3-0.3,0.3
					h-1.1c-0.2,0-0.3-0.1-0.3-0.3l0.1-9.5c0-0.2,0.1-0.3,0.3-0.3h1c0.2,0,0.3,0.1,0.3,0.3v1.3h0.1c0.7-1,1.7-1.7,3-1.8
					c0.2,0,0.3,0.1,0.3,0.3V364.3z"/>
				<path id="XMLID_8193_" class="st1" d="M717.8,368.1c0,0.2-0.1,0.3-0.3,0.3h-7.1c0,2.2,1.2,3.6,3.1,3.6c1.1,0,1.9-0.4,2.4-1.3
					c0.1-0.2,0.2-0.2,0.4-0.2h1c0.2,0,0.3,0.2,0.2,0.4c-0.8,1.7-2.3,2.7-4.1,2.7c-2.8,0-4.7-2.1-4.7-5.2c0-3.2,2-5.3,4.8-5.3
					C716.4,362.9,717.9,365.3,717.8,368.1z M710.5,367.1h5.6c-0.1-1.5-1-2.7-2.8-2.7C711.7,364.3,710.8,365.6,710.5,367.1z"/>
				<path id="XMLID_8190_" class="st1" d="M727.9,366.3l0.1,6.6c0,0.2-0.1,0.3-0.3,0.3h-1.1c-0.2,0-0.3-0.1-0.3-0.3v-1.3h-0.1
					c-0.7,1-1.9,1.8-3.5,1.8c-1.8,0-3.1-1-3.1-2.8c0-2.1,1.6-3,5.3-3.4c0.9-0.1,1.4-0.4,1.4-1.1c0-1-0.8-1.8-2.3-1.8
					c-1.2,0-2,0.5-2.3,1.4c-0.1,0.2-0.2,0.2-0.3,0.2h-1c-0.2,0-0.3-0.1-0.3-0.3c0.4-1.7,1.8-2.8,4-2.8
					C726.4,362.8,727.9,364.2,727.9,366.3z M726,368.2c-0.3,0.2-0.8,0.3-1.5,0.3c-2.3,0.3-3.5,0.8-3.5,2c0,1,0.7,1.5,1.8,1.5
					c1.9,0,3.2-1.3,3.3-2.4L726,368.2L726,368.2z"/>
				<path id="XMLID_8188_" class="st1" d="M735.5,364.3c0,0.2-0.1,0.3-0.3,0.3h-1.8v8.4c0,0.2-0.1,0.3-0.3,0.3H732
					c-0.2,0-0.3-0.1-0.3-0.3v-8.4h-1.5c-0.2,0-0.3-0.1-0.3-0.3v-0.8c0-0.2,0.1-0.3,0.3-0.3h1.5v-3.6c0-0.2,0.1-0.3,0.3-0.3h1
					c0.2,0,0.3,0.1,0.3,0.3v3.6h1.9c0.2,0,0.3,0.1,0.3,0.3V364.3z"/>
				<path id="XMLID_8185_" class="st1" d="M745.9,368.1c0,0.2-0.1,0.3-0.3,0.3h-7.1c0,2.2,1.2,3.6,3.1,3.6c1.1,0,1.9-0.4,2.4-1.3
					c0.1-0.2,0.2-0.2,0.4-0.2h1c0.2,0,0.3,0.2,0.2,0.4c-0.8,1.7-2.3,2.7-4.1,2.7c-2.8,0-4.7-2.1-4.7-5.2c0-3.2,2-5.3,4.8-5.3
					C744.5,362.9,746,365.3,745.9,368.1z M738.5,367.1h5.6c-0.1-1.5-1-2.7-2.8-2.7C739.8,364.3,738.9,365.6,738.5,367.1z"/>
				<path id="XMLID_8183_" class="st1" d="M755.5,365.3c0.1,0.2,0,0.3-0.2,0.3h-1c-0.2,0-0.3-0.1-0.4-0.2c-0.5-0.7-1.2-1.2-2.4-1.2
					s-2,0.6-2,1.4s0.8,1.1,2.2,1.5l0.8,0.2c2.3,0.7,3.2,1.6,3.2,2.9c0,1.9-1.5,3-3.9,3c-2.3,0-3.7-1.2-4.3-2.8
					c-0.1-0.2,0-0.3,0.2-0.3h1.1c0.2,0,0.3,0.1,0.4,0.2c0.5,1,1.4,1.4,2.6,1.4c1.2,0,2.1-0.4,2.1-1.4c0-0.8-0.7-1.3-2.3-1.7
					l-0.8-0.2c-1.8-0.5-3.1-1.2-3.1-2.8c0-1.7,1.6-2.9,3.7-2.9C754,362.8,755.2,364.3,755.5,365.3z"/>
				<path id="XMLID_8181_" class="st1" d="M762.9,364.3c0,0.2-0.1,0.3-0.3,0.3h-1.8v8.4c0,0.2-0.1,0.3-0.3,0.3h-1.1
					c-0.2,0-0.3-0.1-0.3-0.3v-8.4h-1.5c-0.2,0-0.3-0.1-0.3-0.3v-0.8c0-0.2,0.1-0.3,0.3-0.3h1.5v-3.6c0-0.2,0.1-0.3,0.3-0.3h1
					c0.2,0,0.3,0.1,0.3,0.3v3.6h1.9c0.2,0,0.3,0.1,0.3,0.3L762.9,364.3L762.9,364.3z"/>
				<path id="XMLID_8179_" class="st1" d="M551,388.2c0.1,0.2,0,0.3-0.2,0.3h-1c-0.2,0-0.3-0.1-0.4-0.2c-0.5-0.7-1.2-1.2-2.4-1.2
					s-2,0.6-2,1.4s0.8,1.1,2.2,1.5l0.8,0.2c2.3,0.7,3.2,1.6,3.2,2.9c0,1.9-1.5,3-3.9,3c-2.3,0-3.7-1.2-4.3-2.8
					c-0.1-0.2,0-0.3,0.2-0.3h1.1c0.2,0,0.3,0.1,0.4,0.2c0.5,1,1.4,1.4,2.6,1.4s2.1-0.4,2.1-1.4c0-0.8-0.7-1.3-2.3-1.7l-0.8-0.2
					c-1.8-0.5-3.1-1.2-3.1-2.8c0-1.7,1.6-2.9,3.7-2.9C549.4,385.7,550.5,387.1,551,388.2z"/>
				<path id="XMLID_8177_" class="st1" d="M561.5,395.8c0,0.2-0.1,0.3-0.3,0.3h-1.1c-0.2,0-0.3-0.1-0.3-0.3v-1.2h-0.1
					c-0.7,1.1-1.8,1.7-3.1,1.7c-1.9,0-3.2-1.3-3.2-3.8v-6.2c0-0.2,0.1-0.3,0.3-0.3h1c0.2,0,0.3,0.1,0.3,0.3v5.8c0,1.8,0.8,2.6,2,2.6
					c1.4,0,2.5-1,2.7-3.1v-5.4c0-0.2,0.1-0.3,0.3-0.3h1c0.2,0,0.3,0.1,0.3,0.3L561.5,395.8z"/>
				<path id="XMLID_8175_" class="st1" d="M572.5,388.6c0.1,0.2-0.1,0.3-0.3,0.3h-1c-0.2,0-0.3-0.1-0.4-0.2c-0.5-1-1.3-1.5-2.5-1.5
					c-1.9,0-3,1.3-3,3.9c0,2.5,1.1,3.7,3.1,3.7c1.3,0,2-0.6,2.4-1.4c0.1-0.2,0.2-0.2,0.4-0.2h1c0.2,0,0.3,0.1,0.2,0.3
					c-0.5,1.4-1.9,2.8-4.1,2.8c-2.8,0-4.6-2.1-4.6-5.2c0-3.3,1.9-5.4,4.6-5.4C570.7,385.7,572,387.1,572.5,388.6z"/>
				<path id="XMLID_8173_" class="st1" d="M582.7,388.6c0.1,0.2-0.1,0.3-0.3,0.3h-1c-0.2,0-0.3-0.1-0.4-0.2c-0.5-1-1.3-1.5-2.5-1.5
					c-1.9,0-3,1.3-3,3.9c0,2.5,1.1,3.7,3.1,3.7c1.3,0,2-0.6,2.4-1.4c0.1-0.2,0.2-0.2,0.4-0.2h1c0.2,0,0.3,0.1,0.2,0.3
					c-0.5,1.4-1.9,2.8-4.1,2.8c-2.8,0-4.6-2.1-4.6-5.2c0-3.3,1.9-5.4,4.6-5.4C580.8,385.7,582.2,387.1,582.7,388.6z"/>
				<path id="XMLID_8170_" class="st1" d="M593,390.8c0,0.2-0.1,0.3-0.3,0.3h-7.1c0,2.2,1.2,3.6,3.1,3.6c1.1,0,1.9-0.4,2.4-1.3
					c0.1-0.2,0.2-0.2,0.4-0.2h1c0.2,0,0.3,0.2,0.2,0.4c-0.8,1.7-2.3,2.7-4.1,2.7c-2.8,0-4.7-2.1-4.7-5.2c0-3.2,2-5.3,4.8-5.3
					C591.7,385.8,593.2,388.1,593,390.8z M585.8,389.8h5.6c-0.1-1.5-1-2.7-2.8-2.7C587,387.2,586,388.3,585.8,389.8z"/>
				<path id="XMLID_8168_" class="st1" d="M602.8,388.2c0.1,0.2,0,0.3-0.2,0.3h-1c-0.2,0-0.3-0.1-0.4-0.2c-0.5-0.7-1.2-1.2-2.4-1.2
					s-2,0.6-2,1.4s0.8,1.1,2.2,1.5l0.8,0.2c2.3,0.7,3.2,1.6,3.2,2.9c0,1.9-1.5,3-3.9,3c-2.3,0-3.7-1.2-4.3-2.8
					c-0.1-0.2,0-0.3,0.2-0.3h1.1c0.2,0,0.3,0.1,0.4,0.2c0.5,1,1.4,1.4,2.6,1.4c1.2,0,2.1-0.4,2.1-1.4c0-0.8-0.7-1.3-2.3-1.7
					l-0.8-0.2c-1.8-0.5-3.1-1.2-3.1-2.8c0-1.7,1.6-2.9,3.7-2.9C601.2,385.7,602.4,387.1,602.8,388.2z"/>
				<path id="XMLID_8166_" class="st1" d="M612.5,388.2c0.1,0.2,0,0.3-0.2,0.3h-1c-0.2,0-0.3-0.1-0.4-0.2c-0.5-0.7-1.2-1.2-2.4-1.2
					s-2,0.6-2,1.4s0.8,1.1,2.2,1.5l0.8,0.2c2.3,0.7,3.2,1.6,3.2,2.9c0,1.9-1.5,3-3.9,3c-2.3,0-3.7-1.2-4.3-2.8
					c-0.1-0.2,0-0.3,0.2-0.3h1.1c0.2,0,0.3,0.1,0.4,0.2c0.5,1,1.4,1.4,2.6,1.4c1.2,0,2.1-0.4,2.1-1.4c0-0.8-0.7-1.3-2.3-1.7
					l-0.8-0.2c-1.8-0.5-3.1-1.2-3.1-2.8c0-1.7,1.6-2.9,3.7-2.9C611,385.7,612.3,387.1,612.5,388.2z"/>
				<path id="XMLID_8163_" class="st1" d="M628,390.8c0,3.1-2.1,5.4-4.8,5.4s-4.7-2.2-4.7-5.2c0-3.2,2.1-5.3,4.8-5.3
					C626,385.7,628,387.8,628,390.8z M620,390.8c0,2.4,1.4,3.9,3.2,3.9s3-1.5,3-3.7c0-2.4-1.4-3.9-3.2-3.9
					C621.4,387.2,620,388.6,620,390.8z"/>
				<path id="XMLID_8161_" class="st1" d="M635.5,383.1c0,0.2-0.1,0.3-0.3,0.3c-1.7,0-2.5,0.3-2.5,2.3v0.3h2.4
					c0.2,0,0.3,0.1,0.3,0.3v0.8c0,0.2-0.1,0.3-0.3,0.3h-2.4l0.1,8.4c0,0.2-0.1,0.3-0.3,0.3h-1.1c-0.2,0-0.3-0.1-0.3-0.3l0.1-8.4
					h-1.3c-0.2,0-0.3-0.1-0.3-0.3v-0.8c0-0.2,0.1-0.3,0.3-0.3h1.3v-0.2c0-3.2,1.7-4,4.1-3.9c0.2,0,0.3,0.1,0.3,0.3L635.5,383.1
					L635.5,383.1z"/>
				<path id="XMLID_8159_" class="st1" d="M643,387.4c0.7-1,1.8-1.7,3.1-1.7c1.9,0,3.1,1.3,3.2,3.6v6.3c0,0.2-0.1,0.3-0.3,0.3H648
					c-0.2,0-0.3-0.1-0.3-0.3v-5.9c0-1.6-0.8-2.4-2-2.4c-1.4,0-2.5,1-2.7,3v5.4c0,0.2-0.1,0.3-0.3,0.3h-1.1c-0.2,0-0.3-0.1-0.3-0.3
					l0.1-13.6c0-0.2,0.1-0.3,0.3-0.3h1c0.2,0,0.3,0.1,0.3,0.3L643,387.4L643,387.4z"/>
				<path id="XMLID_8156_" class="st1" d="M654,395.8c0,0.2-0.1,0.3-0.3,0.3h-1.1c-0.2,0-0.3-0.1-0.3-0.3l0.1-9.5
					c0-0.2,0.1-0.3,0.3-0.3h1c0.2,0,0.3,0.1,0.3,0.3V395.8z M654,383.4c0,0.2-0.1,0.3-0.3,0.3h-1c-0.2,0-0.3-0.1-0.3-0.3v-1.3
					c0-0.2,0.1-0.3,0.3-0.3h1c0.2,0,0.3,0.1,0.3,0.3V383.4z"/>
				<path id="XMLID_8154_" class="st1" d="M664.5,388.2c0.1,0.2,0,0.3-0.2,0.3h-1c-0.2,0-0.3-0.1-0.4-0.2c-0.5-0.7-1.2-1.2-2.4-1.2
					s-2,0.6-2,1.4s0.8,1.1,2.2,1.5l0.8,0.2c2.3,0.7,3.2,1.6,3.2,2.9c0,1.9-1.5,3-3.9,3c-2.3,0-3.7-1.2-4.3-2.8
					c-0.1-0.2,0-0.3,0.2-0.3h1.1c0.2,0,0.3,0.1,0.4,0.2c0.5,1,1.4,1.4,2.6,1.4c1.2,0,2.1-0.4,2.1-1.4c0-0.8-0.7-1.3-2.3-1.7
					l-0.8-0.2c-1.8-0.5-3.1-1.2-3.1-2.8c0-1.7,1.6-2.9,3.7-2.9C663,385.7,664.2,387.1,664.5,388.2z"/>
				<path id="XMLID_8152_" class="st1" d="M673,395.8c0,0.2-0.1,0.3-0.3,0.3h-1.1c-0.2,0-0.3-0.1-0.3-0.3l0.1-13.6
					c0-0.2,0.1-0.3,0.3-0.3h1c0.2,0,0.3,0.1,0.3,0.3V395.8z"/>
				<path id="XMLID_8149_" class="st1" d="M678.3,395.8c0,0.2-0.1,0.3-0.3,0.3h-1.1c-0.2,0-0.3-0.1-0.3-0.3l0.1-9.5
					c0-0.2,0.1-0.3,0.3-0.3h1c0.2,0,0.3,0.1,0.3,0.3V395.8z M678.3,383.4c0,0.2-0.1,0.3-0.3,0.3h-1c-0.2,0-0.3-0.1-0.3-0.3v-1.3
					c0-0.2,0.1-0.3,0.3-0.3h1c0.2,0,0.3,0.1,0.3,0.3V383.4z"/>
				<path id="XMLID_8147_" class="st1" d="M686.5,383.1c0,0.2-0.1,0.3-0.3,0.3c-1.7,0-2.5,0.3-2.5,2.3v0.3h2.4
					c0.2,0,0.3,0.1,0.3,0.3v0.8c0,0.2-0.1,0.3-0.3,0.3h-2.4l0.1,8.4c0,0.2-0.1,0.3-0.3,0.3h-1.1c-0.2,0-0.3-0.1-0.3-0.3l0.1-8.4
					h-1.3c-0.2,0-0.3-0.1-0.3-0.3v-0.8c0-0.2,0.1-0.3,0.3-0.3h1.3v-0.2c0-3.2,1.7-4,4.1-3.9c0.2,0,0.3,0.1,0.3,0.3L686.5,383.1
					L686.5,383.1z"/>
				<path id="XMLID_8144_" class="st1" d="M696.9,390.8c0,0.2-0.1,0.3-0.3,0.3h-7.1c0,2.2,1.2,3.6,3.1,3.6c1.1,0,1.9-0.4,2.4-1.3
					c0.1-0.2,0.2-0.2,0.4-0.2h1c0.2,0,0.3,0.2,0.2,0.4c-0.8,1.7-2.3,2.7-4.1,2.7c-2.8,0-4.7-2.1-4.7-5.2c0-3.2,2-5.3,4.8-5.3
					C695.5,385.8,697,388.1,696.9,390.8z M689.5,389.8h5.6c-0.1-1.5-1-2.7-2.8-2.7C690.8,387.2,689.8,388.3,689.5,389.8z"/>
				<path id="XMLID_8142_" class="st1" d="M701.5,395.7c0,0.2-0.1,0.3-0.3,0.3H700c-0.2,0-0.3-0.1-0.3-0.3v-1.4
					c0-0.2,0.1-0.3,0.3-0.3h1.3c0.2,0,0.3,0.1,0.3,0.3L701.5,395.7L701.5,395.7z"/>
			</g>
		</g>
	</g>
	<g id="frogLine">
		<line id="XMLID_53_" class="st2" x1="461" y1="424.8" x2="818" y2="424.8"/>
	</g>
</g>
</svg>
