<?xml version="1.0" encoding="utf-8"?>
<!-- Generator: Adobe Illustrator 19.0.0, SVG Export Plug-In . SVG Version: 6.00 Build 0)  -->
<svg version="1.1" id="frog_1_" xmlns="http://www.w3.org/2000/svg" xmlns:xlink="http://www.w3.org/1999/xlink" x="0px" y="0px"
	 viewBox="0 0 100 96" style="enable-background:new 0 0 100 96;" xml:space="preserve">
<style type="text/css">
	.st0{fill:#6B3100;}
	.st1{fill:#531F00;}
	.st2{fill:#8D5F26;}
	.st3{fill:#FFFFFF;}
	.st4{fill:#332D2A;}
</style>
<g id="body">
	<path id="XMLID_238_" class="st0" d="M26,62.5c0,0-14.7-7.3-16.8,3.9C7,77.6,15.7,81.7,15.7,81.7s-17.5,1.1-15.5,8.6h37.3L26,62.5z
		"/>
	<path id="XMLID_237_" class="st1" d="M26,62.5c0,0-5.4-2.7-10.1-2.3c-1.6,1.9-5.5,7.7-1.7,13.6c4.7,7.1,8.3,11.8,8.3,11.8
		S2,84.5,0.2,90.4h37.3L26,62.5z"/>
	<path id="XMLID_236_" class="st0" d="M72.5,62.5c0,0,14.7-7.3,16.8,3.9c2.2,11.2-6.5,15.3-6.5,15.3s17.5,1.1,15.5,8.6H61L72.5,62.5
		z"/>
	<path id="XMLID_235_" class="st1" d="M72.5,62.5c0,0,5.4-2.7,10.1-2.3c1.6,1.9,5.5,7.7,1.7,13.6C79.6,80.9,76,85.6,76,85.6
		s20.5-1.1,22.3,4.8H61L72.5,62.5z"/>
	<path id="XMLID_234_" class="st0" d="M25.5,57.8c0,0-0.6,33.4,23.3,33.8c23.9,0.3,27-28.1,26.3-34C74.4,51.7,25.5,58.4,25.5,57.8z"
		/>
	<path id="XMLID_233_" class="st2" d="M25.5,57.5c0,0-0.6,29.6,23.3,29.9c23.9,0.3,27-24.9,26.3-30C74.4,52.1,25.5,58,25.5,57.5z"/>
	<path id="XMLID_232_" class="st0" d="M16.4,56.3c0,0,2.4,23.5,12.7,30c0,0-5,4.3-2.2,5.8s7.1-1.5,7.1-1.5s-1.5,5.2,0.9,5.4
		c2.4,0.2,4.5-4.5,4.5-4.5s2.8,3.7,5.8,1.7c3-1.9-5.6-8.4-5.6-8.4s-10.4-7.5-8-23.5L16.4,56.3z"/>
	<path id="XMLID_231_" class="st1" d="M45.3,93.1c3-1.9-5.6-8.4-5.6-8.4s-10.4-7.5-8-23.5l-6.5-2.1c0.5,4.5,1.8,14.2,5.4,19.4
		c4.7,6.9,9.3,7.5,10.8,9.7S37.7,88,37.7,88s-0.4,5.7-3.5,7.7c0.2,0.1,0.4,0.2,0.7,0.3c2.4,0.2,4.5-4.5,4.5-4.5S42.3,95.1,45.3,93.1
		z"/>
	<path id="XMLID_191_" class="st0" d="M82.6,56.3c0,0-2.4,23.5-12.7,30c0,0,5,4.3,2.2,5.8S65,90.6,65,90.6s1.5,5.2-0.9,5.4
		c-2.4,0.2-4.5-4.5-4.5-4.5s-2.8,3.7-5.8,1.7c-3-1.9,5.6-8.4,5.6-8.4s10.4-7.5,8-23.5L82.6,56.3z"/>
	<path id="XMLID_190_" class="st1" d="M53.7,93.1c-3-1.9,5.6-8.4,5.6-8.4s10.4-7.5,8-23.5l6.5-2.1c-0.5,4.5-1.8,14.2-5.4,19.4
		c-4.7,6.9-9.3,7.5-10.8,9.7c-1.5,2.2,3.7-0.2,3.7-0.2s0.4,5.7,3.5,7.7c-0.2,0.1-0.4,0.2-0.7,0.3c-2.4,0.2-4.5-4.5-4.5-4.5
		S56.7,95.1,53.7,93.1z"/>
	<path id="XMLID_189_" class="st0" d="M45.4,11.8c0,0-1.7-13.8-14.2-11.5S18.7,18.1,18.7,18.1S2.5,23,3.8,40.6S22.1,65.4,52.5,65
		C82.9,64.7,99,50.9,100,38.5c1-12.4-16.8-20.9-16.8-20.9S82.6,3.2,71.3,2.9s-13.8,8.9-13.8,8.9S48.8,10.3,45.4,11.8z"/>
	<path id="XMLID_188_" class="st1" d="M100,38.5c1-12.5-16.8-20.9-16.8-20.9S82.6,4.5,72.7,3c3.1,3,8.9,6,7.6,17.5
		c0,0,11.2,1.7,10.7,21.4c-0.5,17-57.6,31.5-82.8,10.8c7,8.9,22,12.6,44.2,12.4C82.9,64.7,99.1,50.9,100,38.5z"/>
</g>
<g id="leftEye_2_">
	<ellipse id="XMLID_85_" class="st3" cx="32.3" cy="15.2" rx="7.2" ry="6.6"/>
	<ellipse id="XMLID_84_" class="st4" cx="32.3" cy="15.2" rx="4.2" ry="3.8"/>
	<ellipse id="XMLID_83_" class="st3" cx="31.2" cy="13.9" rx="1.6" ry="1.4"/>
</g>
<g id="leftEye_1_">
	<ellipse id="XMLID_82_" class="st3" cx="69.9" cy="15.2" rx="7.2" ry="6.6"/>
	<ellipse id="XMLID_81_" class="st4" cx="69.9" cy="15.2" rx="4.2" ry="3.8"/>
	<ellipse id="XMLID_80_" class="st3" cx="68.7" cy="13.9" rx="1.6" ry="1.4"/>
</g>
</svg>
