<?xml version="1.0" encoding="utf-8"?>
<!-- Generator: Adobe Illustrator 19.0.0, SVG Export Plug-In . SVG Version: 6.00 Build 0)  -->
<svg version="1.1" id="hat_1_" xmlns="http://www.w3.org/2000/svg" xmlns:xlink="http://www.w3.org/1999/xlink" x="0px" y="0px"
	 viewBox="0 0 264 240" style="enable-background:new 0 0 264 240;" xml:space="preserve">
<style type="text/css">
	.st0{fill:#FCB94D;}
	.st1{fill:#BF6616;}
</style>
<g id="hat">
	<g id="XMLID_139_">
		<path id="XMLID_205_" class="st0" d="M7.7,207.4c5,8.6,31,26.3,48.7,29.3c16.9,2.9,76.6,6.6,117-1.9c39.8-8.4,83.7-29.5,88.5-42.5
			c5.5-15-0.2-31.2-15.7-44.3c-15.9-13.7-38.9-24.1-58.1-26.4c1.4,3.6,0.3,8.1-0.7,12.4c-0.9,3.6-1.8,7.4-1.3,10.5
			c0.8,4.6,3.6,7.3,6,9.7c1.3,1.3,2.6,2.5,3.4,3.9c3.6,0.6,6.3,3.7,7.5,8.6c1.8,7.2-0.2,17.2-6.7,21.4c-11,7.1-34.5,15.3-60.3,16.6
			c-3,0.2-6,0.2-9,0.2c-23.5,0-47-4.5-59.6-11.6c-14.4-8.2-13.4-15.6-12.3-22.8c1-6.7,4.9-9.3,6.5-10c1.5-5,6.5-8.1,10.1-10.4
			c2.1-1.3,4.5-2.8,4.1-3.6c-2.7-4.5-3.2-14.4-1.7-20.2c0.5-1.9,1.4-3.4,2.4-4.6c-11.4,2.2-41.1,9.4-61.3,28.4
			C-6.7,170.8-1,192.7,7.7,207.4z"/>
		<path id="XMLID_204_" class="st1" d="M182,189.5c-0.2-3.3-1.3-6.6-2.4-7.1c-0.2-0.1-0.5-0.1-0.8-0.1c-1.3,0-3.2,0.7-4.5,1.2
			c-0.7,0.2-1.2,0.4-1.7,0.6c-2.2,0.6-5.3,1.5-6.1,2.9c-0.2,0.3-0.3,0.8,0,1.8c0.1,0.3,0.2,0.8,0.3,1.3c0.7,3,1.3,3.8,1.6,3.9l0,0
			C180.3,191.6,181.9,189.7,182,189.5z"/>
		<path id="XMLID_203_" class="st1" d="M141.3,163.7c-1.2,0.2-2.4,0.2-3.7,0.2c-8.4,0-17.9-3.2-25.3-6.4c5.4,3.4,11.7,6.8,17.2,8.9
			c5,1.9,9.2,2.8,13,2.8c5.5,0,10-2,13.8-6c4.3-4.6,8.5-9.5,11.5-12.9c-1.1,0.8-2.3,1.7-3.5,2.6C158.8,157,151.9,162.3,141.3,163.7z
			"/>
		<path id="XMLID_202_" class="st1" d="M166.1,183.7c-9.6,2.4-21.9,4.3-36.8,4.3l0,0c-4.3,0-8.8-0.2-13.2-0.5
			c-25.8-2-45.4-8.8-52.4-18.4c-1.4-1.9-2.1-3.8-2.3-5.6c-1.3,1.1-3,3.2-3.6,7.1c-1,7.2-1.8,12.8,11.1,20.2
			c13.6,7.8,41.2,12.3,67.2,11c12.1-0.6,23.6-2.8,33.6-5.6c-0.2,0-0.4,0.1-0.6,0.1c-0.2,0-0.3,0-0.5,0l0,0c-2.6,0-3.5-3.5-4-5.8
			c-0.1-0.4-0.2-0.8-0.3-1.1c-0.5-1.5-0.4-2.8,0.2-3.9C164.7,184.9,165.3,184.3,166.1,183.7z"/>
		<path id="XMLID_201_" class="st1" d="M118.7,131.7c2.7,0,4.9-0.8,6.1-2.1c0.7-0.8,1-1.8,0.9-3c-0.4-3.4-1.6-3.6-7.9-4.1
			c-1.5-0.1-3.2-0.2-5.1-0.5c-6.4-0.7-13.7-5.4-18.2-8.9C101.9,126.8,111.9,131.7,118.7,131.7z"/>
		<path id="XMLID_195_" class="st0" d="M78.1,145c1.8,2.9-1.5,4.9-4.9,7.1c-3.6,2.3-8.1,5.1-9.2,9.5c-0.5,1.9,0.1,4,1.7,6.2
			c5,6.9,20.9,15.1,50.5,17.3c4.4,0.3,8.7,0.5,13,0.5c34.2,0,54.7-10.3,58.6-12.3c7-3.8,7.4-9.7,5.6-13.6c-0.6-1.2-1.8-2.4-3.2-3.8
			c-2.6-2.5-5.7-5.6-6.7-11.1c-0.7-3.6,0.3-7.6,1.3-11.5c1.2-5,2.4-9.7-0.2-12.5c-1.5-1.6-3.1-2.9-4.7-4.2c-3.8-3-7.3-5.9-7.1-12.2
			c0.1-3.5,1-6.2,1.8-8.6c1.1-3.2,1.9-5.4,0.2-8.5c-1.1-2.1-3.1-3.8-5.2-5.7c-3.4-3-7.4-6.4-7.2-11.9c0.3-8,0.5-11.4,2.3-15.2
			c0.5-1.1-2.3-3.5-4.4-5.2c-2.3-2-4.7-4-5.7-6.2c-0.3-0.8-0.7-1.5-1-2.1c-1.5-3-2.6-5.4,0.3-9.6c2.1-3.1,4.9-3.9,7.7-4.7
			c1.6-0.5,3.3-1,5-1.9c4.5-2.7,6.8-4,7.8-11.3c0.7-5.3-3.7-9.1-7.3-12.2c-0.6-0.5-1.2-1.1-1.8-1.5v0.1c-0.2,4-0.6,13.5-9.7,13.5
			l0,0c-0.3,0-0.5,0-0.8,0c-4.1-0.2-7.6-1.1-10.9-1.8c-3.3-0.8-6.4-1.5-9.7-1.5c-3.9,0-7.8,1-12.1,3.2c-12.3,6.3-13.2,19-10.3,28
			c2.3,7.2,6.8,24.4-2.2,28.3c-3.2,1.4-5.6,2-7.6,2.6c-2.7,0.7-3.9,1.1-4.4,2.3c-0.5,0.9-0.7,2.3-0.9,3.6c-0.4,2.6-0.9,5.6-3.4,6.5
			c-2.6,1-8.4,6.3-7.2,10.8c1.4,5.4,2,19.8-0.5,22.6c-0.7,0.8-1.7,1.4-2.9,2.2c-0.3,0.2-0.6,0.4-0.9,0.6l0,0
			c-2.1,1.4-4.3,3.1-5.1,6.1C75.3,132.5,76,141.5,78.1,145z M173.5,147.4c-0.1,0.1-7.7,9.4-15.3,17.5c-4.3,4.6-9.4,6.8-15.7,6.8
			c-4.1,0-8.6-1-13.9-3c-10.6-4-24.3-12.8-29.4-18c-0.5-0.5-0.5-1.2-0.1-1.7s1.1-0.6,1.7-0.3c0.2,0.1,21.1,12.6,36.9,12.6
			c1.2,0,2.3-0.1,3.4-0.2c9.8-1.3,16.4-6.3,21.7-10.3c3.5-2.7,6.5-5,9.6-5.5c0.5-0.1,1,0.2,1.3,0.6
			C173.9,146.4,173.9,147,173.5,147.4z M157.1,118.2c0.5,0,0.9,0.1,1.4,0.1c9.3,0,12.7-8.3,12.9-8.6c0.2-0.6,0.8-0.9,1.4-0.8
			c0.6,0.1,1,0.6,1.1,1.2c0.2,4.6-1.8,11.4-6.5,16.3c-3.8,3.9-8.7,6-14.3,6l0,0c-0.3,0-0.6,0-0.9,0c-8.3-0.3-9.1-4.1-9-5.7
			C143,122.4,149.2,117.6,157.1,118.2z M130,148.2c0.1,0.1,4.2,4.6,15.9-2.7l2.3-1.4c10.1-6.3,10.3-6.4,15.7-6.2l1.2,0.1
			c0.7,0,1.3,0.6,1.2,1.3c0,0.7-0.6,1.3-1.3,1.2l-1.2-0.1c-4.6-0.2-4.6-0.2-14.2,5.8l-2.3,1.4c-5.6,3.5-9.8,4.6-12.9,4.6
			c-4.4,0-6.3-2.3-6.4-2.4c-0.4-0.6-0.3-1.4,0.2-1.8C128.8,147.6,129.6,147.7,130,148.2z M90,107.4c0.5-0.4,1.2-0.3,1.6,0.1
			c0.1,0.1,12.1,10.9,21.3,11.9c1.9,0.2,3.6,0.3,5,0.5c6.1,0.5,9.5,0.7,10.2,6.4c0.2,1.9-0.3,3.6-1.5,5c-1.7,1.9-4.5,3-8,3
			c-8.5,0-21.2-6.6-29.1-25.3C89.4,108.4,89.5,107.8,90,107.4z"/>
		<path id="XMLID_194_" class="st1" d="M189.1,175.4c-1.3,0.7-4.6,2.4-9.7,4.3c0.5,0,1,0.1,1.4,0.3c3.5,1.6,3.9,9.1,3.9,9.4
			c0,0.4,0,1-0.6,1.8c4.4-1.8,8.1-3.7,10.9-5.6c5.4-3.5,7.1-12.4,5.6-18.6c-0.4-1.5-1.4-4.7-3.9-6.1
			C197.7,166,195.8,171.7,189.1,175.4z"/>
		<path id="XMLID_140_" class="st1" d="M152.2,129.8c5.3,0.2,9.7-1.6,13.3-5.2c2.6-2.7,4.3-6.1,5.1-9.2c-2.4,2.7-6.3,5.4-12.1,5.4
			l0,0c-0.5,0-1,0-1.6-0.1c-0.4,0-0.8,0-1.2,0c-5.8,0-10.1,3.6-10.1,6C145.5,128.4,148,129.6,152.2,129.8z"/>
	</g>
</g>
</svg>
