<?xml version="1.0" encoding="utf-8"?>
<!-- Generator: Adobe Illustrator 19.0.0, SVG Export Plug-In . SVG Version: 6.00 Build 0)  -->
<svg version="1.1" id="owl" xmlns="http://www.w3.org/2000/svg" xmlns:xlink="http://www.w3.org/1999/xlink" x="0px" y="0px"
	 viewBox="-230 309 150 175" style="enable-background:new -230 309 150 175;" xml:space="preserve">
<style type="text/css">
	.st0{fill:#604226;}
	.st1{fill:#B28047;}
	.st2{fill:#B0A27F;}
	.st3{fill:#494444;}
	.st4{fill:#43403E;}
	.st5{fill:#FFFFFF;}
	.st6{fill:#332D2A;}
</style>
<g id="body">
	<path id="XMLID_533_" class="st0" d="M-102.5,362.6c4.5-4.1,10.8-1.7,14.5,2.2c8.1,8.4,9.1,24.8,7.3,35.3
		c-2.2,13.1-6.3,25.3-12.3,37.3c-3.8,7.7-8.2,19.1-14.2,25.5c-3.6-21.8-3-43-2.7-65c0.1-8.8,0.3-16,2.2-24.4
		C-106.6,369.1-105.8,364-102.5,362.6z"/>
	<path id="XMLID_525_" class="st1" d="M-119.8,317.3c-12.5-12.3-54.8-8.7-68.3-3.5c-13.4,5.2-15.2,19.6-18.7,31.6
		c-5.2,17.6-5.6,35.2-6.6,53.3c-0.8,14.5-3.1,28.9,2.5,42.7c12.9,31.8,60.8,30.6,89.6,22.2c7.9-2.3,13.1-3.8,18.5-8.8
		c7.1-6.6,7.1-16.8,8.3-25.1c2.3-15.3,0.9-38.6-1.5-54c-2.4-15.7-7.1-30.4-14-44.9c-1.9-4.1-1.7-4.6-4.6-7.8
		C-116.4,321.2-122.7,313.2-119.8,317.3z"/>
	<path id="XMLID_524_" class="st2" d="M-148,328.8c-8.4-10.6-30.5-10.5-39.8-1.8c-10.9,10.2-16.3,31.3-0.6,40.3
		c13.1,7.4,28.9,6.1,43.7,6.5c9.9,0.3,22.6,1.2,31.2-4.1c5.1-3.1,5.2-10.2,5.8-15.2c0.9-7.6-0.6-15-5.3-21.4
		c-4.5-6.1-12.1-12.4-20.4-11.4C-138,322.2-146.2,325.7-148,328.8z"/>
	<path id="XMLID_523_" class="st3" d="M-146.8,348c2.6,1.3,3.3,4.1,2.5,6.8c-1,3.1-4.7,4.1-7.7,4c1.3-1.1,2.1-1.2,2-3
		c0-1.3-0.8-2.3-1.1-3.6c-0.3-1.1-0.5-2.8,0.6-3.5C-149.6,348.2-148.7,348-146.8,348z"/>
	<path id="XMLID_522_" class="st0" d="M-208.9,362.7c-4.7-3.9-10.8-1.2-14.4,2.8c-7.6,8.8-7.8,25.1-5.5,35.6
		c2.9,13,7.7,25,14.3,36.7c4.3,7.5,9.2,18.7,15.5,24.9c2.5-21.9,0.7-43.1-0.8-65c-0.6-8.8-1.1-16-3.5-24.3
		C-204.5,369-205.5,364-208.9,362.7z"/>
	<g id="XMLID_516_">
		<path id="XMLID_520_" class="st4" d="M-171.6,465.4c0.3-2.3-1-4.7-3.4-4.5c-3.9,0.3-2.8,6.2-2.9,9c-0.1,3.4,1.3,6.1,2.5,9.1
			c0.8,2,1.2,4.2,3.2,5.5c1-3.2,4.6-22.9-1.9-23.6"/>
		<path id="XMLID_519_" class="st4" d="M-164,465.4c0.3-2.3-1-4.7-3.4-4.5c-3.9,0.3-2.8,6.2-2.9,9c-0.1,3.4,1.3,6.1,2.5,9.1
			c0.8,2,1.2,4.2,3.2,5.5c1-3.2,4.6-22.9-1.9-23.6"/>
		<path id="XMLID_517_" class="st4" d="M-177.2,465.7c0.6-2.3-0.5-4.7-2.8-4.9c-3.9-0.2-3.6,5.8-4,8.6c-0.5,3.3,0.5,6.2,1.4,9.3
			c0.5,2.1,0.7,4.3,2.5,5.9c1.4-3.1,7.4-22.2,1-23.7"/>
	</g>
	<g id="XMLID_509_">
		<path id="XMLID_514_" class="st4" d="M-127.9,465.3c0.3-2.3-1-4.7-3.4-4.5c-3.9,0.3-2.8,6.2-2.9,9c-0.1,3.4,1.3,6.1,2.5,9.1
			c0.8,2,1.2,4.2,3.2,5.5c1-3.2,4.6-22.9-1.9-23.6"/>
		<path id="XMLID_513_" class="st4" d="M-120.2,465.3c0.3-2.3-1-4.7-3.4-4.5c-3.9,0.3-2.8,6.2-2.9,9c-0.1,3.4,1.3,6.1,2.5,9.1
			c0.8,2,1.2,4.2,3.2,5.5c1-3.2,4.6-22.9-1.9-23.6"/>
		<path id="XMLID_510_" class="st4" d="M-133.5,465.7c0.6-2.3-0.5-4.7-2.8-4.9c-3.9-0.2-3.6,5.8-4,8.6c-0.5,3.3,0.5,6.2,1.4,9.3
			c0.5,2.1,0.7,4.3,2.5,5.9c1.4-3.1,7.4-22.2,1-23.7"/>
	</g>
</g>
<g id="eyes">
	<g id="leftEye_2_">
		<ellipse id="XMLID_32_" class="st5" cx="-170.5" cy="340.3" rx="10.6" ry="9.8"/>
		<ellipse id="XMLID_31_" class="st6" cx="-170.5" cy="340.2" rx="6.2" ry="5.7"/>
		<ellipse id="XMLID_12_" class="st5" cx="-172.2" cy="338.3" rx="2.3" ry="2.1"/>
	</g>
	<g id="leftEye_1_">
		<ellipse id="XMLID_30_" class="st5" cx="-128.5" cy="340.3" rx="10.6" ry="9.8"/>
		<ellipse id="XMLID_15_" class="st6" cx="-128.5" cy="340.2" rx="6.2" ry="5.7"/>
		<ellipse id="XMLID_14_" class="st5" cx="-130.2" cy="338.3" rx="2.3" ry="2.1"/>
	</g>
</g>
</svg>
